<?xml version="1.0" encoding="utf-8"?>
<svg xmlns="http://www.w3.org/2000/svg" xmlns:xlink="http://www.w3.org/1999/xlink" width="528" height="336" viewBox="0 0 2112 1344">
<defs>
  <clipPath id="clip280">
    <rect x="0" y="0" width="2112" height="1344"/>
  </clipPath>
</defs>
<path clip-path="url(#clip280)" d="M0 1344 L2112 1344 L2112 2.13163e-14 L0 2.13163e-14  Z" fill="#ffffff" fill-rule="evenodd" fill-opacity="1"/>
<defs>
  <clipPath id="clip281">
    <rect x="227" y="47" width="1838" height="1127"/>
  </clipPath>
</defs>
<path clip-path="url(#clip280)" d="M227.349 1173.47 L2064.76 1173.47 L2064.76 47.2441 L227.349 47.2441  Z" fill="#ffffff" fill-rule="evenodd" fill-opacity="1"/>
<polyline clip-path="url(#clip281)" style="stroke:#000000; stroke-linecap:round; stroke-linejoin:round; stroke-width:2; stroke-opacity:0.1; fill:none" points="471.952,1173.47 471.952,47.2441 "/>
<polyline clip-path="url(#clip281)" style="stroke:#000000; stroke-linecap:round; stroke-linejoin:round; stroke-width:2; stroke-opacity:0.1; fill:none" points="857.152,1173.47 857.152,47.2441 "/>
<polyline clip-path="url(#clip281)" style="stroke:#000000; stroke-linecap:round; stroke-linejoin:round; stroke-width:2; stroke-opacity:0.1; fill:none" points="1242.35,1173.47 1242.35,47.2441 "/>
<polyline clip-path="url(#clip281)" style="stroke:#000000; stroke-linecap:round; stroke-linejoin:round; stroke-width:2; stroke-opacity:0.1; fill:none" points="1627.55,1173.47 1627.55,47.2441 "/>
<polyline clip-path="url(#clip281)" style="stroke:#000000; stroke-linecap:round; stroke-linejoin:round; stroke-width:2; stroke-opacity:0.1; fill:none" points="2012.75,1173.47 2012.75,47.2441 "/>
<polyline clip-path="url(#clip281)" style="stroke:#000000; stroke-linecap:round; stroke-linejoin:round; stroke-width:2; stroke-opacity:0.1; fill:none" points="227.349,921.951 2064.76,921.951 "/>
<polyline clip-path="url(#clip281)" style="stroke:#000000; stroke-linecap:round; stroke-linejoin:round; stroke-width:2; stroke-opacity:0.1; fill:none" points="227.349,640.185 2064.76,640.185 "/>
<polyline clip-path="url(#clip281)" style="stroke:#000000; stroke-linecap:round; stroke-linejoin:round; stroke-width:2; stroke-opacity:0.1; fill:none" points="227.349,358.419 2064.76,358.419 "/>
<polyline clip-path="url(#clip281)" style="stroke:#000000; stroke-linecap:round; stroke-linejoin:round; stroke-width:2; stroke-opacity:0.1; fill:none" points="227.349,76.6534 2064.76,76.6534 "/>
<polyline clip-path="url(#clip280)" style="stroke:#000000; stroke-linecap:round; stroke-linejoin:round; stroke-width:4; stroke-opacity:1; fill:none" points="227.349,1173.47 2064.76,1173.47 "/>
<polyline clip-path="url(#clip280)" style="stroke:#000000; stroke-linecap:round; stroke-linejoin:round; stroke-width:4; stroke-opacity:1; fill:none" points="471.952,1173.47 471.952,1154.57 "/>
<polyline clip-path="url(#clip280)" style="stroke:#000000; stroke-linecap:round; stroke-linejoin:round; stroke-width:4; stroke-opacity:1; fill:none" points="857.152,1173.47 857.152,1154.57 "/>
<polyline clip-path="url(#clip280)" style="stroke:#000000; stroke-linecap:round; stroke-linejoin:round; stroke-width:4; stroke-opacity:1; fill:none" points="1242.35,1173.47 1242.35,1154.57 "/>
<polyline clip-path="url(#clip280)" style="stroke:#000000; stroke-linecap:round; stroke-linejoin:round; stroke-width:4; stroke-opacity:1; fill:none" points="1627.55,1173.47 1627.55,1154.57 "/>
<polyline clip-path="url(#clip280)" style="stroke:#000000; stroke-linecap:round; stroke-linejoin:round; stroke-width:4; stroke-opacity:1; fill:none" points="2012.75,1173.47 2012.75,1154.57 "/>
<path clip-path="url(#clip280)" d="M466.604 1229.63 L482.924 1229.63 L482.924 1233.57 L460.98 1233.57 L460.98 1229.63 Q463.642 1226.88 468.225 1222.25 Q472.831 1217.59 474.012 1216.25 Q476.257 1213.73 477.137 1211.99 Q478.04 1210.23 478.04 1208.54 Q478.04 1205.79 476.095 1204.05 Q474.174 1202.32 471.072 1202.32 Q468.873 1202.32 466.419 1203.08 Q463.989 1203.84 461.211 1205.4 L461.211 1200.67 Q464.035 1199.54 466.489 1198.96 Q468.942 1198.38 470.979 1198.38 Q476.35 1198.38 479.544 1201.07 Q482.739 1203.75 482.739 1208.24 Q482.739 1210.37 481.928 1212.29 Q481.141 1214.19 479.035 1216.78 Q478.456 1217.46 475.354 1220.67 Q472.253 1223.87 466.604 1229.63 Z" fill="#000000" fill-rule="nonzero" fill-opacity="1" /><path clip-path="url(#clip280)" d="M860.161 1203.08 L848.356 1221.53 L860.161 1221.53 L860.161 1203.08 M858.935 1199.01 L864.814 1199.01 L864.814 1221.53 L869.745 1221.53 L869.745 1225.42 L864.814 1225.42 L864.814 1233.57 L860.161 1233.57 L860.161 1225.42 L844.56 1225.42 L844.56 1220.9 L858.935 1199.01 Z" fill="#000000" fill-rule="nonzero" fill-opacity="1" /><path clip-path="url(#clip280)" d="M1242.76 1214.42 Q1239.61 1214.42 1237.76 1216.58 Q1235.93 1218.73 1235.93 1222.48 Q1235.93 1226.21 1237.76 1228.38 Q1239.61 1230.53 1242.76 1230.53 Q1245.91 1230.53 1247.73 1228.38 Q1249.59 1226.21 1249.59 1222.48 Q1249.59 1218.73 1247.73 1216.58 Q1245.91 1214.42 1242.76 1214.42 M1252.04 1199.77 L1252.04 1204.03 Q1250.28 1203.2 1248.48 1202.76 Q1246.69 1202.32 1244.93 1202.32 Q1240.3 1202.32 1237.85 1205.44 Q1235.42 1208.57 1235.07 1214.89 Q1236.44 1212.87 1238.5 1211.81 Q1240.56 1210.72 1243.04 1210.72 Q1248.24 1210.72 1251.25 1213.89 Q1254.29 1217.04 1254.29 1222.48 Q1254.29 1227.8 1251.14 1231.02 Q1247.99 1234.24 1242.76 1234.24 Q1236.76 1234.24 1233.59 1229.65 Q1230.42 1225.05 1230.42 1216.32 Q1230.42 1208.13 1234.31 1203.27 Q1238.2 1198.38 1244.75 1198.38 Q1246.51 1198.38 1248.29 1198.73 Q1250.1 1199.08 1252.04 1199.77 Z" fill="#000000" fill-rule="nonzero" fill-opacity="1" /><path clip-path="url(#clip280)" d="M1627.55 1217.15 Q1624.22 1217.15 1622.3 1218.94 Q1620.4 1220.72 1620.4 1223.84 Q1620.4 1226.97 1622.3 1228.75 Q1624.22 1230.53 1627.55 1230.53 Q1630.89 1230.53 1632.81 1228.75 Q1634.73 1226.95 1634.73 1223.84 Q1634.73 1220.72 1632.81 1218.94 Q1630.91 1217.15 1627.55 1217.15 M1622.88 1215.16 Q1619.87 1214.42 1618.18 1212.36 Q1616.51 1210.3 1616.51 1207.34 Q1616.51 1203.2 1619.45 1200.79 Q1622.41 1198.38 1627.55 1198.38 Q1632.72 1198.38 1635.66 1200.79 Q1638.59 1203.2 1638.59 1207.34 Q1638.59 1210.3 1636.91 1212.36 Q1635.24 1214.42 1632.25 1215.16 Q1635.63 1215.95 1637.51 1218.24 Q1639.41 1220.53 1639.41 1223.84 Q1639.41 1228.87 1636.33 1231.55 Q1633.27 1234.24 1627.55 1234.24 Q1621.84 1234.24 1618.76 1231.55 Q1615.7 1228.87 1615.7 1223.84 Q1615.7 1220.53 1617.6 1218.24 Q1619.5 1215.95 1622.88 1215.16 M1621.16 1207.78 Q1621.16 1210.47 1622.83 1211.97 Q1624.52 1213.47 1627.55 1213.47 Q1630.56 1213.47 1632.25 1211.97 Q1633.97 1210.47 1633.97 1207.78 Q1633.97 1205.09 1632.25 1203.59 Q1630.56 1202.09 1627.55 1202.09 Q1624.52 1202.09 1622.83 1203.59 Q1621.16 1205.09 1621.16 1207.78 Z" fill="#000000" fill-rule="nonzero" fill-opacity="1" /><path clip-path="url(#clip280)" d="M1987.44 1229.63 L1995.08 1229.63 L1995.08 1203.27 L1986.77 1204.93 L1986.77 1200.67 L1995.03 1199.01 L1999.71 1199.01 L1999.71 1229.63 L2007.35 1229.63 L2007.35 1233.57 L1987.44 1233.57 L1987.44 1229.63 Z" fill="#000000" fill-rule="nonzero" fill-opacity="1" /><path clip-path="url(#clip280)" d="M2026.79 1202.09 Q2023.18 1202.09 2021.35 1205.65 Q2019.55 1209.19 2019.55 1216.32 Q2019.55 1223.43 2021.35 1226.99 Q2023.18 1230.53 2026.79 1230.53 Q2030.43 1230.53 2032.23 1226.99 Q2034.06 1223.43 2034.06 1216.32 Q2034.06 1209.19 2032.23 1205.65 Q2030.43 1202.09 2026.79 1202.09 M2026.79 1198.38 Q2032.6 1198.38 2035.66 1202.99 Q2038.74 1207.57 2038.74 1216.32 Q2038.74 1225.05 2035.66 1229.65 Q2032.6 1234.24 2026.79 1234.24 Q2020.98 1234.24 2017.9 1229.65 Q2014.85 1225.05 2014.85 1216.32 Q2014.85 1207.57 2017.9 1202.99 Q2020.98 1198.38 2026.79 1198.38 Z" fill="#000000" fill-rule="nonzero" fill-opacity="1" /><path clip-path="url(#clip280)" d="M1058.01 1266.49 L1064.51 1266.49 L1074.5 1306.66 L1084.46 1266.49 L1091.69 1266.49 L1101.68 1306.66 L1111.65 1266.49 L1118.17 1266.49 L1106.24 1314.01 L1098.15 1314.01 L1088.12 1272.76 L1078 1314.01 L1069.92 1314.01 L1058.01 1266.49 Z" fill="#000000" fill-rule="nonzero" fill-opacity="1" /><path clip-path="url(#clip280)" d="M1138.48 1296.1 Q1131.38 1296.1 1128.64 1297.72 Q1125.91 1299.34 1125.91 1303.26 Q1125.91 1306.38 1127.94 1308.22 Q1130.01 1310.04 1133.54 1310.04 Q1138.41 1310.04 1141.34 1306.6 Q1144.3 1303.13 1144.3 1297.4 L1144.3 1296.1 L1138.48 1296.1 M1150.16 1293.68 L1150.16 1314.01 L1144.3 1314.01 L1144.3 1308.6 Q1142.3 1311.85 1139.3 1313.41 Q1136.31 1314.94 1131.98 1314.94 Q1126.51 1314.94 1123.26 1311.88 Q1120.05 1308.79 1120.05 1303.64 Q1120.05 1297.62 1124.06 1294.57 Q1128.1 1291.51 1136.09 1291.51 L1144.3 1291.51 L1144.3 1290.94 Q1144.3 1286.9 1141.63 1284.7 Q1138.99 1282.47 1134.18 1282.47 Q1131.13 1282.47 1128.23 1283.2 Q1125.33 1283.94 1122.66 1285.4 L1122.66 1279.99 Q1125.87 1278.75 1128.9 1278.14 Q1131.92 1277.51 1134.79 1277.51 Q1142.52 1277.51 1146.34 1281.52 Q1150.16 1285.53 1150.16 1293.68 Z" fill="#000000" fill-rule="nonzero" fill-opacity="1" /><path clip-path="url(#clip280)" d="M1185.68 1295.78 Q1185.68 1289.41 1183.04 1285.91 Q1180.43 1282.41 1175.68 1282.41 Q1170.97 1282.41 1168.33 1285.91 Q1165.72 1289.41 1165.72 1295.78 Q1165.72 1302.11 1168.33 1305.61 Q1170.97 1309.11 1175.68 1309.11 Q1180.43 1309.11 1183.04 1305.61 Q1185.68 1302.11 1185.68 1295.78 M1191.54 1309.59 Q1191.54 1318.69 1187.49 1323.12 Q1183.45 1327.57 1175.11 1327.57 Q1172.02 1327.57 1169.29 1327.1 Q1166.55 1326.65 1163.97 1325.7 L1163.97 1320 Q1166.55 1321.4 1169.06 1322.07 Q1171.58 1322.74 1174.19 1322.74 Q1179.95 1322.74 1182.81 1319.71 Q1185.68 1316.72 1185.68 1310.64 L1185.68 1307.74 Q1183.86 1310.9 1181.03 1312.46 Q1178.2 1314.01 1174.25 1314.01 Q1167.7 1314.01 1163.69 1309.02 Q1159.68 1304.02 1159.68 1295.78 Q1159.68 1287.5 1163.69 1282.5 Q1167.7 1277.51 1174.25 1277.51 Q1178.2 1277.51 1181.03 1279.07 Q1183.86 1280.63 1185.68 1283.78 L1185.68 1278.37 L1191.54 1278.37 L1191.54 1309.59 Z" fill="#000000" fill-rule="nonzero" fill-opacity="1" /><path clip-path="url(#clip280)" d="M1234.09 1294.73 L1234.09 1297.59 L1207.16 1297.59 Q1207.55 1303.64 1210.79 1306.82 Q1214.07 1309.97 1219.89 1309.97 Q1223.27 1309.97 1226.42 1309.14 Q1229.6 1308.32 1232.72 1306.66 L1232.72 1312.2 Q1229.57 1313.54 1226.26 1314.24 Q1222.95 1314.94 1219.54 1314.94 Q1211.01 1314.94 1206.02 1309.97 Q1201.05 1305.01 1201.05 1296.54 Q1201.05 1287.79 1205.76 1282.66 Q1210.51 1277.51 1218.53 1277.51 Q1225.72 1277.51 1229.89 1282.15 Q1234.09 1286.77 1234.09 1294.73 M1228.23 1293.01 Q1228.17 1288.2 1225.53 1285.34 Q1222.92 1282.47 1218.59 1282.47 Q1213.69 1282.47 1210.73 1285.24 Q1207.8 1288.01 1207.35 1293.04 L1228.23 1293.01 Z" fill="#000000" fill-rule="nonzero" fill-opacity="1" /><polyline clip-path="url(#clip280)" style="stroke:#000000; stroke-linecap:round; stroke-linejoin:round; stroke-width:4; stroke-opacity:1; fill:none" points="227.349,1173.47 227.349,47.2441 "/>
<polyline clip-path="url(#clip280)" style="stroke:#000000; stroke-linecap:round; stroke-linejoin:round; stroke-width:4; stroke-opacity:1; fill:none" points="227.349,921.951 246.247,921.951 "/>
<polyline clip-path="url(#clip280)" style="stroke:#000000; stroke-linecap:round; stroke-linejoin:round; stroke-width:4; stroke-opacity:1; fill:none" points="227.349,640.185 246.247,640.185 "/>
<polyline clip-path="url(#clip280)" style="stroke:#000000; stroke-linecap:round; stroke-linejoin:round; stroke-width:4; stroke-opacity:1; fill:none" points="227.349,358.419 246.247,358.419 "/>
<polyline clip-path="url(#clip280)" style="stroke:#000000; stroke-linecap:round; stroke-linejoin:round; stroke-width:4; stroke-opacity:1; fill:none" points="227.349,76.6534 246.247,76.6534 "/>
<path clip-path="url(#clip280)" d="M114.211 935.296 L121.85 935.296 L121.85 908.93 L113.54 910.597 L113.54 906.338 L121.804 904.671 L126.48 904.671 L126.48 935.296 L134.119 935.296 L134.119 939.231 L114.211 939.231 L114.211 935.296 Z" fill="#000000" fill-rule="nonzero" fill-opacity="1" /><path clip-path="url(#clip280)" d="M154.142 920.088 Q150.994 920.088 149.142 922.241 Q147.313 924.393 147.313 928.143 Q147.313 931.87 149.142 934.046 Q150.994 936.199 154.142 936.199 Q157.29 936.199 159.119 934.046 Q160.97 931.87 160.97 928.143 Q160.97 924.393 159.119 922.241 Q157.29 920.088 154.142 920.088 M163.424 905.435 L163.424 909.694 Q161.665 908.861 159.859 908.421 Q158.077 907.981 156.318 907.981 Q151.688 907.981 149.234 911.106 Q146.804 914.231 146.457 920.551 Q147.822 918.537 149.883 917.472 Q151.943 916.384 154.42 916.384 Q159.628 916.384 162.637 919.555 Q165.67 922.703 165.67 928.143 Q165.67 933.467 162.521 936.685 Q159.373 939.902 154.142 939.902 Q148.146 939.902 144.975 935.319 Q141.804 930.713 141.804 921.986 Q141.804 913.791 145.693 908.93 Q149.582 904.046 156.133 904.046 Q157.892 904.046 159.674 904.393 Q161.48 904.741 163.424 905.435 Z" fill="#000000" fill-rule="nonzero" fill-opacity="1" /><path clip-path="url(#clip280)" d="M183.725 907.75 Q180.114 907.75 178.285 911.315 Q176.48 914.856 176.48 921.986 Q176.48 929.092 178.285 932.657 Q180.114 936.199 183.725 936.199 Q187.359 936.199 189.165 932.657 Q190.993 929.092 190.993 921.986 Q190.993 914.856 189.165 911.315 Q187.359 907.75 183.725 907.75 M183.725 904.046 Q189.535 904.046 192.591 908.653 Q195.669 913.236 195.669 921.986 Q195.669 930.713 192.591 935.319 Q189.535 939.902 183.725 939.902 Q177.915 939.902 174.836 935.319 Q171.781 930.713 171.781 921.986 Q171.781 913.236 174.836 908.653 Q177.915 904.046 183.725 904.046 Z" fill="#000000" fill-rule="nonzero" fill-opacity="1" /><path clip-path="url(#clip280)" d="M114.211 653.53 L121.85 653.53 L121.85 627.164 L113.54 628.831 L113.54 624.572 L121.804 622.905 L126.48 622.905 L126.48 653.53 L134.119 653.53 L134.119 657.465 L114.211 657.465 L114.211 653.53 Z" fill="#000000" fill-rule="nonzero" fill-opacity="1" /><path clip-path="url(#clip280)" d="M142.383 622.905 L164.605 622.905 L164.605 624.896 L152.058 657.465 L147.174 657.465 L158.98 626.84 L142.383 626.84 L142.383 622.905 Z" fill="#000000" fill-rule="nonzero" fill-opacity="1" /><path clip-path="url(#clip280)" d="M183.725 625.984 Q180.114 625.984 178.285 629.549 Q176.48 633.09 176.48 640.22 Q176.48 647.326 178.285 650.891 Q180.114 654.433 183.725 654.433 Q187.359 654.433 189.165 650.891 Q190.993 647.326 190.993 640.22 Q190.993 633.09 189.165 629.549 Q187.359 625.984 183.725 625.984 M183.725 622.28 Q189.535 622.28 192.591 626.887 Q195.669 631.47 195.669 640.22 Q195.669 648.947 192.591 653.553 Q189.535 658.137 183.725 658.137 Q177.915 658.137 174.836 653.553 Q171.781 648.947 171.781 640.22 Q171.781 631.47 174.836 626.887 Q177.915 622.28 183.725 622.28 Z" fill="#000000" fill-rule="nonzero" fill-opacity="1" /><path clip-path="url(#clip280)" d="M114.211 371.764 L121.85 371.764 L121.85 345.399 L113.54 347.065 L113.54 342.806 L121.804 341.139 L126.48 341.139 L126.48 371.764 L134.119 371.764 L134.119 375.699 L114.211 375.699 L114.211 371.764 Z" fill="#000000" fill-rule="nonzero" fill-opacity="1" /><path clip-path="url(#clip280)" d="M153.563 359.287 Q150.23 359.287 148.308 361.07 Q146.41 362.852 146.41 365.977 Q146.41 369.102 148.308 370.885 Q150.23 372.667 153.563 372.667 Q156.896 372.667 158.818 370.885 Q160.739 369.079 160.739 365.977 Q160.739 362.852 158.818 361.07 Q156.92 359.287 153.563 359.287 M148.887 357.297 Q145.878 356.556 144.188 354.496 Q142.521 352.436 142.521 349.473 Q142.521 345.329 145.461 342.922 Q148.424 340.514 153.563 340.514 Q158.725 340.514 161.665 342.922 Q164.605 345.329 164.605 349.473 Q164.605 352.436 162.915 354.496 Q161.248 356.556 158.262 357.297 Q161.642 358.084 163.517 360.375 Q165.415 362.667 165.415 365.977 Q165.415 371 162.336 373.685 Q159.281 376.371 153.563 376.371 Q147.846 376.371 144.767 373.685 Q141.711 371 141.711 365.977 Q141.711 362.667 143.609 360.375 Q145.508 358.084 148.887 357.297 M147.174 349.912 Q147.174 352.598 148.841 354.102 Q150.531 355.607 153.563 355.607 Q156.572 355.607 158.262 354.102 Q159.975 352.598 159.975 349.912 Q159.975 347.227 158.262 345.723 Q156.572 344.218 153.563 344.218 Q150.531 344.218 148.841 345.723 Q147.174 347.227 147.174 349.912 Z" fill="#000000" fill-rule="nonzero" fill-opacity="1" /><path clip-path="url(#clip280)" d="M183.725 344.218 Q180.114 344.218 178.285 347.783 Q176.48 351.324 176.48 358.454 Q176.48 365.56 178.285 369.125 Q180.114 372.667 183.725 372.667 Q187.359 372.667 189.165 369.125 Q190.993 365.56 190.993 358.454 Q190.993 351.324 189.165 347.783 Q187.359 344.218 183.725 344.218 M183.725 340.514 Q189.535 340.514 192.591 345.121 Q195.669 349.704 195.669 358.454 Q195.669 367.181 192.591 371.787 Q189.535 376.371 183.725 376.371 Q177.915 376.371 174.836 371.787 Q171.781 367.181 171.781 358.454 Q171.781 349.704 174.836 345.121 Q177.915 340.514 183.725 340.514 Z" fill="#000000" fill-rule="nonzero" fill-opacity="1" /><path clip-path="url(#clip280)" d="M114.211 89.9982 L121.85 89.9982 L121.85 63.6326 L113.54 65.2993 L113.54 61.0401 L121.804 59.3734 L126.48 59.3734 L126.48 89.9982 L134.119 89.9982 L134.119 93.9334 L114.211 93.9334 L114.211 89.9982 Z" fill="#000000" fill-rule="nonzero" fill-opacity="1" /><path clip-path="url(#clip280)" d="M143.702 93.2158 L143.702 88.9566 Q145.461 89.7899 147.267 90.2297 Q149.072 90.6695 150.808 90.6695 Q155.438 90.6695 157.869 87.5677 Q160.322 84.4427 160.67 78.1002 Q159.327 80.0909 157.267 81.1557 Q155.207 82.2205 152.707 82.2205 Q147.521 82.2205 144.489 79.0955 Q141.48 75.9474 141.48 70.5076 Q141.48 65.1836 144.628 61.966 Q147.776 58.7484 153.008 58.7484 Q159.003 58.7484 162.151 63.3549 Q165.322 67.9382 165.322 76.6881 Q165.322 84.8594 161.433 89.7436 Q157.568 94.6047 151.017 94.6047 Q149.258 94.6047 147.452 94.2575 Q145.646 93.9103 143.702 93.2158 M153.008 78.5631 Q156.156 78.5631 157.984 76.4104 Q159.836 74.2576 159.836 70.5076 Q159.836 66.7808 157.984 64.628 Q156.156 62.4521 153.008 62.4521 Q149.859 62.4521 148.008 64.628 Q146.179 66.7808 146.179 70.5076 Q146.179 74.2576 148.008 76.4104 Q149.859 78.5631 153.008 78.5631 Z" fill="#000000" fill-rule="nonzero" fill-opacity="1" /><path clip-path="url(#clip280)" d="M183.725 62.4521 Q180.114 62.4521 178.285 66.0169 Q176.48 69.5585 176.48 76.6881 Q176.48 83.7946 178.285 87.3594 Q180.114 90.901 183.725 90.901 Q187.359 90.901 189.165 87.3594 Q190.993 83.7946 190.993 76.6881 Q190.993 69.5585 189.165 66.0169 Q187.359 62.4521 183.725 62.4521 M183.725 58.7484 Q189.535 58.7484 192.591 63.3549 Q195.669 67.9382 195.669 76.6881 Q195.669 85.4149 192.591 90.0214 Q189.535 94.6047 183.725 94.6047 Q177.915 94.6047 174.836 90.0214 Q171.781 85.4149 171.781 76.6881 Q171.781 67.9382 174.836 63.3549 Q177.915 58.7484 183.725 58.7484 Z" fill="#000000" fill-rule="nonzero" fill-opacity="1" /><path clip-path="url(#clip280)" d="M67.6042 679.728 L20.0842 697.87 L20.0842 691.154 L60.0926 676.099 L20.0842 661.013 L20.0842 654.329 L67.6042 672.439 L67.6042 679.728 Z" fill="#000000" fill-rule="nonzero" fill-opacity="1" /><path clip-path="url(#clip280)" d="M49.6847 636.505 Q49.6847 643.602 51.3079 646.34 Q52.9312 649.077 56.8461 649.077 Q59.9653 649.077 61.8114 647.04 Q63.6256 644.971 63.6256 641.438 Q63.6256 636.568 60.1881 633.64 Q56.7188 630.68 50.9897 630.68 L49.6847 630.68 L49.6847 636.505 M47.2657 624.823 L67.6042 624.823 L67.6042 630.68 L62.1933 630.68 Q65.4398 632.685 66.9994 635.677 Q68.5272 638.669 68.5272 642.998 Q68.5272 648.472 65.4716 651.719 Q62.3843 654.933 57.2281 654.933 Q51.2125 654.933 48.1569 650.923 Q45.1014 646.881 45.1014 638.892 L45.1014 630.68 L44.5285 630.68 Q40.4862 630.68 38.2901 633.354 Q36.0621 635.995 36.0621 640.801 Q36.0621 643.857 36.7941 646.753 Q37.5262 649.65 38.9903 652.323 L33.5795 652.323 Q32.3381 649.109 31.7334 646.085 Q31.0968 643.061 31.0968 640.197 Q31.0968 632.462 35.1072 628.643 Q39.1176 624.823 47.2657 624.823 Z" fill="#000000" fill-rule="nonzero" fill-opacity="1" /><path clip-path="url(#clip280)" d="M18.079 612.76 L18.079 606.904 L67.6042 606.904 L67.6042 612.76 L18.079 612.76 Z" fill="#000000" fill-rule="nonzero" fill-opacity="1" /><path clip-path="url(#clip280)" d="M53.5359 595.255 L31.9562 595.255 L31.9562 589.398 L53.3131 589.398 Q58.3739 589.398 60.9202 587.425 Q63.4346 585.452 63.4346 581.505 Q63.4346 576.762 60.4109 574.025 Q57.3872 571.256 52.1673 571.256 L31.9562 571.256 L31.9562 565.4 L67.6042 565.4 L67.6042 571.256 L62.1296 571.256 Q65.3762 573.389 66.9676 576.221 Q68.5272 579.022 68.5272 582.746 Q68.5272 588.889 64.7078 592.072 Q60.8883 595.255 53.5359 595.255 M31.0968 580.518 L31.0968 580.518 Z" fill="#000000" fill-rule="nonzero" fill-opacity="1" /><path clip-path="url(#clip280)" d="M48.3161 522.845 L51.1806 522.845 L51.1806 549.772 Q57.2281 549.39 60.4109 546.143 Q63.5619 542.865 63.5619 537.04 Q63.5619 533.667 62.7344 530.516 Q61.9069 527.333 60.2518 524.213 L65.7899 524.213 Q67.1267 527.365 67.827 530.675 Q68.5272 533.985 68.5272 537.391 Q68.5272 545.921 63.5619 550.918 Q58.5967 555.883 50.1303 555.883 Q41.3774 555.883 36.2531 551.172 Q31.0968 546.43 31.0968 538.409 Q31.0968 531.216 35.7438 527.046 Q40.3589 522.845 48.3161 522.845 M46.5973 528.701 Q41.7912 528.765 38.9266 531.407 Q36.0621 534.017 36.0621 538.345 Q36.0621 543.247 38.8312 546.207 Q41.6002 549.135 46.6292 549.581 L46.5973 528.701 Z" fill="#000000" fill-rule="nonzero" fill-opacity="1" /><circle clip-path="url(#clip281)" cx="279.351" cy="1141.6" r="14.4" fill="#009af9" fill-rule="evenodd" fill-opacity="1" stroke="#000000" stroke-opacity="1" stroke-width="2.688"/>
<circle clip-path="url(#clip281)" cx="314.727" cy="1141.6" r="14.4" fill="#009af9" fill-rule="evenodd" fill-opacity="1" stroke="#000000" stroke-opacity="1" stroke-width="2.688"/>
<circle clip-path="url(#clip281)" cx="350.103" cy="1141.6" r="14.4" fill="#009af9" fill-rule="evenodd" fill-opacity="1" stroke="#000000" stroke-opacity="1" stroke-width="2.688"/>
<circle clip-path="url(#clip281)" cx="385.478" cy="1141.6" r="14.4" fill="#009af9" fill-rule="evenodd" fill-opacity="1" stroke="#000000" stroke-opacity="1" stroke-width="2.688"/>
<circle clip-path="url(#clip281)" cx="420.854" cy="1141.6" r="14.4" fill="#009af9" fill-rule="evenodd" fill-opacity="1" stroke="#000000" stroke-opacity="1" stroke-width="2.688"/>
<circle clip-path="url(#clip281)" cx="456.229" cy="1141.6" r="14.4" fill="#009af9" fill-rule="evenodd" fill-opacity="1" stroke="#000000" stroke-opacity="1" stroke-width="2.688"/>
<circle clip-path="url(#clip281)" cx="491.605" cy="1141.6" r="14.4" fill="#009af9" fill-rule="evenodd" fill-opacity="1" stroke="#000000" stroke-opacity="1" stroke-width="2.688"/>
<circle clip-path="url(#clip281)" cx="526.98" cy="1141.6" r="14.4" fill="#009af9" fill-rule="evenodd" fill-opacity="1" stroke="#000000" stroke-opacity="1" stroke-width="2.688"/>
<circle clip-path="url(#clip281)" cx="562.356" cy="1141.6" r="14.4" fill="#009af9" fill-rule="evenodd" fill-opacity="1" stroke="#000000" stroke-opacity="1" stroke-width="2.688"/>
<circle clip-path="url(#clip281)" cx="597.731" cy="1141.6" r="14.4" fill="#009af9" fill-rule="evenodd" fill-opacity="1" stroke="#000000" stroke-opacity="1" stroke-width="2.688"/>
<circle clip-path="url(#clip281)" cx="633.107" cy="1141.6" r="14.4" fill="#009af9" fill-rule="evenodd" fill-opacity="1" stroke="#000000" stroke-opacity="1" stroke-width="2.688"/>
<circle clip-path="url(#clip281)" cx="668.483" cy="1141.6" r="14.4" fill="#009af9" fill-rule="evenodd" fill-opacity="1" stroke="#000000" stroke-opacity="1" stroke-width="2.688"/>
<circle clip-path="url(#clip281)" cx="703.858" cy="1141.6" r="14.4" fill="#009af9" fill-rule="evenodd" fill-opacity="1" stroke="#000000" stroke-opacity="1" stroke-width="2.688"/>
<circle clip-path="url(#clip281)" cx="739.234" cy="1141.6" r="14.4" fill="#009af9" fill-rule="evenodd" fill-opacity="1" stroke="#000000" stroke-opacity="1" stroke-width="2.688"/>
<circle clip-path="url(#clip281)" cx="774.609" cy="1141.6" r="14.4" fill="#009af9" fill-rule="evenodd" fill-opacity="1" stroke="#000000" stroke-opacity="1" stroke-width="2.688"/>
<circle clip-path="url(#clip281)" cx="809.985" cy="1141.6" r="14.4" fill="#009af9" fill-rule="evenodd" fill-opacity="1" stroke="#000000" stroke-opacity="1" stroke-width="2.688"/>
<circle clip-path="url(#clip281)" cx="845.36" cy="1141.6" r="14.4" fill="#009af9" fill-rule="evenodd" fill-opacity="1" stroke="#000000" stroke-opacity="1" stroke-width="2.688"/>
<circle clip-path="url(#clip281)" cx="880.736" cy="1141.6" r="14.4" fill="#009af9" fill-rule="evenodd" fill-opacity="1" stroke="#000000" stroke-opacity="1" stroke-width="2.688"/>
<circle clip-path="url(#clip281)" cx="916.111" cy="1141.6" r="14.4" fill="#009af9" fill-rule="evenodd" fill-opacity="1" stroke="#000000" stroke-opacity="1" stroke-width="2.688"/>
<circle clip-path="url(#clip281)" cx="951.487" cy="1141.6" r="14.4" fill="#009af9" fill-rule="evenodd" fill-opacity="1" stroke="#000000" stroke-opacity="1" stroke-width="2.688"/>
<circle clip-path="url(#clip281)" cx="986.863" cy="1141.6" r="14.4" fill="#009af9" fill-rule="evenodd" fill-opacity="1" stroke="#000000" stroke-opacity="1" stroke-width="2.688"/>
<circle clip-path="url(#clip281)" cx="1022.24" cy="1141.6" r="14.4" fill="#009af9" fill-rule="evenodd" fill-opacity="1" stroke="#000000" stroke-opacity="1" stroke-width="2.688"/>
<circle clip-path="url(#clip281)" cx="1057.61" cy="1141.6" r="14.4" fill="#009af9" fill-rule="evenodd" fill-opacity="1" stroke="#000000" stroke-opacity="1" stroke-width="2.688"/>
<circle clip-path="url(#clip281)" cx="1092.99" cy="1141.6" r="14.4" fill="#009af9" fill-rule="evenodd" fill-opacity="1" stroke="#000000" stroke-opacity="1" stroke-width="2.688"/>
<circle clip-path="url(#clip281)" cx="1128.36" cy="1141.6" r="14.4" fill="#009af9" fill-rule="evenodd" fill-opacity="1" stroke="#000000" stroke-opacity="1" stroke-width="2.688"/>
<circle clip-path="url(#clip281)" cx="1163.74" cy="1141.6" r="14.4" fill="#009af9" fill-rule="evenodd" fill-opacity="1" stroke="#000000" stroke-opacity="1" stroke-width="2.688"/>
<circle clip-path="url(#clip281)" cx="1199.12" cy="1141.6" r="14.4" fill="#009af9" fill-rule="evenodd" fill-opacity="1" stroke="#000000" stroke-opacity="1" stroke-width="2.688"/>
<circle clip-path="url(#clip281)" cx="1234.49" cy="1141.6" r="14.4" fill="#009af9" fill-rule="evenodd" fill-opacity="1" stroke="#000000" stroke-opacity="1" stroke-width="2.688"/>
<circle clip-path="url(#clip281)" cx="1269.87" cy="1141.6" r="14.4" fill="#009af9" fill-rule="evenodd" fill-opacity="1" stroke="#000000" stroke-opacity="1" stroke-width="2.688"/>
<circle clip-path="url(#clip281)" cx="1305.24" cy="1141.6" r="14.4" fill="#009af9" fill-rule="evenodd" fill-opacity="1" stroke="#000000" stroke-opacity="1" stroke-width="2.688"/>
<circle clip-path="url(#clip281)" cx="1340.62" cy="1141.6" r="14.4" fill="#009af9" fill-rule="evenodd" fill-opacity="1" stroke="#000000" stroke-opacity="1" stroke-width="2.688"/>
<circle clip-path="url(#clip281)" cx="1375.99" cy="1141.6" r="14.4" fill="#009af9" fill-rule="evenodd" fill-opacity="1" stroke="#000000" stroke-opacity="1" stroke-width="2.688"/>
<circle clip-path="url(#clip281)" cx="1411.37" cy="1141.6" r="14.4" fill="#009af9" fill-rule="evenodd" fill-opacity="1" stroke="#000000" stroke-opacity="1" stroke-width="2.688"/>
<circle clip-path="url(#clip281)" cx="1446.74" cy="1141.6" r="14.4" fill="#009af9" fill-rule="evenodd" fill-opacity="1" stroke="#000000" stroke-opacity="1" stroke-width="2.688"/>
<circle clip-path="url(#clip281)" cx="1482.12" cy="1141.6" r="14.4" fill="#009af9" fill-rule="evenodd" fill-opacity="1" stroke="#000000" stroke-opacity="1" stroke-width="2.688"/>
<circle clip-path="url(#clip281)" cx="1517.5" cy="1141.6" r="14.4" fill="#009af9" fill-rule="evenodd" fill-opacity="1" stroke="#000000" stroke-opacity="1" stroke-width="2.688"/>
<circle clip-path="url(#clip281)" cx="1552.87" cy="1140.78" r="14.4" fill="#009af9" fill-rule="evenodd" fill-opacity="1" stroke="#000000" stroke-opacity="1" stroke-width="2.688"/>
<circle clip-path="url(#clip281)" cx="1588.25" cy="1065.77" r="14.4" fill="#009af9" fill-rule="evenodd" fill-opacity="1" stroke="#000000" stroke-opacity="1" stroke-width="2.688"/>
<circle clip-path="url(#clip281)" cx="1623.62" cy="990.767" r="14.4" fill="#009af9" fill-rule="evenodd" fill-opacity="1" stroke="#000000" stroke-opacity="1" stroke-width="2.688"/>
<circle clip-path="url(#clip281)" cx="1659" cy="915.763" r="14.4" fill="#009af9" fill-rule="evenodd" fill-opacity="1" stroke="#000000" stroke-opacity="1" stroke-width="2.688"/>
<circle clip-path="url(#clip281)" cx="1694.37" cy="840.759" r="14.4" fill="#009af9" fill-rule="evenodd" fill-opacity="1" stroke="#000000" stroke-opacity="1" stroke-width="2.688"/>
<circle clip-path="url(#clip281)" cx="1729.75" cy="765.754" r="14.4" fill="#009af9" fill-rule="evenodd" fill-opacity="1" stroke="#000000" stroke-opacity="1" stroke-width="2.688"/>
<circle clip-path="url(#clip281)" cx="1765.12" cy="690.75" r="14.4" fill="#009af9" fill-rule="evenodd" fill-opacity="1" stroke="#000000" stroke-opacity="1" stroke-width="2.688"/>
<circle clip-path="url(#clip281)" cx="1800.5" cy="615.746" r="14.4" fill="#009af9" fill-rule="evenodd" fill-opacity="1" stroke="#000000" stroke-opacity="1" stroke-width="2.688"/>
<circle clip-path="url(#clip281)" cx="1835.88" cy="540.742" r="14.4" fill="#009af9" fill-rule="evenodd" fill-opacity="1" stroke="#000000" stroke-opacity="1" stroke-width="2.688"/>
<circle clip-path="url(#clip281)" cx="1871.25" cy="465.737" r="14.4" fill="#009af9" fill-rule="evenodd" fill-opacity="1" stroke="#000000" stroke-opacity="1" stroke-width="2.688"/>
<circle clip-path="url(#clip281)" cx="1906.63" cy="390.733" r="14.4" fill="#009af9" fill-rule="evenodd" fill-opacity="1" stroke="#000000" stroke-opacity="1" stroke-width="2.688"/>
<circle clip-path="url(#clip281)" cx="1942" cy="315.729" r="14.4" fill="#009af9" fill-rule="evenodd" fill-opacity="1" stroke="#000000" stroke-opacity="1" stroke-width="2.688"/>
<circle clip-path="url(#clip281)" cx="1977.38" cy="240.725" r="14.4" fill="#009af9" fill-rule="evenodd" fill-opacity="1" stroke="#000000" stroke-opacity="1" stroke-width="2.688"/>
<circle clip-path="url(#clip281)" cx="2012.75" cy="165.72" r="14.4" fill="#009af9" fill-rule="evenodd" fill-opacity="1" stroke="#000000" stroke-opacity="1" stroke-width="2.688"/>
<circle clip-path="url(#clip281)" cx="279.351" cy="827.095" r="14.4" fill="#e26f46" fill-rule="evenodd" fill-opacity="1" stroke="#000000" stroke-opacity="1" stroke-width="2.688"/>
<circle clip-path="url(#clip281)" cx="314.727" cy="827.095" r="14.4" fill="#e26f46" fill-rule="evenodd" fill-opacity="1" stroke="#000000" stroke-opacity="1" stroke-width="2.688"/>
<circle clip-path="url(#clip281)" cx="350.103" cy="827.095" r="14.4" fill="#e26f46" fill-rule="evenodd" fill-opacity="1" stroke="#000000" stroke-opacity="1" stroke-width="2.688"/>
<circle clip-path="url(#clip281)" cx="385.478" cy="827.095" r="14.4" fill="#e26f46" fill-rule="evenodd" fill-opacity="1" stroke="#000000" stroke-opacity="1" stroke-width="2.688"/>
<circle clip-path="url(#clip281)" cx="420.854" cy="827.095" r="14.4" fill="#e26f46" fill-rule="evenodd" fill-opacity="1" stroke="#000000" stroke-opacity="1" stroke-width="2.688"/>
<circle clip-path="url(#clip281)" cx="456.229" cy="827.095" r="14.4" fill="#e26f46" fill-rule="evenodd" fill-opacity="1" stroke="#000000" stroke-opacity="1" stroke-width="2.688"/>
<circle clip-path="url(#clip281)" cx="491.605" cy="827.095" r="14.4" fill="#e26f46" fill-rule="evenodd" fill-opacity="1" stroke="#000000" stroke-opacity="1" stroke-width="2.688"/>
<circle clip-path="url(#clip281)" cx="526.98" cy="827.095" r="14.4" fill="#e26f46" fill-rule="evenodd" fill-opacity="1" stroke="#000000" stroke-opacity="1" stroke-width="2.688"/>
<circle clip-path="url(#clip281)" cx="562.356" cy="827.095" r="14.4" fill="#e26f46" fill-rule="evenodd" fill-opacity="1" stroke="#000000" stroke-opacity="1" stroke-width="2.688"/>
<circle clip-path="url(#clip281)" cx="597.731" cy="827.095" r="14.4" fill="#e26f46" fill-rule="evenodd" fill-opacity="1" stroke="#000000" stroke-opacity="1" stroke-width="2.688"/>
<circle clip-path="url(#clip281)" cx="633.107" cy="827.095" r="14.4" fill="#e26f46" fill-rule="evenodd" fill-opacity="1" stroke="#000000" stroke-opacity="1" stroke-width="2.688"/>
<circle clip-path="url(#clip281)" cx="668.483" cy="827.095" r="14.4" fill="#e26f46" fill-rule="evenodd" fill-opacity="1" stroke="#000000" stroke-opacity="1" stroke-width="2.688"/>
<circle clip-path="url(#clip281)" cx="703.858" cy="827.095" r="14.4" fill="#e26f46" fill-rule="evenodd" fill-opacity="1" stroke="#000000" stroke-opacity="1" stroke-width="2.688"/>
<circle clip-path="url(#clip281)" cx="739.234" cy="827.095" r="14.4" fill="#e26f46" fill-rule="evenodd" fill-opacity="1" stroke="#000000" stroke-opacity="1" stroke-width="2.688"/>
<circle clip-path="url(#clip281)" cx="774.609" cy="827.095" r="14.4" fill="#e26f46" fill-rule="evenodd" fill-opacity="1" stroke="#000000" stroke-opacity="1" stroke-width="2.688"/>
<circle clip-path="url(#clip281)" cx="809.985" cy="827.095" r="14.4" fill="#e26f46" fill-rule="evenodd" fill-opacity="1" stroke="#000000" stroke-opacity="1" stroke-width="2.688"/>
<circle clip-path="url(#clip281)" cx="845.36" cy="827.095" r="14.4" fill="#e26f46" fill-rule="evenodd" fill-opacity="1" stroke="#000000" stroke-opacity="1" stroke-width="2.688"/>
<circle clip-path="url(#clip281)" cx="880.736" cy="827.095" r="14.4" fill="#e26f46" fill-rule="evenodd" fill-opacity="1" stroke="#000000" stroke-opacity="1" stroke-width="2.688"/>
<circle clip-path="url(#clip281)" cx="916.111" cy="827.095" r="14.4" fill="#e26f46" fill-rule="evenodd" fill-opacity="1" stroke="#000000" stroke-opacity="1" stroke-width="2.688"/>
<circle clip-path="url(#clip281)" cx="951.487" cy="827.095" r="14.4" fill="#e26f46" fill-rule="evenodd" fill-opacity="1" stroke="#000000" stroke-opacity="1" stroke-width="2.688"/>
<circle clip-path="url(#clip281)" cx="986.863" cy="827.095" r="14.4" fill="#e26f46" fill-rule="evenodd" fill-opacity="1" stroke="#000000" stroke-opacity="1" stroke-width="2.688"/>
<circle clip-path="url(#clip281)" cx="1022.24" cy="827.095" r="14.4" fill="#e26f46" fill-rule="evenodd" fill-opacity="1" stroke="#000000" stroke-opacity="1" stroke-width="2.688"/>
<circle clip-path="url(#clip281)" cx="1057.61" cy="827.095" r="14.4" fill="#e26f46" fill-rule="evenodd" fill-opacity="1" stroke="#000000" stroke-opacity="1" stroke-width="2.688"/>
<circle clip-path="url(#clip281)" cx="1092.99" cy="827.095" r="14.4" fill="#e26f46" fill-rule="evenodd" fill-opacity="1" stroke="#000000" stroke-opacity="1" stroke-width="2.688"/>
<circle clip-path="url(#clip281)" cx="1128.36" cy="827.095" r="14.4" fill="#e26f46" fill-rule="evenodd" fill-opacity="1" stroke="#000000" stroke-opacity="1" stroke-width="2.688"/>
<circle clip-path="url(#clip281)" cx="1163.74" cy="827.095" r="14.4" fill="#e26f46" fill-rule="evenodd" fill-opacity="1" stroke="#000000" stroke-opacity="1" stroke-width="2.688"/>
<circle clip-path="url(#clip281)" cx="1199.12" cy="827.095" r="14.4" fill="#e26f46" fill-rule="evenodd" fill-opacity="1" stroke="#000000" stroke-opacity="1" stroke-width="2.688"/>
<circle clip-path="url(#clip281)" cx="1234.49" cy="827.095" r="14.4" fill="#e26f46" fill-rule="evenodd" fill-opacity="1" stroke="#000000" stroke-opacity="1" stroke-width="2.688"/>
<circle clip-path="url(#clip281)" cx="1269.87" cy="827.095" r="14.4" fill="#e26f46" fill-rule="evenodd" fill-opacity="1" stroke="#000000" stroke-opacity="1" stroke-width="2.688"/>
<circle clip-path="url(#clip281)" cx="1305.24" cy="827.095" r="14.4" fill="#e26f46" fill-rule="evenodd" fill-opacity="1" stroke="#000000" stroke-opacity="1" stroke-width="2.688"/>
<circle clip-path="url(#clip281)" cx="1340.62" cy="827.095" r="14.4" fill="#e26f46" fill-rule="evenodd" fill-opacity="1" stroke="#000000" stroke-opacity="1" stroke-width="2.688"/>
<circle clip-path="url(#clip281)" cx="1375.99" cy="827.095" r="14.4" fill="#e26f46" fill-rule="evenodd" fill-opacity="1" stroke="#000000" stroke-opacity="1" stroke-width="2.688"/>
<circle clip-path="url(#clip281)" cx="1411.37" cy="827.095" r="14.4" fill="#e26f46" fill-rule="evenodd" fill-opacity="1" stroke="#000000" stroke-opacity="1" stroke-width="2.688"/>
<circle clip-path="url(#clip281)" cx="1446.74" cy="827.095" r="14.4" fill="#e26f46" fill-rule="evenodd" fill-opacity="1" stroke="#000000" stroke-opacity="1" stroke-width="2.688"/>
<circle clip-path="url(#clip281)" cx="1482.12" cy="827.095" r="14.4" fill="#e26f46" fill-rule="evenodd" fill-opacity="1" stroke="#000000" stroke-opacity="1" stroke-width="2.688"/>
<circle clip-path="url(#clip281)" cx="1517.5" cy="827.095" r="14.4" fill="#e26f46" fill-rule="evenodd" fill-opacity="1" stroke="#000000" stroke-opacity="1" stroke-width="2.688"/>
<circle clip-path="url(#clip281)" cx="1552.87" cy="827.095" r="14.4" fill="#e26f46" fill-rule="evenodd" fill-opacity="1" stroke="#000000" stroke-opacity="1" stroke-width="2.688"/>
<circle clip-path="url(#clip281)" cx="1588.25" cy="827.095" r="14.4" fill="#e26f46" fill-rule="evenodd" fill-opacity="1" stroke="#000000" stroke-opacity="1" stroke-width="2.688"/>
<circle clip-path="url(#clip281)" cx="1623.62" cy="827.095" r="14.4" fill="#e26f46" fill-rule="evenodd" fill-opacity="1" stroke="#000000" stroke-opacity="1" stroke-width="2.688"/>
<circle clip-path="url(#clip281)" cx="1659" cy="827.095" r="14.4" fill="#e26f46" fill-rule="evenodd" fill-opacity="1" stroke="#000000" stroke-opacity="1" stroke-width="2.688"/>
<circle clip-path="url(#clip281)" cx="1694.37" cy="754.157" r="14.4" fill="#e26f46" fill-rule="evenodd" fill-opacity="1" stroke="#000000" stroke-opacity="1" stroke-width="2.688"/>
<circle clip-path="url(#clip281)" cx="1729.75" cy="679.152" r="14.4" fill="#e26f46" fill-rule="evenodd" fill-opacity="1" stroke="#000000" stroke-opacity="1" stroke-width="2.688"/>
<circle clip-path="url(#clip281)" cx="1765.12" cy="604.148" r="14.4" fill="#e26f46" fill-rule="evenodd" fill-opacity="1" stroke="#000000" stroke-opacity="1" stroke-width="2.688"/>
<circle clip-path="url(#clip281)" cx="1800.5" cy="529.144" r="14.4" fill="#e26f46" fill-rule="evenodd" fill-opacity="1" stroke="#000000" stroke-opacity="1" stroke-width="2.688"/>
<circle clip-path="url(#clip281)" cx="1835.88" cy="454.14" r="14.4" fill="#e26f46" fill-rule="evenodd" fill-opacity="1" stroke="#000000" stroke-opacity="1" stroke-width="2.688"/>
<circle clip-path="url(#clip281)" cx="1871.25" cy="379.135" r="14.4" fill="#e26f46" fill-rule="evenodd" fill-opacity="1" stroke="#000000" stroke-opacity="1" stroke-width="2.688"/>
<circle clip-path="url(#clip281)" cx="1906.63" cy="304.131" r="14.4" fill="#e26f46" fill-rule="evenodd" fill-opacity="1" stroke="#000000" stroke-opacity="1" stroke-width="2.688"/>
<circle clip-path="url(#clip281)" cx="1942" cy="229.127" r="14.4" fill="#e26f46" fill-rule="evenodd" fill-opacity="1" stroke="#000000" stroke-opacity="1" stroke-width="2.688"/>
<circle clip-path="url(#clip281)" cx="1977.38" cy="154.123" r="14.4" fill="#e26f46" fill-rule="evenodd" fill-opacity="1" stroke="#000000" stroke-opacity="1" stroke-width="2.688"/>
<circle clip-path="url(#clip281)" cx="2012.75" cy="79.1184" r="14.4" fill="#e26f46" fill-rule="evenodd" fill-opacity="1" stroke="#000000" stroke-opacity="1" stroke-width="2.688"/>
<path clip-path="url(#clip280)" d="M288.596 240.305 L863.099 240.305 L863.099 84.785 L288.596 84.785  Z" fill="#ffffff" fill-rule="evenodd" fill-opacity="1"/>
<polyline clip-path="url(#clip280)" style="stroke:#000000; stroke-linecap:round; stroke-linejoin:round; stroke-width:4; stroke-opacity:1; fill:none" points="288.596,240.305 863.099,240.305 863.099,84.785 288.596,84.785 288.596,240.305 "/>
<circle clip-path="url(#clip280)" cx="370.259" cy="136.625" r="20.48" fill="#009af9" fill-rule="evenodd" fill-opacity="1" stroke="#000000" stroke-opacity="1" stroke-width="3.82293"/>
<path clip-path="url(#clip280)" d="M456.204 150.016 L456.204 163.766 L451.921 163.766 L451.921 127.979 L456.204 127.979 L456.204 131.914 Q457.546 129.6 459.583 128.488 Q461.643 127.354 464.491 127.354 Q469.213 127.354 472.153 131.104 Q475.116 134.854 475.116 140.965 Q475.116 147.076 472.153 150.826 Q469.213 154.576 464.491 154.576 Q461.643 154.576 459.583 153.465 Q457.546 152.331 456.204 150.016 M470.694 140.965 Q470.694 136.266 468.75 133.604 Q466.829 130.919 463.449 130.919 Q460.069 130.919 458.125 133.604 Q456.204 136.266 456.204 140.965 Q456.204 145.664 458.125 148.349 Q460.069 151.011 463.449 151.011 Q466.829 151.011 468.75 148.349 Q470.694 145.664 470.694 140.965 Z" fill="#000000" fill-rule="nonzero" fill-opacity="1" /><path clip-path="url(#clip280)" d="M497.801 132.377 L527.476 132.377 L527.476 136.266 L497.801 136.266 L497.801 132.377 M497.801 141.822 L527.476 141.822 L527.476 145.757 L497.801 145.757 L497.801 141.822 Z" fill="#000000" fill-rule="nonzero" fill-opacity="1" /><path clip-path="url(#clip280)" d="M562.083 130.965 Q558.657 130.965 556.666 133.65 Q554.675 136.312 554.675 140.965 Q554.675 145.618 556.643 148.303 Q558.634 150.965 562.083 150.965 Q565.485 150.965 567.476 148.28 Q569.467 145.595 569.467 140.965 Q569.467 136.359 567.476 133.674 Q565.485 130.965 562.083 130.965 M562.083 127.354 Q567.638 127.354 570.81 130.965 Q573.981 134.576 573.981 140.965 Q573.981 147.331 570.81 150.965 Q567.638 154.576 562.083 154.576 Q556.504 154.576 553.333 150.965 Q550.185 147.331 550.185 140.965 Q550.185 134.576 553.333 130.965 Q556.504 127.354 562.083 127.354 Z" fill="#000000" fill-rule="nonzero" fill-opacity="1" /><path clip-path="url(#clip280)" d="M596.064 131.961 Q595.346 131.544 594.49 131.359 Q593.657 131.15 592.638 131.15 Q589.027 131.15 587.083 133.512 Q585.161 135.85 585.161 140.248 L585.161 153.905 L580.879 153.905 L580.879 127.979 L585.161 127.979 L585.161 132.007 Q586.504 129.646 588.657 128.512 Q590.809 127.354 593.888 127.354 Q594.328 127.354 594.86 127.424 Q595.393 127.47 596.041 127.586 L596.064 131.961 Z" fill="#000000" fill-rule="nonzero" fill-opacity="1" /><path clip-path="url(#clip280)" d="M600.532 127.979 L604.791 127.979 L604.791 153.905 L600.532 153.905 L600.532 127.979 M600.532 117.887 L604.791 117.887 L604.791 123.28 L600.532 123.28 L600.532 117.887 Z" fill="#000000" fill-rule="nonzero" fill-opacity="1" /><path clip-path="url(#clip280)" d="M630.763 140.641 Q630.763 136.012 628.842 133.465 Q626.943 130.919 623.494 130.919 Q620.069 130.919 618.147 133.465 Q616.249 136.012 616.249 140.641 Q616.249 145.248 618.147 147.794 Q620.069 150.34 623.494 150.34 Q626.943 150.34 628.842 147.794 Q630.763 145.248 630.763 140.641 M635.022 150.687 Q635.022 157.308 632.082 160.525 Q629.143 163.766 623.078 163.766 Q620.832 163.766 618.842 163.419 Q616.851 163.095 614.976 162.4 L614.976 158.257 Q616.851 159.275 618.68 159.761 Q620.508 160.248 622.406 160.248 Q626.596 160.248 628.68 158.048 Q630.763 155.873 630.763 151.451 L630.763 149.345 Q629.443 151.636 627.383 152.771 Q625.323 153.905 622.453 153.905 Q617.684 153.905 614.768 150.271 Q611.851 146.637 611.851 140.641 Q611.851 134.623 614.768 130.988 Q617.684 127.354 622.453 127.354 Q625.323 127.354 627.383 128.488 Q629.443 129.623 630.763 131.914 L630.763 127.979 L635.022 127.979 L635.022 150.687 Z" fill="#000000" fill-rule="nonzero" fill-opacity="1" /><path clip-path="url(#clip280)" d="M643.795 127.979 L648.054 127.979 L648.054 153.905 L643.795 153.905 L643.795 127.979 M643.795 117.887 L648.054 117.887 L648.054 123.28 L643.795 123.28 L643.795 117.887 Z" fill="#000000" fill-rule="nonzero" fill-opacity="1" /><path clip-path="url(#clip280)" d="M678.517 138.257 L678.517 153.905 L674.258 153.905 L674.258 138.396 Q674.258 134.715 672.823 132.887 Q671.388 131.058 668.517 131.058 Q665.068 131.058 663.078 133.257 Q661.087 135.456 661.087 139.252 L661.087 153.905 L656.804 153.905 L656.804 127.979 L661.087 127.979 L661.087 132.007 Q662.615 129.669 664.675 128.512 Q666.758 127.354 669.466 127.354 Q673.934 127.354 676.226 130.132 Q678.517 132.887 678.517 138.257 Z" fill="#000000" fill-rule="nonzero" fill-opacity="1" /><path clip-path="url(#clip280)" d="M698.795 140.873 Q693.633 140.873 691.642 142.053 Q689.651 143.234 689.651 146.081 Q689.651 148.349 691.133 149.692 Q692.638 151.011 695.207 151.011 Q698.749 151.011 700.878 148.511 Q703.031 145.988 703.031 141.822 L703.031 140.873 L698.795 140.873 M707.29 139.113 L707.29 153.905 L703.031 153.905 L703.031 149.97 Q701.573 152.331 699.397 153.465 Q697.221 154.576 694.073 154.576 Q690.091 154.576 687.73 152.354 Q685.392 150.109 685.392 146.359 Q685.392 141.984 688.309 139.762 Q691.249 137.539 697.059 137.539 L703.031 137.539 L703.031 137.123 Q703.031 134.183 701.087 132.586 Q699.165 130.965 695.67 130.965 Q693.448 130.965 691.341 131.498 Q689.235 132.03 687.29 133.095 L687.29 129.16 Q689.628 128.257 691.827 127.817 Q694.026 127.354 696.11 127.354 Q701.735 127.354 704.512 130.271 Q707.29 133.188 707.29 139.113 Z" fill="#000000" fill-rule="nonzero" fill-opacity="1" /><path clip-path="url(#clip280)" d="M716.063 117.887 L720.323 117.887 L720.323 153.905 L716.063 153.905 L716.063 117.887 Z" fill="#000000" fill-rule="nonzero" fill-opacity="1" /><circle clip-path="url(#clip280)" cx="370.259" cy="188.465" r="20.48" fill="#e26f46" fill-rule="evenodd" fill-opacity="1" stroke="#000000" stroke-opacity="1" stroke-width="3.82293"/>
<path clip-path="url(#clip280)" d="M456.204 201.856 L456.204 215.606 L451.921 215.606 L451.921 179.819 L456.204 179.819 L456.204 183.754 Q457.546 181.44 459.583 180.328 Q461.643 179.194 464.491 179.194 Q469.213 179.194 472.153 182.944 Q475.116 186.694 475.116 192.805 Q475.116 198.916 472.153 202.666 Q469.213 206.416 464.491 206.416 Q461.643 206.416 459.583 205.305 Q457.546 204.171 456.204 201.856 M470.694 192.805 Q470.694 188.106 468.75 185.444 Q466.829 182.759 463.449 182.759 Q460.069 182.759 458.125 185.444 Q456.204 188.106 456.204 192.805 Q456.204 197.504 458.125 200.189 Q460.069 202.851 463.449 202.851 Q466.829 202.851 468.75 200.189 Q470.694 197.504 470.694 192.805 Z" fill="#000000" fill-rule="nonzero" fill-opacity="1" /><path clip-path="url(#clip280)" d="M497.801 184.217 L527.476 184.217 L527.476 188.106 L497.801 188.106 L497.801 184.217 M497.801 193.662 L527.476 193.662 L527.476 197.597 L497.801 197.597 L497.801 193.662 Z" fill="#000000" fill-rule="nonzero" fill-opacity="1" /><path clip-path="url(#clip280)" d="M572.222 184.796 Q573.819 181.926 576.041 180.56 Q578.263 179.194 581.272 179.194 Q585.323 179.194 587.522 182.041 Q589.721 184.865 589.721 190.097 L589.721 205.745 L585.439 205.745 L585.439 190.236 Q585.439 186.509 584.12 184.703 Q582.8 182.898 580.092 182.898 Q576.782 182.898 574.86 185.097 Q572.939 187.296 572.939 191.092 L572.939 205.745 L568.657 205.745 L568.657 190.236 Q568.657 186.486 567.337 184.703 Q566.018 182.898 563.263 182.898 Q559.999 182.898 558.078 185.12 Q556.157 187.319 556.157 191.092 L556.157 205.745 L551.874 205.745 L551.874 179.819 L556.157 179.819 L556.157 183.847 Q557.615 181.463 559.652 180.328 Q561.689 179.194 564.49 179.194 Q567.314 179.194 569.282 180.629 Q571.272 182.065 572.222 184.796 Z" fill="#000000" fill-rule="nonzero" fill-opacity="1" /><path clip-path="url(#clip280)" d="M608.263 182.805 Q604.837 182.805 602.846 185.49 Q600.856 188.152 600.856 192.805 Q600.856 197.458 602.823 200.143 Q604.814 202.805 608.263 202.805 Q611.666 202.805 613.657 200.12 Q615.647 197.435 615.647 192.805 Q615.647 188.199 613.657 185.514 Q611.666 182.805 608.263 182.805 M608.263 179.194 Q613.819 179.194 616.99 182.805 Q620.161 186.416 620.161 192.805 Q620.161 199.171 616.99 202.805 Q613.819 206.416 608.263 206.416 Q602.684 206.416 599.513 202.805 Q596.365 199.171 596.365 192.805 Q596.365 186.416 599.513 182.805 Q602.684 179.194 608.263 179.194 Z" fill="#000000" fill-rule="nonzero" fill-opacity="1" /><path clip-path="url(#clip280)" d="M642.244 183.801 Q641.527 183.384 640.67 183.199 Q639.837 182.99 638.818 182.99 Q635.207 182.99 633.263 185.352 Q631.342 187.69 631.342 192.088 L631.342 205.745 L627.059 205.745 L627.059 179.819 L631.342 179.819 L631.342 183.847 Q632.684 181.486 634.837 180.352 Q636.99 179.194 640.068 179.194 Q640.508 179.194 641.041 179.264 Q641.573 179.31 642.221 179.426 L642.244 183.801 Z" fill="#000000" fill-rule="nonzero" fill-opacity="1" /><path clip-path="url(#clip280)" d="M667.846 191.717 L667.846 193.801 L648.263 193.801 Q648.541 198.199 650.902 200.514 Q653.286 202.805 657.522 202.805 Q659.976 202.805 662.267 202.203 Q664.582 201.601 666.851 200.398 L666.851 204.426 Q664.559 205.398 662.152 205.907 Q659.744 206.416 657.267 206.416 Q651.064 206.416 647.429 202.805 Q643.818 199.194 643.818 193.037 Q643.818 186.671 647.244 182.944 Q650.693 179.194 656.527 179.194 Q661.758 179.194 664.79 182.574 Q667.846 185.93 667.846 191.717 M663.587 190.467 Q663.54 186.972 661.619 184.889 Q659.721 182.805 656.573 182.805 Q653.008 182.805 650.855 184.819 Q648.726 186.833 648.402 190.49 L663.587 190.467 Z" fill="#000000" fill-rule="nonzero" fill-opacity="1" /><path clip-path="url(#clip280)" d="M706.434 180.583 L706.434 184.611 Q704.628 183.685 702.684 183.222 Q700.739 182.759 698.656 182.759 Q695.485 182.759 693.888 183.731 Q692.313 184.703 692.313 186.648 Q692.313 188.129 693.448 188.986 Q694.582 189.819 698.008 190.583 L699.466 190.907 Q704.003 191.879 705.901 193.662 Q707.823 195.421 707.823 198.592 Q707.823 202.203 704.952 204.31 Q702.105 206.416 697.105 206.416 Q695.022 206.416 692.753 206 Q690.508 205.606 688.008 204.796 L688.008 200.398 Q690.369 201.625 692.661 202.25 Q694.952 202.851 697.198 202.851 Q700.207 202.851 701.827 201.833 Q703.448 200.791 703.448 198.916 Q703.448 197.18 702.267 196.254 Q701.11 195.328 697.151 194.472 L695.67 194.125 Q691.712 193.291 689.952 191.578 Q688.193 189.842 688.193 186.833 Q688.193 183.176 690.786 181.185 Q693.378 179.194 698.147 179.194 Q700.508 179.194 702.591 179.541 Q704.675 179.889 706.434 180.583 Z" fill="#000000" fill-rule="nonzero" fill-opacity="1" /><path clip-path="url(#clip280)" d="M718.725 201.856 L718.725 215.606 L714.443 215.606 L714.443 179.819 L718.725 179.819 L718.725 183.754 Q720.068 181.44 722.105 180.328 Q724.165 179.194 727.012 179.194 Q731.735 179.194 734.674 182.944 Q737.637 186.694 737.637 192.805 Q737.637 198.916 734.674 202.666 Q731.735 206.416 727.012 206.416 Q724.165 206.416 722.105 205.305 Q720.068 204.171 718.725 201.856 M733.216 192.805 Q733.216 188.106 731.272 185.444 Q729.35 182.759 725.971 182.759 Q722.591 182.759 720.647 185.444 Q718.725 188.106 718.725 192.805 Q718.725 197.504 720.647 200.189 Q722.591 202.851 725.971 202.851 Q729.35 202.851 731.272 200.189 Q733.216 197.504 733.216 192.805 Z" fill="#000000" fill-rule="nonzero" fill-opacity="1" /><path clip-path="url(#clip280)" d="M759.721 183.801 Q759.003 183.384 758.146 183.199 Q757.313 182.99 756.295 182.99 Q752.684 182.99 750.739 185.352 Q748.818 187.69 748.818 192.088 L748.818 205.745 L744.535 205.745 L744.535 179.819 L748.818 179.819 L748.818 183.847 Q750.16 181.486 752.313 180.352 Q754.466 179.194 757.545 179.194 Q757.984 179.194 758.517 179.264 Q759.049 179.31 759.697 179.426 L759.721 183.801 Z" fill="#000000" fill-rule="nonzero" fill-opacity="1" /><path clip-path="url(#clip280)" d="M785.322 191.717 L785.322 193.801 L765.739 193.801 Q766.017 198.199 768.378 200.514 Q770.762 202.805 774.998 202.805 Q777.452 202.805 779.744 202.203 Q782.058 201.601 784.327 200.398 L784.327 204.426 Q782.035 205.398 779.628 205.907 Q777.22 206.416 774.744 206.416 Q768.54 206.416 764.906 202.805 Q761.295 199.194 761.295 193.037 Q761.295 186.671 764.721 182.944 Q768.17 179.194 774.003 179.194 Q779.234 179.194 782.267 182.574 Q785.322 185.93 785.322 191.717 M781.063 190.467 Q781.017 186.972 779.095 184.889 Q777.197 182.805 774.049 182.805 Q770.484 182.805 768.332 184.819 Q766.202 186.833 765.878 190.49 L781.063 190.467 Z" fill="#000000" fill-rule="nonzero" fill-opacity="1" /><path clip-path="url(#clip280)" d="M804.095 192.713 Q798.933 192.713 796.943 193.893 Q794.952 195.074 794.952 197.921 Q794.952 200.189 796.433 201.532 Q797.938 202.851 800.507 202.851 Q804.049 202.851 806.179 200.351 Q808.331 197.828 808.331 193.662 L808.331 192.713 L804.095 192.713 M812.591 190.953 L812.591 205.745 L808.331 205.745 L808.331 201.81 Q806.873 204.171 804.697 205.305 Q802.521 206.416 799.373 206.416 Q795.392 206.416 793.031 204.194 Q790.693 201.949 790.693 198.199 Q790.693 193.824 793.609 191.602 Q796.549 189.379 802.359 189.379 L808.331 189.379 L808.331 188.963 Q808.331 186.023 806.387 184.426 Q804.466 182.805 800.97 182.805 Q798.748 182.805 796.642 183.338 Q794.535 183.87 792.591 184.935 L792.591 181 Q794.929 180.097 797.128 179.657 Q799.327 179.194 801.41 179.194 Q807.035 179.194 809.813 182.111 Q812.591 185.028 812.591 190.953 Z" fill="#000000" fill-rule="nonzero" fill-opacity="1" /><path clip-path="url(#clip280)" d="M838.424 183.754 L838.424 169.727 L842.683 169.727 L842.683 205.745 L838.424 205.745 L838.424 201.856 Q837.081 204.171 835.021 205.305 Q832.984 206.416 830.114 206.416 Q825.415 206.416 822.452 202.666 Q819.512 198.916 819.512 192.805 Q819.512 186.694 822.452 182.944 Q825.415 179.194 830.114 179.194 Q832.984 179.194 835.021 180.328 Q837.081 181.44 838.424 183.754 M823.91 192.805 Q823.91 197.504 825.831 200.189 Q827.776 202.851 831.155 202.851 Q834.535 202.851 836.479 200.189 Q838.424 197.504 838.424 192.805 Q838.424 188.106 836.479 185.444 Q834.535 182.759 831.155 182.759 Q827.776 182.759 825.831 185.444 Q823.91 188.106 823.91 192.805 Z" fill="#000000" fill-rule="nonzero" fill-opacity="1" /></svg>
