<?xml version="1.0" encoding="utf-8"?>
<svg xmlns="http://www.w3.org/2000/svg" xmlns:xlink="http://www.w3.org/1999/xlink" width="528" height="336" viewBox="0 0 2112 1344">
<defs>
  <clipPath id="clip160">
    <rect x="0" y="0" width="2112" height="1344"/>
  </clipPath>
</defs>
<path clip-path="url(#clip160)" d="M0 1344 L2112 1344 L2112 2.13163e-14 L0 2.13163e-14  Z" fill="#ffffff" fill-rule="evenodd" fill-opacity="1"/>
<defs>
  <clipPath id="clip161">
    <rect x="274" y="47" width="1791" height="1127"/>
  </clipPath>
</defs>
<path clip-path="url(#clip160)" d="M274.664 1173.47 L2064.76 1173.47 L2064.76 47.2441 L274.664 47.2441  Z" fill="#ffffff" fill-rule="evenodd" fill-opacity="1"/>
<polyline clip-path="url(#clip161)" style="stroke:#000000; stroke-linecap:round; stroke-linejoin:round; stroke-width:2; stroke-opacity:0.1; fill:none" points="325.327,1173.47 325.327,47.2441 "/>
<polyline clip-path="url(#clip161)" style="stroke:#000000; stroke-linecap:round; stroke-linejoin:round; stroke-width:2; stroke-opacity:0.1; fill:none" points="663.08,1173.47 663.08,47.2441 "/>
<polyline clip-path="url(#clip161)" style="stroke:#000000; stroke-linecap:round; stroke-linejoin:round; stroke-width:2; stroke-opacity:0.1; fill:none" points="1000.83,1173.47 1000.83,47.2441 "/>
<polyline clip-path="url(#clip161)" style="stroke:#000000; stroke-linecap:round; stroke-linejoin:round; stroke-width:2; stroke-opacity:0.1; fill:none" points="1338.59,1173.47 1338.59,47.2441 "/>
<polyline clip-path="url(#clip161)" style="stroke:#000000; stroke-linecap:round; stroke-linejoin:round; stroke-width:2; stroke-opacity:0.1; fill:none" points="1676.34,1173.47 1676.34,47.2441 "/>
<polyline clip-path="url(#clip161)" style="stroke:#000000; stroke-linecap:round; stroke-linejoin:round; stroke-width:2; stroke-opacity:0.1; fill:none" points="2014.09,1173.47 2014.09,47.2441 "/>
<polyline clip-path="url(#clip161)" style="stroke:#000000; stroke-linecap:round; stroke-linejoin:round; stroke-width:2; stroke-opacity:0.1; fill:none" points="274.664,1141.6 2064.76,1141.6 "/>
<polyline clip-path="url(#clip161)" style="stroke:#000000; stroke-linecap:round; stroke-linejoin:round; stroke-width:2; stroke-opacity:0.1; fill:none" points="274.664,875.977 2064.76,875.977 "/>
<polyline clip-path="url(#clip161)" style="stroke:#000000; stroke-linecap:round; stroke-linejoin:round; stroke-width:2; stroke-opacity:0.1; fill:none" points="274.664,610.357 2064.76,610.357 "/>
<polyline clip-path="url(#clip161)" style="stroke:#000000; stroke-linecap:round; stroke-linejoin:round; stroke-width:2; stroke-opacity:0.1; fill:none" points="274.664,344.738 2064.76,344.738 "/>
<polyline clip-path="url(#clip161)" style="stroke:#000000; stroke-linecap:round; stroke-linejoin:round; stroke-width:2; stroke-opacity:0.1; fill:none" points="274.664,79.1184 2064.76,79.1184 "/>
<polyline clip-path="url(#clip160)" style="stroke:#000000; stroke-linecap:round; stroke-linejoin:round; stroke-width:4; stroke-opacity:1; fill:none" points="274.664,1173.47 2064.76,1173.47 "/>
<polyline clip-path="url(#clip160)" style="stroke:#000000; stroke-linecap:round; stroke-linejoin:round; stroke-width:4; stroke-opacity:1; fill:none" points="325.327,1173.47 325.327,1154.57 "/>
<polyline clip-path="url(#clip160)" style="stroke:#000000; stroke-linecap:round; stroke-linejoin:round; stroke-width:4; stroke-opacity:1; fill:none" points="663.08,1173.47 663.08,1154.57 "/>
<polyline clip-path="url(#clip160)" style="stroke:#000000; stroke-linecap:round; stroke-linejoin:round; stroke-width:4; stroke-opacity:1; fill:none" points="1000.83,1173.47 1000.83,1154.57 "/>
<polyline clip-path="url(#clip160)" style="stroke:#000000; stroke-linecap:round; stroke-linejoin:round; stroke-width:4; stroke-opacity:1; fill:none" points="1338.59,1173.47 1338.59,1154.57 "/>
<polyline clip-path="url(#clip160)" style="stroke:#000000; stroke-linecap:round; stroke-linejoin:round; stroke-width:4; stroke-opacity:1; fill:none" points="1676.34,1173.47 1676.34,1154.57 "/>
<polyline clip-path="url(#clip160)" style="stroke:#000000; stroke-linecap:round; stroke-linejoin:round; stroke-width:4; stroke-opacity:1; fill:none" points="2014.09,1173.47 2014.09,1154.57 "/>
<path clip-path="url(#clip160)" d="M325.327 1202.09 Q321.716 1202.09 319.887 1205.65 Q318.082 1209.19 318.082 1216.32 Q318.082 1223.43 319.887 1226.99 Q321.716 1230.53 325.327 1230.53 Q328.961 1230.53 330.767 1226.99 Q332.595 1223.43 332.595 1216.32 Q332.595 1209.19 330.767 1205.65 Q328.961 1202.09 325.327 1202.09 M325.327 1198.38 Q331.137 1198.38 334.193 1202.99 Q337.271 1207.57 337.271 1216.32 Q337.271 1225.05 334.193 1229.65 Q331.137 1234.24 325.327 1234.24 Q319.517 1234.24 316.438 1229.65 Q313.383 1225.05 313.383 1216.32 Q313.383 1207.57 316.438 1202.99 Q319.517 1198.38 325.327 1198.38 Z" fill="#000000" fill-rule="nonzero" fill-opacity="1" /><path clip-path="url(#clip160)" d="M653.462 1229.63 L661.101 1229.63 L661.101 1203.27 L652.791 1204.93 L652.791 1200.67 L661.055 1199.01 L665.731 1199.01 L665.731 1229.63 L673.369 1229.63 L673.369 1233.57 L653.462 1233.57 L653.462 1229.63 Z" fill="#000000" fill-rule="nonzero" fill-opacity="1" /><path clip-path="url(#clip160)" d="M995.486 1229.63 L1011.81 1229.63 L1011.81 1233.57 L989.861 1233.57 L989.861 1229.63 Q992.523 1226.88 997.106 1222.25 Q1001.71 1217.59 1002.89 1216.25 Q1005.14 1213.73 1006.02 1211.99 Q1006.92 1210.23 1006.92 1208.54 Q1006.92 1205.79 1004.98 1204.05 Q1003.06 1202.32 999.954 1202.32 Q997.755 1202.32 995.301 1203.08 Q992.87 1203.84 990.093 1205.4 L990.093 1200.67 Q992.917 1199.54 995.37 1198.96 Q997.824 1198.38 999.861 1198.38 Q1005.23 1198.38 1008.43 1201.07 Q1011.62 1203.75 1011.62 1208.24 Q1011.62 1210.37 1010.81 1212.29 Q1010.02 1214.19 1007.92 1216.78 Q1007.34 1217.46 1004.24 1220.67 Q1001.13 1223.87 995.486 1229.63 Z" fill="#000000" fill-rule="nonzero" fill-opacity="1" /><path clip-path="url(#clip160)" d="M1342.83 1214.93 Q1346.19 1215.65 1348.07 1217.92 Q1349.96 1220.19 1349.96 1223.52 Q1349.96 1228.64 1346.45 1231.44 Q1342.93 1234.24 1336.45 1234.24 Q1334.27 1234.24 1331.95 1233.8 Q1329.66 1233.38 1327.21 1232.53 L1327.21 1228.01 Q1329.15 1229.15 1331.47 1229.72 Q1333.78 1230.3 1336.31 1230.3 Q1340.7 1230.3 1343 1228.57 Q1345.31 1226.83 1345.31 1223.52 Q1345.31 1220.46 1343.16 1218.75 Q1341.03 1217.02 1337.21 1217.02 L1333.18 1217.02 L1333.18 1213.17 L1337.39 1213.17 Q1340.84 1213.17 1342.67 1211.81 Q1344.5 1210.42 1344.5 1207.83 Q1344.5 1205.16 1342.6 1203.75 Q1340.73 1202.32 1337.21 1202.32 Q1335.29 1202.32 1333.09 1202.73 Q1330.89 1203.15 1328.25 1204.03 L1328.25 1199.86 Q1330.91 1199.12 1333.23 1198.75 Q1335.57 1198.38 1337.63 1198.38 Q1342.95 1198.38 1346.05 1200.81 Q1349.15 1203.22 1349.15 1207.34 Q1349.15 1210.21 1347.51 1212.2 Q1345.87 1214.17 1342.83 1214.93 Z" fill="#000000" fill-rule="nonzero" fill-opacity="1" /><path clip-path="url(#clip160)" d="M1679.35 1203.08 L1667.54 1221.53 L1679.35 1221.53 L1679.35 1203.08 M1678.12 1199.01 L1684 1199.01 L1684 1221.53 L1688.93 1221.53 L1688.93 1225.42 L1684 1225.42 L1684 1233.57 L1679.35 1233.57 L1679.35 1225.42 L1663.75 1225.42 L1663.75 1220.9 L1678.12 1199.01 Z" fill="#000000" fill-rule="nonzero" fill-opacity="1" /><path clip-path="url(#clip160)" d="M2004.37 1199.01 L2022.73 1199.01 L2022.73 1202.94 L2008.65 1202.94 L2008.65 1211.41 Q2009.67 1211.07 2010.69 1210.9 Q2011.71 1210.72 2012.73 1210.72 Q2018.51 1210.72 2021.89 1213.89 Q2025.27 1217.06 2025.27 1222.48 Q2025.27 1228.06 2021.8 1231.16 Q2018.33 1234.24 2012.01 1234.24 Q2009.83 1234.24 2007.57 1233.87 Q2005.32 1233.5 2002.91 1232.76 L2002.91 1228.06 Q2005 1229.19 2007.22 1229.75 Q2009.44 1230.3 2011.92 1230.3 Q2015.92 1230.3 2018.26 1228.2 Q2020.6 1226.09 2020.6 1222.48 Q2020.6 1218.87 2018.26 1216.76 Q2015.92 1214.65 2011.92 1214.65 Q2010.04 1214.65 2008.17 1215.07 Q2006.32 1215.49 2004.37 1216.37 L2004.37 1199.01 Z" fill="#000000" fill-rule="nonzero" fill-opacity="1" /><path clip-path="url(#clip160)" d="M727.341 1266.49 L733.802 1266.49 L733.802 1295.36 Q733.802 1303 736.571 1306.38 Q739.34 1309.72 745.547 1309.72 Q751.722 1309.72 754.491 1306.38 Q757.26 1303 757.26 1295.36 L757.26 1266.49 L763.721 1266.49 L763.721 1296.16 Q763.721 1305.45 759.106 1310.2 Q754.523 1314.94 745.547 1314.94 Q736.539 1314.94 731.924 1310.2 Q727.341 1305.45 727.341 1296.16 L727.341 1266.49 Z" fill="#000000" fill-rule="nonzero" fill-opacity="1" /><path clip-path="url(#clip160)" d="M805.162 1292.5 L805.162 1314.01 L799.305 1314.01 L799.305 1292.69 Q799.305 1287.63 797.332 1285.11 Q795.359 1282.6 791.412 1282.6 Q786.669 1282.6 783.932 1285.62 Q781.195 1288.65 781.195 1293.87 L781.195 1314.01 L775.307 1314.01 L775.307 1278.37 L781.195 1278.37 L781.195 1283.9 Q783.296 1280.69 786.128 1279.1 Q788.993 1277.51 792.717 1277.51 Q798.86 1277.51 802.011 1281.33 Q805.162 1285.11 805.162 1292.5 Z" fill="#000000" fill-rule="nonzero" fill-opacity="1" /><path clip-path="url(#clip160)" d="M847.335 1294.73 L847.335 1297.59 L820.408 1297.59 Q820.79 1303.64 824.036 1306.82 Q827.314 1309.97 833.139 1309.97 Q836.513 1309.97 839.664 1309.14 Q842.847 1308.32 845.966 1306.66 L845.966 1312.2 Q842.815 1313.54 839.505 1314.24 Q836.195 1314.94 832.789 1314.94 Q824.259 1314.94 819.262 1309.97 Q814.297 1305.01 814.297 1296.54 Q814.297 1287.79 819.007 1282.66 Q823.75 1277.51 831.77 1277.51 Q838.964 1277.51 843.133 1282.15 Q847.335 1286.77 847.335 1294.73 M841.478 1293.01 Q841.415 1288.2 838.773 1285.34 Q836.163 1282.47 831.834 1282.47 Q826.933 1282.47 823.972 1285.24 Q821.044 1288.01 820.599 1293.04 L841.478 1293.01 Z" fill="#000000" fill-rule="nonzero" fill-opacity="1" /><path clip-path="url(#clip160)" d="M884.701 1285.21 Q886.897 1281.26 889.953 1279.39 Q893.009 1277.51 897.146 1277.51 Q902.716 1277.51 905.74 1281.42 Q908.764 1285.31 908.764 1292.5 L908.764 1314.01 L902.875 1314.01 L902.875 1292.69 Q902.875 1287.57 901.061 1285.08 Q899.247 1282.6 895.523 1282.6 Q890.972 1282.6 888.33 1285.62 Q885.688 1288.65 885.688 1293.87 L885.688 1314.01 L879.8 1314.01 L879.8 1292.69 Q879.8 1287.53 877.985 1285.08 Q876.171 1282.6 872.384 1282.6 Q867.896 1282.6 865.254 1285.66 Q862.612 1288.68 862.612 1293.87 L862.612 1314.01 L856.724 1314.01 L856.724 1278.37 L862.612 1278.37 L862.612 1283.9 Q864.618 1280.63 867.418 1279.07 Q870.219 1277.51 874.071 1277.51 Q877.954 1277.51 880.659 1279.48 Q883.396 1281.45 884.701 1285.21 Z" fill="#000000" fill-rule="nonzero" fill-opacity="1" /><path clip-path="url(#clip160)" d="M926.11 1308.67 L926.11 1327.57 L920.222 1327.57 L920.222 1278.37 L926.11 1278.37 L926.11 1283.78 Q927.956 1280.59 930.757 1279.07 Q933.59 1277.51 937.505 1277.51 Q943.998 1277.51 948.04 1282.66 Q952.114 1287.82 952.114 1296.22 Q952.114 1304.63 948.04 1309.78 Q943.998 1314.94 937.505 1314.94 Q933.59 1314.94 930.757 1313.41 Q927.956 1311.85 926.11 1308.67 M946.035 1296.22 Q946.035 1289.76 943.361 1286.1 Q940.72 1282.41 936.073 1282.41 Q931.426 1282.41 928.752 1286.1 Q926.11 1289.76 926.11 1296.22 Q926.11 1302.68 928.752 1306.38 Q931.426 1310.04 936.073 1310.04 Q940.72 1310.04 943.361 1306.38 Q946.035 1302.68 946.035 1296.22 Z" fill="#000000" fill-rule="nonzero" fill-opacity="1" /><path clip-path="url(#clip160)" d="M961.822 1264.49 L967.678 1264.49 L967.678 1314.01 L961.822 1314.01 L961.822 1264.49 Z" fill="#000000" fill-rule="nonzero" fill-opacity="1" /><path clip-path="url(#clip160)" d="M993.746 1282.47 Q989.035 1282.47 986.298 1286.16 Q983.561 1289.83 983.561 1296.22 Q983.561 1302.62 986.266 1306.31 Q989.003 1309.97 993.746 1309.97 Q998.425 1309.97 1001.16 1306.28 Q1003.9 1302.59 1003.9 1296.22 Q1003.9 1289.89 1001.16 1286.2 Q998.425 1282.47 993.746 1282.47 M993.746 1277.51 Q1001.38 1277.51 1005.75 1282.47 Q1010.11 1287.44 1010.11 1296.22 Q1010.11 1304.98 1005.75 1309.97 Q1001.38 1314.94 993.746 1314.94 Q986.075 1314.94 981.715 1309.97 Q977.386 1304.98 977.386 1296.22 Q977.386 1287.44 981.715 1282.47 Q986.075 1277.51 993.746 1277.51 Z" fill="#000000" fill-rule="nonzero" fill-opacity="1" /><path clip-path="url(#clip160)" d="M1034.65 1317.32 Q1032.16 1323.69 1029.81 1325.63 Q1027.45 1327.57 1023.51 1327.57 L1018.83 1327.57 L1018.83 1322.67 L1022.26 1322.67 Q1024.68 1322.67 1026.02 1321.53 Q1027.36 1320.38 1028.98 1316.12 L1030.03 1313.44 L1015.61 1278.37 L1021.82 1278.37 L1032.96 1306.25 L1044.1 1278.37 L1050.31 1278.37 L1034.65 1317.32 Z" fill="#000000" fill-rule="nonzero" fill-opacity="1" /><path clip-path="url(#clip160)" d="M1086.14 1285.21 Q1088.34 1281.26 1091.4 1279.39 Q1094.45 1277.51 1098.59 1277.51 Q1104.16 1277.51 1107.18 1281.42 Q1110.21 1285.31 1110.21 1292.5 L1110.21 1314.01 L1104.32 1314.01 L1104.32 1292.69 Q1104.32 1287.57 1102.5 1285.08 Q1100.69 1282.6 1096.97 1282.6 Q1092.41 1282.6 1089.77 1285.62 Q1087.13 1288.65 1087.13 1293.87 L1087.13 1314.01 L1081.24 1314.01 L1081.24 1292.69 Q1081.24 1287.53 1079.43 1285.08 Q1077.61 1282.6 1073.83 1282.6 Q1069.34 1282.6 1066.7 1285.66 Q1064.06 1288.68 1064.06 1293.87 L1064.06 1314.01 L1058.17 1314.01 L1058.17 1278.37 L1064.06 1278.37 L1064.06 1283.9 Q1066.06 1280.63 1068.86 1279.07 Q1071.66 1277.51 1075.51 1277.51 Q1079.4 1277.51 1082.1 1279.48 Q1084.84 1281.45 1086.14 1285.21 Z" fill="#000000" fill-rule="nonzero" fill-opacity="1" /><path clip-path="url(#clip160)" d="M1152.38 1294.73 L1152.38 1297.59 L1125.45 1297.59 Q1125.83 1303.64 1129.08 1306.82 Q1132.36 1309.97 1138.18 1309.97 Q1141.56 1309.97 1144.71 1309.14 Q1147.89 1308.32 1151.01 1306.66 L1151.01 1312.2 Q1147.86 1313.54 1144.55 1314.24 Q1141.24 1314.94 1137.83 1314.94 Q1129.3 1314.94 1124.31 1309.97 Q1119.34 1305.01 1119.34 1296.54 Q1119.34 1287.79 1124.05 1282.66 Q1128.79 1277.51 1136.82 1277.51 Q1144.01 1277.51 1148.18 1282.15 Q1152.38 1286.77 1152.38 1294.73 M1146.52 1293.01 Q1146.46 1288.2 1143.82 1285.34 Q1141.21 1282.47 1136.88 1282.47 Q1131.98 1282.47 1129.02 1285.24 Q1126.09 1288.01 1125.64 1293.04 L1146.52 1293.01 Z" fill="#000000" fill-rule="nonzero" fill-opacity="1" /><path clip-path="url(#clip160)" d="M1191.62 1292.5 L1191.62 1314.01 L1185.77 1314.01 L1185.77 1292.69 Q1185.77 1287.63 1183.79 1285.11 Q1181.82 1282.6 1177.87 1282.6 Q1173.13 1282.6 1170.39 1285.62 Q1167.66 1288.65 1167.66 1293.87 L1167.66 1314.01 L1161.77 1314.01 L1161.77 1278.37 L1167.66 1278.37 L1167.66 1283.9 Q1169.76 1280.69 1172.59 1279.1 Q1175.45 1277.51 1179.18 1277.51 Q1185.32 1277.51 1188.47 1281.33 Q1191.62 1285.11 1191.62 1292.5 Z" fill="#000000" fill-rule="nonzero" fill-opacity="1" /><path clip-path="url(#clip160)" d="M1209.1 1268.25 L1209.1 1278.37 L1221.16 1278.37 L1221.16 1282.92 L1209.1 1282.92 L1209.1 1302.27 Q1209.1 1306.63 1210.28 1307.87 Q1211.48 1309.11 1215.15 1309.11 L1221.16 1309.11 L1221.16 1314.01 L1215.15 1314.01 Q1208.37 1314.01 1205.79 1311.5 Q1203.21 1308.95 1203.21 1302.27 L1203.21 1282.92 L1198.91 1282.92 L1198.91 1278.37 L1203.21 1278.37 L1203.21 1268.25 L1209.1 1268.25 Z" fill="#000000" fill-rule="nonzero" fill-opacity="1" /><path clip-path="url(#clip160)" d="M1256.27 1291.32 L1256.27 1308.73 L1266.58 1308.73 Q1271.77 1308.73 1274.25 1306.6 Q1276.77 1304.43 1276.77 1300.01 Q1276.77 1295.55 1274.25 1293.45 Q1271.77 1291.32 1266.58 1291.32 L1256.27 1291.32 M1256.27 1271.78 L1256.27 1286.1 L1265.78 1286.1 Q1270.49 1286.1 1272.79 1284.35 Q1275.11 1282.57 1275.11 1278.94 Q1275.11 1275.34 1272.79 1273.56 Q1270.49 1271.78 1265.78 1271.78 L1256.27 1271.78 M1249.84 1266.49 L1266.26 1266.49 Q1273.61 1266.49 1277.59 1269.55 Q1281.57 1272.61 1281.57 1278.24 Q1281.57 1282.6 1279.53 1285.18 Q1277.5 1287.76 1273.55 1288.39 Q1278.29 1289.41 1280.9 1292.66 Q1283.54 1295.87 1283.54 1300.71 Q1283.54 1307.08 1279.22 1310.55 Q1274.89 1314.01 1266.9 1314.01 L1249.84 1314.01 L1249.84 1266.49 Z" fill="#000000" fill-rule="nonzero" fill-opacity="1" /><path clip-path="url(#clip160)" d="M1324.79 1294.73 L1324.79 1297.59 L1297.87 1297.59 Q1298.25 1303.64 1301.5 1306.82 Q1304.77 1309.97 1310.6 1309.97 Q1313.97 1309.97 1317.12 1309.14 Q1320.31 1308.32 1323.43 1306.66 L1323.43 1312.2 Q1320.27 1313.54 1316.96 1314.24 Q1313.65 1314.94 1310.25 1314.94 Q1301.72 1314.94 1296.72 1309.97 Q1291.76 1305.01 1291.76 1296.54 Q1291.76 1287.79 1296.47 1282.66 Q1301.21 1277.51 1309.23 1277.51 Q1316.42 1277.51 1320.59 1282.15 Q1324.79 1286.77 1324.79 1294.73 M1318.94 1293.01 Q1318.87 1288.2 1316.23 1285.34 Q1313.62 1282.47 1309.29 1282.47 Q1304.39 1282.47 1301.43 1285.24 Q1298.5 1288.01 1298.06 1293.04 L1318.94 1293.01 Z" fill="#000000" fill-rule="nonzero" fill-opacity="1" /><path clip-path="url(#clip160)" d="M1364.04 1292.5 L1364.04 1314.01 L1358.18 1314.01 L1358.18 1292.69 Q1358.18 1287.63 1356.21 1285.11 Q1354.24 1282.6 1350.29 1282.6 Q1345.55 1282.6 1342.81 1285.62 Q1340.07 1288.65 1340.07 1293.87 L1340.07 1314.01 L1334.18 1314.01 L1334.18 1278.37 L1340.07 1278.37 L1340.07 1283.9 Q1342.17 1280.69 1345.01 1279.1 Q1347.87 1277.51 1351.59 1277.51 Q1357.74 1277.51 1360.89 1281.33 Q1364.04 1285.11 1364.04 1292.5 Z" fill="#000000" fill-rule="nonzero" fill-opacity="1" /><path clip-path="url(#clip160)" d="M1406.21 1294.73 L1406.21 1297.59 L1379.28 1297.59 Q1379.67 1303.64 1382.91 1306.82 Q1386.19 1309.97 1392.02 1309.97 Q1395.39 1309.97 1398.54 1309.14 Q1401.72 1308.32 1404.84 1306.66 L1404.84 1312.2 Q1401.69 1313.54 1398.38 1314.24 Q1395.07 1314.94 1391.67 1314.94 Q1383.14 1314.94 1378.14 1309.97 Q1373.17 1305.01 1373.17 1296.54 Q1373.17 1287.79 1377.88 1282.66 Q1382.63 1277.51 1390.65 1277.51 Q1397.84 1277.51 1402.01 1282.15 Q1406.21 1286.77 1406.21 1294.73 M1400.36 1293.01 Q1400.29 1288.2 1397.65 1285.34 Q1395.04 1282.47 1390.71 1282.47 Q1385.81 1282.47 1382.85 1285.24 Q1379.92 1288.01 1379.48 1293.04 L1400.36 1293.01 Z" fill="#000000" fill-rule="nonzero" fill-opacity="1" /><path clip-path="url(#clip160)" d="M1433.87 1264.49 L1433.87 1269.36 L1428.27 1269.36 Q1425.12 1269.36 1423.88 1270.63 Q1422.67 1271.91 1422.67 1275.22 L1422.67 1278.37 L1432.31 1278.37 L1432.31 1282.92 L1422.67 1282.92 L1422.67 1314.01 L1416.78 1314.01 L1416.78 1282.92 L1411.18 1282.92 L1411.18 1278.37 L1416.78 1278.37 L1416.78 1275.88 Q1416.78 1269.93 1419.55 1267.23 Q1422.32 1264.49 1428.33 1264.49 L1433.87 1264.49 Z" fill="#000000" fill-rule="nonzero" fill-opacity="1" /><path clip-path="url(#clip160)" d="M1438.77 1278.37 L1444.63 1278.37 L1444.63 1314.01 L1438.77 1314.01 L1438.77 1278.37 M1438.77 1264.49 L1444.63 1264.49 L1444.63 1271.91 L1438.77 1271.91 L1438.77 1264.49 Z" fill="#000000" fill-rule="nonzero" fill-opacity="1" /><path clip-path="url(#clip160)" d="M1462.68 1268.25 L1462.68 1278.37 L1474.74 1278.37 L1474.74 1282.92 L1462.68 1282.92 L1462.68 1302.27 Q1462.68 1306.63 1463.85 1307.87 Q1465.06 1309.11 1468.72 1309.11 L1474.74 1309.11 L1474.74 1314.01 L1468.72 1314.01 Q1461.94 1314.01 1459.37 1311.5 Q1456.79 1308.95 1456.79 1302.27 L1456.79 1282.92 L1452.49 1282.92 L1452.49 1278.37 L1456.79 1278.37 L1456.79 1268.25 L1462.68 1268.25 Z" fill="#000000" fill-rule="nonzero" fill-opacity="1" /><path clip-path="url(#clip160)" d="M1505.17 1279.42 L1505.17 1284.96 Q1502.68 1283.68 1500.01 1283.05 Q1497.34 1282.41 1494.47 1282.41 Q1490.11 1282.41 1487.92 1283.75 Q1485.75 1285.08 1485.75 1287.76 Q1485.75 1289.79 1487.31 1290.97 Q1488.87 1292.12 1493.58 1293.17 L1495.59 1293.61 Q1501.82 1294.95 1504.43 1297.4 Q1507.08 1299.82 1507.08 1304.18 Q1507.08 1309.14 1503.13 1312.04 Q1499.21 1314.94 1492.34 1314.94 Q1489.48 1314.94 1486.36 1314.36 Q1483.27 1313.82 1479.83 1312.71 L1479.83 1306.66 Q1483.08 1308.35 1486.23 1309.21 Q1489.38 1310.04 1492.47 1310.04 Q1496.6 1310.04 1498.83 1308.64 Q1501.06 1307.2 1501.06 1304.63 Q1501.06 1302.24 1499.44 1300.97 Q1497.85 1299.69 1492.4 1298.51 L1490.37 1298.04 Q1484.92 1296.89 1482.5 1294.54 Q1480.09 1292.15 1480.09 1288.01 Q1480.09 1282.98 1483.65 1280.24 Q1487.22 1277.51 1493.77 1277.51 Q1497.02 1277.51 1499.88 1277.98 Q1502.75 1278.46 1505.17 1279.42 Z" fill="#000000" fill-rule="nonzero" fill-opacity="1" /><path clip-path="url(#clip160)" d="M1551.19 1264.55 Q1546.93 1271.87 1544.86 1279.04 Q1542.79 1286.2 1542.79 1293.55 Q1542.79 1300.9 1544.86 1308.13 Q1546.96 1315.32 1551.19 1322.61 L1546.1 1322.61 Q1541.32 1315.13 1538.94 1307.9 Q1536.58 1300.68 1536.58 1293.55 Q1536.58 1286.45 1538.94 1279.26 Q1541.29 1272.06 1546.1 1264.55 L1551.19 1264.55 Z" fill="#000000" fill-rule="nonzero" fill-opacity="1" /><path clip-path="url(#clip160)" d="M1588.21 1279.74 L1588.21 1285.21 Q1585.72 1283.84 1583.21 1283.17 Q1580.73 1282.47 1578.18 1282.47 Q1572.48 1282.47 1569.33 1286.1 Q1566.18 1289.7 1566.18 1296.22 Q1566.18 1302.75 1569.33 1306.38 Q1572.48 1309.97 1578.18 1309.97 Q1580.73 1309.97 1583.21 1309.3 Q1585.72 1308.6 1588.21 1307.24 L1588.21 1312.65 Q1585.76 1313.79 1583.11 1314.36 Q1580.5 1314.94 1577.54 1314.94 Q1569.49 1314.94 1564.75 1309.88 Q1560.01 1304.82 1560.01 1296.22 Q1560.01 1287.5 1564.78 1282.5 Q1569.59 1277.51 1577.93 1277.51 Q1580.63 1277.51 1583.21 1278.08 Q1585.79 1278.62 1588.21 1279.74 Z" fill="#000000" fill-rule="nonzero" fill-opacity="1" /><path clip-path="url(#clip160)" d="M1597.47 1264.55 L1602.56 1264.55 Q1607.34 1272.06 1609.69 1279.26 Q1612.08 1286.45 1612.08 1293.55 Q1612.08 1300.68 1609.69 1307.9 Q1607.34 1315.13 1602.56 1322.61 L1597.47 1322.61 Q1601.7 1315.32 1603.77 1308.13 Q1605.87 1300.9 1605.87 1293.55 Q1605.87 1286.2 1603.77 1279.04 Q1601.7 1271.87 1597.47 1264.55 Z" fill="#000000" fill-rule="nonzero" fill-opacity="1" /><polyline clip-path="url(#clip160)" style="stroke:#000000; stroke-linecap:round; stroke-linejoin:round; stroke-width:4; stroke-opacity:1; fill:none" points="274.664,1173.47 274.664,47.2441 "/>
<polyline clip-path="url(#clip160)" style="stroke:#000000; stroke-linecap:round; stroke-linejoin:round; stroke-width:4; stroke-opacity:1; fill:none" points="274.664,1141.6 293.562,1141.6 "/>
<polyline clip-path="url(#clip160)" style="stroke:#000000; stroke-linecap:round; stroke-linejoin:round; stroke-width:4; stroke-opacity:1; fill:none" points="274.664,875.977 293.562,875.977 "/>
<polyline clip-path="url(#clip160)" style="stroke:#000000; stroke-linecap:round; stroke-linejoin:round; stroke-width:4; stroke-opacity:1; fill:none" points="274.664,610.357 293.562,610.357 "/>
<polyline clip-path="url(#clip160)" style="stroke:#000000; stroke-linecap:round; stroke-linejoin:round; stroke-width:4; stroke-opacity:1; fill:none" points="274.664,344.738 293.562,344.738 "/>
<polyline clip-path="url(#clip160)" style="stroke:#000000; stroke-linecap:round; stroke-linejoin:round; stroke-width:4; stroke-opacity:1; fill:none" points="274.664,79.1184 293.562,79.1184 "/>
<path clip-path="url(#clip160)" d="M125.485 1127.4 Q121.873 1127.4 120.045 1130.96 Q118.239 1134.5 118.239 1141.63 Q118.239 1148.74 120.045 1152.3 Q121.873 1155.84 125.485 1155.84 Q129.119 1155.84 130.924 1152.3 Q132.753 1148.74 132.753 1141.63 Q132.753 1134.5 130.924 1130.96 Q129.119 1127.4 125.485 1127.4 M125.485 1123.69 Q131.295 1123.69 134.35 1128.3 Q137.429 1132.88 137.429 1141.63 Q137.429 1150.36 134.35 1154.96 Q131.295 1159.55 125.485 1159.55 Q119.674 1159.55 116.596 1154.96 Q113.54 1150.36 113.54 1141.63 Q113.54 1132.88 116.596 1128.3 Q119.674 1123.69 125.485 1123.69 Z" fill="#000000" fill-rule="nonzero" fill-opacity="1" /><path clip-path="url(#clip160)" d="M145.646 1153 L150.531 1153 L150.531 1158.88 L145.646 1158.88 L145.646 1153 Z" fill="#000000" fill-rule="nonzero" fill-opacity="1" /><path clip-path="url(#clip160)" d="M164.744 1154.94 L181.063 1154.94 L181.063 1158.88 L159.119 1158.88 L159.119 1154.94 Q161.781 1152.19 166.364 1147.56 Q170.97 1142.9 172.151 1141.56 Q174.396 1139.04 175.276 1137.3 Q176.179 1135.54 176.179 1133.85 Q176.179 1131.1 174.234 1129.36 Q172.313 1127.63 169.211 1127.63 Q167.012 1127.63 164.558 1128.39 Q162.128 1129.15 159.35 1130.71 L159.35 1125.98 Q162.174 1124.85 164.628 1124.27 Q167.082 1123.69 169.119 1123.69 Q174.489 1123.69 177.683 1126.38 Q180.878 1129.06 180.878 1133.55 Q180.878 1135.68 180.068 1137.6 Q179.281 1139.5 177.174 1142.09 Q176.595 1142.77 173.494 1145.98 Q170.392 1149.18 164.744 1154.94 Z" fill="#000000" fill-rule="nonzero" fill-opacity="1" /><path clip-path="url(#clip160)" d="M200.878 1127.4 Q197.267 1127.4 195.438 1130.96 Q193.632 1134.5 193.632 1141.63 Q193.632 1148.74 195.438 1152.3 Q197.267 1155.84 200.878 1155.84 Q204.512 1155.84 206.317 1152.3 Q208.146 1148.74 208.146 1141.63 Q208.146 1134.5 206.317 1130.96 Q204.512 1127.4 200.878 1127.4 M200.878 1123.69 Q206.688 1123.69 209.743 1128.3 Q212.822 1132.88 212.822 1141.63 Q212.822 1150.36 209.743 1154.96 Q206.688 1159.55 200.878 1159.55 Q195.067 1159.55 191.989 1154.96 Q188.933 1150.36 188.933 1141.63 Q188.933 1132.88 191.989 1128.3 Q195.067 1123.69 200.878 1123.69 Z" fill="#000000" fill-rule="nonzero" fill-opacity="1" /><path clip-path="url(#clip160)" d="M231.04 1127.4 Q227.428 1127.4 225.6 1130.96 Q223.794 1134.5 223.794 1141.63 Q223.794 1148.74 225.6 1152.3 Q227.428 1155.84 231.04 1155.84 Q234.674 1155.84 236.479 1152.3 Q238.308 1148.74 238.308 1141.63 Q238.308 1134.5 236.479 1130.96 Q234.674 1127.4 231.04 1127.4 M231.04 1123.69 Q236.85 1123.69 239.905 1128.3 Q242.984 1132.88 242.984 1141.63 Q242.984 1150.36 239.905 1154.96 Q236.85 1159.55 231.04 1159.55 Q225.229 1159.55 222.151 1154.96 Q219.095 1150.36 219.095 1141.63 Q219.095 1132.88 222.151 1128.3 Q225.229 1123.69 231.04 1123.69 Z" fill="#000000" fill-rule="nonzero" fill-opacity="1" /><path clip-path="url(#clip160)" d="M126.48 861.776 Q122.869 861.776 121.04 865.34 Q119.235 868.882 119.235 876.012 Q119.235 883.118 121.04 886.683 Q122.869 890.225 126.48 890.225 Q130.114 890.225 131.92 886.683 Q133.748 883.118 133.748 876.012 Q133.748 868.882 131.92 865.34 Q130.114 861.776 126.48 861.776 M126.48 858.072 Q132.29 858.072 135.346 862.678 Q138.424 867.262 138.424 876.012 Q138.424 884.738 135.346 889.345 Q132.29 893.928 126.48 893.928 Q120.67 893.928 117.591 889.345 Q114.536 884.738 114.536 876.012 Q114.536 867.262 117.591 862.678 Q120.67 858.072 126.48 858.072 Z" fill="#000000" fill-rule="nonzero" fill-opacity="1" /><path clip-path="url(#clip160)" d="M146.642 887.377 L151.526 887.377 L151.526 893.257 L146.642 893.257 L146.642 887.377 Z" fill="#000000" fill-rule="nonzero" fill-opacity="1" /><path clip-path="url(#clip160)" d="M165.739 889.322 L182.058 889.322 L182.058 893.257 L160.114 893.257 L160.114 889.322 Q162.776 886.567 167.359 881.938 Q171.966 877.285 173.146 875.942 Q175.392 873.419 176.271 871.683 Q177.174 869.924 177.174 868.234 Q177.174 865.479 175.23 863.743 Q173.308 862.007 170.207 862.007 Q168.007 862.007 165.554 862.771 Q163.123 863.535 160.345 865.086 L160.345 860.364 Q163.17 859.229 165.623 858.651 Q168.077 858.072 170.114 858.072 Q175.484 858.072 178.679 860.757 Q181.873 863.442 181.873 867.933 Q181.873 870.063 181.063 871.984 Q180.276 873.882 178.169 876.475 Q177.591 877.146 174.489 880.363 Q171.387 883.558 165.739 889.322 Z" fill="#000000" fill-rule="nonzero" fill-opacity="1" /><path clip-path="url(#clip160)" d="M195.901 889.322 L212.22 889.322 L212.22 893.257 L190.276 893.257 L190.276 889.322 Q192.938 886.567 197.521 881.938 Q202.128 877.285 203.308 875.942 Q205.554 873.419 206.433 871.683 Q207.336 869.924 207.336 868.234 Q207.336 865.479 205.392 863.743 Q203.47 862.007 200.368 862.007 Q198.169 862.007 195.716 862.771 Q193.285 863.535 190.507 865.086 L190.507 860.364 Q193.331 859.229 195.785 858.651 Q198.239 858.072 200.276 858.072 Q205.646 858.072 208.841 860.757 Q212.035 863.442 212.035 867.933 Q212.035 870.063 211.225 871.984 Q210.438 873.882 208.331 876.475 Q207.753 877.146 204.651 880.363 Q201.549 883.558 195.901 889.322 Z" fill="#000000" fill-rule="nonzero" fill-opacity="1" /><path clip-path="url(#clip160)" d="M222.081 858.697 L240.438 858.697 L240.438 862.632 L226.364 862.632 L226.364 871.104 Q227.382 870.757 228.401 870.595 Q229.419 870.41 230.438 870.41 Q236.225 870.41 239.604 873.581 Q242.984 876.752 242.984 882.169 Q242.984 887.748 239.512 890.85 Q236.04 893.928 229.72 893.928 Q227.544 893.928 225.276 893.558 Q223.03 893.187 220.623 892.447 L220.623 887.748 Q222.706 888.882 224.928 889.437 Q227.151 889.993 229.627 889.993 Q233.632 889.993 235.97 887.887 Q238.308 885.78 238.308 882.169 Q238.308 878.558 235.97 876.451 Q233.632 874.345 229.627 874.345 Q227.753 874.345 225.878 874.762 Q224.026 875.178 222.081 876.058 L222.081 858.697 Z" fill="#000000" fill-rule="nonzero" fill-opacity="1" /><path clip-path="url(#clip160)" d="M125.485 596.156 Q121.873 596.156 120.045 599.721 Q118.239 603.263 118.239 610.392 Q118.239 617.499 120.045 621.063 Q121.873 624.605 125.485 624.605 Q129.119 624.605 130.924 621.063 Q132.753 617.499 132.753 610.392 Q132.753 603.263 130.924 599.721 Q129.119 596.156 125.485 596.156 M125.485 592.452 Q131.295 592.452 134.35 597.059 Q137.429 601.642 137.429 610.392 Q137.429 619.119 134.35 623.725 Q131.295 628.309 125.485 628.309 Q119.674 628.309 116.596 623.725 Q113.54 619.119 113.54 610.392 Q113.54 601.642 116.596 597.059 Q119.674 592.452 125.485 592.452 Z" fill="#000000" fill-rule="nonzero" fill-opacity="1" /><path clip-path="url(#clip160)" d="M145.646 621.758 L150.531 621.758 L150.531 627.637 L145.646 627.637 L145.646 621.758 Z" fill="#000000" fill-rule="nonzero" fill-opacity="1" /><path clip-path="url(#clip160)" d="M164.744 623.702 L181.063 623.702 L181.063 627.637 L159.119 627.637 L159.119 623.702 Q161.781 620.948 166.364 616.318 Q170.97 611.665 172.151 610.323 Q174.396 607.8 175.276 606.063 Q176.179 604.304 176.179 602.614 Q176.179 599.86 174.234 598.124 Q172.313 596.388 169.211 596.388 Q167.012 596.388 164.558 597.151 Q162.128 597.915 159.35 599.466 L159.35 594.744 Q162.174 593.61 164.628 593.031 Q167.082 592.452 169.119 592.452 Q174.489 592.452 177.683 595.138 Q180.878 597.823 180.878 602.313 Q180.878 604.443 180.068 606.364 Q179.281 608.263 177.174 610.855 Q176.595 611.526 173.494 614.744 Q170.392 617.938 164.744 623.702 Z" fill="#000000" fill-rule="nonzero" fill-opacity="1" /><path clip-path="url(#clip160)" d="M190.924 593.077 L209.28 593.077 L209.28 597.013 L195.206 597.013 L195.206 605.485 Q196.225 605.138 197.243 604.976 Q198.262 604.79 199.28 604.79 Q205.067 604.79 208.447 607.962 Q211.827 611.133 211.827 616.55 Q211.827 622.128 208.354 625.23 Q204.882 628.309 198.563 628.309 Q196.387 628.309 194.118 627.938 Q191.873 627.568 189.466 626.827 L189.466 622.128 Q191.549 623.262 193.771 623.818 Q195.993 624.374 198.47 624.374 Q202.475 624.374 204.813 622.267 Q207.151 620.161 207.151 616.55 Q207.151 612.938 204.813 610.832 Q202.475 608.725 198.47 608.725 Q196.595 608.725 194.72 609.142 Q192.868 609.559 190.924 610.438 L190.924 593.077 Z" fill="#000000" fill-rule="nonzero" fill-opacity="1" /><path clip-path="url(#clip160)" d="M231.04 596.156 Q227.428 596.156 225.6 599.721 Q223.794 603.263 223.794 610.392 Q223.794 617.499 225.6 621.063 Q227.428 624.605 231.04 624.605 Q234.674 624.605 236.479 621.063 Q238.308 617.499 238.308 610.392 Q238.308 603.263 236.479 599.721 Q234.674 596.156 231.04 596.156 M231.04 592.452 Q236.85 592.452 239.905 597.059 Q242.984 601.642 242.984 610.392 Q242.984 619.119 239.905 623.725 Q236.85 628.309 231.04 628.309 Q225.229 628.309 222.151 623.725 Q219.095 619.119 219.095 610.392 Q219.095 601.642 222.151 597.059 Q225.229 592.452 231.04 592.452 Z" fill="#000000" fill-rule="nonzero" fill-opacity="1" /><path clip-path="url(#clip160)" d="M126.48 330.537 Q122.869 330.537 121.04 334.101 Q119.235 337.643 119.235 344.773 Q119.235 351.879 121.04 355.444 Q122.869 358.986 126.48 358.986 Q130.114 358.986 131.92 355.444 Q133.748 351.879 133.748 344.773 Q133.748 337.643 131.92 334.101 Q130.114 330.537 126.48 330.537 M126.48 326.833 Q132.29 326.833 135.346 331.439 Q138.424 336.023 138.424 344.773 Q138.424 353.499 135.346 358.106 Q132.29 362.689 126.48 362.689 Q120.67 362.689 117.591 358.106 Q114.536 353.499 114.536 344.773 Q114.536 336.023 117.591 331.439 Q120.67 326.833 126.48 326.833 Z" fill="#000000" fill-rule="nonzero" fill-opacity="1" /><path clip-path="url(#clip160)" d="M146.642 356.138 L151.526 356.138 L151.526 362.018 L146.642 362.018 L146.642 356.138 Z" fill="#000000" fill-rule="nonzero" fill-opacity="1" /><path clip-path="url(#clip160)" d="M165.739 358.083 L182.058 358.083 L182.058 362.018 L160.114 362.018 L160.114 358.083 Q162.776 355.328 167.359 350.699 Q171.966 346.046 173.146 344.703 Q175.392 342.18 176.271 340.444 Q177.174 338.685 177.174 336.995 Q177.174 334.24 175.23 332.504 Q173.308 330.768 170.207 330.768 Q168.007 330.768 165.554 331.532 Q163.123 332.296 160.345 333.847 L160.345 329.125 Q163.17 327.99 165.623 327.412 Q168.077 326.833 170.114 326.833 Q175.484 326.833 178.679 329.518 Q181.873 332.203 181.873 336.694 Q181.873 338.824 181.063 340.745 Q180.276 342.643 178.169 345.236 Q177.591 345.907 174.489 349.124 Q171.387 352.319 165.739 358.083 Z" fill="#000000" fill-rule="nonzero" fill-opacity="1" /><path clip-path="url(#clip160)" d="M190.693 327.458 L212.915 327.458 L212.915 329.449 L200.368 362.018 L195.484 362.018 L207.29 331.393 L190.693 331.393 L190.693 327.458 Z" fill="#000000" fill-rule="nonzero" fill-opacity="1" /><path clip-path="url(#clip160)" d="M222.081 327.458 L240.438 327.458 L240.438 331.393 L226.364 331.393 L226.364 339.865 Q227.382 339.518 228.401 339.356 Q229.419 339.171 230.438 339.171 Q236.225 339.171 239.604 342.342 Q242.984 345.513 242.984 350.93 Q242.984 356.509 239.512 359.611 Q236.04 362.689 229.72 362.689 Q227.544 362.689 225.276 362.319 Q223.03 361.948 220.623 361.208 L220.623 356.509 Q222.706 357.643 224.928 358.199 Q227.151 358.754 229.627 358.754 Q233.632 358.754 235.97 356.648 Q238.308 354.541 238.308 350.93 Q238.308 347.319 235.97 345.212 Q233.632 343.106 229.627 343.106 Q227.753 343.106 225.878 343.523 Q224.026 343.939 222.081 344.819 L222.081 327.458 Z" fill="#000000" fill-rule="nonzero" fill-opacity="1" /><path clip-path="url(#clip160)" d="M125.485 64.9171 Q121.873 64.9171 120.045 68.4819 Q118.239 72.0236 118.239 79.1532 Q118.239 86.2596 120.045 89.8244 Q121.873 93.366 125.485 93.366 Q129.119 93.366 130.924 89.8244 Q132.753 86.2596 132.753 79.1532 Q132.753 72.0236 130.924 68.4819 Q129.119 64.9171 125.485 64.9171 M125.485 61.2134 Q131.295 61.2134 134.35 65.8199 Q137.429 70.4032 137.429 79.1532 Q137.429 87.88 134.35 92.4864 Q131.295 97.0697 125.485 97.0697 Q119.674 97.0697 116.596 92.4864 Q113.54 87.88 113.54 79.1532 Q113.54 70.4032 116.596 65.8199 Q119.674 61.2134 125.485 61.2134 Z" fill="#000000" fill-rule="nonzero" fill-opacity="1" /><path clip-path="url(#clip160)" d="M145.646 90.5188 L150.531 90.5188 L150.531 96.3984 L145.646 96.3984 L145.646 90.5188 Z" fill="#000000" fill-rule="nonzero" fill-opacity="1" /><path clip-path="url(#clip160)" d="M174.882 77.7643 Q178.239 78.4819 180.114 80.7504 Q182.012 83.0189 182.012 86.3522 Q182.012 91.4679 178.494 94.2688 Q174.975 97.0697 168.494 97.0697 Q166.318 97.0697 164.003 96.6299 Q161.711 96.2132 159.258 95.3568 L159.258 90.8429 Q161.202 91.9772 163.517 92.5559 Q165.832 93.1346 168.355 93.1346 Q172.753 93.1346 175.044 91.3985 Q177.359 89.6624 177.359 86.3522 Q177.359 83.2967 175.206 81.5837 Q173.077 79.8476 169.257 79.8476 L165.23 79.8476 L165.23 76.005 L169.443 76.005 Q172.892 76.005 174.72 74.6393 Q176.549 73.2504 176.549 70.6578 Q176.549 67.9958 174.651 66.5838 Q172.776 65.1486 169.257 65.1486 Q167.336 65.1486 165.137 65.5653 Q162.938 65.9819 160.299 66.8616 L160.299 62.6949 Q162.961 61.9542 165.276 61.5838 Q167.614 61.2134 169.674 61.2134 Q174.998 61.2134 178.1 63.644 Q181.202 66.0514 181.202 70.1717 Q181.202 73.0421 179.558 75.0328 Q177.915 77.0004 174.882 77.7643 Z" fill="#000000" fill-rule="nonzero" fill-opacity="1" /><path clip-path="url(#clip160)" d="M200.878 64.9171 Q197.267 64.9171 195.438 68.4819 Q193.632 72.0236 193.632 79.1532 Q193.632 86.2596 195.438 89.8244 Q197.267 93.366 200.878 93.366 Q204.512 93.366 206.317 89.8244 Q208.146 86.2596 208.146 79.1532 Q208.146 72.0236 206.317 68.4819 Q204.512 64.9171 200.878 64.9171 M200.878 61.2134 Q206.688 61.2134 209.743 65.8199 Q212.822 70.4032 212.822 79.1532 Q212.822 87.88 209.743 92.4864 Q206.688 97.0697 200.878 97.0697 Q195.067 97.0697 191.989 92.4864 Q188.933 87.88 188.933 79.1532 Q188.933 70.4032 191.989 65.8199 Q195.067 61.2134 200.878 61.2134 Z" fill="#000000" fill-rule="nonzero" fill-opacity="1" /><path clip-path="url(#clip160)" d="M231.04 64.9171 Q227.428 64.9171 225.6 68.4819 Q223.794 72.0236 223.794 79.1532 Q223.794 86.2596 225.6 89.8244 Q227.428 93.366 231.04 93.366 Q234.674 93.366 236.479 89.8244 Q238.308 86.2596 238.308 79.1532 Q238.308 72.0236 236.479 68.4819 Q234.674 64.9171 231.04 64.9171 M231.04 61.2134 Q236.85 61.2134 239.905 65.8199 Q242.984 70.4032 242.984 79.1532 Q242.984 87.88 239.905 92.4864 Q236.85 97.0697 231.04 97.0697 Q225.229 97.0697 222.151 92.4864 Q219.095 87.88 219.095 79.1532 Q219.095 70.4032 222.151 65.8199 Q225.229 61.2134 231.04 61.2134 Z" fill="#000000" fill-rule="nonzero" fill-opacity="1" /><path clip-path="url(#clip160)" d="M20.0842 805.594 L20.0842 799.164 L39.5632 799.164 L39.5632 775.802 L20.0842 775.802 L20.0842 769.373 L67.6042 769.373 L67.6042 775.802 L44.9741 775.802 L44.9741 799.164 L67.6042 799.164 L67.6042 805.594 L20.0842 805.594 Z" fill="#000000" fill-rule="nonzero" fill-opacity="1" /><path clip-path="url(#clip160)" d="M49.6847 740.632 Q49.6847 747.729 51.3079 750.467 Q52.9312 753.204 56.8461 753.204 Q59.9653 753.204 61.8114 751.167 Q63.6256 749.098 63.6256 745.565 Q63.6256 740.695 60.1881 737.767 Q56.7188 734.807 50.9897 734.807 L49.6847 734.807 L49.6847 740.632 M47.2657 728.951 L67.6042 728.951 L67.6042 734.807 L62.1933 734.807 Q65.4398 736.812 66.9994 739.804 Q68.5272 742.796 68.5272 747.125 Q68.5272 752.599 65.4716 755.846 Q62.3843 759.06 57.2281 759.06 Q51.2125 759.06 48.1569 755.05 Q45.1014 751.008 45.1014 743.019 L45.1014 734.807 L44.5285 734.807 Q40.4862 734.807 38.2901 737.481 Q36.0621 740.122 36.0621 744.928 Q36.0621 747.984 36.7941 750.88 Q37.5262 753.777 38.9903 756.45 L33.5795 756.45 Q32.3381 753.236 31.7334 750.212 Q31.0968 747.188 31.0968 744.324 Q31.0968 736.589 35.1072 732.77 Q39.1176 728.951 47.2657 728.951 Z" fill="#000000" fill-rule="nonzero" fill-opacity="1" /><path clip-path="url(#clip160)" d="M31.9562 719.434 L31.9562 691.616 L37.3034 691.616 L62.9254 713.641 L62.9254 691.616 L67.6042 691.616 L67.6042 720.23 L62.257 720.23 L36.635 698.204 L36.635 719.434 L31.9562 719.434 Z" fill="#000000" fill-rule="nonzero" fill-opacity="1" /><path clip-path="url(#clip160)" d="M49.6847 666.471 Q49.6847 673.569 51.3079 676.306 Q52.9312 679.043 56.8461 679.043 Q59.9653 679.043 61.8114 677.006 Q63.6256 674.938 63.6256 671.405 Q63.6256 666.535 60.1881 663.607 Q56.7188 660.647 50.9897 660.647 L49.6847 660.647 L49.6847 666.471 M47.2657 654.79 L67.6042 654.79 L67.6042 660.647 L62.1933 660.647 Q65.4398 662.652 66.9994 665.644 Q68.5272 668.635 68.5272 672.964 Q68.5272 678.439 65.4716 681.685 Q62.3843 684.9 57.2281 684.9 Q51.2125 684.9 48.1569 680.889 Q45.1014 676.847 45.1014 668.858 L45.1014 660.647 L44.5285 660.647 Q40.4862 660.647 38.2901 663.32 Q36.0621 665.962 36.0621 670.768 Q36.0621 673.824 36.7941 676.72 Q37.5262 679.616 38.9903 682.29 L33.5795 682.29 Q32.3381 679.075 31.7334 676.052 Q31.0968 673.028 31.0968 670.163 Q31.0968 662.429 35.1072 658.609 Q39.1176 654.79 47.2657 654.79 Z" fill="#000000" fill-rule="nonzero" fill-opacity="1" /><path clip-path="url(#clip160)" d="M37.4307 622.07 Q36.8578 623.057 36.6032 624.235 Q36.3167 625.38 36.3167 626.781 Q36.3167 631.746 39.5632 634.42 Q42.7779 637.062 48.8253 637.062 L67.6042 637.062 L67.6042 642.95 L31.9562 642.95 L31.9562 637.062 L37.4944 637.062 Q34.2479 635.216 32.6883 632.255 Q31.0968 629.295 31.0968 625.062 Q31.0968 624.457 31.1923 623.725 Q31.256 622.993 31.4151 622.102 L37.4307 622.07 Z" fill="#000000" fill-rule="nonzero" fill-opacity="1" /><path clip-path="url(#clip160)" d="M37.3671 593.616 L18.079 593.616 L18.079 587.759 L67.6042 587.759 L67.6042 593.616 L62.257 593.616 Q65.4398 595.462 66.9994 598.294 Q68.5272 601.095 68.5272 605.042 Q68.5272 611.503 63.371 615.577 Q58.2147 619.62 49.812 619.62 Q41.4093 619.62 36.2531 615.577 Q31.0968 611.503 31.0968 605.042 Q31.0968 601.095 32.6564 598.294 Q34.1842 595.462 37.3671 593.616 M49.812 613.572 Q56.2732 613.572 59.9653 610.93 Q63.6256 608.257 63.6256 603.61 Q63.6256 598.963 59.9653 596.289 Q56.2732 593.616 49.812 593.616 Q43.3508 593.616 39.6905 596.289 Q35.9984 598.963 35.9984 603.61 Q35.9984 608.257 39.6905 610.93 Q43.3508 613.572 49.812 613.572 Z" fill="#000000" fill-rule="nonzero" fill-opacity="1" /><path clip-path="url(#clip160)" d="M45.3242 532.187 Q46.0244 530.118 48.3161 528.176 Q50.6077 526.203 54.6181 524.229 L67.6042 517.705 L67.6042 524.611 L55.4138 530.691 Q50.6395 533.046 49.08 535.274 Q47.5204 537.47 47.5204 541.29 L47.5204 548.292 L67.6042 548.292 L67.6042 554.721 L20.0842 554.721 L20.0842 540.207 Q20.0842 532.059 23.4898 528.049 Q26.8955 524.038 33.7704 524.038 Q38.2582 524.038 41.2183 526.139 Q44.1784 528.208 45.3242 532.187 M25.3677 548.292 L42.2368 548.292 L42.2368 540.207 Q42.2368 535.56 40.1043 533.205 Q37.94 530.818 33.7704 530.818 Q29.6009 530.818 27.5002 533.205 Q25.3677 535.56 25.3677 540.207 L25.3677 548.292 Z" fill="#000000" fill-rule="nonzero" fill-opacity="1" /><path clip-path="url(#clip160)" d="M49.6847 494.915 Q49.6847 502.013 51.3079 504.75 Q52.9312 507.488 56.8461 507.488 Q59.9653 507.488 61.8114 505.451 Q63.6256 503.382 63.6256 499.849 Q63.6256 494.979 60.1881 492.051 Q56.7188 489.091 50.9897 489.091 L49.6847 489.091 L49.6847 494.915 M47.2657 483.234 L67.6042 483.234 L67.6042 489.091 L62.1933 489.091 Q65.4398 491.096 66.9994 494.088 Q68.5272 497.08 68.5272 501.408 Q68.5272 506.883 65.4716 510.129 Q62.3843 513.344 57.2281 513.344 Q51.2125 513.344 48.1569 509.334 Q45.1014 505.291 45.1014 497.302 L45.1014 489.091 L44.5285 489.091 Q40.4862 489.091 38.2901 491.764 Q36.0621 494.406 36.0621 499.212 Q36.0621 502.268 36.7941 505.164 Q37.5262 508.061 38.9903 510.734 L33.5795 510.734 Q32.3381 507.519 31.7334 504.496 Q31.0968 501.472 31.0968 498.607 Q31.0968 490.873 35.1072 487.054 Q39.1176 483.234 47.2657 483.234 Z" fill="#000000" fill-rule="nonzero" fill-opacity="1" /><path clip-path="url(#clip160)" d="M21.8347 465.378 L31.9562 465.378 L31.9562 453.315 L36.5077 453.315 L36.5077 465.378 L55.8594 465.378 Q60.2199 465.378 61.4613 464.201 Q62.7026 462.991 62.7026 459.331 L62.7026 453.315 L67.6042 453.315 L67.6042 459.331 Q67.6042 466.111 65.0897 468.689 Q62.5434 471.267 55.8594 471.267 L36.5077 471.267 L36.5077 475.564 L31.9562 475.564 L31.9562 471.267 L21.8347 471.267 L21.8347 465.378 Z" fill="#000000" fill-rule="nonzero" fill-opacity="1" /><path clip-path="url(#clip160)" d="M48.3161 415.121 L51.1806 415.121 L51.1806 442.048 Q57.2281 441.666 60.4109 438.42 Q63.5619 435.141 63.5619 429.317 Q63.5619 425.943 62.7344 422.792 Q61.9069 419.609 60.2518 416.49 L65.7899 416.49 Q67.1267 419.641 67.827 422.951 Q68.5272 426.261 68.5272 429.667 Q68.5272 438.197 63.5619 443.194 Q58.5967 448.159 50.1303 448.159 Q41.3774 448.159 36.2531 443.449 Q31.0968 438.706 31.0968 430.685 Q31.0968 423.492 35.7438 419.323 Q40.3589 415.121 48.3161 415.121 M46.5973 420.978 Q41.7912 421.041 38.9266 423.683 Q36.0621 426.293 36.0621 430.622 Q36.0621 435.523 38.8312 438.483 Q41.6002 441.412 46.6292 441.857 L46.5973 420.978 Z" fill="#000000" fill-rule="nonzero" fill-opacity="1" /><polyline clip-path="url(#clip161)" style="stroke:#009af9; stroke-linecap:round; stroke-linejoin:round; stroke-width:8; stroke-opacity:1; fill:none" points="325.327,79.1184 342.385,79.1184 359.443,291.614 376.502,291.614 393.56,291.614 410.618,291.614 427.676,291.614 444.735,291.614 461.793,291.614 478.851,291.614 495.909,291.614 512.968,291.614 530.026,291.614 547.084,291.614 564.142,291.614 581.201,291.614 598.259,291.614 615.317,291.614 632.375,291.614 649.434,291.614 666.492,291.614 683.55,291.614 700.608,291.614 717.666,291.614 734.725,291.614 751.783,504.11 768.841,504.11 785.899,504.11 802.958,504.11 820.016,504.11 837.074,504.11 854.132,504.11 871.191,504.11 888.249,504.11 905.307,504.11 922.365,504.11 939.424,504.11 956.482,504.11 973.54,504.11 990.598,504.11 1007.66,504.11 1024.71,504.11 1041.77,504.11 1058.83,504.11 1075.89,504.11 1092.95,504.11 1110.01,504.11 1127.06,716.605 1144.12,716.605 1161.18,716.605 1178.24,716.605 1195.3,716.605 1212.36,716.605 1229.41,716.605 1246.47,716.605 1263.53,716.605 1280.59,716.605 1297.65,716.605 1314.7,716.605 1331.76,716.605 1348.82,716.605 1365.88,716.605 1382.94,716.605 1400,716.605 1417.05,716.605 1434.11,716.605 1451.17,716.605 1468.23,929.101 1485.29,929.101 1502.35,929.101 1519.4,929.101 1536.46,929.101 1553.52,929.101 1570.58,929.101 1587.64,929.101 1604.7,929.101 1621.75,929.101 1638.81,929.101 1655.87,929.101 1672.93,929.101 1689.99,929.101 1707.04,929.101 1724.1,929.101 1741.16,929.101 1758.22,929.101 1775.28,929.101 1792.34,1141.6 1809.39,1141.6 1826.45,1141.6 1843.51,1141.6 1860.57,1141.6 1877.63,1141.6 1894.69,1141.6 1911.74,1141.6 1928.8,1141.6 1945.86,1141.6 1962.92,1141.6 1979.98,1141.6 1997.03,1141.6 2014.09,1141.6 "/>
<path clip-path="url(#clip160)" d="M1542.1 188.465 L2005.09 188.465 L2005.09 84.785 L1542.1 84.785  Z" fill="#ffffff" fill-rule="evenodd" fill-opacity="1"/>
<polyline clip-path="url(#clip160)" style="stroke:#000000; stroke-linecap:round; stroke-linejoin:round; stroke-width:4; stroke-opacity:1; fill:none" points="1542.1,188.465 2005.09,188.465 2005.09,84.785 1542.1,84.785 1542.1,188.465 "/>
<polyline clip-path="url(#clip160)" style="stroke:#009af9; stroke-linecap:round; stroke-linejoin:round; stroke-width:8; stroke-opacity:1; fill:none" points="1561.99,136.625 1681.33,136.625 "/>
<path clip-path="url(#clip160)" d="M1701.22 119.345 L1705.89 119.345 L1705.89 133.512 L1722.88 133.512 L1722.88 119.345 L1727.56 119.345 L1727.56 153.905 L1722.88 153.905 L1722.88 137.447 L1705.89 137.447 L1705.89 153.905 L1701.22 153.905 L1701.22 119.345 Z" fill="#000000" fill-rule="nonzero" fill-opacity="1" /><path clip-path="url(#clip160)" d="M1748.46 140.873 Q1743.3 140.873 1741.31 142.053 Q1739.32 143.234 1739.32 146.081 Q1739.32 148.349 1740.8 149.692 Q1742.3 151.011 1744.87 151.011 Q1748.42 151.011 1750.54 148.511 Q1752.7 145.988 1752.7 141.822 L1752.7 140.873 L1748.46 140.873 M1756.96 139.113 L1756.96 153.905 L1752.7 153.905 L1752.7 149.97 Q1751.24 152.331 1749.06 153.465 Q1746.89 154.576 1743.74 154.576 Q1739.76 154.576 1737.4 152.354 Q1735.06 150.109 1735.06 146.359 Q1735.06 141.984 1737.98 139.762 Q1740.92 137.539 1746.73 137.539 L1752.7 137.539 L1752.7 137.123 Q1752.7 134.183 1750.75 132.586 Q1748.83 130.965 1745.34 130.965 Q1743.11 130.965 1741.01 131.498 Q1738.9 132.03 1736.96 133.095 L1736.96 129.16 Q1739.29 128.257 1741.49 127.817 Q1743.69 127.354 1745.78 127.354 Q1751.4 127.354 1754.18 130.271 Q1756.96 133.188 1756.96 139.113 Z" fill="#000000" fill-rule="nonzero" fill-opacity="1" /><path clip-path="url(#clip160)" d="M1763.88 127.979 L1784.11 127.979 L1784.11 131.868 L1768.09 150.502 L1784.11 150.502 L1784.11 153.905 L1763.3 153.905 L1763.3 150.016 L1779.32 131.382 L1763.88 131.382 L1763.88 127.979 Z" fill="#000000" fill-rule="nonzero" fill-opacity="1" /><path clip-path="url(#clip160)" d="M1802.4 140.873 Q1797.23 140.873 1795.24 142.053 Q1793.25 143.234 1793.25 146.081 Q1793.25 148.349 1794.73 149.692 Q1796.24 151.011 1798.81 151.011 Q1802.35 151.011 1804.48 148.511 Q1806.63 145.988 1806.63 141.822 L1806.63 140.873 L1802.4 140.873 M1810.89 139.113 L1810.89 153.905 L1806.63 153.905 L1806.63 149.97 Q1805.17 152.331 1803 153.465 Q1800.82 154.576 1797.67 154.576 Q1793.69 154.576 1791.33 152.354 Q1788.99 150.109 1788.99 146.359 Q1788.99 141.984 1791.91 139.762 Q1794.85 137.539 1800.66 137.539 L1806.63 137.539 L1806.63 137.123 Q1806.63 134.183 1804.69 132.586 Q1802.77 130.965 1799.27 130.965 Q1797.05 130.965 1794.94 131.498 Q1792.84 132.03 1790.89 133.095 L1790.89 129.16 Q1793.23 128.257 1795.43 127.817 Q1797.63 127.354 1799.71 127.354 Q1805.34 127.354 1808.11 130.271 Q1810.89 133.188 1810.89 139.113 Z" fill="#000000" fill-rule="nonzero" fill-opacity="1" /><path clip-path="url(#clip160)" d="M1834.69 131.961 Q1833.97 131.544 1833.11 131.359 Q1832.28 131.15 1831.26 131.15 Q1827.65 131.15 1825.71 133.512 Q1823.79 135.85 1823.79 140.248 L1823.79 153.905 L1819.5 153.905 L1819.5 127.979 L1823.79 127.979 L1823.79 132.007 Q1825.13 129.646 1827.28 128.512 Q1829.43 127.354 1832.51 127.354 Q1832.95 127.354 1833.48 127.424 Q1834.02 127.47 1834.66 127.586 L1834.69 131.961 Z" fill="#000000" fill-rule="nonzero" fill-opacity="1" /><path clip-path="url(#clip160)" d="M1855.38 131.914 L1855.38 117.887 L1859.64 117.887 L1859.64 153.905 L1855.38 153.905 L1855.38 150.016 Q1854.04 152.331 1851.98 153.465 Q1849.94 154.576 1847.07 154.576 Q1842.37 154.576 1839.41 150.826 Q1836.47 147.076 1836.47 140.965 Q1836.47 134.854 1839.41 131.104 Q1842.37 127.354 1847.07 127.354 Q1849.94 127.354 1851.98 128.488 Q1854.04 129.6 1855.38 131.914 M1840.87 140.965 Q1840.87 145.664 1842.79 148.349 Q1844.73 151.011 1848.11 151.011 Q1851.49 151.011 1853.44 148.349 Q1855.38 145.664 1855.38 140.965 Q1855.38 136.266 1853.44 133.604 Q1851.49 130.919 1848.11 130.919 Q1844.73 130.919 1842.79 133.604 Q1840.87 136.266 1840.87 140.965 Z" fill="#000000" fill-rule="nonzero" fill-opacity="1" /><path clip-path="url(#clip160)" d="M1900.06 137.701 Q1901.56 138.211 1902.97 139.877 Q1904.41 141.544 1905.84 144.461 L1910.59 153.905 L1905.57 153.905 L1901.15 145.039 Q1899.43 141.567 1897.81 140.433 Q1896.22 139.299 1893.44 139.299 L1888.34 139.299 L1888.34 153.905 L1883.67 153.905 L1883.67 119.345 L1894.22 119.345 Q1900.15 119.345 1903.07 121.822 Q1905.98 124.299 1905.98 129.299 Q1905.98 132.563 1904.46 134.715 Q1902.95 136.868 1900.06 137.701 M1888.34 123.188 L1888.34 135.456 L1894.22 135.456 Q1897.6 135.456 1899.32 133.905 Q1901.05 132.331 1901.05 129.299 Q1901.05 126.266 1899.32 124.738 Q1897.6 123.188 1894.22 123.188 L1888.34 123.188 Z" fill="#000000" fill-rule="nonzero" fill-opacity="1" /><path clip-path="url(#clip160)" d="M1927.16 140.873 Q1922 140.873 1920.01 142.053 Q1918.02 143.234 1918.02 146.081 Q1918.02 148.349 1919.5 149.692 Q1921.01 151.011 1923.58 151.011 Q1927.12 151.011 1929.25 148.511 Q1931.4 145.988 1931.4 141.822 L1931.4 140.873 L1927.16 140.873 M1935.66 139.113 L1935.66 153.905 L1931.4 153.905 L1931.4 149.97 Q1929.94 152.331 1927.77 153.465 Q1925.59 154.576 1922.44 154.576 Q1918.46 154.576 1916.1 152.354 Q1913.76 150.109 1913.76 146.359 Q1913.76 141.984 1916.68 139.762 Q1919.62 137.539 1925.43 137.539 L1931.4 137.539 L1931.4 137.123 Q1931.4 134.183 1929.46 132.586 Q1927.53 130.965 1924.04 130.965 Q1921.82 130.965 1919.71 131.498 Q1917.6 132.03 1915.66 133.095 L1915.66 129.16 Q1918 128.257 1920.2 127.817 Q1922.4 127.354 1924.48 127.354 Q1930.1 127.354 1932.88 130.271 Q1935.66 133.188 1935.66 139.113 Z" fill="#000000" fill-rule="nonzero" fill-opacity="1" /><path clip-path="url(#clip160)" d="M1948.65 120.618 L1948.65 127.979 L1957.42 127.979 L1957.42 131.289 L1948.65 131.289 L1948.65 145.363 Q1948.65 148.535 1949.5 149.437 Q1950.38 150.34 1953.04 150.34 L1957.42 150.34 L1957.42 153.905 L1953.04 153.905 Q1948.11 153.905 1946.24 152.076 Q1944.36 150.224 1944.36 145.363 L1944.36 131.289 L1941.24 131.289 L1941.24 127.979 L1944.36 127.979 L1944.36 120.618 L1948.65 120.618 Z" fill="#000000" fill-rule="nonzero" fill-opacity="1" /><path clip-path="url(#clip160)" d="M1985.2 139.877 L1985.2 141.961 L1965.61 141.961 Q1965.89 146.359 1968.25 148.674 Q1970.64 150.965 1974.87 150.965 Q1977.33 150.965 1979.62 150.363 Q1981.93 149.761 1984.2 148.558 L1984.2 152.586 Q1981.91 153.558 1979.5 154.067 Q1977.09 154.576 1974.62 154.576 Q1968.41 154.576 1964.78 150.965 Q1961.17 147.354 1961.17 141.197 Q1961.17 134.831 1964.59 131.104 Q1968.04 127.354 1973.88 127.354 Q1979.11 127.354 1982.14 130.734 Q1985.2 134.09 1985.2 139.877 M1980.94 138.627 Q1980.89 135.132 1978.97 133.049 Q1977.07 130.965 1973.92 130.965 Q1970.36 130.965 1968.21 132.979 Q1966.08 134.993 1965.75 138.65 L1980.94 138.627 Z" fill="#000000" fill-rule="nonzero" fill-opacity="1" /></svg>
