<?xml version="1.0" encoding="utf-8"?>
<svg xmlns="http://www.w3.org/2000/svg" xmlns:xlink="http://www.w3.org/1999/xlink" width="528" height="336" viewBox="0 0 2112 1344">
<defs>
  <clipPath id="clip950">
    <rect x="0" y="0" width="2112" height="1344"/>
  </clipPath>
</defs>
<path clip-path="url(#clip950)" d="M0 1344 L2112 1344 L2112 2.13163e-14 L0 2.13163e-14  Z" fill="#ffffff" fill-rule="evenodd" fill-opacity="1"/>
<defs>
  <clipPath id="clip951">
    <rect x="197" y="47" width="1869" height="1127"/>
  </clipPath>
</defs>
<path clip-path="url(#clip950)" d="M197.187 1173.47 L2064.76 1173.47 L2064.76 47.2441 L197.187 47.2441  Z" fill="#ffffff" fill-rule="evenodd" fill-opacity="1"/>
<polyline clip-path="url(#clip951)" style="stroke:#000000; stroke-linecap:round; stroke-linejoin:round; stroke-width:2; stroke-opacity:0.1; fill:none" points="445.805,1173.47 445.805,47.2441 "/>
<polyline clip-path="url(#clip951)" style="stroke:#000000; stroke-linecap:round; stroke-linejoin:round; stroke-width:2; stroke-opacity:0.1; fill:none" points="837.329,1173.47 837.329,47.2441 "/>
<polyline clip-path="url(#clip951)" style="stroke:#000000; stroke-linecap:round; stroke-linejoin:round; stroke-width:2; stroke-opacity:0.1; fill:none" points="1228.85,1173.47 1228.85,47.2441 "/>
<polyline clip-path="url(#clip951)" style="stroke:#000000; stroke-linecap:round; stroke-linejoin:round; stroke-width:2; stroke-opacity:0.1; fill:none" points="1620.38,1173.47 1620.38,47.2441 "/>
<polyline clip-path="url(#clip951)" style="stroke:#000000; stroke-linecap:round; stroke-linejoin:round; stroke-width:2; stroke-opacity:0.1; fill:none" points="2011.9,1173.47 2011.9,47.2441 "/>
<polyline clip-path="url(#clip951)" style="stroke:#000000; stroke-linecap:round; stroke-linejoin:round; stroke-width:2; stroke-opacity:0.1; fill:none" points="197.187,989.814 2064.76,989.814 "/>
<polyline clip-path="url(#clip951)" style="stroke:#000000; stroke-linecap:round; stroke-linejoin:round; stroke-width:2; stroke-opacity:0.1; fill:none" points="197.187,686.249 2064.76,686.249 "/>
<polyline clip-path="url(#clip951)" style="stroke:#000000; stroke-linecap:round; stroke-linejoin:round; stroke-width:2; stroke-opacity:0.1; fill:none" points="197.187,382.684 2064.76,382.684 "/>
<polyline clip-path="url(#clip951)" style="stroke:#000000; stroke-linecap:round; stroke-linejoin:round; stroke-width:2; stroke-opacity:0.1; fill:none" points="197.187,79.1184 2064.76,79.1184 "/>
<polyline clip-path="url(#clip950)" style="stroke:#000000; stroke-linecap:round; stroke-linejoin:round; stroke-width:4; stroke-opacity:1; fill:none" points="197.187,1173.47 2064.76,1173.47 "/>
<polyline clip-path="url(#clip950)" style="stroke:#000000; stroke-linecap:round; stroke-linejoin:round; stroke-width:4; stroke-opacity:1; fill:none" points="445.805,1173.47 445.805,1154.57 "/>
<polyline clip-path="url(#clip950)" style="stroke:#000000; stroke-linecap:round; stroke-linejoin:round; stroke-width:4; stroke-opacity:1; fill:none" points="837.329,1173.47 837.329,1154.57 "/>
<polyline clip-path="url(#clip950)" style="stroke:#000000; stroke-linecap:round; stroke-linejoin:round; stroke-width:4; stroke-opacity:1; fill:none" points="1228.85,1173.47 1228.85,1154.57 "/>
<polyline clip-path="url(#clip950)" style="stroke:#000000; stroke-linecap:round; stroke-linejoin:round; stroke-width:4; stroke-opacity:1; fill:none" points="1620.38,1173.47 1620.38,1154.57 "/>
<polyline clip-path="url(#clip950)" style="stroke:#000000; stroke-linecap:round; stroke-linejoin:round; stroke-width:4; stroke-opacity:1; fill:none" points="2011.9,1173.47 2011.9,1154.57 "/>
<path clip-path="url(#clip950)" d="M440.458 1229.63 L456.777 1229.63 L456.777 1233.57 L434.833 1233.57 L434.833 1229.63 Q437.495 1226.88 442.078 1222.25 Q446.685 1217.59 447.865 1216.25 Q450.111 1213.73 450.99 1211.99 Q451.893 1210.23 451.893 1208.54 Q451.893 1205.79 449.949 1204.05 Q448.027 1202.32 444.925 1202.32 Q442.726 1202.32 440.273 1203.08 Q437.842 1203.84 435.064 1205.4 L435.064 1200.67 Q437.888 1199.54 440.342 1198.96 Q442.796 1198.38 444.833 1198.38 Q450.203 1198.38 453.398 1201.07 Q456.592 1203.75 456.592 1208.24 Q456.592 1210.37 455.782 1212.29 Q454.995 1214.19 452.888 1216.78 Q452.31 1217.46 449.208 1220.67 Q446.106 1223.87 440.458 1229.63 Z" fill="#000000" fill-rule="nonzero" fill-opacity="1" /><path clip-path="url(#clip950)" d="M840.338 1203.08 L828.533 1221.53 L840.338 1221.53 L840.338 1203.08 M839.111 1199.01 L844.991 1199.01 L844.991 1221.53 L849.921 1221.53 L849.921 1225.42 L844.991 1225.42 L844.991 1233.57 L840.338 1233.57 L840.338 1225.42 L824.736 1225.42 L824.736 1220.9 L839.111 1199.01 Z" fill="#000000" fill-rule="nonzero" fill-opacity="1" /><path clip-path="url(#clip950)" d="M1229.26 1214.42 Q1226.11 1214.42 1224.26 1216.58 Q1222.43 1218.73 1222.43 1222.48 Q1222.43 1226.21 1224.26 1228.38 Q1226.11 1230.53 1229.26 1230.53 Q1232.41 1230.53 1234.23 1228.38 Q1236.09 1226.21 1236.09 1222.48 Q1236.09 1218.73 1234.23 1216.58 Q1232.41 1214.42 1229.26 1214.42 M1238.54 1199.77 L1238.54 1204.03 Q1236.78 1203.2 1234.98 1202.76 Q1233.19 1202.32 1231.43 1202.32 Q1226.8 1202.32 1224.35 1205.44 Q1221.92 1208.57 1221.57 1214.89 Q1222.94 1212.87 1225 1211.81 Q1227.06 1210.72 1229.54 1210.72 Q1234.74 1210.72 1237.75 1213.89 Q1240.79 1217.04 1240.79 1222.48 Q1240.79 1227.8 1237.64 1231.02 Q1234.49 1234.24 1229.26 1234.24 Q1223.26 1234.24 1220.09 1229.65 Q1216.92 1225.05 1216.92 1216.32 Q1216.92 1208.13 1220.81 1203.27 Q1224.7 1198.38 1231.25 1198.38 Q1233.01 1198.38 1234.79 1198.73 Q1236.6 1199.08 1238.54 1199.77 Z" fill="#000000" fill-rule="nonzero" fill-opacity="1" /><path clip-path="url(#clip950)" d="M1620.38 1217.15 Q1617.04 1217.15 1615.12 1218.94 Q1613.22 1220.72 1613.22 1223.84 Q1613.22 1226.97 1615.12 1228.75 Q1617.04 1230.53 1620.38 1230.53 Q1623.71 1230.53 1625.63 1228.75 Q1627.55 1226.95 1627.55 1223.84 Q1627.55 1220.72 1625.63 1218.94 Q1623.73 1217.15 1620.38 1217.15 M1615.7 1215.16 Q1612.69 1214.42 1611 1212.36 Q1609.33 1210.3 1609.33 1207.34 Q1609.33 1203.2 1612.27 1200.79 Q1615.24 1198.38 1620.38 1198.38 Q1625.54 1198.38 1628.48 1200.79 Q1631.42 1203.2 1631.42 1207.34 Q1631.42 1210.3 1629.73 1212.36 Q1628.06 1214.42 1625.08 1215.16 Q1628.46 1215.95 1630.33 1218.24 Q1632.23 1220.53 1632.23 1223.84 Q1632.23 1228.87 1629.15 1231.55 Q1626.09 1234.24 1620.38 1234.24 Q1614.66 1234.24 1611.58 1231.55 Q1608.52 1228.87 1608.52 1223.84 Q1608.52 1220.53 1610.42 1218.24 Q1612.32 1215.95 1615.7 1215.16 M1613.99 1207.78 Q1613.99 1210.47 1615.65 1211.97 Q1617.34 1213.47 1620.38 1213.47 Q1623.39 1213.47 1625.08 1211.97 Q1626.79 1210.47 1626.79 1207.78 Q1626.79 1205.09 1625.08 1203.59 Q1623.39 1202.09 1620.38 1202.09 Q1617.34 1202.09 1615.65 1203.59 Q1613.99 1205.09 1613.99 1207.78 Z" fill="#000000" fill-rule="nonzero" fill-opacity="1" /><path clip-path="url(#clip950)" d="M1986.59 1229.63 L1994.23 1229.63 L1994.23 1203.27 L1985.92 1204.93 L1985.92 1200.67 L1994.18 1199.01 L1998.86 1199.01 L1998.86 1229.63 L2006.5 1229.63 L2006.5 1233.57 L1986.59 1233.57 L1986.59 1229.63 Z" fill="#000000" fill-rule="nonzero" fill-opacity="1" /><path clip-path="url(#clip950)" d="M2025.94 1202.09 Q2022.33 1202.09 2020.5 1205.65 Q2018.69 1209.19 2018.69 1216.32 Q2018.69 1223.43 2020.5 1226.99 Q2022.33 1230.53 2025.94 1230.53 Q2029.57 1230.53 2031.38 1226.99 Q2033.21 1223.43 2033.21 1216.32 Q2033.21 1209.19 2031.38 1205.65 Q2029.57 1202.09 2025.94 1202.09 M2025.94 1198.38 Q2031.75 1198.38 2034.81 1202.99 Q2037.88 1207.57 2037.88 1216.32 Q2037.88 1225.05 2034.81 1229.65 Q2031.75 1234.24 2025.94 1234.24 Q2020.13 1234.24 2017.05 1229.65 Q2014 1225.05 2014 1216.32 Q2014 1207.57 2017.05 1202.99 Q2020.13 1198.38 2025.94 1198.38 Z" fill="#000000" fill-rule="nonzero" fill-opacity="1" /><path clip-path="url(#clip950)" d="M1042.93 1266.49 L1049.43 1266.49 L1059.42 1306.66 L1069.38 1266.49 L1076.61 1266.49 L1086.6 1306.66 L1096.57 1266.49 L1103.09 1266.49 L1091.15 1314.01 L1083.07 1314.01 L1073.04 1272.76 L1062.92 1314.01 L1054.84 1314.01 L1042.93 1266.49 Z" fill="#000000" fill-rule="nonzero" fill-opacity="1" /><path clip-path="url(#clip950)" d="M1123.4 1296.1 Q1116.3 1296.1 1113.56 1297.72 Q1110.82 1299.34 1110.82 1303.26 Q1110.82 1306.38 1112.86 1308.22 Q1114.93 1310.04 1118.46 1310.04 Q1123.33 1310.04 1126.26 1306.6 Q1129.22 1303.13 1129.22 1297.4 L1129.22 1296.1 L1123.4 1296.1 M1135.08 1293.68 L1135.08 1314.01 L1129.22 1314.01 L1129.22 1308.6 Q1127.22 1311.85 1124.22 1313.41 Q1121.23 1314.94 1116.9 1314.94 Q1111.43 1314.94 1108.18 1311.88 Q1104.97 1308.79 1104.97 1303.64 Q1104.97 1297.62 1108.98 1294.57 Q1113.02 1291.51 1121.01 1291.51 L1129.22 1291.51 L1129.22 1290.94 Q1129.22 1286.9 1126.55 1284.7 Q1123.91 1282.47 1119.1 1282.47 Q1116.04 1282.47 1113.15 1283.2 Q1110.25 1283.94 1107.58 1285.4 L1107.58 1279.99 Q1110.79 1278.75 1113.82 1278.14 Q1116.84 1277.51 1119.7 1277.51 Q1127.44 1277.51 1131.26 1281.52 Q1135.08 1285.53 1135.08 1293.68 Z" fill="#000000" fill-rule="nonzero" fill-opacity="1" /><path clip-path="url(#clip950)" d="M1170.6 1295.78 Q1170.6 1289.41 1167.96 1285.91 Q1165.35 1282.41 1160.6 1282.41 Q1155.89 1282.41 1153.25 1285.91 Q1150.64 1289.41 1150.64 1295.78 Q1150.64 1302.11 1153.25 1305.61 Q1155.89 1309.11 1160.6 1309.11 Q1165.35 1309.11 1167.96 1305.61 Q1170.6 1302.11 1170.6 1295.78 M1176.45 1309.59 Q1176.45 1318.69 1172.41 1323.12 Q1168.37 1327.57 1160.03 1327.57 Q1156.94 1327.57 1154.21 1327.1 Q1151.47 1326.65 1148.89 1325.7 L1148.89 1320 Q1151.47 1321.4 1153.98 1322.07 Q1156.5 1322.74 1159.11 1322.74 Q1164.87 1322.74 1167.73 1319.71 Q1170.6 1316.72 1170.6 1310.64 L1170.6 1307.74 Q1168.78 1310.9 1165.95 1312.46 Q1163.12 1314.01 1159.17 1314.01 Q1152.62 1314.01 1148.6 1309.02 Q1144.59 1304.02 1144.59 1295.78 Q1144.59 1287.5 1148.6 1282.5 Q1152.62 1277.51 1159.17 1277.51 Q1163.12 1277.51 1165.95 1279.07 Q1168.78 1280.63 1170.6 1283.78 L1170.6 1278.37 L1176.45 1278.37 L1176.45 1309.59 Z" fill="#000000" fill-rule="nonzero" fill-opacity="1" /><path clip-path="url(#clip950)" d="M1219.01 1294.73 L1219.01 1297.59 L1192.08 1297.59 Q1192.46 1303.64 1195.71 1306.82 Q1198.99 1309.97 1204.81 1309.97 Q1208.19 1309.97 1211.34 1309.14 Q1214.52 1308.32 1217.64 1306.66 L1217.64 1312.2 Q1214.49 1313.54 1211.18 1314.24 Q1207.87 1314.94 1204.46 1314.94 Q1195.93 1314.94 1190.94 1309.97 Q1185.97 1305.01 1185.97 1296.54 Q1185.97 1287.79 1190.68 1282.66 Q1195.42 1277.51 1203.45 1277.51 Q1210.64 1277.51 1214.81 1282.15 Q1219.01 1286.77 1219.01 1294.73 M1213.15 1293.01 Q1213.09 1288.2 1210.45 1285.34 Q1207.84 1282.47 1203.51 1282.47 Q1198.61 1282.47 1195.65 1285.24 Q1192.72 1288.01 1192.27 1293.04 L1213.15 1293.01 Z" fill="#000000" fill-rule="nonzero" fill-opacity="1" /><polyline clip-path="url(#clip950)" style="stroke:#000000; stroke-linecap:round; stroke-linejoin:round; stroke-width:4; stroke-opacity:1; fill:none" points="197.187,1173.47 197.187,47.2441 "/>
<polyline clip-path="url(#clip950)" style="stroke:#000000; stroke-linecap:round; stroke-linejoin:round; stroke-width:4; stroke-opacity:1; fill:none" points="197.187,989.814 216.085,989.814 "/>
<polyline clip-path="url(#clip950)" style="stroke:#000000; stroke-linecap:round; stroke-linejoin:round; stroke-width:4; stroke-opacity:1; fill:none" points="197.187,686.249 216.085,686.249 "/>
<polyline clip-path="url(#clip950)" style="stroke:#000000; stroke-linecap:round; stroke-linejoin:round; stroke-width:4; stroke-opacity:1; fill:none" points="197.187,382.684 216.085,382.684 "/>
<polyline clip-path="url(#clip950)" style="stroke:#000000; stroke-linecap:round; stroke-linejoin:round; stroke-width:4; stroke-opacity:1; fill:none" points="197.187,79.1184 216.085,79.1184 "/>
<path clip-path="url(#clip950)" d="M155.924 976.608 L144.119 995.057 L155.924 995.057 L155.924 976.608 M154.697 972.534 L160.577 972.534 L160.577 995.057 L165.507 995.057 L165.507 998.946 L160.577 998.946 L160.577 1007.09 L155.924 1007.09 L155.924 998.946 L140.322 998.946 L140.322 994.432 L154.697 972.534 Z" fill="#000000" fill-rule="nonzero" fill-opacity="1" /><path clip-path="url(#clip950)" d="M153.98 684.385 Q150.832 684.385 148.98 686.538 Q147.151 688.691 147.151 692.441 Q147.151 696.168 148.98 698.344 Q150.832 700.496 153.98 700.496 Q157.128 700.496 158.957 698.344 Q160.808 696.168 160.808 692.441 Q160.808 688.691 158.957 686.538 Q157.128 684.385 153.98 684.385 M163.262 669.733 L163.262 673.992 Q161.503 673.158 159.697 672.719 Q157.915 672.279 156.156 672.279 Q151.526 672.279 149.072 675.404 Q146.642 678.529 146.295 684.848 Q147.66 682.834 149.721 681.77 Q151.781 680.682 154.258 680.682 Q159.466 680.682 162.475 683.853 Q165.507 687.001 165.507 692.441 Q165.507 697.765 162.359 700.982 Q159.211 704.2 153.98 704.2 Q147.984 704.2 144.813 699.617 Q141.642 695.01 141.642 686.283 Q141.642 678.089 145.531 673.228 Q149.42 668.344 155.97 668.344 Q157.73 668.344 159.512 668.691 Q161.318 669.038 163.262 669.733 Z" fill="#000000" fill-rule="nonzero" fill-opacity="1" /><path clip-path="url(#clip950)" d="M153.656 383.552 Q150.322 383.552 148.401 385.334 Q146.503 387.116 146.503 390.241 Q146.503 393.366 148.401 395.149 Q150.322 396.931 153.656 396.931 Q156.989 396.931 158.91 395.149 Q160.832 393.343 160.832 390.241 Q160.832 387.116 158.91 385.334 Q157.012 383.552 153.656 383.552 M148.98 381.561 Q145.971 380.82 144.281 378.76 Q142.614 376.7 142.614 373.737 Q142.614 369.593 145.554 367.186 Q148.517 364.779 153.656 364.779 Q158.818 364.779 161.757 367.186 Q164.697 369.593 164.697 373.737 Q164.697 376.7 163.007 378.76 Q161.341 380.82 158.355 381.561 Q161.734 382.348 163.609 384.64 Q165.507 386.931 165.507 390.241 Q165.507 395.265 162.429 397.95 Q159.373 400.635 153.656 400.635 Q147.938 400.635 144.859 397.95 Q141.804 395.265 141.804 390.241 Q141.804 386.931 143.702 384.64 Q145.6 382.348 148.98 381.561 M147.267 374.177 Q147.267 376.862 148.933 378.366 Q150.623 379.871 153.656 379.871 Q156.665 379.871 158.355 378.366 Q160.068 376.862 160.068 374.177 Q160.068 371.492 158.355 369.987 Q156.665 368.482 153.656 368.482 Q150.623 368.482 148.933 369.987 Q147.267 371.492 147.267 374.177 Z" fill="#000000" fill-rule="nonzero" fill-opacity="1" /><path clip-path="url(#clip950)" d="M114.211 92.4633 L121.85 92.4633 L121.85 66.0977 L113.54 67.7643 L113.54 63.5051 L121.804 61.8384 L126.48 61.8384 L126.48 92.4633 L134.119 92.4633 L134.119 96.3984 L114.211 96.3984 L114.211 92.4633 Z" fill="#000000" fill-rule="nonzero" fill-opacity="1" /><path clip-path="url(#clip950)" d="M153.563 64.9171 Q149.952 64.9171 148.123 68.4819 Q146.318 72.0236 146.318 79.1532 Q146.318 86.2596 148.123 89.8244 Q149.952 93.366 153.563 93.366 Q157.197 93.366 159.003 89.8244 Q160.832 86.2596 160.832 79.1532 Q160.832 72.0236 159.003 68.4819 Q157.197 64.9171 153.563 64.9171 M153.563 61.2134 Q159.373 61.2134 162.429 65.8199 Q165.507 70.4032 165.507 79.1532 Q165.507 87.88 162.429 92.4864 Q159.373 97.0697 153.563 97.0697 Q147.753 97.0697 144.674 92.4864 Q141.619 87.88 141.619 79.1532 Q141.619 70.4032 144.674 65.8199 Q147.753 61.2134 153.563 61.2134 Z" fill="#000000" fill-rule="nonzero" fill-opacity="1" /><path clip-path="url(#clip950)" d="M67.6042 912.522 L20.0842 930.664 L20.0842 923.948 L60.0926 908.893 L20.0842 893.806 L20.0842 887.122 L67.6042 905.233 L67.6042 912.522 Z" fill="#000000" fill-rule="nonzero" fill-opacity="1" /><path clip-path="url(#clip950)" d="M49.6847 869.298 Q49.6847 876.396 51.3079 879.133 Q52.9312 881.871 56.8461 881.871 Q59.9653 881.871 61.8114 879.834 Q63.6256 877.765 63.6256 874.232 Q63.6256 869.362 60.1881 866.434 Q56.7188 863.474 50.9897 863.474 L49.6847 863.474 L49.6847 869.298 M47.2657 857.617 L67.6042 857.617 L67.6042 863.474 L62.1933 863.474 Q65.4398 865.479 66.9994 868.471 Q68.5272 871.463 68.5272 875.791 Q68.5272 881.266 65.4716 884.512 Q62.3843 887.727 57.2281 887.727 Q51.2125 887.727 48.1569 883.717 Q45.1014 879.675 45.1014 871.686 L45.1014 863.474 L44.5285 863.474 Q40.4862 863.474 38.2901 866.147 Q36.0621 868.789 36.0621 873.595 Q36.0621 876.651 36.7941 879.547 Q37.5262 882.444 38.9903 885.117 L33.5795 885.117 Q32.3381 881.903 31.7334 878.879 Q31.0968 875.855 31.0968 872.991 Q31.0968 865.256 35.1072 861.437 Q39.1176 857.617 47.2657 857.617 Z" fill="#000000" fill-rule="nonzero" fill-opacity="1" /><path clip-path="url(#clip950)" d="M18.079 845.554 L18.079 839.698 L67.6042 839.698 L67.6042 845.554 L18.079 845.554 Z" fill="#000000" fill-rule="nonzero" fill-opacity="1" /><path clip-path="url(#clip950)" d="M53.5359 828.049 L31.9562 828.049 L31.9562 822.192 L53.3131 822.192 Q58.3739 822.192 60.9202 820.219 Q63.4346 818.245 63.4346 814.299 Q63.4346 809.556 60.4109 806.819 Q57.3872 804.05 52.1673 804.05 L31.9562 804.05 L31.9562 798.194 L67.6042 798.194 L67.6042 804.05 L62.1296 804.05 Q65.3762 806.182 66.9676 809.015 Q68.5272 811.816 68.5272 815.54 Q68.5272 821.683 64.7078 824.866 Q60.8883 828.049 53.5359 828.049 M31.0968 813.312 L31.0968 813.312 Z" fill="#000000" fill-rule="nonzero" fill-opacity="1" /><path clip-path="url(#clip950)" d="M48.3161 755.639 L51.1806 755.639 L51.1806 782.566 Q57.2281 782.184 60.4109 778.937 Q63.5619 775.659 63.5619 769.834 Q63.5619 766.46 62.7344 763.309 Q61.9069 760.127 60.2518 757.007 L65.7899 757.007 Q67.1267 760.158 67.827 763.469 Q68.5272 766.779 68.5272 770.184 Q68.5272 778.714 63.5619 783.712 Q58.5967 788.677 50.1303 788.677 Q41.3774 788.677 36.2531 783.966 Q31.0968 779.224 31.0968 771.203 Q31.0968 764.01 35.7438 759.84 Q40.3589 755.639 48.3161 755.639 M46.5973 761.495 Q41.7912 761.559 38.9266 764.201 Q36.0621 766.811 36.0621 771.139 Q36.0621 776.041 38.8312 779.001 Q41.6002 781.929 46.6292 782.375 L46.5973 761.495 Z" fill="#000000" fill-rule="nonzero" fill-opacity="1" /><path clip-path="url(#clip950)" d="M18.1426 711.238 Q25.4632 715.503 32.6246 717.572 Q39.786 719.641 47.1384 719.641 Q54.4908 719.641 61.7159 717.572 Q68.9091 715.471 76.1979 711.238 L76.1979 716.331 Q68.7182 721.105 61.4931 723.492 Q54.268 725.847 47.1384 725.847 Q40.0406 725.847 32.8474 723.492 Q25.6542 721.137 18.1426 716.331 L18.1426 711.238 Z" fill="#000000" fill-rule="nonzero" fill-opacity="1" /><path clip-path="url(#clip950)" d="M62.1933 697.934 L62.1933 687.43 L25.9406 687.43 L28.2323 698.857 L22.3758 698.857 L20.0842 687.494 L20.0842 681.065 L62.1933 681.065 L62.1933 670.561 L67.6042 670.561 L67.6042 697.934 L62.1933 697.934 Z" fill="#000000" fill-rule="nonzero" fill-opacity="1" /><path clip-path="url(#clip950)" d="M62.257 632.017 L81.1631 632.017 L81.1631 637.905 L31.9562 637.905 L31.9562 632.017 L37.3671 632.017 Q34.1842 630.171 32.6564 627.37 Q31.0968 624.537 31.0968 620.622 Q31.0968 614.129 36.2531 610.087 Q41.4093 606.013 49.812 606.013 Q58.2147 606.013 63.371 610.087 Q68.5272 614.129 68.5272 620.622 Q68.5272 624.537 66.9994 627.37 Q65.4398 630.171 62.257 632.017 M49.812 612.092 Q43.3508 612.092 39.6905 614.766 Q35.9984 617.407 35.9984 622.054 Q35.9984 626.701 39.6905 629.375 Q43.3508 632.017 49.812 632.017 Q56.2732 632.017 59.9653 629.375 Q63.6256 626.701 63.6256 622.054 Q63.6256 617.407 59.9653 614.766 Q56.2732 612.092 49.812 612.092 Z" fill="#000000" fill-rule="nonzero" fill-opacity="1" /><path clip-path="url(#clip950)" d="M48.3161 565.813 L51.1806 565.813 L51.1806 592.74 Q57.2281 592.358 60.4109 589.112 Q63.5619 585.834 63.5619 580.009 Q63.5619 576.635 62.7344 573.484 Q61.9069 570.301 60.2518 567.182 L65.7899 567.182 Q67.1267 570.333 67.827 573.643 Q68.5272 576.953 68.5272 580.359 Q68.5272 588.889 63.5619 593.886 Q58.5967 598.851 50.1303 598.851 Q41.3774 598.851 36.2531 594.141 Q31.0968 589.398 31.0968 581.378 Q31.0968 574.184 35.7438 570.015 Q40.3589 565.813 48.3161 565.813 M46.5973 571.67 Q41.7912 571.733 38.9266 574.375 Q36.0621 576.985 36.0621 581.314 Q36.0621 586.215 38.8312 589.176 Q41.6002 592.104 46.6292 592.549 L46.5973 571.67 Z" fill="#000000" fill-rule="nonzero" fill-opacity="1" /><path clip-path="url(#clip950)" d="M37.4307 535.544 Q36.8578 536.531 36.6032 537.709 Q36.3167 538.855 36.3167 540.255 Q36.3167 545.22 39.5632 547.894 Q42.7779 550.536 48.8253 550.536 L67.6042 550.536 L67.6042 556.424 L31.9562 556.424 L31.9562 550.536 L37.4944 550.536 Q34.2479 548.69 32.6883 545.73 Q31.0968 542.77 31.0968 538.536 Q31.0968 537.932 31.1923 537.2 Q31.256 536.467 31.4151 535.576 L37.4307 535.544 Z" fill="#000000" fill-rule="nonzero" fill-opacity="1" /><path clip-path="url(#clip950)" d="M31.9562 529.402 L31.9562 523.545 L67.6042 523.545 L67.6042 529.402 L31.9562 529.402 M18.079 529.402 L18.079 523.545 L25.495 523.545 L25.495 529.402 L18.079 529.402 Z" fill="#000000" fill-rule="nonzero" fill-opacity="1" /><path clip-path="url(#clip950)" d="M36.0621 497.478 Q36.0621 502.188 39.7542 504.925 Q43.4145 507.663 49.812 507.663 Q56.2095 507.663 59.9017 504.957 Q63.5619 502.22 63.5619 497.478 Q63.5619 492.799 59.8698 490.061 Q56.1777 487.324 49.812 487.324 Q43.4781 487.324 39.786 490.061 Q36.0621 492.799 36.0621 497.478 M31.0968 497.478 Q31.0968 489.839 36.0621 485.478 Q41.0273 481.118 49.812 481.118 Q58.5649 481.118 63.5619 485.478 Q68.5272 489.839 68.5272 497.478 Q68.5272 505.148 63.5619 509.509 Q58.5649 513.837 49.812 513.837 Q41.0273 513.837 36.0621 509.509 Q31.0968 505.148 31.0968 497.478 Z" fill="#000000" fill-rule="nonzero" fill-opacity="1" /><path clip-path="url(#clip950)" d="M37.3671 447.952 L18.079 447.952 L18.079 442.096 L67.6042 442.096 L67.6042 447.952 L62.257 447.952 Q65.4398 449.798 66.9994 452.631 Q68.5272 455.432 68.5272 459.379 Q68.5272 465.84 63.371 469.914 Q58.2147 473.956 49.812 473.956 Q41.4093 473.956 36.2531 469.914 Q31.0968 465.84 31.0968 459.379 Q31.0968 455.432 32.6564 452.631 Q34.1842 449.798 37.3671 447.952 M49.812 467.909 Q56.2732 467.909 59.9653 465.267 Q63.6256 462.593 63.6256 457.946 Q63.6256 453.3 59.9653 450.626 Q56.2732 447.952 49.812 447.952 Q43.3508 447.952 39.6905 450.626 Q35.9984 453.3 35.9984 457.946 Q35.9984 462.593 39.6905 465.267 Q43.3508 467.909 49.812 467.909 Z" fill="#000000" fill-rule="nonzero" fill-opacity="1" /><path clip-path="url(#clip950)" d="M18.079 409.312 L18.079 403.456 L67.6042 403.456 L67.6042 409.312 L18.079 409.312 Z" fill="#000000" fill-rule="nonzero" fill-opacity="1" /><path clip-path="url(#clip950)" d="M48.3161 360.71 L51.1806 360.71 L51.1806 387.637 Q57.2281 387.255 60.4109 384.009 Q63.5619 380.73 63.5619 374.906 Q63.5619 371.532 62.7344 368.381 Q61.9069 365.198 60.2518 362.079 L65.7899 362.079 Q67.1267 365.23 67.827 368.54 Q68.5272 371.85 68.5272 375.256 Q68.5272 383.786 63.5619 388.783 Q58.5967 393.748 50.1303 393.748 Q41.3774 393.748 36.2531 389.038 Q31.0968 384.295 31.0968 376.274 Q31.0968 369.081 35.7438 364.912 Q40.3589 360.71 48.3161 360.71 M46.5973 366.567 Q41.7912 366.63 38.9266 369.272 Q36.0621 371.882 36.0621 376.211 Q36.0621 381.112 38.8312 384.072 Q41.6002 387.001 46.6292 387.446 L46.5973 366.567 Z" fill="#000000" fill-rule="nonzero" fill-opacity="1" /><path clip-path="url(#clip950)" d="M18.079 333.051 L22.9487 333.051 L22.9487 338.653 Q22.9487 341.804 24.2219 343.045 Q25.495 344.255 28.8052 344.255 L31.9562 344.255 L31.9562 334.611 L36.5077 334.611 L36.5077 344.255 L67.6042 344.255 L67.6042 350.143 L36.5077 350.143 L36.5077 355.745 L31.9562 355.745 L31.9562 350.143 L29.4736 350.143 Q23.5216 350.143 20.8162 347.374 Q18.079 344.605 18.079 338.589 L18.079 333.051 Z" fill="#000000" fill-rule="nonzero" fill-opacity="1" /><path clip-path="url(#clip950)" d="M21.8347 323.503 L31.9562 323.503 L31.9562 311.44 L36.5077 311.44 L36.5077 323.503 L55.8594 323.503 Q60.2199 323.503 61.4613 322.325 Q62.7026 321.116 62.7026 317.455 L62.7026 311.44 L67.6042 311.44 L67.6042 317.455 Q67.6042 324.235 65.0897 326.813 Q62.5434 329.391 55.8594 329.391 L36.5077 329.391 L36.5077 333.688 L31.9562 333.688 L31.9562 329.391 L21.8347 329.391 L21.8347 323.503 Z" fill="#000000" fill-rule="nonzero" fill-opacity="1" /><path clip-path="url(#clip950)" d="M18.1426 304.66 L18.1426 299.568 Q25.6542 294.793 32.8474 292.438 Q40.0406 290.051 47.1384 290.051 Q54.268 290.051 61.4931 292.438 Q68.7182 294.793 76.1979 299.568 L76.1979 304.66 Q68.9091 300.427 61.7159 298.358 Q54.4908 296.258 47.1384 296.258 Q39.786 296.258 32.6246 298.358 Q25.4632 300.427 18.1426 304.66 Z" fill="#000000" fill-rule="nonzero" fill-opacity="1" /><circle clip-path="url(#clip951)" cx="250.043" cy="1141.6" r="14.4" fill="#009af9" fill-rule="evenodd" fill-opacity="1" stroke="#000000" stroke-opacity="1" stroke-width="2.688"/>
<circle clip-path="url(#clip951)" cx="285.999" cy="1141.6" r="14.4" fill="#009af9" fill-rule="evenodd" fill-opacity="1" stroke="#000000" stroke-opacity="1" stroke-width="2.688"/>
<circle clip-path="url(#clip951)" cx="321.956" cy="1141.6" r="14.4" fill="#009af9" fill-rule="evenodd" fill-opacity="1" stroke="#000000" stroke-opacity="1" stroke-width="2.688"/>
<circle clip-path="url(#clip951)" cx="357.912" cy="1141.6" r="14.4" fill="#009af9" fill-rule="evenodd" fill-opacity="1" stroke="#000000" stroke-opacity="1" stroke-width="2.688"/>
<circle clip-path="url(#clip951)" cx="393.868" cy="1141.6" r="14.4" fill="#009af9" fill-rule="evenodd" fill-opacity="1" stroke="#000000" stroke-opacity="1" stroke-width="2.688"/>
<circle clip-path="url(#clip951)" cx="429.825" cy="1141.6" r="14.4" fill="#009af9" fill-rule="evenodd" fill-opacity="1" stroke="#000000" stroke-opacity="1" stroke-width="2.688"/>
<circle clip-path="url(#clip951)" cx="465.781" cy="1141.6" r="14.4" fill="#009af9" fill-rule="evenodd" fill-opacity="1" stroke="#000000" stroke-opacity="1" stroke-width="2.688"/>
<circle clip-path="url(#clip951)" cx="501.737" cy="1141.6" r="14.4" fill="#009af9" fill-rule="evenodd" fill-opacity="1" stroke="#000000" stroke-opacity="1" stroke-width="2.688"/>
<circle clip-path="url(#clip951)" cx="537.693" cy="1141.6" r="14.4" fill="#009af9" fill-rule="evenodd" fill-opacity="1" stroke="#000000" stroke-opacity="1" stroke-width="2.688"/>
<circle clip-path="url(#clip951)" cx="573.65" cy="1141.6" r="14.4" fill="#009af9" fill-rule="evenodd" fill-opacity="1" stroke="#000000" stroke-opacity="1" stroke-width="2.688"/>
<circle clip-path="url(#clip951)" cx="609.606" cy="1141.6" r="14.4" fill="#009af9" fill-rule="evenodd" fill-opacity="1" stroke="#000000" stroke-opacity="1" stroke-width="2.688"/>
<circle clip-path="url(#clip951)" cx="645.562" cy="1138.5" r="14.4" fill="#009af9" fill-rule="evenodd" fill-opacity="1" stroke="#000000" stroke-opacity="1" stroke-width="2.688"/>
<circle clip-path="url(#clip951)" cx="681.518" cy="1110.62" r="14.4" fill="#009af9" fill-rule="evenodd" fill-opacity="1" stroke="#000000" stroke-opacity="1" stroke-width="2.688"/>
<circle clip-path="url(#clip951)" cx="717.475" cy="1082.74" r="14.4" fill="#009af9" fill-rule="evenodd" fill-opacity="1" stroke="#000000" stroke-opacity="1" stroke-width="2.688"/>
<circle clip-path="url(#clip951)" cx="753.431" cy="1054.86" r="14.4" fill="#009af9" fill-rule="evenodd" fill-opacity="1" stroke="#000000" stroke-opacity="1" stroke-width="2.688"/>
<circle clip-path="url(#clip951)" cx="789.387" cy="1026.99" r="14.4" fill="#009af9" fill-rule="evenodd" fill-opacity="1" stroke="#000000" stroke-opacity="1" stroke-width="2.688"/>
<circle clip-path="url(#clip951)" cx="825.343" cy="999.107" r="14.4" fill="#009af9" fill-rule="evenodd" fill-opacity="1" stroke="#000000" stroke-opacity="1" stroke-width="2.688"/>
<circle clip-path="url(#clip951)" cx="861.3" cy="971.228" r="14.4" fill="#009af9" fill-rule="evenodd" fill-opacity="1" stroke="#000000" stroke-opacity="1" stroke-width="2.688"/>
<circle clip-path="url(#clip951)" cx="897.256" cy="943.35" r="14.4" fill="#009af9" fill-rule="evenodd" fill-opacity="1" stroke="#000000" stroke-opacity="1" stroke-width="2.688"/>
<circle clip-path="url(#clip951)" cx="933.212" cy="915.471" r="14.4" fill="#009af9" fill-rule="evenodd" fill-opacity="1" stroke="#000000" stroke-opacity="1" stroke-width="2.688"/>
<circle clip-path="url(#clip951)" cx="969.168" cy="887.593" r="14.4" fill="#009af9" fill-rule="evenodd" fill-opacity="1" stroke="#000000" stroke-opacity="1" stroke-width="2.688"/>
<circle clip-path="url(#clip951)" cx="1005.12" cy="859.714" r="14.4" fill="#009af9" fill-rule="evenodd" fill-opacity="1" stroke="#000000" stroke-opacity="1" stroke-width="2.688"/>
<circle clip-path="url(#clip951)" cx="1041.08" cy="831.836" r="14.4" fill="#009af9" fill-rule="evenodd" fill-opacity="1" stroke="#000000" stroke-opacity="1" stroke-width="2.688"/>
<circle clip-path="url(#clip951)" cx="1077.04" cy="803.958" r="14.4" fill="#009af9" fill-rule="evenodd" fill-opacity="1" stroke="#000000" stroke-opacity="1" stroke-width="2.688"/>
<circle clip-path="url(#clip951)" cx="1112.99" cy="776.079" r="14.4" fill="#009af9" fill-rule="evenodd" fill-opacity="1" stroke="#000000" stroke-opacity="1" stroke-width="2.688"/>
<circle clip-path="url(#clip951)" cx="1148.95" cy="748.201" r="14.4" fill="#009af9" fill-rule="evenodd" fill-opacity="1" stroke="#000000" stroke-opacity="1" stroke-width="2.688"/>
<circle clip-path="url(#clip951)" cx="1184.91" cy="720.322" r="14.4" fill="#009af9" fill-rule="evenodd" fill-opacity="1" stroke="#000000" stroke-opacity="1" stroke-width="2.688"/>
<circle clip-path="url(#clip951)" cx="1220.86" cy="692.444" r="14.4" fill="#009af9" fill-rule="evenodd" fill-opacity="1" stroke="#000000" stroke-opacity="1" stroke-width="2.688"/>
<circle clip-path="url(#clip951)" cx="1256.82" cy="664.565" r="14.4" fill="#009af9" fill-rule="evenodd" fill-opacity="1" stroke="#000000" stroke-opacity="1" stroke-width="2.688"/>
<circle clip-path="url(#clip951)" cx="1292.77" cy="636.687" r="14.4" fill="#009af9" fill-rule="evenodd" fill-opacity="1" stroke="#000000" stroke-opacity="1" stroke-width="2.688"/>
<circle clip-path="url(#clip951)" cx="1328.73" cy="608.809" r="14.4" fill="#009af9" fill-rule="evenodd" fill-opacity="1" stroke="#000000" stroke-opacity="1" stroke-width="2.688"/>
<circle clip-path="url(#clip951)" cx="1364.69" cy="580.93" r="14.4" fill="#009af9" fill-rule="evenodd" fill-opacity="1" stroke="#000000" stroke-opacity="1" stroke-width="2.688"/>
<circle clip-path="url(#clip951)" cx="1400.64" cy="553.052" r="14.4" fill="#009af9" fill-rule="evenodd" fill-opacity="1" stroke="#000000" stroke-opacity="1" stroke-width="2.688"/>
<circle clip-path="url(#clip951)" cx="1436.6" cy="525.173" r="14.4" fill="#009af9" fill-rule="evenodd" fill-opacity="1" stroke="#000000" stroke-opacity="1" stroke-width="2.688"/>
<circle clip-path="url(#clip951)" cx="1472.56" cy="497.295" r="14.4" fill="#009af9" fill-rule="evenodd" fill-opacity="1" stroke="#000000" stroke-opacity="1" stroke-width="2.688"/>
<circle clip-path="url(#clip951)" cx="1508.51" cy="469.416" r="14.4" fill="#009af9" fill-rule="evenodd" fill-opacity="1" stroke="#000000" stroke-opacity="1" stroke-width="2.688"/>
<circle clip-path="url(#clip951)" cx="1544.47" cy="441.538" r="14.4" fill="#009af9" fill-rule="evenodd" fill-opacity="1" stroke="#000000" stroke-opacity="1" stroke-width="2.688"/>
<circle clip-path="url(#clip951)" cx="1580.43" cy="413.66" r="14.4" fill="#009af9" fill-rule="evenodd" fill-opacity="1" stroke="#000000" stroke-opacity="1" stroke-width="2.688"/>
<circle clip-path="url(#clip951)" cx="1616.38" cy="385.781" r="14.4" fill="#009af9" fill-rule="evenodd" fill-opacity="1" stroke="#000000" stroke-opacity="1" stroke-width="2.688"/>
<circle clip-path="url(#clip951)" cx="1652.34" cy="357.903" r="14.4" fill="#009af9" fill-rule="evenodd" fill-opacity="1" stroke="#000000" stroke-opacity="1" stroke-width="2.688"/>
<circle clip-path="url(#clip951)" cx="1688.29" cy="330.024" r="14.4" fill="#009af9" fill-rule="evenodd" fill-opacity="1" stroke="#000000" stroke-opacity="1" stroke-width="2.688"/>
<circle clip-path="url(#clip951)" cx="1724.25" cy="302.146" r="14.4" fill="#009af9" fill-rule="evenodd" fill-opacity="1" stroke="#000000" stroke-opacity="1" stroke-width="2.688"/>
<circle clip-path="url(#clip951)" cx="1760.21" cy="274.267" r="14.4" fill="#009af9" fill-rule="evenodd" fill-opacity="1" stroke="#000000" stroke-opacity="1" stroke-width="2.688"/>
<circle clip-path="url(#clip951)" cx="1796.16" cy="246.389" r="14.4" fill="#009af9" fill-rule="evenodd" fill-opacity="1" stroke="#000000" stroke-opacity="1" stroke-width="2.688"/>
<circle clip-path="url(#clip951)" cx="1832.12" cy="218.511" r="14.4" fill="#009af9" fill-rule="evenodd" fill-opacity="1" stroke="#000000" stroke-opacity="1" stroke-width="2.688"/>
<circle clip-path="url(#clip951)" cx="1868.08" cy="190.632" r="14.4" fill="#009af9" fill-rule="evenodd" fill-opacity="1" stroke="#000000" stroke-opacity="1" stroke-width="2.688"/>
<circle clip-path="url(#clip951)" cx="1904.03" cy="162.754" r="14.4" fill="#009af9" fill-rule="evenodd" fill-opacity="1" stroke="#000000" stroke-opacity="1" stroke-width="2.688"/>
<circle clip-path="url(#clip951)" cx="1939.99" cy="134.875" r="14.4" fill="#009af9" fill-rule="evenodd" fill-opacity="1" stroke="#000000" stroke-opacity="1" stroke-width="2.688"/>
<circle clip-path="url(#clip951)" cx="1975.94" cy="106.997" r="14.4" fill="#009af9" fill-rule="evenodd" fill-opacity="1" stroke="#000000" stroke-opacity="1" stroke-width="2.688"/>
<circle clip-path="url(#clip951)" cx="2011.9" cy="79.1184" r="14.4" fill="#009af9" fill-rule="evenodd" fill-opacity="1" stroke="#000000" stroke-opacity="1" stroke-width="2.688"/>
<path clip-path="url(#clip950)" d="M259.44 188.465 L494.669 188.465 L494.669 84.785 L259.44 84.785  Z" fill="#ffffff" fill-rule="evenodd" fill-opacity="1"/>
<polyline clip-path="url(#clip950)" style="stroke:#000000; stroke-linecap:round; stroke-linejoin:round; stroke-width:4; stroke-opacity:1; fill:none" points="259.44,188.465 494.669,188.465 494.669,84.785 259.44,84.785 259.44,188.465 "/>
<circle clip-path="url(#clip950)" cx="342.443" cy="136.625" r="20.48" fill="#009af9" fill-rule="evenodd" fill-opacity="1" stroke="#000000" stroke-opacity="1" stroke-width="3.82293"/>
<path clip-path="url(#clip950)" d="M438.64 153.905 L425.446 119.345 L430.33 119.345 L441.279 148.442 L452.251 119.345 L457.112 119.345 L443.941 153.905 L438.64 153.905 Z" fill="#000000" fill-rule="nonzero" fill-opacity="1" /><path clip-path="url(#clip950)" d="M461.117 151.359 L465.839 151.359 L465.839 137.215 L460.677 138.164 L460.677 135.479 L466.001 134.576 L469.172 134.576 L469.172 151.359 L473.918 151.359 L473.918 153.905 L461.117 153.905 L461.117 151.359 Z" fill="#000000" fill-rule="nonzero" fill-opacity="1" /></svg>
