<?xml version="1.0" encoding="utf-8"?>
<svg xmlns="http://www.w3.org/2000/svg" xmlns:xlink="http://www.w3.org/1999/xlink" width="528" height="336" viewBox="0 0 2112 1344">
<defs>
  <clipPath id="clip980">
    <rect x="0" y="0" width="2112" height="1344"/>
  </clipPath>
</defs>
<path clip-path="url(#clip980)" d="M0 1344 L2112 1344 L2112 2.13163e-14 L0 2.13163e-14  Z" fill="#ffffff" fill-rule="evenodd" fill-opacity="1"/>
<defs>
  <clipPath id="clip981">
    <rect x="242" y="47" width="1823" height="1127"/>
  </clipPath>
</defs>
<path clip-path="url(#clip980)" d="M242.419 1173.47 L2064.76 1173.47 L2064.76 47.2441 L242.419 47.2441  Z" fill="#ffffff" fill-rule="evenodd" fill-opacity="1"/>
<polyline clip-path="url(#clip981)" style="stroke:#000000; stroke-linecap:round; stroke-linejoin:round; stroke-width:2; stroke-opacity:0.1; fill:none" points="485.015,1173.47 485.015,47.2441 "/>
<polyline clip-path="url(#clip981)" style="stroke:#000000; stroke-linecap:round; stroke-linejoin:round; stroke-width:2; stroke-opacity:0.1; fill:none" points="867.056,1173.47 867.056,47.2441 "/>
<polyline clip-path="url(#clip981)" style="stroke:#000000; stroke-linecap:round; stroke-linejoin:round; stroke-width:2; stroke-opacity:0.1; fill:none" points="1249.1,1173.47 1249.1,47.2441 "/>
<polyline clip-path="url(#clip981)" style="stroke:#000000; stroke-linecap:round; stroke-linejoin:round; stroke-width:2; stroke-opacity:0.1; fill:none" points="1631.14,1173.47 1631.14,47.2441 "/>
<polyline clip-path="url(#clip981)" style="stroke:#000000; stroke-linecap:round; stroke-linejoin:round; stroke-width:2; stroke-opacity:0.1; fill:none" points="2013.18,1173.47 2013.18,47.2441 "/>
<polyline clip-path="url(#clip981)" style="stroke:#000000; stroke-linecap:round; stroke-linejoin:round; stroke-width:2; stroke-opacity:0.1; fill:none" points="242.419,1012.81 2064.76,1012.81 "/>
<polyline clip-path="url(#clip981)" style="stroke:#000000; stroke-linecap:round; stroke-linejoin:round; stroke-width:2; stroke-opacity:0.1; fill:none" points="242.419,851.83 2064.76,851.83 "/>
<polyline clip-path="url(#clip981)" style="stroke:#000000; stroke-linecap:round; stroke-linejoin:round; stroke-width:2; stroke-opacity:0.1; fill:none" points="242.419,690.848 2064.76,690.848 "/>
<polyline clip-path="url(#clip981)" style="stroke:#000000; stroke-linecap:round; stroke-linejoin:round; stroke-width:2; stroke-opacity:0.1; fill:none" points="242.419,529.867 2064.76,529.867 "/>
<polyline clip-path="url(#clip981)" style="stroke:#000000; stroke-linecap:round; stroke-linejoin:round; stroke-width:2; stroke-opacity:0.1; fill:none" points="242.419,368.885 2064.76,368.885 "/>
<polyline clip-path="url(#clip981)" style="stroke:#000000; stroke-linecap:round; stroke-linejoin:round; stroke-width:2; stroke-opacity:0.1; fill:none" points="242.419,207.904 2064.76,207.904 "/>
<polyline clip-path="url(#clip980)" style="stroke:#000000; stroke-linecap:round; stroke-linejoin:round; stroke-width:4; stroke-opacity:1; fill:none" points="242.419,1173.47 2064.76,1173.47 "/>
<polyline clip-path="url(#clip980)" style="stroke:#000000; stroke-linecap:round; stroke-linejoin:round; stroke-width:4; stroke-opacity:1; fill:none" points="485.015,1173.47 485.015,1154.57 "/>
<polyline clip-path="url(#clip980)" style="stroke:#000000; stroke-linecap:round; stroke-linejoin:round; stroke-width:4; stroke-opacity:1; fill:none" points="867.056,1173.47 867.056,1154.57 "/>
<polyline clip-path="url(#clip980)" style="stroke:#000000; stroke-linecap:round; stroke-linejoin:round; stroke-width:4; stroke-opacity:1; fill:none" points="1249.1,1173.47 1249.1,1154.57 "/>
<polyline clip-path="url(#clip980)" style="stroke:#000000; stroke-linecap:round; stroke-linejoin:round; stroke-width:4; stroke-opacity:1; fill:none" points="1631.14,1173.47 1631.14,1154.57 "/>
<polyline clip-path="url(#clip980)" style="stroke:#000000; stroke-linecap:round; stroke-linejoin:round; stroke-width:4; stroke-opacity:1; fill:none" points="2013.18,1173.47 2013.18,1154.57 "/>
<path clip-path="url(#clip980)" d="M479.668 1229.63 L495.987 1229.63 L495.987 1233.57 L474.043 1233.57 L474.043 1229.63 Q476.705 1226.88 481.288 1222.25 Q485.895 1217.59 487.075 1216.25 Q489.32 1213.73 490.2 1211.99 Q491.103 1210.23 491.103 1208.54 Q491.103 1205.79 489.158 1204.05 Q487.237 1202.32 484.135 1202.32 Q481.936 1202.32 479.483 1203.08 Q477.052 1203.84 474.274 1205.4 L474.274 1200.67 Q477.098 1199.54 479.552 1198.96 Q482.006 1198.38 484.043 1198.38 Q489.413 1198.38 492.608 1201.07 Q495.802 1203.75 495.802 1208.24 Q495.802 1210.37 494.992 1212.29 Q494.205 1214.19 492.098 1216.78 Q491.52 1217.46 488.418 1220.67 Q485.316 1223.87 479.668 1229.63 Z" fill="#000000" fill-rule="nonzero" fill-opacity="1" /><path clip-path="url(#clip980)" d="M870.066 1203.08 L858.26 1221.53 L870.066 1221.53 L870.066 1203.08 M868.839 1199.01 L874.718 1199.01 L874.718 1221.53 L879.649 1221.53 L879.649 1225.42 L874.718 1225.42 L874.718 1233.57 L870.066 1233.57 L870.066 1225.42 L854.464 1225.42 L854.464 1220.9 L868.839 1199.01 Z" fill="#000000" fill-rule="nonzero" fill-opacity="1" /><path clip-path="url(#clip980)" d="M1249.5 1214.42 Q1246.35 1214.42 1244.5 1216.58 Q1242.67 1218.73 1242.67 1222.48 Q1242.67 1226.21 1244.5 1228.38 Q1246.35 1230.53 1249.5 1230.53 Q1252.65 1230.53 1254.48 1228.38 Q1256.33 1226.21 1256.33 1222.48 Q1256.33 1218.73 1254.48 1216.58 Q1252.65 1214.42 1249.5 1214.42 M1258.79 1199.77 L1258.79 1204.03 Q1257.03 1203.2 1255.22 1202.76 Q1253.44 1202.32 1251.68 1202.32 Q1247.05 1202.32 1244.6 1205.44 Q1242.16 1208.57 1241.82 1214.89 Q1243.18 1212.87 1245.24 1211.81 Q1247.3 1210.72 1249.78 1210.72 Q1254.99 1210.72 1258 1213.89 Q1261.03 1217.04 1261.03 1222.48 Q1261.03 1227.8 1257.88 1231.02 Q1254.73 1234.24 1249.5 1234.24 Q1243.51 1234.24 1240.34 1229.65 Q1237.16 1225.05 1237.16 1216.32 Q1237.16 1208.13 1241.05 1203.27 Q1244.94 1198.38 1251.49 1198.38 Q1253.25 1198.38 1255.04 1198.73 Q1256.84 1199.08 1258.79 1199.77 Z" fill="#000000" fill-rule="nonzero" fill-opacity="1" /><path clip-path="url(#clip980)" d="M1631.14 1217.15 Q1627.81 1217.15 1625.88 1218.94 Q1623.99 1220.72 1623.99 1223.84 Q1623.99 1226.97 1625.88 1228.75 Q1627.81 1230.53 1631.14 1230.53 Q1634.47 1230.53 1636.39 1228.75 Q1638.31 1226.95 1638.31 1223.84 Q1638.31 1220.72 1636.39 1218.94 Q1634.5 1217.15 1631.14 1217.15 M1626.46 1215.16 Q1623.45 1214.42 1621.76 1212.36 Q1620.1 1210.3 1620.1 1207.34 Q1620.1 1203.2 1623.04 1200.79 Q1626 1198.38 1631.14 1198.38 Q1636.3 1198.38 1639.24 1200.79 Q1642.18 1203.2 1642.18 1207.34 Q1642.18 1210.3 1640.49 1212.36 Q1638.82 1214.42 1635.84 1215.16 Q1639.22 1215.95 1641.09 1218.24 Q1642.99 1220.53 1642.99 1223.84 Q1642.99 1228.87 1639.91 1231.55 Q1636.86 1234.24 1631.14 1234.24 Q1625.42 1234.24 1622.34 1231.55 Q1619.29 1228.87 1619.29 1223.84 Q1619.29 1220.53 1621.19 1218.24 Q1623.08 1215.95 1626.46 1215.16 M1624.75 1207.78 Q1624.75 1210.47 1626.42 1211.97 Q1628.11 1213.47 1631.14 1213.47 Q1634.15 1213.47 1635.84 1211.97 Q1637.55 1210.47 1637.55 1207.78 Q1637.55 1205.09 1635.84 1203.59 Q1634.15 1202.09 1631.14 1202.09 Q1628.11 1202.09 1626.42 1203.59 Q1624.75 1205.09 1624.75 1207.78 Z" fill="#000000" fill-rule="nonzero" fill-opacity="1" /><path clip-path="url(#clip980)" d="M1987.87 1229.63 L1995.51 1229.63 L1995.51 1203.27 L1987.2 1204.93 L1987.2 1200.67 L1995.46 1199.01 L2000.14 1199.01 L2000.14 1229.63 L2007.78 1229.63 L2007.78 1233.57 L1987.87 1233.57 L1987.87 1229.63 Z" fill="#000000" fill-rule="nonzero" fill-opacity="1" /><path clip-path="url(#clip980)" d="M2027.22 1202.09 Q2023.61 1202.09 2021.78 1205.65 Q2019.97 1209.19 2019.97 1216.32 Q2019.97 1223.43 2021.78 1226.99 Q2023.61 1230.53 2027.22 1230.53 Q2030.85 1230.53 2032.66 1226.99 Q2034.49 1223.43 2034.49 1216.32 Q2034.49 1209.19 2032.66 1205.65 Q2030.85 1202.09 2027.22 1202.09 M2027.22 1198.38 Q2033.03 1198.38 2036.09 1202.99 Q2039.16 1207.57 2039.16 1216.32 Q2039.16 1225.05 2036.09 1229.65 Q2033.03 1234.24 2027.22 1234.24 Q2021.41 1234.24 2018.33 1229.65 Q2015.28 1225.05 2015.28 1216.32 Q2015.28 1207.57 2018.33 1202.99 Q2021.41 1198.38 2027.22 1198.38 Z" fill="#000000" fill-rule="nonzero" fill-opacity="1" /><path clip-path="url(#clip980)" d="M1065.55 1266.49 L1072.04 1266.49 L1082.04 1306.66 L1092 1266.49 L1099.22 1266.49 L1109.22 1306.66 L1119.18 1266.49 L1125.71 1266.49 L1113.77 1314.01 L1105.69 1314.01 L1095.66 1272.76 L1085.54 1314.01 L1077.45 1314.01 L1065.55 1266.49 Z" fill="#000000" fill-rule="nonzero" fill-opacity="1" /><path clip-path="url(#clip980)" d="M1146.01 1296.1 Q1138.91 1296.1 1136.18 1297.72 Q1133.44 1299.34 1133.44 1303.26 Q1133.44 1306.38 1135.48 1308.22 Q1137.55 1310.04 1141.08 1310.04 Q1145.95 1310.04 1148.88 1306.6 Q1151.84 1303.13 1151.84 1297.4 L1151.84 1296.1 L1146.01 1296.1 M1157.69 1293.68 L1157.69 1314.01 L1151.84 1314.01 L1151.84 1308.6 Q1149.83 1311.85 1146.84 1313.41 Q1143.85 1314.94 1139.52 1314.94 Q1134.04 1314.94 1130.8 1311.88 Q1127.58 1308.79 1127.58 1303.64 Q1127.58 1297.62 1131.59 1294.57 Q1135.64 1291.51 1143.62 1291.51 L1151.84 1291.51 L1151.84 1290.94 Q1151.84 1286.9 1149.16 1284.7 Q1146.52 1282.47 1141.72 1282.47 Q1138.66 1282.47 1135.76 1283.2 Q1132.87 1283.94 1130.19 1285.4 L1130.19 1279.99 Q1133.41 1278.75 1136.43 1278.14 Q1139.46 1277.51 1142.32 1277.51 Q1150.05 1277.51 1153.87 1281.52 Q1157.69 1285.53 1157.69 1293.68 Z" fill="#000000" fill-rule="nonzero" fill-opacity="1" /><path clip-path="url(#clip980)" d="M1193.21 1295.78 Q1193.21 1289.41 1190.57 1285.91 Q1187.96 1282.41 1183.22 1282.41 Q1178.51 1282.41 1175.87 1285.91 Q1173.26 1289.41 1173.26 1295.78 Q1173.26 1302.11 1175.87 1305.61 Q1178.51 1309.11 1183.22 1309.11 Q1187.96 1309.11 1190.57 1305.61 Q1193.21 1302.11 1193.21 1295.78 M1199.07 1309.59 Q1199.07 1318.69 1195.03 1323.12 Q1190.99 1327.57 1182.65 1327.57 Q1179.56 1327.57 1176.82 1327.1 Q1174.08 1326.65 1171.51 1325.7 L1171.51 1320 Q1174.08 1321.4 1176.6 1322.07 Q1179.11 1322.74 1181.72 1322.74 Q1187.48 1322.74 1190.35 1319.71 Q1193.21 1316.72 1193.21 1310.64 L1193.21 1307.74 Q1191.4 1310.9 1188.57 1312.46 Q1185.73 1314.01 1181.79 1314.01 Q1175.23 1314.01 1171.22 1309.02 Q1167.21 1304.02 1167.21 1295.78 Q1167.21 1287.5 1171.22 1282.5 Q1175.23 1277.51 1181.79 1277.51 Q1185.73 1277.51 1188.57 1279.07 Q1191.4 1280.63 1193.21 1283.78 L1193.21 1278.37 L1199.07 1278.37 L1199.07 1309.59 Z" fill="#000000" fill-rule="nonzero" fill-opacity="1" /><path clip-path="url(#clip980)" d="M1241.63 1294.73 L1241.63 1297.59 L1214.7 1297.59 Q1215.08 1303.64 1218.33 1306.82 Q1221.6 1309.97 1227.43 1309.97 Q1230.8 1309.97 1233.95 1309.14 Q1237.14 1308.32 1240.26 1306.66 L1240.26 1312.2 Q1237.11 1313.54 1233.8 1314.24 Q1230.49 1314.94 1227.08 1314.94 Q1218.55 1314.94 1213.55 1309.97 Q1208.59 1305.01 1208.59 1296.54 Q1208.59 1287.79 1213.3 1282.66 Q1218.04 1277.51 1226.06 1277.51 Q1233.25 1277.51 1237.42 1282.15 Q1241.63 1286.77 1241.63 1294.73 M1235.77 1293.01 Q1235.7 1288.2 1233.06 1285.34 Q1230.45 1282.47 1226.12 1282.47 Q1221.22 1282.47 1218.26 1285.24 Q1215.33 1288.01 1214.89 1293.04 L1235.77 1293.01 Z" fill="#000000" fill-rule="nonzero" fill-opacity="1" /><polyline clip-path="url(#clip980)" style="stroke:#000000; stroke-linecap:round; stroke-linejoin:round; stroke-width:4; stroke-opacity:1; fill:none" points="242.419,1173.47 242.419,47.2441 "/>
<polyline clip-path="url(#clip980)" style="stroke:#000000; stroke-linecap:round; stroke-linejoin:round; stroke-width:4; stroke-opacity:1; fill:none" points="242.419,1012.81 261.316,1012.81 "/>
<polyline clip-path="url(#clip980)" style="stroke:#000000; stroke-linecap:round; stroke-linejoin:round; stroke-width:4; stroke-opacity:1; fill:none" points="242.419,851.83 261.316,851.83 "/>
<polyline clip-path="url(#clip980)" style="stroke:#000000; stroke-linecap:round; stroke-linejoin:round; stroke-width:4; stroke-opacity:1; fill:none" points="242.419,690.848 261.316,690.848 "/>
<polyline clip-path="url(#clip980)" style="stroke:#000000; stroke-linecap:round; stroke-linejoin:round; stroke-width:4; stroke-opacity:1; fill:none" points="242.419,529.867 261.316,529.867 "/>
<polyline clip-path="url(#clip980)" style="stroke:#000000; stroke-linecap:round; stroke-linejoin:round; stroke-width:4; stroke-opacity:1; fill:none" points="242.419,368.885 261.316,368.885 "/>
<polyline clip-path="url(#clip980)" style="stroke:#000000; stroke-linecap:round; stroke-linejoin:round; stroke-width:4; stroke-opacity:1; fill:none" points="242.419,207.904 261.316,207.904 "/>
<path clip-path="url(#clip980)" d="M143.609 995.531 L161.966 995.531 L161.966 999.466 L147.892 999.466 L147.892 1007.94 Q148.91 1007.59 149.929 1007.43 Q150.947 1007.24 151.966 1007.24 Q157.753 1007.24 161.132 1010.42 Q164.512 1013.59 164.512 1019 Q164.512 1024.58 161.04 1027.68 Q157.568 1030.76 151.248 1030.76 Q149.072 1030.76 146.804 1030.39 Q144.559 1030.02 142.151 1029.28 L142.151 1024.58 Q144.234 1025.72 146.457 1026.27 Q148.679 1026.83 151.156 1026.83 Q155.16 1026.83 157.498 1024.72 Q159.836 1022.61 159.836 1019 Q159.836 1015.39 157.498 1013.29 Q155.16 1011.18 151.156 1011.18 Q149.281 1011.18 147.406 1011.6 Q145.554 1012.01 143.609 1012.89 L143.609 995.531 Z" fill="#000000" fill-rule="nonzero" fill-opacity="1" /><path clip-path="url(#clip980)" d="M173.725 1024.21 L178.609 1024.21 L178.609 1030.09 L173.725 1030.09 L173.725 1024.21 Z" fill="#000000" fill-rule="nonzero" fill-opacity="1" /><path clip-path="url(#clip980)" d="M198.794 998.61 Q195.183 998.61 193.355 1002.17 Q191.549 1005.72 191.549 1012.85 Q191.549 1019.95 193.355 1023.52 Q195.183 1027.06 198.794 1027.06 Q202.429 1027.06 204.234 1023.52 Q206.063 1019.95 206.063 1012.85 Q206.063 1005.72 204.234 1002.17 Q202.429 998.61 198.794 998.61 M198.794 994.906 Q204.604 994.906 207.66 999.513 Q210.739 1004.1 210.739 1012.85 Q210.739 1021.57 207.66 1026.18 Q204.604 1030.76 198.794 1030.76 Q192.984 1030.76 189.905 1026.18 Q186.85 1021.57 186.85 1012.85 Q186.85 1004.1 189.905 999.513 Q192.984 994.906 198.794 994.906 Z" fill="#000000" fill-rule="nonzero" fill-opacity="1" /><path clip-path="url(#clip980)" d="M143.378 834.55 L165.6 834.55 L165.6 836.54 L153.054 869.11 L148.17 869.11 L159.975 838.485 L143.378 838.485 L143.378 834.55 Z" fill="#000000" fill-rule="nonzero" fill-opacity="1" /><path clip-path="url(#clip980)" d="M174.72 863.23 L179.605 863.23 L179.605 869.11 L174.72 869.11 L174.72 863.23 Z" fill="#000000" fill-rule="nonzero" fill-opacity="1" /><path clip-path="url(#clip980)" d="M189.836 834.55 L208.192 834.55 L208.192 838.485 L194.118 838.485 L194.118 846.957 Q195.137 846.61 196.155 846.448 Q197.174 846.263 198.192 846.263 Q203.979 846.263 207.359 849.434 Q210.739 852.605 210.739 858.022 Q210.739 863.6 207.267 866.702 Q203.794 869.781 197.475 869.781 Q195.299 869.781 193.03 869.411 Q190.785 869.04 188.378 868.3 L188.378 863.6 Q190.461 864.735 192.683 865.29 Q194.905 865.846 197.382 865.846 Q201.387 865.846 203.725 863.739 Q206.063 861.633 206.063 858.022 Q206.063 854.411 203.725 852.304 Q201.387 850.198 197.382 850.198 Q195.507 850.198 193.632 850.614 Q191.78 851.031 189.836 851.911 L189.836 834.55 Z" fill="#000000" fill-rule="nonzero" fill-opacity="1" /><path clip-path="url(#clip980)" d="M114.211 704.193 L121.85 704.193 L121.85 677.827 L113.54 679.494 L113.54 675.235 L121.804 673.568 L126.48 673.568 L126.48 704.193 L134.119 704.193 L134.119 708.128 L114.211 708.128 L114.211 704.193 Z" fill="#000000" fill-rule="nonzero" fill-opacity="1" /><path clip-path="url(#clip980)" d="M153.563 676.647 Q149.952 676.647 148.123 680.212 Q146.318 683.753 146.318 690.883 Q146.318 697.989 148.123 701.554 Q149.952 705.096 153.563 705.096 Q157.197 705.096 159.003 701.554 Q160.832 697.989 160.832 690.883 Q160.832 683.753 159.003 680.212 Q157.197 676.647 153.563 676.647 M153.563 672.943 Q159.373 672.943 162.429 677.55 Q165.507 682.133 165.507 690.883 Q165.507 699.61 162.429 704.216 Q159.373 708.799 153.563 708.799 Q147.753 708.799 144.674 704.216 Q141.619 699.61 141.619 690.883 Q141.619 682.133 144.674 677.55 Q147.753 672.943 153.563 672.943 Z" fill="#000000" fill-rule="nonzero" fill-opacity="1" /><path clip-path="url(#clip980)" d="M173.725 702.249 L178.609 702.249 L178.609 708.128 L173.725 708.128 L173.725 702.249 Z" fill="#000000" fill-rule="nonzero" fill-opacity="1" /><path clip-path="url(#clip980)" d="M198.794 676.647 Q195.183 676.647 193.355 680.212 Q191.549 683.753 191.549 690.883 Q191.549 697.989 193.355 701.554 Q195.183 705.096 198.794 705.096 Q202.429 705.096 204.234 701.554 Q206.063 697.989 206.063 690.883 Q206.063 683.753 204.234 680.212 Q202.429 676.647 198.794 676.647 M198.794 672.943 Q204.604 672.943 207.66 677.55 Q210.739 682.133 210.739 690.883 Q210.739 699.61 207.66 704.216 Q204.604 708.799 198.794 708.799 Q192.984 708.799 189.905 704.216 Q186.85 699.61 186.85 690.883 Q186.85 682.133 189.905 677.55 Q192.984 672.943 198.794 672.943 Z" fill="#000000" fill-rule="nonzero" fill-opacity="1" /><path clip-path="url(#clip980)" d="M115.207 543.212 L122.846 543.212 L122.846 516.846 L114.536 518.513 L114.536 514.253 L122.799 512.587 L127.475 512.587 L127.475 543.212 L135.114 543.212 L135.114 547.147 L115.207 547.147 L115.207 543.212 Z" fill="#000000" fill-rule="nonzero" fill-opacity="1" /><path clip-path="url(#clip980)" d="M148.586 543.212 L164.906 543.212 L164.906 547.147 L142.961 547.147 L142.961 543.212 Q145.623 540.457 150.207 535.827 Q154.813 531.175 155.994 529.832 Q158.239 527.309 159.119 525.573 Q160.021 523.813 160.021 522.124 Q160.021 519.369 158.077 517.633 Q156.156 515.897 153.054 515.897 Q150.855 515.897 148.401 516.661 Q145.971 517.425 143.193 518.976 L143.193 514.253 Q146.017 513.119 148.471 512.54 Q150.924 511.962 152.961 511.962 Q158.332 511.962 161.526 514.647 Q164.72 517.332 164.72 521.823 Q164.72 523.952 163.91 525.874 Q163.123 527.772 161.017 530.364 Q160.438 531.036 157.336 534.253 Q154.234 537.448 148.586 543.212 Z" fill="#000000" fill-rule="nonzero" fill-opacity="1" /><path clip-path="url(#clip980)" d="M174.72 541.267 L179.605 541.267 L179.605 547.147 L174.72 547.147 L174.72 541.267 Z" fill="#000000" fill-rule="nonzero" fill-opacity="1" /><path clip-path="url(#clip980)" d="M189.836 512.587 L208.192 512.587 L208.192 516.522 L194.118 516.522 L194.118 524.994 Q195.137 524.647 196.155 524.485 Q197.174 524.3 198.192 524.3 Q203.979 524.3 207.359 527.471 Q210.739 530.642 210.739 536.059 Q210.739 541.637 207.267 544.739 Q203.794 547.818 197.475 547.818 Q195.299 547.818 193.03 547.448 Q190.785 547.077 188.378 546.336 L188.378 541.637 Q190.461 542.772 192.683 543.327 Q194.905 543.883 197.382 543.883 Q201.387 543.883 203.725 541.776 Q206.063 539.67 206.063 536.059 Q206.063 532.448 203.725 530.341 Q201.387 528.235 197.382 528.235 Q195.507 528.235 193.632 528.651 Q191.78 529.068 189.836 529.948 L189.836 512.587 Z" fill="#000000" fill-rule="nonzero" fill-opacity="1" /><path clip-path="url(#clip980)" d="M114.211 382.23 L121.85 382.23 L121.85 355.864 L113.54 357.531 L113.54 353.272 L121.804 351.605 L126.48 351.605 L126.48 382.23 L134.119 382.23 L134.119 386.165 L114.211 386.165 L114.211 382.23 Z" fill="#000000" fill-rule="nonzero" fill-opacity="1" /><path clip-path="url(#clip980)" d="M143.609 351.605 L161.966 351.605 L161.966 355.54 L147.892 355.54 L147.892 364.012 Q148.91 363.665 149.929 363.503 Q150.947 363.318 151.966 363.318 Q157.753 363.318 161.132 366.489 Q164.512 369.661 164.512 375.077 Q164.512 380.656 161.04 383.758 Q157.568 386.836 151.248 386.836 Q149.072 386.836 146.804 386.466 Q144.559 386.096 142.151 385.355 L142.151 380.656 Q144.234 381.79 146.457 382.346 Q148.679 382.901 151.156 382.901 Q155.16 382.901 157.498 380.795 Q159.836 378.688 159.836 375.077 Q159.836 371.466 157.498 369.36 Q155.16 367.253 151.156 367.253 Q149.281 367.253 147.406 367.67 Q145.554 368.087 143.609 368.966 L143.609 351.605 Z" fill="#000000" fill-rule="nonzero" fill-opacity="1" /><path clip-path="url(#clip980)" d="M173.725 380.286 L178.609 380.286 L178.609 386.165 L173.725 386.165 L173.725 380.286 Z" fill="#000000" fill-rule="nonzero" fill-opacity="1" /><path clip-path="url(#clip980)" d="M198.794 354.684 Q195.183 354.684 193.355 358.249 Q191.549 361.79 191.549 368.92 Q191.549 376.026 193.355 379.591 Q195.183 383.133 198.794 383.133 Q202.429 383.133 204.234 379.591 Q206.063 376.026 206.063 368.92 Q206.063 361.79 204.234 358.249 Q202.429 354.684 198.794 354.684 M198.794 350.98 Q204.604 350.98 207.66 355.587 Q210.739 360.17 210.739 368.92 Q210.739 377.647 207.66 382.253 Q204.604 386.836 198.794 386.836 Q192.984 386.836 189.905 382.253 Q186.85 377.647 186.85 368.92 Q186.85 360.17 189.905 355.587 Q192.984 350.98 198.794 350.98 Z" fill="#000000" fill-rule="nonzero" fill-opacity="1" /><path clip-path="url(#clip980)" d="M115.207 221.248 L122.846 221.248 L122.846 194.883 L114.536 196.55 L114.536 192.29 L122.799 190.624 L127.475 190.624 L127.475 221.248 L135.114 221.248 L135.114 225.184 L115.207 225.184 L115.207 221.248 Z" fill="#000000" fill-rule="nonzero" fill-opacity="1" /><path clip-path="url(#clip980)" d="M143.378 190.624 L165.6 190.624 L165.6 192.614 L153.054 225.184 L148.17 225.184 L159.975 194.559 L143.378 194.559 L143.378 190.624 Z" fill="#000000" fill-rule="nonzero" fill-opacity="1" /><path clip-path="url(#clip980)" d="M174.72 219.304 L179.605 219.304 L179.605 225.184 L174.72 225.184 L174.72 219.304 Z" fill="#000000" fill-rule="nonzero" fill-opacity="1" /><path clip-path="url(#clip980)" d="M189.836 190.624 L208.192 190.624 L208.192 194.559 L194.118 194.559 L194.118 203.031 Q195.137 202.684 196.155 202.522 Q197.174 202.337 198.192 202.337 Q203.979 202.337 207.359 205.508 Q210.739 208.679 210.739 214.096 Q210.739 219.674 207.267 222.776 Q203.794 225.855 197.475 225.855 Q195.299 225.855 193.03 225.485 Q190.785 225.114 188.378 224.373 L188.378 219.674 Q190.461 220.809 192.683 221.364 Q194.905 221.92 197.382 221.92 Q201.387 221.92 203.725 219.813 Q206.063 217.707 206.063 214.096 Q206.063 210.485 203.725 208.378 Q201.387 206.272 197.382 206.272 Q195.507 206.272 193.632 206.688 Q191.78 207.105 189.836 207.985 L189.836 190.624 Z" fill="#000000" fill-rule="nonzero" fill-opacity="1" /><path clip-path="url(#clip980)" d="M67.6042 679.728 L20.0842 697.87 L20.0842 691.154 L60.0926 676.099 L20.0842 661.013 L20.0842 654.329 L67.6042 672.439 L67.6042 679.728 Z" fill="#000000" fill-rule="nonzero" fill-opacity="1" /><path clip-path="url(#clip980)" d="M49.6847 636.505 Q49.6847 643.602 51.3079 646.34 Q52.9312 649.077 56.8461 649.077 Q59.9653 649.077 61.8114 647.04 Q63.6256 644.971 63.6256 641.438 Q63.6256 636.568 60.1881 633.64 Q56.7188 630.68 50.9897 630.68 L49.6847 630.68 L49.6847 636.505 M47.2657 624.823 L67.6042 624.823 L67.6042 630.68 L62.1933 630.68 Q65.4398 632.685 66.9994 635.677 Q68.5272 638.669 68.5272 642.998 Q68.5272 648.472 65.4716 651.719 Q62.3843 654.933 57.2281 654.933 Q51.2125 654.933 48.1569 650.923 Q45.1014 646.881 45.1014 638.892 L45.1014 630.68 L44.5285 630.68 Q40.4862 630.68 38.2901 633.354 Q36.0621 635.995 36.0621 640.801 Q36.0621 643.857 36.7941 646.753 Q37.5262 649.65 38.9903 652.323 L33.5795 652.323 Q32.3381 649.109 31.7334 646.085 Q31.0968 643.061 31.0968 640.197 Q31.0968 632.462 35.1072 628.643 Q39.1176 624.823 47.2657 624.823 Z" fill="#000000" fill-rule="nonzero" fill-opacity="1" /><path clip-path="url(#clip980)" d="M18.079 612.76 L18.079 606.904 L67.6042 606.904 L67.6042 612.76 L18.079 612.76 Z" fill="#000000" fill-rule="nonzero" fill-opacity="1" /><path clip-path="url(#clip980)" d="M53.5359 595.255 L31.9562 595.255 L31.9562 589.398 L53.3131 589.398 Q58.3739 589.398 60.9202 587.425 Q63.4346 585.452 63.4346 581.505 Q63.4346 576.762 60.4109 574.025 Q57.3872 571.256 52.1673 571.256 L31.9562 571.256 L31.9562 565.4 L67.6042 565.4 L67.6042 571.256 L62.1296 571.256 Q65.3762 573.389 66.9676 576.221 Q68.5272 579.022 68.5272 582.746 Q68.5272 588.889 64.7078 592.072 Q60.8883 595.255 53.5359 595.255 M31.0968 580.518 L31.0968 580.518 Z" fill="#000000" fill-rule="nonzero" fill-opacity="1" /><path clip-path="url(#clip980)" d="M48.3161 522.845 L51.1806 522.845 L51.1806 549.772 Q57.2281 549.39 60.4109 546.143 Q63.5619 542.865 63.5619 537.04 Q63.5619 533.667 62.7344 530.516 Q61.9069 527.333 60.2518 524.213 L65.7899 524.213 Q67.1267 527.365 67.827 530.675 Q68.5272 533.985 68.5272 537.391 Q68.5272 545.921 63.5619 550.918 Q58.5967 555.883 50.1303 555.883 Q41.3774 555.883 36.2531 551.172 Q31.0968 546.43 31.0968 538.409 Q31.0968 531.216 35.7438 527.046 Q40.3589 522.845 48.3161 522.845 M46.5973 528.701 Q41.7912 528.765 38.9266 531.407 Q36.0621 534.017 36.0621 538.345 Q36.0621 543.247 38.8312 546.207 Q41.6002 549.135 46.6292 549.581 L46.5973 528.701 Z" fill="#000000" fill-rule="nonzero" fill-opacity="1" /><circle clip-path="url(#clip981)" cx="293.994" cy="790.588" r="14.4" fill="#009af9" fill-rule="evenodd" fill-opacity="1" stroke="#000000" stroke-opacity="1" stroke-width="2.688"/>
<circle clip-path="url(#clip981)" cx="329.08" cy="790.588" r="14.4" fill="#009af9" fill-rule="evenodd" fill-opacity="1" stroke="#000000" stroke-opacity="1" stroke-width="2.688"/>
<circle clip-path="url(#clip981)" cx="364.165" cy="790.588" r="14.4" fill="#009af9" fill-rule="evenodd" fill-opacity="1" stroke="#000000" stroke-opacity="1" stroke-width="2.688"/>
<circle clip-path="url(#clip981)" cx="399.251" cy="790.588" r="14.4" fill="#009af9" fill-rule="evenodd" fill-opacity="1" stroke="#000000" stroke-opacity="1" stroke-width="2.688"/>
<circle clip-path="url(#clip981)" cx="434.336" cy="790.588" r="14.4" fill="#009af9" fill-rule="evenodd" fill-opacity="1" stroke="#000000" stroke-opacity="1" stroke-width="2.688"/>
<circle clip-path="url(#clip981)" cx="469.421" cy="790.588" r="14.4" fill="#009af9" fill-rule="evenodd" fill-opacity="1" stroke="#000000" stroke-opacity="1" stroke-width="2.688"/>
<circle clip-path="url(#clip981)" cx="504.507" cy="790.588" r="14.4" fill="#009af9" fill-rule="evenodd" fill-opacity="1" stroke="#000000" stroke-opacity="1" stroke-width="2.688"/>
<circle clip-path="url(#clip981)" cx="539.592" cy="790.588" r="14.4" fill="#009af9" fill-rule="evenodd" fill-opacity="1" stroke="#000000" stroke-opacity="1" stroke-width="2.688"/>
<circle clip-path="url(#clip981)" cx="574.678" cy="790.588" r="14.4" fill="#009af9" fill-rule="evenodd" fill-opacity="1" stroke="#000000" stroke-opacity="1" stroke-width="2.688"/>
<circle clip-path="url(#clip981)" cx="609.763" cy="790.588" r="14.4" fill="#009af9" fill-rule="evenodd" fill-opacity="1" stroke="#000000" stroke-opacity="1" stroke-width="2.688"/>
<circle clip-path="url(#clip981)" cx="644.849" cy="790.588" r="14.4" fill="#009af9" fill-rule="evenodd" fill-opacity="1" stroke="#000000" stroke-opacity="1" stroke-width="2.688"/>
<circle clip-path="url(#clip981)" cx="679.934" cy="790.588" r="14.4" fill="#009af9" fill-rule="evenodd" fill-opacity="1" stroke="#000000" stroke-opacity="1" stroke-width="2.688"/>
<circle clip-path="url(#clip981)" cx="715.019" cy="790.588" r="14.4" fill="#009af9" fill-rule="evenodd" fill-opacity="1" stroke="#000000" stroke-opacity="1" stroke-width="2.688"/>
<circle clip-path="url(#clip981)" cx="750.105" cy="790.588" r="14.4" fill="#009af9" fill-rule="evenodd" fill-opacity="1" stroke="#000000" stroke-opacity="1" stroke-width="2.688"/>
<circle clip-path="url(#clip981)" cx="785.19" cy="790.588" r="14.4" fill="#009af9" fill-rule="evenodd" fill-opacity="1" stroke="#000000" stroke-opacity="1" stroke-width="2.688"/>
<circle clip-path="url(#clip981)" cx="820.276" cy="790.588" r="14.4" fill="#009af9" fill-rule="evenodd" fill-opacity="1" stroke="#000000" stroke-opacity="1" stroke-width="2.688"/>
<circle clip-path="url(#clip981)" cx="855.361" cy="790.588" r="14.4" fill="#009af9" fill-rule="evenodd" fill-opacity="1" stroke="#000000" stroke-opacity="1" stroke-width="2.688"/>
<circle clip-path="url(#clip981)" cx="890.447" cy="790.588" r="14.4" fill="#009af9" fill-rule="evenodd" fill-opacity="1" stroke="#000000" stroke-opacity="1" stroke-width="2.688"/>
<circle clip-path="url(#clip981)" cx="925.532" cy="790.588" r="14.4" fill="#009af9" fill-rule="evenodd" fill-opacity="1" stroke="#000000" stroke-opacity="1" stroke-width="2.688"/>
<circle clip-path="url(#clip981)" cx="960.617" cy="771.01" r="14.4" fill="#009af9" fill-rule="evenodd" fill-opacity="1" stroke="#000000" stroke-opacity="1" stroke-width="2.688"/>
<circle clip-path="url(#clip981)" cx="995.703" cy="747.947" r="14.4" fill="#009af9" fill-rule="evenodd" fill-opacity="1" stroke="#000000" stroke-opacity="1" stroke-width="2.688"/>
<circle clip-path="url(#clip981)" cx="1030.79" cy="724.884" r="14.4" fill="#009af9" fill-rule="evenodd" fill-opacity="1" stroke="#000000" stroke-opacity="1" stroke-width="2.688"/>
<circle clip-path="url(#clip981)" cx="1065.87" cy="701.821" r="14.4" fill="#009af9" fill-rule="evenodd" fill-opacity="1" stroke="#000000" stroke-opacity="1" stroke-width="2.688"/>
<circle clip-path="url(#clip981)" cx="1100.96" cy="678.758" r="14.4" fill="#009af9" fill-rule="evenodd" fill-opacity="1" stroke="#000000" stroke-opacity="1" stroke-width="2.688"/>
<circle clip-path="url(#clip981)" cx="1136.04" cy="655.695" r="14.4" fill="#009af9" fill-rule="evenodd" fill-opacity="1" stroke="#000000" stroke-opacity="1" stroke-width="2.688"/>
<circle clip-path="url(#clip981)" cx="1171.13" cy="632.632" r="14.4" fill="#009af9" fill-rule="evenodd" fill-opacity="1" stroke="#000000" stroke-opacity="1" stroke-width="2.688"/>
<circle clip-path="url(#clip981)" cx="1206.22" cy="609.569" r="14.4" fill="#009af9" fill-rule="evenodd" fill-opacity="1" stroke="#000000" stroke-opacity="1" stroke-width="2.688"/>
<circle clip-path="url(#clip981)" cx="1241.3" cy="586.506" r="14.4" fill="#009af9" fill-rule="evenodd" fill-opacity="1" stroke="#000000" stroke-opacity="1" stroke-width="2.688"/>
<circle clip-path="url(#clip981)" cx="1276.39" cy="563.443" r="14.4" fill="#009af9" fill-rule="evenodd" fill-opacity="1" stroke="#000000" stroke-opacity="1" stroke-width="2.688"/>
<circle clip-path="url(#clip981)" cx="1311.47" cy="540.38" r="14.4" fill="#009af9" fill-rule="evenodd" fill-opacity="1" stroke="#000000" stroke-opacity="1" stroke-width="2.688"/>
<circle clip-path="url(#clip981)" cx="1346.56" cy="517.317" r="14.4" fill="#009af9" fill-rule="evenodd" fill-opacity="1" stroke="#000000" stroke-opacity="1" stroke-width="2.688"/>
<circle clip-path="url(#clip981)" cx="1381.64" cy="494.254" r="14.4" fill="#009af9" fill-rule="evenodd" fill-opacity="1" stroke="#000000" stroke-opacity="1" stroke-width="2.688"/>
<circle clip-path="url(#clip981)" cx="1416.73" cy="471.191" r="14.4" fill="#009af9" fill-rule="evenodd" fill-opacity="1" stroke="#000000" stroke-opacity="1" stroke-width="2.688"/>
<circle clip-path="url(#clip981)" cx="1451.81" cy="448.127" r="14.4" fill="#009af9" fill-rule="evenodd" fill-opacity="1" stroke="#000000" stroke-opacity="1" stroke-width="2.688"/>
<circle clip-path="url(#clip981)" cx="1486.9" cy="425.064" r="14.4" fill="#009af9" fill-rule="evenodd" fill-opacity="1" stroke="#000000" stroke-opacity="1" stroke-width="2.688"/>
<circle clip-path="url(#clip981)" cx="1521.98" cy="402.001" r="14.4" fill="#009af9" fill-rule="evenodd" fill-opacity="1" stroke="#000000" stroke-opacity="1" stroke-width="2.688"/>
<circle clip-path="url(#clip981)" cx="1557.07" cy="378.938" r="14.4" fill="#009af9" fill-rule="evenodd" fill-opacity="1" stroke="#000000" stroke-opacity="1" stroke-width="2.688"/>
<circle clip-path="url(#clip981)" cx="1592.16" cy="355.875" r="14.4" fill="#009af9" fill-rule="evenodd" fill-opacity="1" stroke="#000000" stroke-opacity="1" stroke-width="2.688"/>
<circle clip-path="url(#clip981)" cx="1627.24" cy="332.812" r="14.4" fill="#009af9" fill-rule="evenodd" fill-opacity="1" stroke="#000000" stroke-opacity="1" stroke-width="2.688"/>
<circle clip-path="url(#clip981)" cx="1662.33" cy="309.749" r="14.4" fill="#009af9" fill-rule="evenodd" fill-opacity="1" stroke="#000000" stroke-opacity="1" stroke-width="2.688"/>
<circle clip-path="url(#clip981)" cx="1697.41" cy="286.686" r="14.4" fill="#009af9" fill-rule="evenodd" fill-opacity="1" stroke="#000000" stroke-opacity="1" stroke-width="2.688"/>
<circle clip-path="url(#clip981)" cx="1732.5" cy="263.623" r="14.4" fill="#009af9" fill-rule="evenodd" fill-opacity="1" stroke="#000000" stroke-opacity="1" stroke-width="2.688"/>
<circle clip-path="url(#clip981)" cx="1767.58" cy="240.56" r="14.4" fill="#009af9" fill-rule="evenodd" fill-opacity="1" stroke="#000000" stroke-opacity="1" stroke-width="2.688"/>
<circle clip-path="url(#clip981)" cx="1802.67" cy="217.497" r="14.4" fill="#009af9" fill-rule="evenodd" fill-opacity="1" stroke="#000000" stroke-opacity="1" stroke-width="2.688"/>
<circle clip-path="url(#clip981)" cx="1837.75" cy="194.434" r="14.4" fill="#009af9" fill-rule="evenodd" fill-opacity="1" stroke="#000000" stroke-opacity="1" stroke-width="2.688"/>
<circle clip-path="url(#clip981)" cx="1872.84" cy="171.371" r="14.4" fill="#009af9" fill-rule="evenodd" fill-opacity="1" stroke="#000000" stroke-opacity="1" stroke-width="2.688"/>
<circle clip-path="url(#clip981)" cx="1907.92" cy="148.308" r="14.4" fill="#009af9" fill-rule="evenodd" fill-opacity="1" stroke="#000000" stroke-opacity="1" stroke-width="2.688"/>
<circle clip-path="url(#clip981)" cx="1943.01" cy="125.245" r="14.4" fill="#009af9" fill-rule="evenodd" fill-opacity="1" stroke="#000000" stroke-opacity="1" stroke-width="2.688"/>
<circle clip-path="url(#clip981)" cx="1978.09" cy="102.181" r="14.4" fill="#009af9" fill-rule="evenodd" fill-opacity="1" stroke="#000000" stroke-opacity="1" stroke-width="2.688"/>
<circle clip-path="url(#clip981)" cx="2013.18" cy="79.1184" r="14.4" fill="#009af9" fill-rule="evenodd" fill-opacity="1" stroke="#000000" stroke-opacity="1" stroke-width="2.688"/>
<circle clip-path="url(#clip981)" cx="293.994" cy="1141.6" r="14.4" fill="#e26f46" fill-rule="evenodd" fill-opacity="1" stroke="#000000" stroke-opacity="1" stroke-width="2.688"/>
<circle clip-path="url(#clip981)" cx="329.08" cy="1141.6" r="14.4" fill="#e26f46" fill-rule="evenodd" fill-opacity="1" stroke="#000000" stroke-opacity="1" stroke-width="2.688"/>
<circle clip-path="url(#clip981)" cx="364.165" cy="1141.6" r="14.4" fill="#e26f46" fill-rule="evenodd" fill-opacity="1" stroke="#000000" stroke-opacity="1" stroke-width="2.688"/>
<circle clip-path="url(#clip981)" cx="399.251" cy="1141.6" r="14.4" fill="#e26f46" fill-rule="evenodd" fill-opacity="1" stroke="#000000" stroke-opacity="1" stroke-width="2.688"/>
<circle clip-path="url(#clip981)" cx="434.336" cy="1141.6" r="14.4" fill="#e26f46" fill-rule="evenodd" fill-opacity="1" stroke="#000000" stroke-opacity="1" stroke-width="2.688"/>
<circle clip-path="url(#clip981)" cx="469.421" cy="1141.6" r="14.4" fill="#e26f46" fill-rule="evenodd" fill-opacity="1" stroke="#000000" stroke-opacity="1" stroke-width="2.688"/>
<circle clip-path="url(#clip981)" cx="504.507" cy="1141.6" r="14.4" fill="#e26f46" fill-rule="evenodd" fill-opacity="1" stroke="#000000" stroke-opacity="1" stroke-width="2.688"/>
<circle clip-path="url(#clip981)" cx="539.592" cy="1141.6" r="14.4" fill="#e26f46" fill-rule="evenodd" fill-opacity="1" stroke="#000000" stroke-opacity="1" stroke-width="2.688"/>
<circle clip-path="url(#clip981)" cx="574.678" cy="1141.6" r="14.4" fill="#e26f46" fill-rule="evenodd" fill-opacity="1" stroke="#000000" stroke-opacity="1" stroke-width="2.688"/>
<circle clip-path="url(#clip981)" cx="609.763" cy="1141.6" r="14.4" fill="#e26f46" fill-rule="evenodd" fill-opacity="1" stroke="#000000" stroke-opacity="1" stroke-width="2.688"/>
<circle clip-path="url(#clip981)" cx="644.849" cy="1141.6" r="14.4" fill="#e26f46" fill-rule="evenodd" fill-opacity="1" stroke="#000000" stroke-opacity="1" stroke-width="2.688"/>
<circle clip-path="url(#clip981)" cx="679.934" cy="1140.28" r="14.4" fill="#e26f46" fill-rule="evenodd" fill-opacity="1" stroke="#000000" stroke-opacity="1" stroke-width="2.688"/>
<circle clip-path="url(#clip981)" cx="715.019" cy="1128.46" r="14.4" fill="#e26f46" fill-rule="evenodd" fill-opacity="1" stroke="#000000" stroke-opacity="1" stroke-width="2.688"/>
<circle clip-path="url(#clip981)" cx="750.105" cy="1116.63" r="14.4" fill="#e26f46" fill-rule="evenodd" fill-opacity="1" stroke="#000000" stroke-opacity="1" stroke-width="2.688"/>
<circle clip-path="url(#clip981)" cx="785.19" cy="1104.8" r="14.4" fill="#e26f46" fill-rule="evenodd" fill-opacity="1" stroke="#000000" stroke-opacity="1" stroke-width="2.688"/>
<circle clip-path="url(#clip981)" cx="820.276" cy="1092.97" r="14.4" fill="#e26f46" fill-rule="evenodd" fill-opacity="1" stroke="#000000" stroke-opacity="1" stroke-width="2.688"/>
<circle clip-path="url(#clip981)" cx="855.361" cy="1081.15" r="14.4" fill="#e26f46" fill-rule="evenodd" fill-opacity="1" stroke="#000000" stroke-opacity="1" stroke-width="2.688"/>
<circle clip-path="url(#clip981)" cx="890.447" cy="1069.32" r="14.4" fill="#e26f46" fill-rule="evenodd" fill-opacity="1" stroke="#000000" stroke-opacity="1" stroke-width="2.688"/>
<circle clip-path="url(#clip981)" cx="925.532" cy="1057.49" r="14.4" fill="#e26f46" fill-rule="evenodd" fill-opacity="1" stroke="#000000" stroke-opacity="1" stroke-width="2.688"/>
<circle clip-path="url(#clip981)" cx="960.617" cy="1045.66" r="14.4" fill="#e26f46" fill-rule="evenodd" fill-opacity="1" stroke="#000000" stroke-opacity="1" stroke-width="2.688"/>
<circle clip-path="url(#clip981)" cx="995.703" cy="1033.84" r="14.4" fill="#e26f46" fill-rule="evenodd" fill-opacity="1" stroke="#000000" stroke-opacity="1" stroke-width="2.688"/>
<circle clip-path="url(#clip981)" cx="1030.79" cy="1022.01" r="14.4" fill="#e26f46" fill-rule="evenodd" fill-opacity="1" stroke="#000000" stroke-opacity="1" stroke-width="2.688"/>
<circle clip-path="url(#clip981)" cx="1065.87" cy="1010.18" r="14.4" fill="#e26f46" fill-rule="evenodd" fill-opacity="1" stroke="#000000" stroke-opacity="1" stroke-width="2.688"/>
<circle clip-path="url(#clip981)" cx="1100.96" cy="998.356" r="14.4" fill="#e26f46" fill-rule="evenodd" fill-opacity="1" stroke="#000000" stroke-opacity="1" stroke-width="2.688"/>
<circle clip-path="url(#clip981)" cx="1136.04" cy="986.529" r="14.4" fill="#e26f46" fill-rule="evenodd" fill-opacity="1" stroke="#000000" stroke-opacity="1" stroke-width="2.688"/>
<circle clip-path="url(#clip981)" cx="1171.13" cy="974.701" r="14.4" fill="#e26f46" fill-rule="evenodd" fill-opacity="1" stroke="#000000" stroke-opacity="1" stroke-width="2.688"/>
<circle clip-path="url(#clip981)" cx="1206.22" cy="962.874" r="14.4" fill="#e26f46" fill-rule="evenodd" fill-opacity="1" stroke="#000000" stroke-opacity="1" stroke-width="2.688"/>
<circle clip-path="url(#clip981)" cx="1241.3" cy="951.047" r="14.4" fill="#e26f46" fill-rule="evenodd" fill-opacity="1" stroke="#000000" stroke-opacity="1" stroke-width="2.688"/>
<circle clip-path="url(#clip981)" cx="1276.39" cy="939.22" r="14.4" fill="#e26f46" fill-rule="evenodd" fill-opacity="1" stroke="#000000" stroke-opacity="1" stroke-width="2.688"/>
<circle clip-path="url(#clip981)" cx="1311.47" cy="927.392" r="14.4" fill="#e26f46" fill-rule="evenodd" fill-opacity="1" stroke="#000000" stroke-opacity="1" stroke-width="2.688"/>
<circle clip-path="url(#clip981)" cx="1346.56" cy="915.565" r="14.4" fill="#e26f46" fill-rule="evenodd" fill-opacity="1" stroke="#000000" stroke-opacity="1" stroke-width="2.688"/>
<circle clip-path="url(#clip981)" cx="1381.64" cy="903.738" r="14.4" fill="#e26f46" fill-rule="evenodd" fill-opacity="1" stroke="#000000" stroke-opacity="1" stroke-width="2.688"/>
<circle clip-path="url(#clip981)" cx="1416.73" cy="891.911" r="14.4" fill="#e26f46" fill-rule="evenodd" fill-opacity="1" stroke="#000000" stroke-opacity="1" stroke-width="2.688"/>
<circle clip-path="url(#clip981)" cx="1451.81" cy="880.084" r="14.4" fill="#e26f46" fill-rule="evenodd" fill-opacity="1" stroke="#000000" stroke-opacity="1" stroke-width="2.688"/>
<circle clip-path="url(#clip981)" cx="1486.9" cy="868.256" r="14.4" fill="#e26f46" fill-rule="evenodd" fill-opacity="1" stroke="#000000" stroke-opacity="1" stroke-width="2.688"/>
<circle clip-path="url(#clip981)" cx="1521.98" cy="856.429" r="14.4" fill="#e26f46" fill-rule="evenodd" fill-opacity="1" stroke="#000000" stroke-opacity="1" stroke-width="2.688"/>
<circle clip-path="url(#clip981)" cx="1557.07" cy="844.602" r="14.4" fill="#e26f46" fill-rule="evenodd" fill-opacity="1" stroke="#000000" stroke-opacity="1" stroke-width="2.688"/>
<circle clip-path="url(#clip981)" cx="1592.16" cy="832.775" r="14.4" fill="#e26f46" fill-rule="evenodd" fill-opacity="1" stroke="#000000" stroke-opacity="1" stroke-width="2.688"/>
<circle clip-path="url(#clip981)" cx="1627.24" cy="820.948" r="14.4" fill="#e26f46" fill-rule="evenodd" fill-opacity="1" stroke="#000000" stroke-opacity="1" stroke-width="2.688"/>
<circle clip-path="url(#clip981)" cx="1662.33" cy="809.12" r="14.4" fill="#e26f46" fill-rule="evenodd" fill-opacity="1" stroke="#000000" stroke-opacity="1" stroke-width="2.688"/>
<circle clip-path="url(#clip981)" cx="1697.41" cy="797.293" r="14.4" fill="#e26f46" fill-rule="evenodd" fill-opacity="1" stroke="#000000" stroke-opacity="1" stroke-width="2.688"/>
<circle clip-path="url(#clip981)" cx="1732.5" cy="785.466" r="14.4" fill="#e26f46" fill-rule="evenodd" fill-opacity="1" stroke="#000000" stroke-opacity="1" stroke-width="2.688"/>
<circle clip-path="url(#clip981)" cx="1767.58" cy="773.639" r="14.4" fill="#e26f46" fill-rule="evenodd" fill-opacity="1" stroke="#000000" stroke-opacity="1" stroke-width="2.688"/>
<circle clip-path="url(#clip981)" cx="1802.67" cy="761.811" r="14.4" fill="#e26f46" fill-rule="evenodd" fill-opacity="1" stroke="#000000" stroke-opacity="1" stroke-width="2.688"/>
<circle clip-path="url(#clip981)" cx="1837.75" cy="749.984" r="14.4" fill="#e26f46" fill-rule="evenodd" fill-opacity="1" stroke="#000000" stroke-opacity="1" stroke-width="2.688"/>
<circle clip-path="url(#clip981)" cx="1872.84" cy="738.157" r="14.4" fill="#e26f46" fill-rule="evenodd" fill-opacity="1" stroke="#000000" stroke-opacity="1" stroke-width="2.688"/>
<circle clip-path="url(#clip981)" cx="1907.92" cy="726.33" r="14.4" fill="#e26f46" fill-rule="evenodd" fill-opacity="1" stroke="#000000" stroke-opacity="1" stroke-width="2.688"/>
<circle clip-path="url(#clip981)" cx="1943.01" cy="714.503" r="14.4" fill="#e26f46" fill-rule="evenodd" fill-opacity="1" stroke="#000000" stroke-opacity="1" stroke-width="2.688"/>
<circle clip-path="url(#clip981)" cx="1978.09" cy="702.675" r="14.4" fill="#e26f46" fill-rule="evenodd" fill-opacity="1" stroke="#000000" stroke-opacity="1" stroke-width="2.688"/>
<circle clip-path="url(#clip981)" cx="2013.18" cy="690.848" r="14.4" fill="#e26f46" fill-rule="evenodd" fill-opacity="1" stroke="#000000" stroke-opacity="1" stroke-width="2.688"/>
<path clip-path="url(#clip980)" d="M303.163 240.305 L533.869 240.305 L533.869 84.785 L303.163 84.785  Z" fill="#ffffff" fill-rule="evenodd" fill-opacity="1"/>
<polyline clip-path="url(#clip980)" style="stroke:#000000; stroke-linecap:round; stroke-linejoin:round; stroke-width:4; stroke-opacity:1; fill:none" points="303.163,240.305 533.869,240.305 533.869,84.785 303.163,84.785 303.163,240.305 "/>
<circle clip-path="url(#clip980)" cx="384.156" cy="136.625" r="20.48" fill="#009af9" fill-rule="evenodd" fill-opacity="1" stroke="#000000" stroke-opacity="1" stroke-width="3.82293"/>
<path clip-path="url(#clip980)" d="M478.343 153.905 L465.149 119.345 L470.033 119.345 L480.982 148.442 L491.954 119.345 L496.815 119.345 L483.644 153.905 L478.343 153.905 Z" fill="#000000" fill-rule="nonzero" fill-opacity="1" /><path clip-path="url(#clip980)" d="M503.412 151.266 L513.227 151.266 L513.227 153.905 L499.385 153.905 L499.385 151.359 Q500.172 150.641 501.63 149.345 Q509.593 142.285 509.593 140.109 Q509.593 138.581 508.389 137.655 Q507.186 136.706 505.218 136.706 Q504.014 136.706 502.602 137.123 Q501.19 137.516 499.524 138.326 L499.524 135.479 Q501.306 134.831 502.834 134.507 Q504.385 134.183 505.704 134.183 Q509.061 134.183 511.074 135.711 Q513.088 137.238 513.088 139.738 Q513.088 142.956 505.426 149.53 Q504.13 150.641 503.412 151.266 Z" fill="#000000" fill-rule="nonzero" fill-opacity="1" /><circle clip-path="url(#clip980)" cx="384.156" cy="188.465" r="20.48" fill="#e26f46" fill-rule="evenodd" fill-opacity="1" stroke="#000000" stroke-opacity="1" stroke-width="3.82293"/>
<path clip-path="url(#clip980)" d="M478.343 205.745 L465.149 171.185 L470.033 171.185 L480.982 200.282 L491.954 171.185 L496.815 171.185 L483.644 205.745 L478.343 205.745 Z" fill="#000000" fill-rule="nonzero" fill-opacity="1" /><path clip-path="url(#clip980)" d="M500.82 203.199 L505.542 203.199 L505.542 189.055 L500.38 190.004 L500.38 187.319 L505.704 186.416 L508.875 186.416 L508.875 203.199 L513.621 203.199 L513.621 205.745 L500.82 205.745 L500.82 203.199 Z" fill="#000000" fill-rule="nonzero" fill-opacity="1" /></svg>
