<?xml version="1.0" encoding="utf-8"?>
<svg xmlns="http://www.w3.org/2000/svg" xmlns:xlink="http://www.w3.org/1999/xlink" width="528" height="336" viewBox="0 0 2112 1344">
<defs>
  <clipPath id="clip310">
    <rect x="0" y="0" width="2112" height="1344"/>
  </clipPath>
</defs>
<path clip-path="url(#clip310)" d="M0 1344 L2112 1344 L2112 2.13163e-14 L0 2.13163e-14  Z" fill="#ffffff" fill-rule="evenodd" fill-opacity="1"/>
<defs>
  <clipPath id="clip311">
    <rect x="244" y="47" width="1821" height="1127"/>
  </clipPath>
</defs>
<path clip-path="url(#clip310)" d="M244.502 1173.47 L2064.76 1173.47 L2064.76 47.2441 L244.502 47.2441  Z" fill="#ffffff" fill-rule="evenodd" fill-opacity="1"/>
<polyline clip-path="url(#clip311)" style="stroke:#000000; stroke-linecap:round; stroke-linejoin:round; stroke-width:2; stroke-opacity:0.1; fill:none" points="486.821,1173.47 486.821,47.2441 "/>
<polyline clip-path="url(#clip311)" style="stroke:#000000; stroke-linecap:round; stroke-linejoin:round; stroke-width:2; stroke-opacity:0.1; fill:none" points="868.426,1173.47 868.426,47.2441 "/>
<polyline clip-path="url(#clip311)" style="stroke:#000000; stroke-linecap:round; stroke-linejoin:round; stroke-width:2; stroke-opacity:0.1; fill:none" points="1250.03,1173.47 1250.03,47.2441 "/>
<polyline clip-path="url(#clip311)" style="stroke:#000000; stroke-linecap:round; stroke-linejoin:round; stroke-width:2; stroke-opacity:0.1; fill:none" points="1631.63,1173.47 1631.63,47.2441 "/>
<polyline clip-path="url(#clip311)" style="stroke:#000000; stroke-linecap:round; stroke-linejoin:round; stroke-width:2; stroke-opacity:0.1; fill:none" points="2013.24,1173.47 2013.24,47.2441 "/>
<polyline clip-path="url(#clip311)" style="stroke:#000000; stroke-linecap:round; stroke-linejoin:round; stroke-width:2; stroke-opacity:0.1; fill:none" points="244.502,1141.6 2064.76,1141.6 "/>
<polyline clip-path="url(#clip311)" style="stroke:#000000; stroke-linecap:round; stroke-linejoin:round; stroke-width:2; stroke-opacity:0.1; fill:none" points="244.502,875.977 2064.76,875.977 "/>
<polyline clip-path="url(#clip311)" style="stroke:#000000; stroke-linecap:round; stroke-linejoin:round; stroke-width:2; stroke-opacity:0.1; fill:none" points="244.502,610.357 2064.76,610.357 "/>
<polyline clip-path="url(#clip311)" style="stroke:#000000; stroke-linecap:round; stroke-linejoin:round; stroke-width:2; stroke-opacity:0.1; fill:none" points="244.502,344.738 2064.76,344.738 "/>
<polyline clip-path="url(#clip311)" style="stroke:#000000; stroke-linecap:round; stroke-linejoin:round; stroke-width:2; stroke-opacity:0.1; fill:none" points="244.502,79.1184 2064.76,79.1184 "/>
<polyline clip-path="url(#clip310)" style="stroke:#000000; stroke-linecap:round; stroke-linejoin:round; stroke-width:4; stroke-opacity:1; fill:none" points="244.502,1173.47 2064.76,1173.47 "/>
<polyline clip-path="url(#clip310)" style="stroke:#000000; stroke-linecap:round; stroke-linejoin:round; stroke-width:4; stroke-opacity:1; fill:none" points="486.821,1173.47 486.821,1154.57 "/>
<polyline clip-path="url(#clip310)" style="stroke:#000000; stroke-linecap:round; stroke-linejoin:round; stroke-width:4; stroke-opacity:1; fill:none" points="868.426,1173.47 868.426,1154.57 "/>
<polyline clip-path="url(#clip310)" style="stroke:#000000; stroke-linecap:round; stroke-linejoin:round; stroke-width:4; stroke-opacity:1; fill:none" points="1250.03,1173.47 1250.03,1154.57 "/>
<polyline clip-path="url(#clip310)" style="stroke:#000000; stroke-linecap:round; stroke-linejoin:round; stroke-width:4; stroke-opacity:1; fill:none" points="1631.63,1173.47 1631.63,1154.57 "/>
<polyline clip-path="url(#clip310)" style="stroke:#000000; stroke-linecap:round; stroke-linejoin:round; stroke-width:4; stroke-opacity:1; fill:none" points="2013.24,1173.47 2013.24,1154.57 "/>
<path clip-path="url(#clip310)" d="M481.474 1229.63 L497.793 1229.63 L497.793 1233.57 L475.849 1233.57 L475.849 1229.63 Q478.511 1226.88 483.094 1222.25 Q487.701 1217.59 488.881 1216.25 Q491.126 1213.73 492.006 1211.99 Q492.909 1210.23 492.909 1208.54 Q492.909 1205.79 490.964 1204.05 Q489.043 1202.32 485.941 1202.32 Q483.742 1202.32 481.289 1203.08 Q478.858 1203.84 476.08 1205.4 L476.08 1200.67 Q478.904 1199.54 481.358 1198.96 Q483.812 1198.38 485.849 1198.38 Q491.219 1198.38 494.413 1201.07 Q497.608 1203.75 497.608 1208.24 Q497.608 1210.37 496.798 1212.29 Q496.011 1214.19 493.904 1216.78 Q493.326 1217.46 490.224 1220.67 Q487.122 1223.87 481.474 1229.63 Z" fill="#000000" fill-rule="nonzero" fill-opacity="1" /><path clip-path="url(#clip310)" d="M871.435 1203.08 L859.629 1221.53 L871.435 1221.53 L871.435 1203.08 M870.208 1199.01 L876.088 1199.01 L876.088 1221.53 L881.018 1221.53 L881.018 1225.42 L876.088 1225.42 L876.088 1233.57 L871.435 1233.57 L871.435 1225.42 L855.833 1225.42 L855.833 1220.9 L870.208 1199.01 Z" fill="#000000" fill-rule="nonzero" fill-opacity="1" /><path clip-path="url(#clip310)" d="M1250.44 1214.42 Q1247.29 1214.42 1245.44 1216.58 Q1243.61 1218.73 1243.61 1222.48 Q1243.61 1226.21 1245.44 1228.38 Q1247.29 1230.53 1250.44 1230.53 Q1253.58 1230.53 1255.41 1228.38 Q1257.26 1226.21 1257.26 1222.48 Q1257.26 1218.73 1255.41 1216.58 Q1253.58 1214.42 1250.44 1214.42 M1259.72 1199.77 L1259.72 1204.03 Q1257.96 1203.2 1256.15 1202.76 Q1254.37 1202.32 1252.61 1202.32 Q1247.98 1202.32 1245.53 1205.44 Q1243.1 1208.57 1242.75 1214.89 Q1244.12 1212.87 1246.18 1211.81 Q1248.24 1210.72 1250.71 1210.72 Q1255.92 1210.72 1258.93 1213.89 Q1261.96 1217.04 1261.96 1222.48 Q1261.96 1227.8 1258.81 1231.02 Q1255.67 1234.24 1250.44 1234.24 Q1244.44 1234.24 1241.27 1229.65 Q1238.1 1225.05 1238.1 1216.32 Q1238.1 1208.13 1241.99 1203.27 Q1245.88 1198.38 1252.43 1198.38 Q1254.19 1198.38 1255.97 1198.73 Q1257.77 1199.08 1259.72 1199.77 Z" fill="#000000" fill-rule="nonzero" fill-opacity="1" /><path clip-path="url(#clip310)" d="M1631.63 1217.15 Q1628.3 1217.15 1626.38 1218.94 Q1624.48 1220.72 1624.48 1223.84 Q1624.48 1226.97 1626.38 1228.75 Q1628.3 1230.53 1631.63 1230.53 Q1634.97 1230.53 1636.89 1228.75 Q1638.81 1226.95 1638.81 1223.84 Q1638.81 1220.72 1636.89 1218.94 Q1634.99 1217.15 1631.63 1217.15 M1626.96 1215.16 Q1623.95 1214.42 1622.26 1212.36 Q1620.59 1210.3 1620.59 1207.34 Q1620.59 1203.2 1623.53 1200.79 Q1626.5 1198.38 1631.63 1198.38 Q1636.8 1198.38 1639.74 1200.79 Q1642.68 1203.2 1642.68 1207.34 Q1642.68 1210.3 1640.99 1212.36 Q1639.32 1214.42 1636.33 1215.16 Q1639.71 1215.95 1641.59 1218.24 Q1643.49 1220.53 1643.49 1223.84 Q1643.49 1228.87 1640.41 1231.55 Q1637.35 1234.24 1631.63 1234.24 Q1625.92 1234.24 1622.84 1231.55 Q1619.78 1228.87 1619.78 1223.84 Q1619.78 1220.53 1621.68 1218.24 Q1623.58 1215.95 1626.96 1215.16 M1625.25 1207.78 Q1625.25 1210.47 1626.91 1211.97 Q1628.6 1213.47 1631.63 1213.47 Q1634.64 1213.47 1636.33 1211.97 Q1638.05 1210.47 1638.05 1207.78 Q1638.05 1205.09 1636.33 1203.59 Q1634.64 1202.09 1631.63 1202.09 Q1628.6 1202.09 1626.91 1203.59 Q1625.25 1205.09 1625.25 1207.78 Z" fill="#000000" fill-rule="nonzero" fill-opacity="1" /><path clip-path="url(#clip310)" d="M1987.93 1229.63 L1995.57 1229.63 L1995.57 1203.27 L1987.26 1204.93 L1987.26 1200.67 L1995.52 1199.01 L2000.2 1199.01 L2000.2 1229.63 L2007.83 1229.63 L2007.83 1233.57 L1987.93 1233.57 L1987.93 1229.63 Z" fill="#000000" fill-rule="nonzero" fill-opacity="1" /><path clip-path="url(#clip310)" d="M2027.28 1202.09 Q2023.67 1202.09 2021.84 1205.65 Q2020.03 1209.19 2020.03 1216.32 Q2020.03 1223.43 2021.84 1226.99 Q2023.67 1230.53 2027.28 1230.53 Q2030.91 1230.53 2032.72 1226.99 Q2034.55 1223.43 2034.55 1216.32 Q2034.55 1209.19 2032.72 1205.65 Q2030.91 1202.09 2027.28 1202.09 M2027.28 1198.38 Q2033.09 1198.38 2036.14 1202.99 Q2039.22 1207.57 2039.22 1216.32 Q2039.22 1225.05 2036.14 1229.65 Q2033.09 1234.24 2027.28 1234.24 Q2021.47 1234.24 2018.39 1229.65 Q2015.33 1225.05 2015.33 1216.32 Q2015.33 1207.57 2018.39 1202.99 Q2021.47 1198.38 2027.28 1198.38 Z" fill="#000000" fill-rule="nonzero" fill-opacity="1" /><path clip-path="url(#clip310)" d="M1066.59 1266.49 L1073.08 1266.49 L1083.08 1306.66 L1093.04 1266.49 L1100.27 1266.49 L1110.26 1306.66 L1120.22 1266.49 L1126.75 1266.49 L1114.81 1314.01 L1106.73 1314.01 L1096.7 1272.76 L1086.58 1314.01 L1078.5 1314.01 L1066.59 1266.49 Z" fill="#000000" fill-rule="nonzero" fill-opacity="1" /><path clip-path="url(#clip310)" d="M1147.05 1296.1 Q1139.96 1296.1 1137.22 1297.72 Q1134.48 1299.34 1134.48 1303.26 Q1134.48 1306.38 1136.52 1308.22 Q1138.59 1310.04 1142.12 1310.04 Q1146.99 1310.04 1149.92 1306.6 Q1152.88 1303.13 1152.88 1297.4 L1152.88 1296.1 L1147.05 1296.1 M1158.73 1293.68 L1158.73 1314.01 L1152.88 1314.01 L1152.88 1308.6 Q1150.87 1311.85 1147.88 1313.41 Q1144.89 1314.94 1140.56 1314.94 Q1135.09 1314.94 1131.84 1311.88 Q1128.63 1308.79 1128.63 1303.64 Q1128.63 1297.62 1132.64 1294.57 Q1136.68 1291.51 1144.67 1291.51 L1152.88 1291.51 L1152.88 1290.94 Q1152.88 1286.9 1150.2 1284.7 Q1147.56 1282.47 1142.76 1282.47 Q1139.7 1282.47 1136.8 1283.2 Q1133.91 1283.94 1131.23 1285.4 L1131.23 1279.99 Q1134.45 1278.75 1137.47 1278.14 Q1140.5 1277.51 1143.36 1277.51 Q1151.1 1277.51 1154.92 1281.52 Q1158.73 1285.53 1158.73 1293.68 Z" fill="#000000" fill-rule="nonzero" fill-opacity="1" /><path clip-path="url(#clip310)" d="M1194.26 1295.78 Q1194.26 1289.41 1191.61 1285.91 Q1189 1282.41 1184.26 1282.41 Q1179.55 1282.41 1176.91 1285.91 Q1174.3 1289.41 1174.3 1295.78 Q1174.3 1302.11 1176.91 1305.61 Q1179.55 1309.11 1184.26 1309.11 Q1189 1309.11 1191.61 1305.61 Q1194.26 1302.11 1194.26 1295.78 M1200.11 1309.59 Q1200.11 1318.69 1196.07 1323.12 Q1192.03 1327.57 1183.69 1327.57 Q1180.6 1327.57 1177.86 1327.1 Q1175.13 1326.65 1172.55 1325.7 L1172.55 1320 Q1175.13 1321.4 1177.64 1322.07 Q1180.16 1322.74 1182.77 1322.74 Q1188.53 1322.74 1191.39 1319.71 Q1194.26 1316.72 1194.26 1310.64 L1194.26 1307.74 Q1192.44 1310.9 1189.61 1312.46 Q1186.78 1314.01 1182.83 1314.01 Q1176.27 1314.01 1172.26 1309.02 Q1168.25 1304.02 1168.25 1295.78 Q1168.25 1287.5 1172.26 1282.5 Q1176.27 1277.51 1182.83 1277.51 Q1186.78 1277.51 1189.61 1279.07 Q1192.44 1280.63 1194.26 1283.78 L1194.26 1278.37 L1200.11 1278.37 L1200.11 1309.59 Z" fill="#000000" fill-rule="nonzero" fill-opacity="1" /><path clip-path="url(#clip310)" d="M1242.67 1294.73 L1242.67 1297.59 L1215.74 1297.59 Q1216.12 1303.64 1219.37 1306.82 Q1222.65 1309.97 1228.47 1309.97 Q1231.84 1309.97 1235 1309.14 Q1238.18 1308.32 1241.3 1306.66 L1241.3 1312.2 Q1238.15 1313.54 1234.84 1314.24 Q1231.53 1314.94 1228.12 1314.94 Q1219.59 1314.94 1214.59 1309.97 Q1209.63 1305.01 1209.63 1296.54 Q1209.63 1287.79 1214.34 1282.66 Q1219.08 1277.51 1227.1 1277.51 Q1234.3 1277.51 1238.47 1282.15 Q1242.67 1286.77 1242.67 1294.73 M1236.81 1293.01 Q1236.75 1288.2 1234.1 1285.34 Q1231.49 1282.47 1227.17 1282.47 Q1222.26 1282.47 1219.3 1285.24 Q1216.38 1288.01 1215.93 1293.04 L1236.81 1293.01 Z" fill="#000000" fill-rule="nonzero" fill-opacity="1" /><polyline clip-path="url(#clip310)" style="stroke:#000000; stroke-linecap:round; stroke-linejoin:round; stroke-width:4; stroke-opacity:1; fill:none" points="244.502,1173.47 244.502,47.2441 "/>
<polyline clip-path="url(#clip310)" style="stroke:#000000; stroke-linecap:round; stroke-linejoin:round; stroke-width:4; stroke-opacity:1; fill:none" points="244.502,1141.6 263.4,1141.6 "/>
<polyline clip-path="url(#clip310)" style="stroke:#000000; stroke-linecap:round; stroke-linejoin:round; stroke-width:4; stroke-opacity:1; fill:none" points="244.502,875.977 263.4,875.977 "/>
<polyline clip-path="url(#clip310)" style="stroke:#000000; stroke-linecap:round; stroke-linejoin:round; stroke-width:4; stroke-opacity:1; fill:none" points="244.502,610.357 263.4,610.357 "/>
<polyline clip-path="url(#clip310)" style="stroke:#000000; stroke-linecap:round; stroke-linejoin:round; stroke-width:4; stroke-opacity:1; fill:none" points="244.502,344.738 263.4,344.738 "/>
<polyline clip-path="url(#clip310)" style="stroke:#000000; stroke-linecap:round; stroke-linejoin:round; stroke-width:4; stroke-opacity:1; fill:none" points="244.502,79.1184 263.4,79.1184 "/>
<path clip-path="url(#clip310)" d="M125.485 1127.4 Q121.873 1127.4 120.045 1130.96 Q118.239 1134.5 118.239 1141.63 Q118.239 1148.74 120.045 1152.3 Q121.873 1155.84 125.485 1155.84 Q129.119 1155.84 130.924 1152.3 Q132.753 1148.74 132.753 1141.63 Q132.753 1134.5 130.924 1130.96 Q129.119 1127.4 125.485 1127.4 M125.485 1123.69 Q131.295 1123.69 134.35 1128.3 Q137.429 1132.88 137.429 1141.63 Q137.429 1150.36 134.35 1154.96 Q131.295 1159.55 125.485 1159.55 Q119.674 1159.55 116.596 1154.96 Q113.54 1150.36 113.54 1141.63 Q113.54 1132.88 116.596 1128.3 Q119.674 1123.69 125.485 1123.69 Z" fill="#000000" fill-rule="nonzero" fill-opacity="1" /><path clip-path="url(#clip310)" d="M145.646 1153 L150.531 1153 L150.531 1158.88 L145.646 1158.88 L145.646 1153 Z" fill="#000000" fill-rule="nonzero" fill-opacity="1" /><path clip-path="url(#clip310)" d="M170.716 1127.4 Q167.105 1127.4 165.276 1130.96 Q163.47 1134.5 163.47 1141.63 Q163.47 1148.74 165.276 1152.3 Q167.105 1155.84 170.716 1155.84 Q174.35 1155.84 176.156 1152.3 Q177.984 1148.74 177.984 1141.63 Q177.984 1134.5 176.156 1130.96 Q174.35 1127.4 170.716 1127.4 M170.716 1123.69 Q176.526 1123.69 179.581 1128.3 Q182.66 1132.88 182.66 1141.63 Q182.66 1150.36 179.581 1154.96 Q176.526 1159.55 170.716 1159.55 Q164.906 1159.55 161.827 1154.96 Q158.771 1150.36 158.771 1141.63 Q158.771 1132.88 161.827 1128.3 Q164.906 1123.69 170.716 1123.69 Z" fill="#000000" fill-rule="nonzero" fill-opacity="1" /><path clip-path="url(#clip310)" d="M200.878 1127.4 Q197.267 1127.4 195.438 1130.96 Q193.632 1134.5 193.632 1141.63 Q193.632 1148.74 195.438 1152.3 Q197.267 1155.84 200.878 1155.84 Q204.512 1155.84 206.317 1152.3 Q208.146 1148.74 208.146 1141.63 Q208.146 1134.5 206.317 1130.96 Q204.512 1127.4 200.878 1127.4 M200.878 1123.69 Q206.688 1123.69 209.743 1128.3 Q212.822 1132.88 212.822 1141.63 Q212.822 1150.36 209.743 1154.96 Q206.688 1159.55 200.878 1159.55 Q195.067 1159.55 191.989 1154.96 Q188.933 1150.36 188.933 1141.63 Q188.933 1132.88 191.989 1128.3 Q195.067 1123.69 200.878 1123.69 Z" fill="#000000" fill-rule="nonzero" fill-opacity="1" /><path clip-path="url(#clip310)" d="M126.48 861.776 Q122.869 861.776 121.04 865.34 Q119.235 868.882 119.235 876.012 Q119.235 883.118 121.04 886.683 Q122.869 890.225 126.48 890.225 Q130.114 890.225 131.92 886.683 Q133.748 883.118 133.748 876.012 Q133.748 868.882 131.92 865.34 Q130.114 861.776 126.48 861.776 M126.48 858.072 Q132.29 858.072 135.346 862.678 Q138.424 867.262 138.424 876.012 Q138.424 884.738 135.346 889.345 Q132.29 893.928 126.48 893.928 Q120.67 893.928 117.591 889.345 Q114.536 884.738 114.536 876.012 Q114.536 867.262 117.591 862.678 Q120.67 858.072 126.48 858.072 Z" fill="#000000" fill-rule="nonzero" fill-opacity="1" /><path clip-path="url(#clip310)" d="M146.642 887.377 L151.526 887.377 L151.526 893.257 L146.642 893.257 L146.642 887.377 Z" fill="#000000" fill-rule="nonzero" fill-opacity="1" /><path clip-path="url(#clip310)" d="M165.739 889.322 L182.058 889.322 L182.058 893.257 L160.114 893.257 L160.114 889.322 Q162.776 886.567 167.359 881.938 Q171.966 877.285 173.146 875.942 Q175.392 873.419 176.271 871.683 Q177.174 869.924 177.174 868.234 Q177.174 865.479 175.23 863.743 Q173.308 862.007 170.207 862.007 Q168.007 862.007 165.554 862.771 Q163.123 863.535 160.345 865.086 L160.345 860.364 Q163.17 859.229 165.623 858.651 Q168.077 858.072 170.114 858.072 Q175.484 858.072 178.679 860.757 Q181.873 863.442 181.873 867.933 Q181.873 870.063 181.063 871.984 Q180.276 873.882 178.169 876.475 Q177.591 877.146 174.489 880.363 Q171.387 883.558 165.739 889.322 Z" fill="#000000" fill-rule="nonzero" fill-opacity="1" /><path clip-path="url(#clip310)" d="M191.919 858.697 L210.276 858.697 L210.276 862.632 L196.202 862.632 L196.202 871.104 Q197.22 870.757 198.239 870.595 Q199.257 870.41 200.276 870.41 Q206.063 870.41 209.442 873.581 Q212.822 876.752 212.822 882.169 Q212.822 887.748 209.35 890.85 Q205.878 893.928 199.558 893.928 Q197.382 893.928 195.114 893.558 Q192.868 893.187 190.461 892.447 L190.461 887.748 Q192.544 888.882 194.767 889.437 Q196.989 889.993 199.466 889.993 Q203.47 889.993 205.808 887.887 Q208.146 885.78 208.146 882.169 Q208.146 878.558 205.808 876.451 Q203.47 874.345 199.466 874.345 Q197.591 874.345 195.716 874.762 Q193.864 875.178 191.919 876.058 L191.919 858.697 Z" fill="#000000" fill-rule="nonzero" fill-opacity="1" /><path clip-path="url(#clip310)" d="M125.485 596.156 Q121.873 596.156 120.045 599.721 Q118.239 603.263 118.239 610.392 Q118.239 617.499 120.045 621.063 Q121.873 624.605 125.485 624.605 Q129.119 624.605 130.924 621.063 Q132.753 617.499 132.753 610.392 Q132.753 603.263 130.924 599.721 Q129.119 596.156 125.485 596.156 M125.485 592.452 Q131.295 592.452 134.35 597.059 Q137.429 601.642 137.429 610.392 Q137.429 619.119 134.35 623.725 Q131.295 628.309 125.485 628.309 Q119.674 628.309 116.596 623.725 Q113.54 619.119 113.54 610.392 Q113.54 601.642 116.596 597.059 Q119.674 592.452 125.485 592.452 Z" fill="#000000" fill-rule="nonzero" fill-opacity="1" /><path clip-path="url(#clip310)" d="M145.646 621.758 L150.531 621.758 L150.531 627.637 L145.646 627.637 L145.646 621.758 Z" fill="#000000" fill-rule="nonzero" fill-opacity="1" /><path clip-path="url(#clip310)" d="M160.762 593.077 L179.119 593.077 L179.119 597.013 L165.045 597.013 L165.045 605.485 Q166.063 605.138 167.082 604.976 Q168.1 604.79 169.119 604.79 Q174.906 604.79 178.285 607.962 Q181.665 611.133 181.665 616.55 Q181.665 622.128 178.193 625.23 Q174.72 628.309 168.401 628.309 Q166.225 628.309 163.957 627.938 Q161.711 627.568 159.304 626.827 L159.304 622.128 Q161.387 623.262 163.609 623.818 Q165.832 624.374 168.308 624.374 Q172.313 624.374 174.651 622.267 Q176.989 620.161 176.989 616.55 Q176.989 612.938 174.651 610.832 Q172.313 608.725 168.308 608.725 Q166.433 608.725 164.558 609.142 Q162.707 609.559 160.762 610.438 L160.762 593.077 Z" fill="#000000" fill-rule="nonzero" fill-opacity="1" /><path clip-path="url(#clip310)" d="M200.878 596.156 Q197.267 596.156 195.438 599.721 Q193.632 603.263 193.632 610.392 Q193.632 617.499 195.438 621.063 Q197.267 624.605 200.878 624.605 Q204.512 624.605 206.317 621.063 Q208.146 617.499 208.146 610.392 Q208.146 603.263 206.317 599.721 Q204.512 596.156 200.878 596.156 M200.878 592.452 Q206.688 592.452 209.743 597.059 Q212.822 601.642 212.822 610.392 Q212.822 619.119 209.743 623.725 Q206.688 628.309 200.878 628.309 Q195.067 628.309 191.989 623.725 Q188.933 619.119 188.933 610.392 Q188.933 601.642 191.989 597.059 Q195.067 592.452 200.878 592.452 Z" fill="#000000" fill-rule="nonzero" fill-opacity="1" /><path clip-path="url(#clip310)" d="M126.48 330.537 Q122.869 330.537 121.04 334.101 Q119.235 337.643 119.235 344.773 Q119.235 351.879 121.04 355.444 Q122.869 358.986 126.48 358.986 Q130.114 358.986 131.92 355.444 Q133.748 351.879 133.748 344.773 Q133.748 337.643 131.92 334.101 Q130.114 330.537 126.48 330.537 M126.48 326.833 Q132.29 326.833 135.346 331.439 Q138.424 336.023 138.424 344.773 Q138.424 353.499 135.346 358.106 Q132.29 362.689 126.48 362.689 Q120.67 362.689 117.591 358.106 Q114.536 353.499 114.536 344.773 Q114.536 336.023 117.591 331.439 Q120.67 326.833 126.48 326.833 Z" fill="#000000" fill-rule="nonzero" fill-opacity="1" /><path clip-path="url(#clip310)" d="M146.642 356.138 L151.526 356.138 L151.526 362.018 L146.642 362.018 L146.642 356.138 Z" fill="#000000" fill-rule="nonzero" fill-opacity="1" /><path clip-path="url(#clip310)" d="M160.531 327.458 L182.753 327.458 L182.753 329.449 L170.207 362.018 L165.322 362.018 L177.128 331.393 L160.531 331.393 L160.531 327.458 Z" fill="#000000" fill-rule="nonzero" fill-opacity="1" /><path clip-path="url(#clip310)" d="M191.919 327.458 L210.276 327.458 L210.276 331.393 L196.202 331.393 L196.202 339.865 Q197.22 339.518 198.239 339.356 Q199.257 339.171 200.276 339.171 Q206.063 339.171 209.442 342.342 Q212.822 345.513 212.822 350.93 Q212.822 356.509 209.35 359.611 Q205.878 362.689 199.558 362.689 Q197.382 362.689 195.114 362.319 Q192.868 361.948 190.461 361.208 L190.461 356.509 Q192.544 357.643 194.767 358.199 Q196.989 358.754 199.466 358.754 Q203.47 358.754 205.808 356.648 Q208.146 354.541 208.146 350.93 Q208.146 347.319 205.808 345.212 Q203.47 343.106 199.466 343.106 Q197.591 343.106 195.716 343.523 Q193.864 343.939 191.919 344.819 L191.919 327.458 Z" fill="#000000" fill-rule="nonzero" fill-opacity="1" /><path clip-path="url(#clip310)" d="M116.295 92.4633 L123.934 92.4633 L123.934 66.0977 L115.623 67.7643 L115.623 63.5051 L123.887 61.8384 L128.563 61.8384 L128.563 92.4633 L136.202 92.4633 L136.202 96.3984 L116.295 96.3984 L116.295 92.4633 Z" fill="#000000" fill-rule="nonzero" fill-opacity="1" /><path clip-path="url(#clip310)" d="M145.646 90.5188 L150.531 90.5188 L150.531 96.3984 L145.646 96.3984 L145.646 90.5188 Z" fill="#000000" fill-rule="nonzero" fill-opacity="1" /><path clip-path="url(#clip310)" d="M170.716 64.9171 Q167.105 64.9171 165.276 68.4819 Q163.47 72.0236 163.47 79.1532 Q163.47 86.2596 165.276 89.8244 Q167.105 93.366 170.716 93.366 Q174.35 93.366 176.156 89.8244 Q177.984 86.2596 177.984 79.1532 Q177.984 72.0236 176.156 68.4819 Q174.35 64.9171 170.716 64.9171 M170.716 61.2134 Q176.526 61.2134 179.581 65.8199 Q182.66 70.4032 182.66 79.1532 Q182.66 87.88 179.581 92.4864 Q176.526 97.0697 170.716 97.0697 Q164.906 97.0697 161.827 92.4864 Q158.771 87.88 158.771 79.1532 Q158.771 70.4032 161.827 65.8199 Q164.906 61.2134 170.716 61.2134 Z" fill="#000000" fill-rule="nonzero" fill-opacity="1" /><path clip-path="url(#clip310)" d="M200.878 64.9171 Q197.267 64.9171 195.438 68.4819 Q193.632 72.0236 193.632 79.1532 Q193.632 86.2596 195.438 89.8244 Q197.267 93.366 200.878 93.366 Q204.512 93.366 206.317 89.8244 Q208.146 86.2596 208.146 79.1532 Q208.146 72.0236 206.317 68.4819 Q204.512 64.9171 200.878 64.9171 M200.878 61.2134 Q206.688 61.2134 209.743 65.8199 Q212.822 70.4032 212.822 79.1532 Q212.822 87.88 209.743 92.4864 Q206.688 97.0697 200.878 97.0697 Q195.067 97.0697 191.989 92.4864 Q188.933 87.88 188.933 79.1532 Q188.933 70.4032 191.989 65.8199 Q195.067 61.2134 200.878 61.2134 Z" fill="#000000" fill-rule="nonzero" fill-opacity="1" /><path clip-path="url(#clip310)" d="M23.7444 891.674 L30.5239 891.674 Q27.5002 894.92 26.0043 898.613 Q24.5083 902.273 24.5083 906.411 Q24.5083 914.559 29.5054 918.887 Q34.4707 923.216 43.8919 923.216 Q53.2813 923.216 58.2784 918.887 Q63.2436 914.559 63.2436 906.411 Q63.2436 902.273 61.7477 898.613 Q60.2518 894.92 57.2281 891.674 L63.9439 891.674 Q66.2355 895.048 67.3814 898.835 Q68.5272 902.591 68.5272 906.792 Q68.5272 917.582 61.9387 923.789 Q55.3183 929.995 43.8919 929.995 Q32.4336 929.995 25.8451 923.789 Q19.2248 917.582 19.2248 906.792 Q19.2248 902.527 20.3706 898.772 Q21.4846 894.984 23.7444 891.674 Z" fill="#000000" fill-rule="nonzero" fill-opacity="1" /><path clip-path="url(#clip310)" d="M46.0881 852.366 L67.6042 852.366 L67.6042 858.222 L46.279 858.222 Q41.2183 858.222 38.7038 860.195 Q36.1894 862.169 36.1894 866.116 Q36.1894 870.858 39.2131 873.595 Q42.2368 876.333 47.4567 876.333 L67.6042 876.333 L67.6042 882.221 L18.079 882.221 L18.079 876.333 L37.4944 876.333 Q34.2797 874.232 32.6883 871.399 Q31.0968 868.535 31.0968 864.811 Q31.0968 858.668 34.9163 855.517 Q38.7038 852.366 46.0881 852.366 Z" fill="#000000" fill-rule="nonzero" fill-opacity="1" /><path clip-path="url(#clip310)" d="M36.0621 826.871 Q36.0621 831.582 39.7542 834.319 Q43.4145 837.056 49.812 837.056 Q56.2095 837.056 59.9017 834.351 Q63.5619 831.613 63.5619 826.871 Q63.5619 822.192 59.8698 819.455 Q56.1777 816.718 49.812 816.718 Q43.4781 816.718 39.786 819.455 Q36.0621 822.192 36.0621 826.871 M31.0968 826.871 Q31.0968 819.232 36.0621 814.872 Q41.0273 810.511 49.812 810.511 Q58.5649 810.511 63.5619 814.872 Q68.5272 819.232 68.5272 826.871 Q68.5272 834.542 63.5619 838.902 Q58.5649 843.231 49.812 843.231 Q41.0273 843.231 36.0621 838.902 Q31.0968 834.542 31.0968 826.871 Z" fill="#000000" fill-rule="nonzero" fill-opacity="1" /><path clip-path="url(#clip310)" d="M31.9562 800.803 L31.9562 794.947 L67.6042 794.947 L67.6042 800.803 L31.9562 800.803 M18.079 800.803 L18.079 794.947 L25.495 794.947 L25.495 800.803 L18.079 800.803 Z" fill="#000000" fill-rule="nonzero" fill-opacity="1" /><path clip-path="url(#clip310)" d="M33.3248 757.039 L38.7993 757.039 Q37.4307 759.522 36.7623 762.036 Q36.0621 764.519 36.0621 767.065 Q36.0621 772.763 39.6905 775.914 Q43.2872 779.065 49.812 779.065 Q56.3369 779.065 59.9653 775.914 Q63.5619 772.763 63.5619 767.065 Q63.5619 764.519 62.8935 762.036 Q62.1933 759.522 60.8247 757.039 L66.2355 757.039 Q67.3814 759.49 67.9543 762.132 Q68.5272 764.742 68.5272 767.702 Q68.5272 775.754 63.4664 780.497 Q58.4057 785.239 49.812 785.239 Q41.091 785.239 36.0939 780.465 Q31.0968 775.659 31.0968 767.32 Q31.0968 764.614 31.6697 762.036 Q32.2108 759.458 33.3248 757.039 Z" fill="#000000" fill-rule="nonzero" fill-opacity="1" /><path clip-path="url(#clip310)" d="M48.3161 716.362 L51.1806 716.362 L51.1806 743.289 Q57.2281 742.907 60.4109 739.661 Q63.5619 736.383 63.5619 730.558 Q63.5619 727.184 62.7344 724.033 Q61.9069 720.85 60.2518 717.731 L65.7899 717.731 Q67.1267 720.882 67.827 724.192 Q68.5272 727.502 68.5272 730.908 Q68.5272 739.438 63.5619 744.435 Q58.5967 749.4 50.1303 749.4 Q41.3774 749.4 36.2531 744.69 Q31.0968 739.947 31.0968 731.927 Q31.0968 724.733 35.7438 720.564 Q40.3589 716.362 48.3161 716.362 M46.5973 722.219 Q41.7912 722.282 38.9266 724.924 Q36.0621 727.534 36.0621 731.863 Q36.0621 736.764 38.8312 739.724 Q41.6002 742.653 46.6292 743.098 L46.5973 722.219 Z" fill="#000000" fill-rule="nonzero" fill-opacity="1" /><path clip-path="url(#clip310)" d="M18.1426 671.962 Q25.4632 676.227 32.6246 678.295 Q39.786 680.364 47.1384 680.364 Q54.4908 680.364 61.7159 678.295 Q68.9091 676.195 76.1979 671.962 L76.1979 677.054 Q68.7182 681.828 61.4931 684.216 Q54.268 686.571 47.1384 686.571 Q40.0406 686.571 32.8474 684.216 Q25.6542 681.86 18.1426 677.054 L18.1426 671.962 Z" fill="#000000" fill-rule="nonzero" fill-opacity="1" /><path clip-path="url(#clip310)" d="M62.1933 658.657 L62.1933 648.154 L25.9406 648.154 L28.2323 659.58 L22.3758 659.58 L20.0842 648.217 L20.0842 641.788 L62.1933 641.788 L62.1933 631.285 L67.6042 631.285 L67.6042 658.657 L62.1933 658.657 Z" fill="#000000" fill-rule="nonzero" fill-opacity="1" /><path clip-path="url(#clip310)" d="M38.0036 597.642 L38.0036 556.838 L43.3508 556.838 L43.3508 597.642 L38.0036 597.642 M50.9897 597.642 L50.9897 556.838 L56.4005 556.838 L56.4005 597.642 L50.9897 597.642 Z" fill="#000000" fill-rule="nonzero" fill-opacity="1" /><path clip-path="url(#clip310)" d="M49.6847 506.867 Q49.6847 513.965 51.3079 516.702 Q52.9312 519.439 56.8461 519.439 Q59.9653 519.439 61.8114 517.402 Q63.6256 515.333 63.6256 511.8 Q63.6256 506.931 60.1881 504.002 Q56.7188 501.042 50.9897 501.042 L49.6847 501.042 L49.6847 506.867 M47.2657 495.186 L67.6042 495.186 L67.6042 501.042 L62.1933 501.042 Q65.4398 503.048 66.9994 506.039 Q68.5272 509.031 68.5272 513.36 Q68.5272 518.834 65.4716 522.081 Q62.3843 525.296 57.2281 525.296 Q51.2125 525.296 48.1569 521.285 Q45.1014 517.243 45.1014 509.254 L45.1014 501.042 L44.5285 501.042 Q40.4862 501.042 38.2901 503.716 Q36.0621 506.358 36.0621 511.164 Q36.0621 514.219 36.7941 517.116 Q37.5262 520.012 38.9903 522.686 L33.5795 522.686 Q32.3381 519.471 31.7334 516.447 Q31.0968 513.424 31.0968 510.559 Q31.0968 502.825 35.1072 499.005 Q39.1176 495.186 47.2657 495.186 Z" fill="#000000" fill-rule="nonzero" fill-opacity="1" /><path clip-path="url(#clip310)" d="M33.3248 457.469 L38.7993 457.469 Q37.4307 459.952 36.7623 462.466 Q36.0621 464.949 36.0621 467.495 Q36.0621 473.192 39.6905 476.343 Q43.2872 479.494 49.812 479.494 Q56.3369 479.494 59.9653 476.343 Q63.5619 473.192 63.5619 467.495 Q63.5619 464.949 62.8935 462.466 Q62.1933 459.952 60.8247 457.469 L66.2355 457.469 Q67.3814 459.92 67.9543 462.562 Q68.5272 465.172 68.5272 468.132 Q68.5272 476.184 63.4664 480.927 Q58.4057 485.669 49.812 485.669 Q41.091 485.669 36.0939 480.895 Q31.0968 476.089 31.0968 467.75 Q31.0968 465.044 31.6697 462.466 Q32.2108 459.888 33.3248 457.469 Z" fill="#000000" fill-rule="nonzero" fill-opacity="1" /><path clip-path="url(#clip310)" d="M33.3248 421.63 L38.7993 421.63 Q37.4307 424.113 36.7623 426.627 Q36.0621 429.11 36.0621 431.656 Q36.0621 437.353 39.6905 440.504 Q43.2872 443.655 49.812 443.655 Q56.3369 443.655 59.9653 440.504 Q63.5619 437.353 63.5619 431.656 Q63.5619 429.11 62.8935 426.627 Q62.1933 424.113 60.8247 421.63 L66.2355 421.63 Q67.3814 424.081 67.9543 426.723 Q68.5272 429.333 68.5272 432.293 Q68.5272 440.345 63.4664 445.088 Q58.4057 449.83 49.812 449.83 Q41.091 449.83 36.0939 445.056 Q31.0968 440.25 31.0968 431.911 Q31.0968 429.205 31.6697 426.627 Q32.2108 424.049 33.3248 421.63 Z" fill="#000000" fill-rule="nonzero" fill-opacity="1" /><path clip-path="url(#clip310)" d="M48.3161 380.953 L51.1806 380.953 L51.1806 407.88 Q57.2281 407.498 60.4109 404.252 Q63.5619 400.973 63.5619 395.149 Q63.5619 391.775 62.7344 388.624 Q61.9069 385.441 60.2518 382.322 L65.7899 382.322 Q67.1267 385.473 67.827 388.783 Q68.5272 392.093 68.5272 395.499 Q68.5272 404.029 63.5619 409.026 Q58.5967 413.991 50.1303 413.991 Q41.3774 413.991 36.2531 409.281 Q31.0968 404.538 31.0968 396.517 Q31.0968 389.324 35.7438 385.155 Q40.3589 380.953 48.3161 380.953 M46.5973 386.81 Q41.7912 386.873 38.9266 389.515 Q36.0621 392.125 36.0621 396.454 Q36.0621 401.355 38.8312 404.315 Q41.6002 407.244 46.6292 407.689 L46.5973 386.81 Z" fill="#000000" fill-rule="nonzero" fill-opacity="1" /><path clip-path="url(#clip310)" d="M62.257 365.676 L81.1631 365.676 L81.1631 371.564 L31.9562 371.564 L31.9562 365.676 L37.3671 365.676 Q34.1842 363.83 32.6564 361.029 Q31.0968 358.196 31.0968 354.281 Q31.0968 347.788 36.2531 343.746 Q41.4093 339.672 49.812 339.672 Q58.2147 339.672 63.371 343.746 Q68.5272 347.788 68.5272 354.281 Q68.5272 358.196 66.9994 361.029 Q65.4398 363.83 62.257 365.676 M49.812 345.751 Q43.3508 345.751 39.6905 348.425 Q35.9984 351.066 35.9984 355.713 Q35.9984 360.36 39.6905 363.034 Q43.3508 365.676 49.812 365.676 Q56.2732 365.676 59.9653 363.034 Q63.6256 360.36 63.6256 355.713 Q63.6256 351.066 59.9653 348.425 Q56.2732 345.751 49.812 345.751 Z" fill="#000000" fill-rule="nonzero" fill-opacity="1" /><path clip-path="url(#clip310)" d="M21.8347 324.171 L31.9562 324.171 L31.9562 312.108 L36.5077 312.108 L36.5077 324.171 L55.8594 324.171 Q60.2199 324.171 61.4613 322.994 Q62.7026 321.784 62.7026 318.124 L62.7026 312.108 L67.6042 312.108 L67.6042 318.124 Q67.6042 324.903 65.0897 327.481 Q62.5434 330.059 55.8594 330.059 L36.5077 330.059 L36.5077 334.356 L31.9562 334.356 L31.9562 330.059 L21.8347 330.059 L21.8347 324.171 Z" fill="#000000" fill-rule="nonzero" fill-opacity="1" /><path clip-path="url(#clip310)" d="M18.1426 305.329 L18.1426 300.236 Q25.6542 295.462 32.8474 293.107 Q40.0406 290.719 47.1384 290.719 Q54.268 290.719 61.4931 293.107 Q68.7182 295.462 76.1979 300.236 L76.1979 305.329 Q68.9091 301.095 61.7159 299.027 Q54.4908 296.926 47.1384 296.926 Q39.786 296.926 32.6246 299.027 Q25.4632 301.095 18.1426 305.329 Z" fill="#000000" fill-rule="nonzero" fill-opacity="1" /><circle clip-path="url(#clip311)" cx="296.019" cy="1141.6" r="14.4" fill="#009af9" fill-rule="evenodd" fill-opacity="1" stroke="#000000" stroke-opacity="1" stroke-width="2.688"/>
<circle clip-path="url(#clip311)" cx="331.064" cy="1141.6" r="14.4" fill="#009af9" fill-rule="evenodd" fill-opacity="1" stroke="#000000" stroke-opacity="1" stroke-width="2.688"/>
<circle clip-path="url(#clip311)" cx="366.109" cy="1141.6" r="14.4" fill="#009af9" fill-rule="evenodd" fill-opacity="1" stroke="#000000" stroke-opacity="1" stroke-width="2.688"/>
<circle clip-path="url(#clip311)" cx="401.155" cy="1141.6" r="14.4" fill="#009af9" fill-rule="evenodd" fill-opacity="1" stroke="#000000" stroke-opacity="1" stroke-width="2.688"/>
<circle clip-path="url(#clip311)" cx="436.2" cy="1141.6" r="14.4" fill="#009af9" fill-rule="evenodd" fill-opacity="1" stroke="#000000" stroke-opacity="1" stroke-width="2.688"/>
<circle clip-path="url(#clip311)" cx="471.245" cy="1141.6" r="14.4" fill="#009af9" fill-rule="evenodd" fill-opacity="1" stroke="#000000" stroke-opacity="1" stroke-width="2.688"/>
<circle clip-path="url(#clip311)" cx="506.291" cy="1141.6" r="14.4" fill="#009af9" fill-rule="evenodd" fill-opacity="1" stroke="#000000" stroke-opacity="1" stroke-width="2.688"/>
<circle clip-path="url(#clip311)" cx="541.336" cy="1141.6" r="14.4" fill="#009af9" fill-rule="evenodd" fill-opacity="1" stroke="#000000" stroke-opacity="1" stroke-width="2.688"/>
<circle clip-path="url(#clip311)" cx="576.381" cy="1141.6" r="14.4" fill="#009af9" fill-rule="evenodd" fill-opacity="1" stroke="#000000" stroke-opacity="1" stroke-width="2.688"/>
<circle clip-path="url(#clip311)" cx="611.427" cy="1141.6" r="14.4" fill="#009af9" fill-rule="evenodd" fill-opacity="1" stroke="#000000" stroke-opacity="1" stroke-width="2.688"/>
<circle clip-path="url(#clip311)" cx="646.472" cy="1141.6" r="14.4" fill="#009af9" fill-rule="evenodd" fill-opacity="1" stroke="#000000" stroke-opacity="1" stroke-width="2.688"/>
<circle clip-path="url(#clip311)" cx="681.517" cy="1141.6" r="14.4" fill="#009af9" fill-rule="evenodd" fill-opacity="1" stroke="#000000" stroke-opacity="1" stroke-width="2.688"/>
<circle clip-path="url(#clip311)" cx="716.562" cy="1141.6" r="14.4" fill="#009af9" fill-rule="evenodd" fill-opacity="1" stroke="#000000" stroke-opacity="1" stroke-width="2.688"/>
<circle clip-path="url(#clip311)" cx="751.608" cy="1141.6" r="14.4" fill="#009af9" fill-rule="evenodd" fill-opacity="1" stroke="#000000" stroke-opacity="1" stroke-width="2.688"/>
<circle clip-path="url(#clip311)" cx="786.653" cy="1141.6" r="14.4" fill="#009af9" fill-rule="evenodd" fill-opacity="1" stroke="#000000" stroke-opacity="1" stroke-width="2.688"/>
<circle clip-path="url(#clip311)" cx="821.698" cy="1141.6" r="14.4" fill="#009af9" fill-rule="evenodd" fill-opacity="1" stroke="#000000" stroke-opacity="1" stroke-width="2.688"/>
<circle clip-path="url(#clip311)" cx="856.744" cy="1141.6" r="14.4" fill="#009af9" fill-rule="evenodd" fill-opacity="1" stroke="#000000" stroke-opacity="1" stroke-width="2.688"/>
<circle clip-path="url(#clip311)" cx="891.789" cy="1141.6" r="14.4" fill="#009af9" fill-rule="evenodd" fill-opacity="1" stroke="#000000" stroke-opacity="1" stroke-width="2.688"/>
<circle clip-path="url(#clip311)" cx="926.834" cy="1141.6" r="14.4" fill="#009af9" fill-rule="evenodd" fill-opacity="1" stroke="#000000" stroke-opacity="1" stroke-width="2.688"/>
<circle clip-path="url(#clip311)" cx="961.88" cy="1141.6" r="14.4" fill="#009af9" fill-rule="evenodd" fill-opacity="1" stroke="#000000" stroke-opacity="1" stroke-width="2.688"/>
<circle clip-path="url(#clip311)" cx="996.925" cy="1141.6" r="14.4" fill="#009af9" fill-rule="evenodd" fill-opacity="1" stroke="#000000" stroke-opacity="1" stroke-width="2.688"/>
<circle clip-path="url(#clip311)" cx="1031.97" cy="1141.6" r="14.4" fill="#009af9" fill-rule="evenodd" fill-opacity="1" stroke="#000000" stroke-opacity="1" stroke-width="2.688"/>
<circle clip-path="url(#clip311)" cx="1067.02" cy="1141.6" r="14.4" fill="#009af9" fill-rule="evenodd" fill-opacity="1" stroke="#000000" stroke-opacity="1" stroke-width="2.688"/>
<circle clip-path="url(#clip311)" cx="1102.06" cy="1141.6" r="14.4" fill="#009af9" fill-rule="evenodd" fill-opacity="1" stroke="#000000" stroke-opacity="1" stroke-width="2.688"/>
<circle clip-path="url(#clip311)" cx="1137.11" cy="1141.6" r="14.4" fill="#009af9" fill-rule="evenodd" fill-opacity="1" stroke="#000000" stroke-opacity="1" stroke-width="2.688"/>
<circle clip-path="url(#clip311)" cx="1172.15" cy="1141.6" r="14.4" fill="#009af9" fill-rule="evenodd" fill-opacity="1" stroke="#000000" stroke-opacity="1" stroke-width="2.688"/>
<circle clip-path="url(#clip311)" cx="1207.2" cy="1141.6" r="14.4" fill="#009af9" fill-rule="evenodd" fill-opacity="1" stroke="#000000" stroke-opacity="1" stroke-width="2.688"/>
<circle clip-path="url(#clip311)" cx="1242.24" cy="1141.6" r="14.4" fill="#009af9" fill-rule="evenodd" fill-opacity="1" stroke="#000000" stroke-opacity="1" stroke-width="2.688"/>
<circle clip-path="url(#clip311)" cx="1277.29" cy="1141.6" r="14.4" fill="#009af9" fill-rule="evenodd" fill-opacity="1" stroke="#000000" stroke-opacity="1" stroke-width="2.688"/>
<circle clip-path="url(#clip311)" cx="1312.33" cy="1141.6" r="14.4" fill="#009af9" fill-rule="evenodd" fill-opacity="1" stroke="#000000" stroke-opacity="1" stroke-width="2.688"/>
<circle clip-path="url(#clip311)" cx="1347.38" cy="1141.6" r="14.4" fill="#009af9" fill-rule="evenodd" fill-opacity="1" stroke="#000000" stroke-opacity="1" stroke-width="2.688"/>
<circle clip-path="url(#clip311)" cx="1382.42" cy="1141.6" r="14.4" fill="#009af9" fill-rule="evenodd" fill-opacity="1" stroke="#000000" stroke-opacity="1" stroke-width="2.688"/>
<circle clip-path="url(#clip311)" cx="1417.47" cy="1141.6" r="14.4" fill="#009af9" fill-rule="evenodd" fill-opacity="1" stroke="#000000" stroke-opacity="1" stroke-width="2.688"/>
<circle clip-path="url(#clip311)" cx="1452.51" cy="1141.6" r="14.4" fill="#009af9" fill-rule="evenodd" fill-opacity="1" stroke="#000000" stroke-opacity="1" stroke-width="2.688"/>
<circle clip-path="url(#clip311)" cx="1487.56" cy="1141.6" r="14.4" fill="#009af9" fill-rule="evenodd" fill-opacity="1" stroke="#000000" stroke-opacity="1" stroke-width="2.688"/>
<circle clip-path="url(#clip311)" cx="1522.6" cy="1141.6" r="14.4" fill="#009af9" fill-rule="evenodd" fill-opacity="1" stroke="#000000" stroke-opacity="1" stroke-width="2.688"/>
<circle clip-path="url(#clip311)" cx="1557.65" cy="79.1184" r="14.4" fill="#009af9" fill-rule="evenodd" fill-opacity="1" stroke="#000000" stroke-opacity="1" stroke-width="2.688"/>
<circle clip-path="url(#clip311)" cx="1592.7" cy="79.1184" r="14.4" fill="#009af9" fill-rule="evenodd" fill-opacity="1" stroke="#000000" stroke-opacity="1" stroke-width="2.688"/>
<circle clip-path="url(#clip311)" cx="1627.74" cy="79.1184" r="14.4" fill="#009af9" fill-rule="evenodd" fill-opacity="1" stroke="#000000" stroke-opacity="1" stroke-width="2.688"/>
<circle clip-path="url(#clip311)" cx="1662.79" cy="79.1184" r="14.4" fill="#009af9" fill-rule="evenodd" fill-opacity="1" stroke="#000000" stroke-opacity="1" stroke-width="2.688"/>
<circle clip-path="url(#clip311)" cx="1697.83" cy="79.1184" r="14.4" fill="#009af9" fill-rule="evenodd" fill-opacity="1" stroke="#000000" stroke-opacity="1" stroke-width="2.688"/>
<circle clip-path="url(#clip311)" cx="1732.88" cy="79.1184" r="14.4" fill="#009af9" fill-rule="evenodd" fill-opacity="1" stroke="#000000" stroke-opacity="1" stroke-width="2.688"/>
<circle clip-path="url(#clip311)" cx="1767.92" cy="79.1184" r="14.4" fill="#009af9" fill-rule="evenodd" fill-opacity="1" stroke="#000000" stroke-opacity="1" stroke-width="2.688"/>
<circle clip-path="url(#clip311)" cx="1802.97" cy="79.1184" r="14.4" fill="#009af9" fill-rule="evenodd" fill-opacity="1" stroke="#000000" stroke-opacity="1" stroke-width="2.688"/>
<circle clip-path="url(#clip311)" cx="1838.01" cy="79.1184" r="14.4" fill="#009af9" fill-rule="evenodd" fill-opacity="1" stroke="#000000" stroke-opacity="1" stroke-width="2.688"/>
<circle clip-path="url(#clip311)" cx="1873.06" cy="79.1184" r="14.4" fill="#009af9" fill-rule="evenodd" fill-opacity="1" stroke="#000000" stroke-opacity="1" stroke-width="2.688"/>
<circle clip-path="url(#clip311)" cx="1908.1" cy="79.1184" r="14.4" fill="#009af9" fill-rule="evenodd" fill-opacity="1" stroke="#000000" stroke-opacity="1" stroke-width="2.688"/>
<circle clip-path="url(#clip311)" cx="1943.15" cy="79.1184" r="14.4" fill="#009af9" fill-rule="evenodd" fill-opacity="1" stroke="#000000" stroke-opacity="1" stroke-width="2.688"/>
<circle clip-path="url(#clip311)" cx="1978.19" cy="79.1184" r="14.4" fill="#009af9" fill-rule="evenodd" fill-opacity="1" stroke="#000000" stroke-opacity="1" stroke-width="2.688"/>
<circle clip-path="url(#clip311)" cx="2013.24" cy="79.1184" r="14.4" fill="#009af9" fill-rule="evenodd" fill-opacity="1" stroke="#000000" stroke-opacity="1" stroke-width="2.688"/>
<circle clip-path="url(#clip311)" cx="296.019" cy="1141.6" r="14.4" fill="#e26f46" fill-rule="evenodd" fill-opacity="1" stroke="#000000" stroke-opacity="1" stroke-width="2.688"/>
<circle clip-path="url(#clip311)" cx="331.064" cy="1141.6" r="14.4" fill="#e26f46" fill-rule="evenodd" fill-opacity="1" stroke="#000000" stroke-opacity="1" stroke-width="2.688"/>
<circle clip-path="url(#clip311)" cx="366.109" cy="1141.6" r="14.4" fill="#e26f46" fill-rule="evenodd" fill-opacity="1" stroke="#000000" stroke-opacity="1" stroke-width="2.688"/>
<circle clip-path="url(#clip311)" cx="401.155" cy="1141.6" r="14.4" fill="#e26f46" fill-rule="evenodd" fill-opacity="1" stroke="#000000" stroke-opacity="1" stroke-width="2.688"/>
<circle clip-path="url(#clip311)" cx="436.2" cy="1141.6" r="14.4" fill="#e26f46" fill-rule="evenodd" fill-opacity="1" stroke="#000000" stroke-opacity="1" stroke-width="2.688"/>
<circle clip-path="url(#clip311)" cx="471.245" cy="1141.6" r="14.4" fill="#e26f46" fill-rule="evenodd" fill-opacity="1" stroke="#000000" stroke-opacity="1" stroke-width="2.688"/>
<circle clip-path="url(#clip311)" cx="506.291" cy="1141.6" r="14.4" fill="#e26f46" fill-rule="evenodd" fill-opacity="1" stroke="#000000" stroke-opacity="1" stroke-width="2.688"/>
<circle clip-path="url(#clip311)" cx="541.336" cy="1141.6" r="14.4" fill="#e26f46" fill-rule="evenodd" fill-opacity="1" stroke="#000000" stroke-opacity="1" stroke-width="2.688"/>
<circle clip-path="url(#clip311)" cx="576.381" cy="1141.6" r="14.4" fill="#e26f46" fill-rule="evenodd" fill-opacity="1" stroke="#000000" stroke-opacity="1" stroke-width="2.688"/>
<circle clip-path="url(#clip311)" cx="611.427" cy="1141.6" r="14.4" fill="#e26f46" fill-rule="evenodd" fill-opacity="1" stroke="#000000" stroke-opacity="1" stroke-width="2.688"/>
<circle clip-path="url(#clip311)" cx="646.472" cy="1141.6" r="14.4" fill="#e26f46" fill-rule="evenodd" fill-opacity="1" stroke="#000000" stroke-opacity="1" stroke-width="2.688"/>
<circle clip-path="url(#clip311)" cx="681.517" cy="1141.6" r="14.4" fill="#e26f46" fill-rule="evenodd" fill-opacity="1" stroke="#000000" stroke-opacity="1" stroke-width="2.688"/>
<circle clip-path="url(#clip311)" cx="716.562" cy="1141.6" r="14.4" fill="#e26f46" fill-rule="evenodd" fill-opacity="1" stroke="#000000" stroke-opacity="1" stroke-width="2.688"/>
<circle clip-path="url(#clip311)" cx="751.608" cy="1141.6" r="14.4" fill="#e26f46" fill-rule="evenodd" fill-opacity="1" stroke="#000000" stroke-opacity="1" stroke-width="2.688"/>
<circle clip-path="url(#clip311)" cx="786.653" cy="1141.6" r="14.4" fill="#e26f46" fill-rule="evenodd" fill-opacity="1" stroke="#000000" stroke-opacity="1" stroke-width="2.688"/>
<circle clip-path="url(#clip311)" cx="821.698" cy="1141.6" r="14.4" fill="#e26f46" fill-rule="evenodd" fill-opacity="1" stroke="#000000" stroke-opacity="1" stroke-width="2.688"/>
<circle clip-path="url(#clip311)" cx="856.744" cy="1141.6" r="14.4" fill="#e26f46" fill-rule="evenodd" fill-opacity="1" stroke="#000000" stroke-opacity="1" stroke-width="2.688"/>
<circle clip-path="url(#clip311)" cx="891.789" cy="1141.6" r="14.4" fill="#e26f46" fill-rule="evenodd" fill-opacity="1" stroke="#000000" stroke-opacity="1" stroke-width="2.688"/>
<circle clip-path="url(#clip311)" cx="926.834" cy="1141.6" r="14.4" fill="#e26f46" fill-rule="evenodd" fill-opacity="1" stroke="#000000" stroke-opacity="1" stroke-width="2.688"/>
<circle clip-path="url(#clip311)" cx="961.88" cy="1141.6" r="14.4" fill="#e26f46" fill-rule="evenodd" fill-opacity="1" stroke="#000000" stroke-opacity="1" stroke-width="2.688"/>
<circle clip-path="url(#clip311)" cx="996.925" cy="1141.6" r="14.4" fill="#e26f46" fill-rule="evenodd" fill-opacity="1" stroke="#000000" stroke-opacity="1" stroke-width="2.688"/>
<circle clip-path="url(#clip311)" cx="1031.97" cy="1141.6" r="14.4" fill="#e26f46" fill-rule="evenodd" fill-opacity="1" stroke="#000000" stroke-opacity="1" stroke-width="2.688"/>
<circle clip-path="url(#clip311)" cx="1067.02" cy="1141.6" r="14.4" fill="#e26f46" fill-rule="evenodd" fill-opacity="1" stroke="#000000" stroke-opacity="1" stroke-width="2.688"/>
<circle clip-path="url(#clip311)" cx="1102.06" cy="1141.6" r="14.4" fill="#e26f46" fill-rule="evenodd" fill-opacity="1" stroke="#000000" stroke-opacity="1" stroke-width="2.688"/>
<circle clip-path="url(#clip311)" cx="1137.11" cy="1141.6" r="14.4" fill="#e26f46" fill-rule="evenodd" fill-opacity="1" stroke="#000000" stroke-opacity="1" stroke-width="2.688"/>
<circle clip-path="url(#clip311)" cx="1172.15" cy="1141.6" r="14.4" fill="#e26f46" fill-rule="evenodd" fill-opacity="1" stroke="#000000" stroke-opacity="1" stroke-width="2.688"/>
<circle clip-path="url(#clip311)" cx="1207.2" cy="1141.6" r="14.4" fill="#e26f46" fill-rule="evenodd" fill-opacity="1" stroke="#000000" stroke-opacity="1" stroke-width="2.688"/>
<circle clip-path="url(#clip311)" cx="1242.24" cy="1141.6" r="14.4" fill="#e26f46" fill-rule="evenodd" fill-opacity="1" stroke="#000000" stroke-opacity="1" stroke-width="2.688"/>
<circle clip-path="url(#clip311)" cx="1277.29" cy="1141.6" r="14.4" fill="#e26f46" fill-rule="evenodd" fill-opacity="1" stroke="#000000" stroke-opacity="1" stroke-width="2.688"/>
<circle clip-path="url(#clip311)" cx="1312.33" cy="1141.6" r="14.4" fill="#e26f46" fill-rule="evenodd" fill-opacity="1" stroke="#000000" stroke-opacity="1" stroke-width="2.688"/>
<circle clip-path="url(#clip311)" cx="1347.38" cy="1141.6" r="14.4" fill="#e26f46" fill-rule="evenodd" fill-opacity="1" stroke="#000000" stroke-opacity="1" stroke-width="2.688"/>
<circle clip-path="url(#clip311)" cx="1382.42" cy="1141.6" r="14.4" fill="#e26f46" fill-rule="evenodd" fill-opacity="1" stroke="#000000" stroke-opacity="1" stroke-width="2.688"/>
<circle clip-path="url(#clip311)" cx="1417.47" cy="1141.6" r="14.4" fill="#e26f46" fill-rule="evenodd" fill-opacity="1" stroke="#000000" stroke-opacity="1" stroke-width="2.688"/>
<circle clip-path="url(#clip311)" cx="1452.51" cy="1141.6" r="14.4" fill="#e26f46" fill-rule="evenodd" fill-opacity="1" stroke="#000000" stroke-opacity="1" stroke-width="2.688"/>
<circle clip-path="url(#clip311)" cx="1487.56" cy="1141.6" r="14.4" fill="#e26f46" fill-rule="evenodd" fill-opacity="1" stroke="#000000" stroke-opacity="1" stroke-width="2.688"/>
<circle clip-path="url(#clip311)" cx="1522.6" cy="1141.6" r="14.4" fill="#e26f46" fill-rule="evenodd" fill-opacity="1" stroke="#000000" stroke-opacity="1" stroke-width="2.688"/>
<circle clip-path="url(#clip311)" cx="1557.65" cy="1141.6" r="14.4" fill="#e26f46" fill-rule="evenodd" fill-opacity="1" stroke="#000000" stroke-opacity="1" stroke-width="2.688"/>
<circle clip-path="url(#clip311)" cx="1592.7" cy="1141.6" r="14.4" fill="#e26f46" fill-rule="evenodd" fill-opacity="1" stroke="#000000" stroke-opacity="1" stroke-width="2.688"/>
<circle clip-path="url(#clip311)" cx="1627.74" cy="1141.6" r="14.4" fill="#e26f46" fill-rule="evenodd" fill-opacity="1" stroke="#000000" stroke-opacity="1" stroke-width="2.688"/>
<circle clip-path="url(#clip311)" cx="1662.79" cy="1141.6" r="14.4" fill="#e26f46" fill-rule="evenodd" fill-opacity="1" stroke="#000000" stroke-opacity="1" stroke-width="2.688"/>
<circle clip-path="url(#clip311)" cx="1697.83" cy="79.1184" r="14.4" fill="#e26f46" fill-rule="evenodd" fill-opacity="1" stroke="#000000" stroke-opacity="1" stroke-width="2.688"/>
<circle clip-path="url(#clip311)" cx="1732.88" cy="79.1184" r="14.4" fill="#e26f46" fill-rule="evenodd" fill-opacity="1" stroke="#000000" stroke-opacity="1" stroke-width="2.688"/>
<circle clip-path="url(#clip311)" cx="1767.92" cy="79.1184" r="14.4" fill="#e26f46" fill-rule="evenodd" fill-opacity="1" stroke="#000000" stroke-opacity="1" stroke-width="2.688"/>
<circle clip-path="url(#clip311)" cx="1802.97" cy="79.1184" r="14.4" fill="#e26f46" fill-rule="evenodd" fill-opacity="1" stroke="#000000" stroke-opacity="1" stroke-width="2.688"/>
<circle clip-path="url(#clip311)" cx="1838.01" cy="79.1184" r="14.4" fill="#e26f46" fill-rule="evenodd" fill-opacity="1" stroke="#000000" stroke-opacity="1" stroke-width="2.688"/>
<circle clip-path="url(#clip311)" cx="1873.06" cy="79.1184" r="14.4" fill="#e26f46" fill-rule="evenodd" fill-opacity="1" stroke="#000000" stroke-opacity="1" stroke-width="2.688"/>
<circle clip-path="url(#clip311)" cx="1908.1" cy="79.1184" r="14.4" fill="#e26f46" fill-rule="evenodd" fill-opacity="1" stroke="#000000" stroke-opacity="1" stroke-width="2.688"/>
<circle clip-path="url(#clip311)" cx="1943.15" cy="79.1184" r="14.4" fill="#e26f46" fill-rule="evenodd" fill-opacity="1" stroke="#000000" stroke-opacity="1" stroke-width="2.688"/>
<circle clip-path="url(#clip311)" cx="1978.19" cy="79.1184" r="14.4" fill="#e26f46" fill-rule="evenodd" fill-opacity="1" stroke="#000000" stroke-opacity="1" stroke-width="2.688"/>
<circle clip-path="url(#clip311)" cx="2013.24" cy="79.1184" r="14.4" fill="#e26f46" fill-rule="evenodd" fill-opacity="1" stroke="#000000" stroke-opacity="1" stroke-width="2.688"/>
<path clip-path="url(#clip310)" d="M305.177 240.305 L877.964 240.305 L877.964 84.785 L305.177 84.785  Z" fill="#ffffff" fill-rule="evenodd" fill-opacity="1"/>
<polyline clip-path="url(#clip310)" style="stroke:#000000; stroke-linecap:round; stroke-linejoin:round; stroke-width:4; stroke-opacity:1; fill:none" points="305.177,240.305 877.964,240.305 877.964,84.785 305.177,84.785 305.177,240.305 "/>
<circle clip-path="url(#clip310)" cx="386.077" cy="136.625" r="20.48" fill="#009af9" fill-rule="evenodd" fill-opacity="1" stroke="#000000" stroke-opacity="1" stroke-width="3.82293"/>
<path clip-path="url(#clip310)" d="M471.26 150.016 L471.26 163.766 L466.978 163.766 L466.978 127.979 L471.26 127.979 L471.26 131.914 Q472.602 129.6 474.64 128.488 Q476.7 127.354 479.547 127.354 Q484.269 127.354 487.209 131.104 Q490.172 134.854 490.172 140.965 Q490.172 147.076 487.209 150.826 Q484.269 154.576 479.547 154.576 Q476.7 154.576 474.64 153.465 Q472.602 152.331 471.26 150.016 M485.751 140.965 Q485.751 136.266 483.806 133.604 Q481.885 130.919 478.505 130.919 Q475.126 130.919 473.181 133.604 Q471.26 136.266 471.26 140.965 Q471.26 145.664 473.181 148.349 Q475.126 151.011 478.505 151.011 Q481.885 151.011 483.806 148.349 Q485.751 145.664 485.751 140.965 Z" fill="#000000" fill-rule="nonzero" fill-opacity="1" /><path clip-path="url(#clip310)" d="M512.857 132.377 L542.533 132.377 L542.533 136.266 L512.857 136.266 L512.857 132.377 M512.857 141.822 L542.533 141.822 L542.533 145.757 L512.857 145.757 L512.857 141.822 Z" fill="#000000" fill-rule="nonzero" fill-opacity="1" /><path clip-path="url(#clip310)" d="M577.139 130.965 Q573.713 130.965 571.722 133.65 Q569.732 136.312 569.732 140.965 Q569.732 145.618 571.699 148.303 Q573.69 150.965 577.139 150.965 Q580.542 150.965 582.532 148.28 Q584.523 145.595 584.523 140.965 Q584.523 136.359 582.532 133.674 Q580.542 130.965 577.139 130.965 M577.139 127.354 Q582.694 127.354 585.866 130.965 Q589.037 134.576 589.037 140.965 Q589.037 147.331 585.866 150.965 Q582.694 154.576 577.139 154.576 Q571.56 154.576 568.389 150.965 Q565.241 147.331 565.241 140.965 Q565.241 134.576 568.389 130.965 Q571.56 127.354 577.139 127.354 Z" fill="#000000" fill-rule="nonzero" fill-opacity="1" /><path clip-path="url(#clip310)" d="M611.12 131.961 Q610.403 131.544 609.546 131.359 Q608.713 131.15 607.694 131.15 Q604.083 131.15 602.139 133.512 Q600.218 135.85 600.218 140.248 L600.218 153.905 L595.935 153.905 L595.935 127.979 L600.218 127.979 L600.218 132.007 Q601.56 129.646 603.713 128.512 Q605.866 127.354 608.944 127.354 Q609.384 127.354 609.917 127.424 Q610.449 127.47 611.097 127.586 L611.12 131.961 Z" fill="#000000" fill-rule="nonzero" fill-opacity="1" /><path clip-path="url(#clip310)" d="M615.588 127.979 L619.847 127.979 L619.847 153.905 L615.588 153.905 L615.588 127.979 M615.588 117.887 L619.847 117.887 L619.847 123.28 L615.588 123.28 L615.588 117.887 Z" fill="#000000" fill-rule="nonzero" fill-opacity="1" /><path clip-path="url(#clip310)" d="M645.819 140.641 Q645.819 136.012 643.898 133.465 Q642 130.919 638.551 130.919 Q635.125 130.919 633.203 133.465 Q631.305 136.012 631.305 140.641 Q631.305 145.248 633.203 147.794 Q635.125 150.34 638.551 150.34 Q642 150.34 643.898 147.794 Q645.819 145.248 645.819 140.641 M650.078 150.687 Q650.078 157.308 647.139 160.525 Q644.199 163.766 638.134 163.766 Q635.889 163.766 633.898 163.419 Q631.907 163.095 630.032 162.4 L630.032 158.257 Q631.907 159.275 633.736 159.761 Q635.565 160.248 637.463 160.248 Q641.652 160.248 643.736 158.048 Q645.819 155.873 645.819 151.451 L645.819 149.345 Q644.5 151.636 642.44 152.771 Q640.379 153.905 637.509 153.905 Q632.741 153.905 629.824 150.271 Q626.907 146.637 626.907 140.641 Q626.907 134.623 629.824 130.988 Q632.741 127.354 637.509 127.354 Q640.379 127.354 642.44 128.488 Q644.5 129.623 645.819 131.914 L645.819 127.979 L650.078 127.979 L650.078 150.687 Z" fill="#000000" fill-rule="nonzero" fill-opacity="1" /><path clip-path="url(#clip310)" d="M658.851 127.979 L663.111 127.979 L663.111 153.905 L658.851 153.905 L658.851 127.979 M658.851 117.887 L663.111 117.887 L663.111 123.28 L658.851 123.28 L658.851 117.887 Z" fill="#000000" fill-rule="nonzero" fill-opacity="1" /><path clip-path="url(#clip310)" d="M693.574 138.257 L693.574 153.905 L689.314 153.905 L689.314 138.396 Q689.314 134.715 687.879 132.887 Q686.444 131.058 683.574 131.058 Q680.125 131.058 678.134 133.257 Q676.143 135.456 676.143 139.252 L676.143 153.905 L671.861 153.905 L671.861 127.979 L676.143 127.979 L676.143 132.007 Q677.671 129.669 679.731 128.512 Q681.814 127.354 684.523 127.354 Q688.99 127.354 691.282 130.132 Q693.574 132.887 693.574 138.257 Z" fill="#000000" fill-rule="nonzero" fill-opacity="1" /><path clip-path="url(#clip310)" d="M713.851 140.873 Q708.689 140.873 706.698 142.053 Q704.708 143.234 704.708 146.081 Q704.708 148.349 706.189 149.692 Q707.694 151.011 710.263 151.011 Q713.805 151.011 715.935 148.511 Q718.087 145.988 718.087 141.822 L718.087 140.873 L713.851 140.873 M722.347 139.113 L722.347 153.905 L718.087 153.905 L718.087 149.97 Q716.629 152.331 714.453 153.465 Q712.277 154.576 709.129 154.576 Q705.148 154.576 702.786 152.354 Q700.448 150.109 700.448 146.359 Q700.448 141.984 703.365 139.762 Q706.305 137.539 712.115 137.539 L718.087 137.539 L718.087 137.123 Q718.087 134.183 716.143 132.586 Q714.222 130.965 710.726 130.965 Q708.504 130.965 706.398 131.498 Q704.291 132.03 702.347 133.095 L702.347 129.16 Q704.685 128.257 706.884 127.817 Q709.083 127.354 711.166 127.354 Q716.791 127.354 719.569 130.271 Q722.347 133.188 722.347 139.113 Z" fill="#000000" fill-rule="nonzero" fill-opacity="1" /><path clip-path="url(#clip310)" d="M731.12 117.887 L735.379 117.887 L735.379 153.905 L731.12 153.905 L731.12 117.887 Z" fill="#000000" fill-rule="nonzero" fill-opacity="1" /><circle clip-path="url(#clip310)" cx="386.077" cy="188.465" r="20.48" fill="#e26f46" fill-rule="evenodd" fill-opacity="1" stroke="#000000" stroke-opacity="1" stroke-width="3.82293"/>
<path clip-path="url(#clip310)" d="M471.26 201.856 L471.26 215.606 L466.978 215.606 L466.978 179.819 L471.26 179.819 L471.26 183.754 Q472.602 181.44 474.64 180.328 Q476.7 179.194 479.547 179.194 Q484.269 179.194 487.209 182.944 Q490.172 186.694 490.172 192.805 Q490.172 198.916 487.209 202.666 Q484.269 206.416 479.547 206.416 Q476.7 206.416 474.64 205.305 Q472.602 204.171 471.26 201.856 M485.751 192.805 Q485.751 188.106 483.806 185.444 Q481.885 182.759 478.505 182.759 Q475.126 182.759 473.181 185.444 Q471.26 188.106 471.26 192.805 Q471.26 197.504 473.181 200.189 Q475.126 202.851 478.505 202.851 Q481.885 202.851 483.806 200.189 Q485.751 197.504 485.751 192.805 Z" fill="#000000" fill-rule="nonzero" fill-opacity="1" /><path clip-path="url(#clip310)" d="M512.857 184.217 L542.533 184.217 L542.533 188.106 L512.857 188.106 L512.857 184.217 M512.857 193.662 L542.533 193.662 L542.533 197.597 L512.857 197.597 L512.857 193.662 Z" fill="#000000" fill-rule="nonzero" fill-opacity="1" /><path clip-path="url(#clip310)" d="M587.278 184.796 Q588.875 181.926 591.097 180.56 Q593.319 179.194 596.329 179.194 Q600.38 179.194 602.579 182.041 Q604.778 184.865 604.778 190.097 L604.778 205.745 L600.495 205.745 L600.495 190.236 Q600.495 186.509 599.176 184.703 Q597.856 182.898 595.148 182.898 Q591.838 182.898 589.917 185.097 Q587.995 187.296 587.995 191.092 L587.995 205.745 L583.713 205.745 L583.713 190.236 Q583.713 186.486 582.394 184.703 Q581.074 182.898 578.32 182.898 Q575.056 182.898 573.134 185.12 Q571.213 187.319 571.213 191.092 L571.213 205.745 L566.931 205.745 L566.931 179.819 L571.213 179.819 L571.213 183.847 Q572.671 181.463 574.708 180.328 Q576.745 179.194 579.546 179.194 Q582.37 179.194 584.338 180.629 Q586.329 182.065 587.278 184.796 Z" fill="#000000" fill-rule="nonzero" fill-opacity="1" /><path clip-path="url(#clip310)" d="M623.319 182.805 Q619.893 182.805 617.903 185.49 Q615.912 188.152 615.912 192.805 Q615.912 197.458 617.879 200.143 Q619.87 202.805 623.319 202.805 Q626.722 202.805 628.713 200.12 Q630.703 197.435 630.703 192.805 Q630.703 188.199 628.713 185.514 Q626.722 182.805 623.319 182.805 M623.319 179.194 Q628.875 179.194 632.046 182.805 Q635.217 186.416 635.217 192.805 Q635.217 199.171 632.046 202.805 Q628.875 206.416 623.319 206.416 Q617.741 206.416 614.569 202.805 Q611.421 199.171 611.421 192.805 Q611.421 186.416 614.569 182.805 Q617.741 179.194 623.319 179.194 Z" fill="#000000" fill-rule="nonzero" fill-opacity="1" /><path clip-path="url(#clip310)" d="M657.301 183.801 Q656.583 183.384 655.726 183.199 Q654.893 182.99 653.875 182.99 Q650.264 182.99 648.319 185.352 Q646.398 187.69 646.398 192.088 L646.398 205.745 L642.115 205.745 L642.115 179.819 L646.398 179.819 L646.398 183.847 Q647.74 181.486 649.893 180.352 Q652.046 179.194 655.125 179.194 Q655.564 179.194 656.097 179.264 Q656.629 179.31 657.277 179.426 L657.301 183.801 Z" fill="#000000" fill-rule="nonzero" fill-opacity="1" /><path clip-path="url(#clip310)" d="M682.902 191.717 L682.902 193.801 L663.319 193.801 Q663.597 198.199 665.958 200.514 Q668.342 202.805 672.578 202.805 Q675.032 202.805 677.324 202.203 Q679.638 201.601 681.907 200.398 L681.907 204.426 Q679.615 205.398 677.208 205.907 Q674.8 206.416 672.324 206.416 Q666.12 206.416 662.486 202.805 Q658.875 199.194 658.875 193.037 Q658.875 186.671 662.301 182.944 Q665.75 179.194 671.583 179.194 Q676.814 179.194 679.847 182.574 Q682.902 185.93 682.902 191.717 M678.643 190.467 Q678.597 186.972 676.675 184.889 Q674.777 182.805 671.629 182.805 Q668.064 182.805 665.912 184.819 Q663.782 186.833 663.458 190.49 L678.643 190.467 Z" fill="#000000" fill-rule="nonzero" fill-opacity="1" /><path clip-path="url(#clip310)" d="M721.49 180.583 L721.49 184.611 Q719.684 183.685 717.74 183.222 Q715.796 182.759 713.712 182.759 Q710.541 182.759 708.944 183.731 Q707.37 184.703 707.37 186.648 Q707.37 188.129 708.504 188.986 Q709.638 189.819 713.064 190.583 L714.522 190.907 Q719.059 191.879 720.958 193.662 Q722.879 195.421 722.879 198.592 Q722.879 202.203 720.009 204.31 Q717.161 206.416 712.161 206.416 Q710.078 206.416 707.81 206 Q705.564 205.606 703.064 204.796 L703.064 200.398 Q705.425 201.625 707.717 202.25 Q710.009 202.851 712.254 202.851 Q715.263 202.851 716.884 201.833 Q718.504 200.791 718.504 198.916 Q718.504 197.18 717.323 196.254 Q716.166 195.328 712.208 194.472 L710.726 194.125 Q706.768 193.291 705.009 191.578 Q703.249 189.842 703.249 186.833 Q703.249 183.176 705.842 181.185 Q708.435 179.194 713.203 179.194 Q715.564 179.194 717.647 179.541 Q719.731 179.889 721.49 180.583 Z" fill="#000000" fill-rule="nonzero" fill-opacity="1" /><path clip-path="url(#clip310)" d="M733.782 201.856 L733.782 215.606 L729.499 215.606 L729.499 179.819 L733.782 179.819 L733.782 183.754 Q735.124 181.44 737.161 180.328 Q739.221 179.194 742.069 179.194 Q746.791 179.194 749.731 182.944 Q752.694 186.694 752.694 192.805 Q752.694 198.916 749.731 202.666 Q746.791 206.416 742.069 206.416 Q739.221 206.416 737.161 205.305 Q735.124 204.171 733.782 201.856 M748.272 192.805 Q748.272 188.106 746.328 185.444 Q744.407 182.759 741.027 182.759 Q737.647 182.759 735.703 185.444 Q733.782 188.106 733.782 192.805 Q733.782 197.504 735.703 200.189 Q737.647 202.851 741.027 202.851 Q744.407 202.851 746.328 200.189 Q748.272 197.504 748.272 192.805 Z" fill="#000000" fill-rule="nonzero" fill-opacity="1" /><path clip-path="url(#clip310)" d="M774.777 183.801 Q774.059 183.384 773.203 183.199 Q772.369 182.99 771.351 182.99 Q767.74 182.99 765.795 185.352 Q763.874 187.69 763.874 192.088 L763.874 205.745 L759.592 205.745 L759.592 179.819 L763.874 179.819 L763.874 183.847 Q765.217 181.486 767.369 180.352 Q769.522 179.194 772.601 179.194 Q773.041 179.194 773.573 179.264 Q774.105 179.31 774.754 179.426 L774.777 183.801 Z" fill="#000000" fill-rule="nonzero" fill-opacity="1" /><path clip-path="url(#clip310)" d="M800.378 191.717 L800.378 193.801 L780.795 193.801 Q781.073 198.199 783.434 200.514 Q785.818 202.805 790.054 202.805 Q792.508 202.805 794.8 202.203 Q797.115 201.601 799.383 200.398 L799.383 204.426 Q797.091 205.398 794.684 205.907 Q792.277 206.416 789.8 206.416 Q783.596 206.416 779.962 202.805 Q776.351 199.194 776.351 193.037 Q776.351 186.671 779.777 182.944 Q783.226 179.194 789.059 179.194 Q794.291 179.194 797.323 182.574 Q800.378 185.93 800.378 191.717 M796.119 190.467 Q796.073 186.972 794.152 184.889 Q792.254 182.805 789.105 182.805 Q785.541 182.805 783.388 184.819 Q781.258 186.833 780.934 190.49 L796.119 190.467 Z" fill="#000000" fill-rule="nonzero" fill-opacity="1" /><path clip-path="url(#clip310)" d="M819.152 192.713 Q813.99 192.713 811.999 193.893 Q810.008 195.074 810.008 197.921 Q810.008 200.189 811.49 201.532 Q812.994 202.851 815.564 202.851 Q819.105 202.851 821.235 200.351 Q823.388 197.828 823.388 193.662 L823.388 192.713 L819.152 192.713 M827.647 190.953 L827.647 205.745 L823.388 205.745 L823.388 201.81 Q821.929 204.171 819.753 205.305 Q817.577 206.416 814.429 206.416 Q810.448 206.416 808.087 204.194 Q805.749 201.949 805.749 198.199 Q805.749 193.824 808.665 191.602 Q811.605 189.379 817.415 189.379 L823.388 189.379 L823.388 188.963 Q823.388 186.023 821.443 184.426 Q819.522 182.805 816.027 182.805 Q813.804 182.805 811.698 183.338 Q809.591 183.87 807.647 184.935 L807.647 181 Q809.985 180.097 812.184 179.657 Q814.383 179.194 816.466 179.194 Q822.091 179.194 824.869 182.111 Q827.647 185.028 827.647 190.953 Z" fill="#000000" fill-rule="nonzero" fill-opacity="1" /><path clip-path="url(#clip310)" d="M853.48 183.754 L853.48 169.727 L857.739 169.727 L857.739 205.745 L853.48 205.745 L853.48 201.856 Q852.137 204.171 850.077 205.305 Q848.04 206.416 845.17 206.416 Q840.471 206.416 837.508 202.666 Q834.568 198.916 834.568 192.805 Q834.568 186.694 837.508 182.944 Q840.471 179.194 845.17 179.194 Q848.04 179.194 850.077 180.328 Q852.137 181.44 853.48 183.754 M838.966 192.805 Q838.966 197.504 840.888 200.189 Q842.832 202.851 846.212 202.851 Q849.591 202.851 851.536 200.189 Q853.48 197.504 853.48 192.805 Q853.48 188.106 851.536 185.444 Q849.591 182.759 846.212 182.759 Q842.832 182.759 840.888 185.444 Q838.966 188.106 838.966 192.805 Z" fill="#000000" fill-rule="nonzero" fill-opacity="1" /></svg>
