<?xml version="1.0" encoding="utf-8"?>
<svg xmlns="http://www.w3.org/2000/svg" xmlns:xlink="http://www.w3.org/1999/xlink" width="528" height="336" viewBox="0 0 2112 1344">
<defs>
  <clipPath id="clip250">
    <rect x="0" y="0" width="2112" height="1344"/>
  </clipPath>
</defs>
<path clip-path="url(#clip250)" d="M0 1344 L2112 1344 L2112 2.13163e-14 L0 2.13163e-14  Z" fill="#ffffff" fill-rule="evenodd" fill-opacity="1"/>
<defs>
  <clipPath id="clip251">
    <rect x="244" y="47" width="1821" height="1127"/>
  </clipPath>
</defs>
<path clip-path="url(#clip250)" d="M244.988 1173.47 L2064.76 1173.47 L2064.76 47.2441 L244.988 47.2441  Z" fill="#ffffff" fill-rule="evenodd" fill-opacity="1"/>
<polyline clip-path="url(#clip251)" style="stroke:#000000; stroke-linecap:round; stroke-linejoin:round; stroke-width:2; stroke-opacity:0.1; fill:none" points="487.242,1173.47 487.242,47.2441 "/>
<polyline clip-path="url(#clip251)" style="stroke:#000000; stroke-linecap:round; stroke-linejoin:round; stroke-width:2; stroke-opacity:0.1; fill:none" points="868.745,1173.47 868.745,47.2441 "/>
<polyline clip-path="url(#clip251)" style="stroke:#000000; stroke-linecap:round; stroke-linejoin:round; stroke-width:2; stroke-opacity:0.1; fill:none" points="1250.25,1173.47 1250.25,47.2441 "/>
<polyline clip-path="url(#clip251)" style="stroke:#000000; stroke-linecap:round; stroke-linejoin:round; stroke-width:2; stroke-opacity:0.1; fill:none" points="1631.75,1173.47 1631.75,47.2441 "/>
<polyline clip-path="url(#clip251)" style="stroke:#000000; stroke-linecap:round; stroke-linejoin:round; stroke-width:2; stroke-opacity:0.1; fill:none" points="2013.25,1173.47 2013.25,47.2441 "/>
<polyline clip-path="url(#clip251)" style="stroke:#000000; stroke-linecap:round; stroke-linejoin:round; stroke-width:2; stroke-opacity:0.1; fill:none" points="244.988,1039 2064.76,1039 "/>
<polyline clip-path="url(#clip251)" style="stroke:#000000; stroke-linecap:round; stroke-linejoin:round; stroke-width:2; stroke-opacity:0.1; fill:none" points="244.988,773.271 2064.76,773.271 "/>
<polyline clip-path="url(#clip251)" style="stroke:#000000; stroke-linecap:round; stroke-linejoin:round; stroke-width:2; stroke-opacity:0.1; fill:none" points="244.988,507.541 2064.76,507.541 "/>
<polyline clip-path="url(#clip251)" style="stroke:#000000; stroke-linecap:round; stroke-linejoin:round; stroke-width:2; stroke-opacity:0.1; fill:none" points="244.988,241.81 2064.76,241.81 "/>
<polyline clip-path="url(#clip250)" style="stroke:#000000; stroke-linecap:round; stroke-linejoin:round; stroke-width:4; stroke-opacity:1; fill:none" points="244.988,1173.47 2064.76,1173.47 "/>
<polyline clip-path="url(#clip250)" style="stroke:#000000; stroke-linecap:round; stroke-linejoin:round; stroke-width:4; stroke-opacity:1; fill:none" points="487.242,1173.47 487.242,1154.57 "/>
<polyline clip-path="url(#clip250)" style="stroke:#000000; stroke-linecap:round; stroke-linejoin:round; stroke-width:4; stroke-opacity:1; fill:none" points="868.745,1173.47 868.745,1154.57 "/>
<polyline clip-path="url(#clip250)" style="stroke:#000000; stroke-linecap:round; stroke-linejoin:round; stroke-width:4; stroke-opacity:1; fill:none" points="1250.25,1173.47 1250.25,1154.57 "/>
<polyline clip-path="url(#clip250)" style="stroke:#000000; stroke-linecap:round; stroke-linejoin:round; stroke-width:4; stroke-opacity:1; fill:none" points="1631.75,1173.47 1631.75,1154.57 "/>
<polyline clip-path="url(#clip250)" style="stroke:#000000; stroke-linecap:round; stroke-linejoin:round; stroke-width:4; stroke-opacity:1; fill:none" points="2013.25,1173.47 2013.25,1154.57 "/>
<path clip-path="url(#clip250)" d="M481.895 1229.63 L498.215 1229.63 L498.215 1233.57 L476.27 1233.57 L476.27 1229.63 Q478.932 1226.88 483.516 1222.25 Q488.122 1217.59 489.303 1216.25 Q491.548 1213.73 492.427 1211.99 Q493.33 1210.23 493.33 1208.54 Q493.33 1205.79 491.386 1204.05 Q489.465 1202.32 486.363 1202.32 Q484.164 1202.32 481.71 1203.08 Q479.279 1203.84 476.502 1205.4 L476.502 1200.67 Q479.326 1199.54 481.779 1198.96 Q484.233 1198.38 486.27 1198.38 Q491.64 1198.38 494.835 1201.07 Q498.029 1203.75 498.029 1208.24 Q498.029 1210.37 497.219 1212.29 Q496.432 1214.19 494.326 1216.78 Q493.747 1217.46 490.645 1220.67 Q487.543 1223.87 481.895 1229.63 Z" fill="#000000" fill-rule="nonzero" fill-opacity="1" /><path clip-path="url(#clip250)" d="M871.754 1203.08 L859.949 1221.53 L871.754 1221.53 L871.754 1203.08 M870.527 1199.01 L876.407 1199.01 L876.407 1221.53 L881.338 1221.53 L881.338 1225.42 L876.407 1225.42 L876.407 1233.57 L871.754 1233.57 L871.754 1225.42 L856.152 1225.42 L856.152 1220.9 L870.527 1199.01 Z" fill="#000000" fill-rule="nonzero" fill-opacity="1" /><path clip-path="url(#clip250)" d="M1250.65 1214.42 Q1247.5 1214.42 1245.65 1216.58 Q1243.82 1218.73 1243.82 1222.48 Q1243.82 1226.21 1245.65 1228.38 Q1247.5 1230.53 1250.65 1230.53 Q1253.8 1230.53 1255.63 1228.38 Q1257.48 1226.21 1257.48 1222.48 Q1257.48 1218.73 1255.63 1216.58 Q1253.8 1214.42 1250.65 1214.42 M1259.94 1199.77 L1259.94 1204.03 Q1258.18 1203.2 1256.37 1202.76 Q1254.59 1202.32 1252.83 1202.32 Q1248.2 1202.32 1245.75 1205.44 Q1243.31 1208.57 1242.97 1214.89 Q1244.33 1212.87 1246.39 1211.81 Q1248.45 1210.72 1250.93 1210.72 Q1256.14 1210.72 1259.15 1213.89 Q1262.18 1217.04 1262.18 1222.48 Q1262.18 1227.8 1259.03 1231.02 Q1255.88 1234.24 1250.65 1234.24 Q1244.66 1234.24 1241.49 1229.65 Q1238.31 1225.05 1238.31 1216.32 Q1238.31 1208.13 1242.2 1203.27 Q1246.09 1198.38 1252.64 1198.38 Q1254.4 1198.38 1256.19 1198.73 Q1257.99 1199.08 1259.94 1199.77 Z" fill="#000000" fill-rule="nonzero" fill-opacity="1" /><path clip-path="url(#clip250)" d="M1631.75 1217.15 Q1628.42 1217.15 1626.5 1218.94 Q1624.6 1220.72 1624.6 1223.84 Q1624.6 1226.97 1626.5 1228.75 Q1628.42 1230.53 1631.75 1230.53 Q1635.08 1230.53 1637 1228.75 Q1638.93 1226.95 1638.93 1223.84 Q1638.93 1220.72 1637 1218.94 Q1635.11 1217.15 1631.75 1217.15 M1627.07 1215.16 Q1624.07 1214.42 1622.38 1212.36 Q1620.71 1210.3 1620.71 1207.34 Q1620.71 1203.2 1623.65 1200.79 Q1626.61 1198.38 1631.75 1198.38 Q1636.91 1198.38 1639.85 1200.79 Q1642.79 1203.2 1642.79 1207.34 Q1642.79 1210.3 1641.1 1212.36 Q1639.44 1214.42 1636.45 1215.16 Q1639.83 1215.95 1641.7 1218.24 Q1643.6 1220.53 1643.6 1223.84 Q1643.6 1228.87 1640.52 1231.55 Q1637.47 1234.24 1631.75 1234.24 Q1626.03 1234.24 1622.95 1231.55 Q1619.9 1228.87 1619.9 1223.84 Q1619.9 1220.53 1621.8 1218.24 Q1623.69 1215.95 1627.07 1215.16 M1625.36 1207.78 Q1625.36 1210.47 1627.03 1211.97 Q1628.72 1213.47 1631.75 1213.47 Q1634.76 1213.47 1636.45 1211.97 Q1638.16 1210.47 1638.16 1207.78 Q1638.16 1205.09 1636.45 1203.59 Q1634.76 1202.09 1631.75 1202.09 Q1628.72 1202.09 1627.03 1203.59 Q1625.36 1205.09 1625.36 1207.78 Z" fill="#000000" fill-rule="nonzero" fill-opacity="1" /><path clip-path="url(#clip250)" d="M1987.94 1229.63 L1995.58 1229.63 L1995.58 1203.27 L1987.27 1204.93 L1987.27 1200.67 L1995.53 1199.01 L2000.21 1199.01 L2000.21 1229.63 L2007.85 1229.63 L2007.85 1233.57 L1987.94 1233.57 L1987.94 1229.63 Z" fill="#000000" fill-rule="nonzero" fill-opacity="1" /><path clip-path="url(#clip250)" d="M2027.29 1202.09 Q2023.68 1202.09 2021.85 1205.65 Q2020.05 1209.19 2020.05 1216.32 Q2020.05 1223.43 2021.85 1226.99 Q2023.68 1230.53 2027.29 1230.53 Q2030.93 1230.53 2032.73 1226.99 Q2034.56 1223.43 2034.56 1216.32 Q2034.56 1209.19 2032.73 1205.65 Q2030.93 1202.09 2027.29 1202.09 M2027.29 1198.38 Q2033.1 1198.38 2036.16 1202.99 Q2039.24 1207.57 2039.24 1216.32 Q2039.24 1225.05 2036.16 1229.65 Q2033.1 1234.24 2027.29 1234.24 Q2021.48 1234.24 2018.4 1229.65 Q2015.35 1225.05 2015.35 1216.32 Q2015.35 1207.57 2018.4 1202.99 Q2021.48 1198.38 2027.29 1198.38 Z" fill="#000000" fill-rule="nonzero" fill-opacity="1" /><path clip-path="url(#clip250)" d="M1066.83 1266.49 L1073.33 1266.49 L1083.32 1306.66 L1093.28 1266.49 L1100.51 1266.49 L1110.5 1306.66 L1120.47 1266.49 L1126.99 1266.49 L1115.05 1314.01 L1106.97 1314.01 L1096.94 1272.76 L1086.82 1314.01 L1078.74 1314.01 L1066.83 1266.49 Z" fill="#000000" fill-rule="nonzero" fill-opacity="1" /><path clip-path="url(#clip250)" d="M1147.3 1296.1 Q1140.2 1296.1 1137.46 1297.72 Q1134.72 1299.34 1134.72 1303.26 Q1134.72 1306.38 1136.76 1308.22 Q1138.83 1310.04 1142.36 1310.04 Q1147.23 1310.04 1150.16 1306.6 Q1153.12 1303.13 1153.12 1297.4 L1153.12 1296.1 L1147.3 1296.1 M1158.98 1293.68 L1158.98 1314.01 L1153.12 1314.01 L1153.12 1308.6 Q1151.12 1311.85 1148.12 1313.41 Q1145.13 1314.94 1140.8 1314.94 Q1135.33 1314.94 1132.08 1311.88 Q1128.87 1308.79 1128.87 1303.64 Q1128.87 1297.62 1132.88 1294.57 Q1136.92 1291.51 1144.91 1291.51 L1153.12 1291.51 L1153.12 1290.94 Q1153.12 1286.9 1150.45 1284.7 Q1147.81 1282.47 1143 1282.47 Q1139.94 1282.47 1137.05 1283.2 Q1134.15 1283.94 1131.48 1285.4 L1131.48 1279.99 Q1134.69 1278.75 1137.72 1278.14 Q1140.74 1277.51 1143.6 1277.51 Q1151.34 1277.51 1155.16 1281.52 Q1158.98 1285.53 1158.98 1293.68 Z" fill="#000000" fill-rule="nonzero" fill-opacity="1" /><path clip-path="url(#clip250)" d="M1194.5 1295.78 Q1194.5 1289.41 1191.86 1285.91 Q1189.25 1282.41 1184.5 1282.41 Q1179.79 1282.41 1177.15 1285.91 Q1174.54 1289.41 1174.54 1295.78 Q1174.54 1302.11 1177.15 1305.61 Q1179.79 1309.11 1184.5 1309.11 Q1189.25 1309.11 1191.86 1305.61 Q1194.5 1302.11 1194.5 1295.78 M1200.35 1309.59 Q1200.35 1318.69 1196.31 1323.12 Q1192.27 1327.57 1183.93 1327.57 Q1180.84 1327.57 1178.11 1327.1 Q1175.37 1326.65 1172.79 1325.7 L1172.79 1320 Q1175.37 1321.4 1177.88 1322.07 Q1180.4 1322.74 1183.01 1322.74 Q1188.77 1322.74 1191.63 1319.71 Q1194.5 1316.72 1194.5 1310.64 L1194.5 1307.74 Q1192.68 1310.9 1189.85 1312.46 Q1187.02 1314.01 1183.07 1314.01 Q1176.52 1314.01 1172.51 1309.02 Q1168.49 1304.02 1168.49 1295.78 Q1168.49 1287.5 1172.51 1282.5 Q1176.52 1277.51 1183.07 1277.51 Q1187.02 1277.51 1189.85 1279.07 Q1192.68 1280.63 1194.5 1283.78 L1194.5 1278.37 L1200.35 1278.37 L1200.35 1309.59 Z" fill="#000000" fill-rule="nonzero" fill-opacity="1" /><path clip-path="url(#clip250)" d="M1242.91 1294.73 L1242.91 1297.59 L1215.98 1297.59 Q1216.36 1303.64 1219.61 1306.82 Q1222.89 1309.97 1228.71 1309.97 Q1232.09 1309.97 1235.24 1309.14 Q1238.42 1308.32 1241.54 1306.66 L1241.54 1312.2 Q1238.39 1313.54 1235.08 1314.24 Q1231.77 1314.94 1228.36 1314.94 Q1219.83 1314.94 1214.84 1309.97 Q1209.87 1305.01 1209.87 1296.54 Q1209.87 1287.79 1214.58 1282.66 Q1219.32 1277.51 1227.35 1277.51 Q1234.54 1277.51 1238.71 1282.15 Q1242.91 1286.77 1242.91 1294.73 M1237.05 1293.01 Q1236.99 1288.2 1234.35 1285.34 Q1231.74 1282.47 1227.41 1282.47 Q1222.51 1282.47 1219.55 1285.24 Q1216.62 1288.01 1216.17 1293.04 L1237.05 1293.01 Z" fill="#000000" fill-rule="nonzero" fill-opacity="1" /><polyline clip-path="url(#clip250)" style="stroke:#000000; stroke-linecap:round; stroke-linejoin:round; stroke-width:4; stroke-opacity:1; fill:none" points="244.988,1173.47 244.988,47.2441 "/>
<polyline clip-path="url(#clip250)" style="stroke:#000000; stroke-linecap:round; stroke-linejoin:round; stroke-width:4; stroke-opacity:1; fill:none" points="244.988,1039 263.886,1039 "/>
<polyline clip-path="url(#clip250)" style="stroke:#000000; stroke-linecap:round; stroke-linejoin:round; stroke-width:4; stroke-opacity:1; fill:none" points="244.988,773.271 263.886,773.271 "/>
<polyline clip-path="url(#clip250)" style="stroke:#000000; stroke-linecap:round; stroke-linejoin:round; stroke-width:4; stroke-opacity:1; fill:none" points="244.988,507.541 263.886,507.541 "/>
<polyline clip-path="url(#clip250)" style="stroke:#000000; stroke-linecap:round; stroke-linejoin:round; stroke-width:4; stroke-opacity:1; fill:none" points="244.988,241.81 263.886,241.81 "/>
<path clip-path="url(#clip250)" d="M127.197 1024.8 Q123.586 1024.8 121.758 1028.36 Q119.952 1031.91 119.952 1039.04 Q119.952 1046.14 121.758 1049.71 Q123.586 1053.25 127.197 1053.25 Q130.832 1053.25 132.637 1049.71 Q134.466 1046.14 134.466 1039.04 Q134.466 1031.91 132.637 1028.36 Q130.832 1024.8 127.197 1024.8 M127.197 1021.1 Q133.008 1021.1 136.063 1025.7 Q139.142 1030.29 139.142 1039.04 Q139.142 1047.76 136.063 1052.37 Q133.008 1056.95 127.197 1056.95 Q121.387 1056.95 118.309 1052.37 Q115.253 1047.76 115.253 1039.04 Q115.253 1030.29 118.309 1025.7 Q121.387 1021.1 127.197 1021.1 Z" fill="#000000" fill-rule="nonzero" fill-opacity="1" /><path clip-path="url(#clip250)" d="M147.359 1050.4 L152.244 1050.4 L152.244 1056.28 L147.359 1056.28 L147.359 1050.4 Z" fill="#000000" fill-rule="nonzero" fill-opacity="1" /><path clip-path="url(#clip250)" d="M172.429 1024.8 Q168.818 1024.8 166.989 1028.36 Q165.183 1031.91 165.183 1039.04 Q165.183 1046.14 166.989 1049.71 Q168.818 1053.25 172.429 1053.25 Q176.063 1053.25 177.869 1049.71 Q179.697 1046.14 179.697 1039.04 Q179.697 1031.91 177.869 1028.36 Q176.063 1024.8 172.429 1024.8 M172.429 1021.1 Q178.239 1021.1 181.294 1025.7 Q184.373 1030.29 184.373 1039.04 Q184.373 1047.76 181.294 1052.37 Q178.239 1056.95 172.429 1056.95 Q166.619 1056.95 163.54 1052.37 Q160.484 1047.76 160.484 1039.04 Q160.484 1030.29 163.54 1025.7 Q166.619 1021.1 172.429 1021.1 Z" fill="#000000" fill-rule="nonzero" fill-opacity="1" /><path clip-path="url(#clip250)" d="M193.401 1052.35 L201.04 1052.35 L201.04 1025.98 L192.73 1027.65 L192.73 1023.39 L200.993 1021.72 L205.669 1021.72 L205.669 1052.35 L213.308 1052.35 L213.308 1056.28 L193.401 1056.28 L193.401 1052.35 Z" fill="#000000" fill-rule="nonzero" fill-opacity="1" /><path clip-path="url(#clip250)" d="M127.568 759.069 Q123.957 759.069 122.128 762.634 Q120.323 766.176 120.323 773.305 Q120.323 780.412 122.128 783.977 Q123.957 787.518 127.568 787.518 Q131.202 787.518 133.008 783.977 Q134.836 780.412 134.836 773.305 Q134.836 766.176 133.008 762.634 Q131.202 759.069 127.568 759.069 M127.568 755.366 Q133.378 755.366 136.434 759.972 Q139.512 764.555 139.512 773.305 Q139.512 782.032 136.434 786.639 Q133.378 791.222 127.568 791.222 Q121.758 791.222 118.679 786.639 Q115.623 782.032 115.623 773.305 Q115.623 764.555 118.679 759.972 Q121.758 755.366 127.568 755.366 Z" fill="#000000" fill-rule="nonzero" fill-opacity="1" /><path clip-path="url(#clip250)" d="M147.73 784.671 L152.614 784.671 L152.614 790.551 L147.73 790.551 L147.73 784.671 Z" fill="#000000" fill-rule="nonzero" fill-opacity="1" /><path clip-path="url(#clip250)" d="M172.799 759.069 Q169.188 759.069 167.359 762.634 Q165.554 766.176 165.554 773.305 Q165.554 780.412 167.359 783.977 Q169.188 787.518 172.799 787.518 Q176.433 787.518 178.239 783.977 Q180.068 780.412 180.068 773.305 Q180.068 766.176 178.239 762.634 Q176.433 759.069 172.799 759.069 M172.799 755.366 Q178.609 755.366 181.665 759.972 Q184.743 764.555 184.743 773.305 Q184.743 782.032 181.665 786.639 Q178.609 791.222 172.799 791.222 Q166.989 791.222 163.91 786.639 Q160.855 782.032 160.855 773.305 Q160.855 764.555 163.91 759.972 Q166.989 755.366 172.799 755.366 Z" fill="#000000" fill-rule="nonzero" fill-opacity="1" /><path clip-path="url(#clip250)" d="M196.989 786.616 L213.308 786.616 L213.308 790.551 L191.364 790.551 L191.364 786.616 Q194.026 783.861 198.609 779.231 Q203.216 774.579 204.396 773.236 Q206.642 770.713 207.521 768.977 Q208.424 767.218 208.424 765.528 Q208.424 762.773 206.479 761.037 Q204.558 759.301 201.456 759.301 Q199.257 759.301 196.804 760.065 Q194.373 760.829 191.595 762.38 L191.595 757.657 Q194.419 756.523 196.873 755.944 Q199.327 755.366 201.364 755.366 Q206.734 755.366 209.929 758.051 Q213.123 760.736 213.123 765.227 Q213.123 767.356 212.313 769.278 Q211.526 771.176 209.419 773.768 Q208.841 774.44 205.739 777.657 Q202.637 780.852 196.989 786.616 Z" fill="#000000" fill-rule="nonzero" fill-opacity="1" /><path clip-path="url(#clip250)" d="M126.619 493.339 Q123.008 493.339 121.179 496.904 Q119.373 500.446 119.373 507.575 Q119.373 514.682 121.179 518.247 Q123.008 521.788 126.619 521.788 Q130.253 521.788 132.059 518.247 Q133.887 514.682 133.887 507.575 Q133.887 500.446 132.059 496.904 Q130.253 493.339 126.619 493.339 M126.619 489.636 Q132.429 489.636 135.484 494.242 Q138.563 498.825 138.563 507.575 Q138.563 516.302 135.484 520.909 Q132.429 525.492 126.619 525.492 Q120.809 525.492 117.73 520.909 Q114.674 516.302 114.674 507.575 Q114.674 498.825 117.73 494.242 Q120.809 489.636 126.619 489.636 Z" fill="#000000" fill-rule="nonzero" fill-opacity="1" /><path clip-path="url(#clip250)" d="M146.781 518.941 L151.665 518.941 L151.665 524.821 L146.781 524.821 L146.781 518.941 Z" fill="#000000" fill-rule="nonzero" fill-opacity="1" /><path clip-path="url(#clip250)" d="M171.85 493.339 Q168.239 493.339 166.41 496.904 Q164.605 500.446 164.605 507.575 Q164.605 514.682 166.41 518.247 Q168.239 521.788 171.85 521.788 Q175.484 521.788 177.29 518.247 Q179.119 514.682 179.119 507.575 Q179.119 500.446 177.29 496.904 Q175.484 493.339 171.85 493.339 M171.85 489.636 Q177.66 489.636 180.716 494.242 Q183.794 498.825 183.794 507.575 Q183.794 516.302 180.716 520.909 Q177.66 525.492 171.85 525.492 Q166.04 525.492 162.961 520.909 Q159.906 516.302 159.906 507.575 Q159.906 498.825 162.961 494.242 Q166.04 489.636 171.85 489.636 Z" fill="#000000" fill-rule="nonzero" fill-opacity="1" /><path clip-path="url(#clip250)" d="M206.179 506.186 Q209.535 506.904 211.41 509.172 Q213.308 511.441 213.308 514.774 Q213.308 519.89 209.79 522.691 Q206.271 525.492 199.79 525.492 Q197.614 525.492 195.299 525.052 Q193.007 524.635 190.554 523.779 L190.554 519.265 Q192.498 520.399 194.813 520.978 Q197.128 521.557 199.651 521.557 Q204.049 521.557 206.341 519.821 Q208.655 518.084 208.655 514.774 Q208.655 511.719 206.503 510.006 Q204.373 508.27 200.554 508.27 L196.526 508.27 L196.526 504.427 L200.739 504.427 Q204.188 504.427 206.017 503.061 Q207.845 501.673 207.845 499.08 Q207.845 496.418 205.947 495.006 Q204.072 493.571 200.554 493.571 Q198.632 493.571 196.433 493.987 Q194.234 494.404 191.595 495.284 L191.595 491.117 Q194.257 490.376 196.572 490.006 Q198.91 489.636 200.97 489.636 Q206.294 489.636 209.396 492.066 Q212.498 494.473 212.498 498.594 Q212.498 501.464 210.854 503.455 Q209.211 505.422 206.179 506.186 Z" fill="#000000" fill-rule="nonzero" fill-opacity="1" /><path clip-path="url(#clip250)" d="M125.485 227.609 Q121.873 227.609 120.045 231.174 Q118.239 234.716 118.239 241.845 Q118.239 248.952 120.045 252.516 Q121.873 256.058 125.485 256.058 Q129.119 256.058 130.924 252.516 Q132.753 248.952 132.753 241.845 Q132.753 234.716 130.924 231.174 Q129.119 227.609 125.485 227.609 M125.485 223.905 Q131.295 223.905 134.35 228.512 Q137.429 233.095 137.429 241.845 Q137.429 250.572 134.35 255.178 Q131.295 259.762 125.485 259.762 Q119.674 259.762 116.596 255.178 Q113.54 250.572 113.54 241.845 Q113.54 233.095 116.596 228.512 Q119.674 223.905 125.485 223.905 Z" fill="#000000" fill-rule="nonzero" fill-opacity="1" /><path clip-path="url(#clip250)" d="M145.646 253.211 L150.531 253.211 L150.531 259.09 L145.646 259.09 L145.646 253.211 Z" fill="#000000" fill-rule="nonzero" fill-opacity="1" /><path clip-path="url(#clip250)" d="M170.716 227.609 Q167.105 227.609 165.276 231.174 Q163.47 234.716 163.47 241.845 Q163.47 248.952 165.276 252.516 Q167.105 256.058 170.716 256.058 Q174.35 256.058 176.156 252.516 Q177.984 248.952 177.984 241.845 Q177.984 234.716 176.156 231.174 Q174.35 227.609 170.716 227.609 M170.716 223.905 Q176.526 223.905 179.581 228.512 Q182.66 233.095 182.66 241.845 Q182.66 250.572 179.581 255.178 Q176.526 259.762 170.716 259.762 Q164.906 259.762 161.827 255.178 Q158.771 250.572 158.771 241.845 Q158.771 233.095 161.827 228.512 Q164.906 223.905 170.716 223.905 Z" fill="#000000" fill-rule="nonzero" fill-opacity="1" /><path clip-path="url(#clip250)" d="M203.725 228.604 L191.919 247.053 L203.725 247.053 L203.725 228.604 M202.498 224.53 L208.378 224.53 L208.378 247.053 L213.308 247.053 L213.308 250.942 L208.378 250.942 L208.378 259.09 L203.725 259.09 L203.725 250.942 L188.123 250.942 L188.123 246.428 L202.498 224.53 Z" fill="#000000" fill-rule="nonzero" fill-opacity="1" /><path clip-path="url(#clip250)" d="M25.3677 772.046 L43.2235 772.046 L43.2235 763.962 Q43.2235 759.474 40.9 757.023 Q38.5765 754.573 34.2797 754.573 Q30.0147 754.573 27.6912 757.023 Q25.3677 759.474 25.3677 763.962 L25.3677 772.046 M20.0842 778.476 L20.0842 763.962 Q20.0842 755.973 23.7126 751.899 Q27.3092 747.793 34.2797 747.793 Q41.3138 747.793 44.9104 751.899 Q48.507 755.973 48.507 763.962 L48.507 772.046 L67.6042 772.046 L67.6042 778.476 L20.0842 778.476 Z" fill="#000000" fill-rule="nonzero" fill-opacity="1" /><path clip-path="url(#clip250)" d="M37.4307 719.911 Q36.8578 720.898 36.6032 722.076 Q36.3167 723.221 36.3167 724.622 Q36.3167 729.587 39.5632 732.261 Q42.7779 734.902 48.8253 734.902 L67.6042 734.902 L67.6042 740.791 L31.9562 740.791 L31.9562 734.902 L37.4944 734.902 Q34.2479 733.056 32.6883 730.096 Q31.0968 727.136 31.0968 722.903 Q31.0968 722.298 31.1923 721.566 Q31.256 720.834 31.4151 719.943 L37.4307 719.911 Z" fill="#000000" fill-rule="nonzero" fill-opacity="1" /><path clip-path="url(#clip250)" d="M36.0621 701.387 Q36.0621 706.098 39.7542 708.835 Q43.4145 711.572 49.812 711.572 Q56.2095 711.572 59.9017 708.867 Q63.5619 706.129 63.5619 701.387 Q63.5619 696.708 59.8698 693.971 Q56.1777 691.234 49.812 691.234 Q43.4781 691.234 39.786 693.971 Q36.0621 696.708 36.0621 701.387 M31.0968 701.387 Q31.0968 693.748 36.0621 689.388 Q41.0273 685.027 49.812 685.027 Q58.5649 685.027 63.5619 689.388 Q68.5272 693.748 68.5272 701.387 Q68.5272 709.058 63.5619 713.418 Q58.5649 717.747 49.812 717.747 Q41.0273 717.747 36.0621 713.418 Q31.0968 709.058 31.0968 701.387 Z" fill="#000000" fill-rule="nonzero" fill-opacity="1" /><path clip-path="url(#clip250)" d="M49.812 649.729 Q43.3508 649.729 39.6905 652.403 Q35.9984 655.045 35.9984 659.692 Q35.9984 664.339 39.6905 667.012 Q43.3508 669.654 49.812 669.654 Q56.2732 669.654 59.9653 667.012 Q63.6256 664.339 63.6256 659.692 Q63.6256 655.045 59.9653 652.403 Q56.2732 649.729 49.812 649.729 M37.3671 669.654 Q34.1842 667.808 32.6564 665.007 Q31.0968 662.174 31.0968 658.259 Q31.0968 651.766 36.2531 647.724 Q41.4093 643.65 49.812 643.65 Q58.2147 643.65 63.371 647.724 Q68.5272 651.766 68.5272 658.259 Q68.5272 662.174 66.9994 665.007 Q65.4398 667.808 62.257 669.654 L67.6042 669.654 L67.6042 675.542 L18.079 675.542 L18.079 669.654 L37.3671 669.654 Z" fill="#000000" fill-rule="nonzero" fill-opacity="1" /><path clip-path="url(#clip250)" d="M49.6847 617.742 Q49.6847 624.839 51.3079 627.577 Q52.9312 630.314 56.8461 630.314 Q59.9653 630.314 61.8114 628.277 Q63.6256 626.208 63.6256 622.675 Q63.6256 617.805 60.1881 614.877 Q56.7188 611.917 50.9897 611.917 L49.6847 611.917 L49.6847 617.742 M47.2657 606.061 L67.6042 606.061 L67.6042 611.917 L62.1933 611.917 Q65.4398 613.922 66.9994 616.914 Q68.5272 619.906 68.5272 624.235 Q68.5272 629.709 65.4716 632.956 Q62.3843 636.17 57.2281 636.17 Q51.2125 636.17 48.1569 632.16 Q45.1014 628.118 45.1014 620.129 L45.1014 611.917 L44.5285 611.917 Q40.4862 611.917 38.2901 614.591 Q36.0621 617.232 36.0621 622.038 Q36.0621 625.094 36.7941 627.99 Q37.5262 630.887 38.9903 633.56 L33.5795 633.56 Q32.3381 630.346 31.7334 627.322 Q31.0968 624.298 31.0968 621.434 Q31.0968 613.699 35.1072 609.88 Q39.1176 606.061 47.2657 606.061 Z" fill="#000000" fill-rule="nonzero" fill-opacity="1" /><path clip-path="url(#clip250)" d="M49.812 568.407 Q43.3508 568.407 39.6905 571.081 Q35.9984 573.723 35.9984 578.37 Q35.9984 583.017 39.6905 585.69 Q43.3508 588.332 49.812 588.332 Q56.2732 588.332 59.9653 585.69 Q63.6256 583.017 63.6256 578.37 Q63.6256 573.723 59.9653 571.081 Q56.2732 568.407 49.812 568.407 M37.3671 588.332 Q34.1842 586.486 32.6564 583.685 Q31.0968 580.852 31.0968 576.937 Q31.0968 570.444 36.2531 566.402 Q41.4093 562.328 49.812 562.328 Q58.2147 562.328 63.371 566.402 Q68.5272 570.444 68.5272 576.937 Q68.5272 580.852 66.9994 583.685 Q65.4398 586.486 62.257 588.332 L67.6042 588.332 L67.6042 594.22 L18.079 594.22 L18.079 588.332 L37.3671 588.332 Z" fill="#000000" fill-rule="nonzero" fill-opacity="1" /><path clip-path="url(#clip250)" d="M31.9562 552.62 L31.9562 546.764 L67.6042 546.764 L67.6042 552.62 L31.9562 552.62 M18.079 552.62 L18.079 546.764 L25.495 546.764 L25.495 552.62 L18.079 552.62 Z" fill="#000000" fill-rule="nonzero" fill-opacity="1" /><path clip-path="url(#clip250)" d="M18.079 534.51 L18.079 528.654 L67.6042 528.654 L67.6042 534.51 L18.079 534.51 Z" fill="#000000" fill-rule="nonzero" fill-opacity="1" /><path clip-path="url(#clip250)" d="M31.9562 516.4 L31.9562 510.543 L67.6042 510.543 L67.6042 516.4 L31.9562 516.4 M18.079 516.4 L18.079 510.543 L25.495 510.543 L25.495 516.4 L18.079 516.4 Z" fill="#000000" fill-rule="nonzero" fill-opacity="1" /><path clip-path="url(#clip250)" d="M21.8347 492.496 L31.9562 492.496 L31.9562 480.433 L36.5077 480.433 L36.5077 492.496 L55.8594 492.496 Q60.2199 492.496 61.4613 491.319 Q62.7026 490.109 62.7026 486.449 L62.7026 480.433 L67.6042 480.433 L67.6042 486.449 Q67.6042 493.228 65.0897 495.807 Q62.5434 498.385 55.8594 498.385 L36.5077 498.385 L36.5077 502.681 L31.9562 502.681 L31.9562 498.385 L21.8347 498.385 L21.8347 492.496 Z" fill="#000000" fill-rule="nonzero" fill-opacity="1" /><path clip-path="url(#clip250)" d="M70.9143 457.899 Q77.28 460.381 79.2216 462.737 Q81.1631 465.092 81.1631 469.039 L81.1631 473.718 L76.2615 473.718 L76.2615 470.28 Q76.2615 467.861 75.1157 466.524 Q73.9699 465.187 69.7048 463.564 L67.0312 462.514 L31.9562 476.932 L31.9562 470.726 L59.838 459.586 L31.9562 448.446 L31.9562 442.239 L70.9143 457.899 Z" fill="#000000" fill-rule="nonzero" fill-opacity="1" /><polyline clip-path="url(#clip251)" style="stroke:#009af9; stroke-linecap:round; stroke-linejoin:round; stroke-width:8; stroke-opacity:1; fill:none" points="296.491,773.271 331.527,773.271 366.563,773.271 401.599,773.271 436.635,773.271 471.671,773.271 506.707,773.271 541.743,773.271 576.779,773.271 611.815,773.271 646.851,773.271 681.887,773.271 716.923,773.271 751.958,773.271 786.994,773.271 822.03,773.271 857.066,773.271 892.102,773.271 927.138,773.271 962.174,773.271 997.21,773.271 1032.25,773.271 1067.28,773.271 1102.32,773.271 1137.35,773.271 1172.39,773.271 1207.43,773.271 1242.46,773.271 1277.5,773.271 1312.53,773.271 1347.57,773.271 1382.61,773.271 1417.64,773.271 1452.68,773.271 1487.71,773.271 1522.75,773.271 1557.79,773.271 1592.82,773.271 1627.86,773.271 1662.89,773.271 1697.93,773.271 1732.97,773.271 1768,773.271 1803.04,773.271 1838.07,773.271 1873.11,773.271 1908.15,773.271 1943.18,773.271 1978.22,773.271 2013.25,773.271 "/>
<polyline clip-path="url(#clip251)" style="stroke:#e26f46; stroke-linecap:round; stroke-linejoin:round; stroke-width:8; stroke-opacity:1; fill:none" points="296.491,79.1184 331.527,164.117 366.563,245.573 401.599,323.488 436.635,397.862 471.671,468.694 506.707,535.984 541.743,599.733 576.779,659.94 611.815,716.605 646.851,769.729 681.887,819.311 716.923,865.352 751.958,907.851 786.994,946.809 822.03,982.225 857.066,1014.1 892.102,1042.43 927.138,1067.22 962.174,1088.47 997.21,1106.18 1032.25,1120.35 1067.28,1130.97 1102.32,1138.05 1137.35,1141.6 1172.39,1141.6 1207.43,1138.05 1242.46,1130.97 1277.5,1120.35 1312.53,1106.18 1347.57,1088.47 1382.61,1067.22 1417.64,1042.43 1452.68,1014.1 1487.71,982.225 1522.75,946.809 1557.79,907.851 1592.82,865.352 1627.86,819.311 1662.89,769.729 1697.93,716.605 1732.97,659.94 1768,599.733 1803.04,535.984 1838.07,468.694 1873.11,397.862 1908.15,323.488 1943.18,245.573 1978.22,164.117 2013.25,79.1184 "/>
<path clip-path="url(#clip250)" d="M1429.92 1135.93 L2004.1 1135.93 L2004.1 980.41 L1429.92 980.41  Z" fill="#ffffff" fill-rule="evenodd" fill-opacity="1"/>
<polyline clip-path="url(#clip250)" style="stroke:#000000; stroke-linecap:round; stroke-linejoin:round; stroke-width:4; stroke-opacity:1; fill:none" points="1429.92,1135.93 2004.1,1135.93 2004.1,980.41 1429.92,980.41 1429.92,1135.93 "/>
<polyline clip-path="url(#clip250)" style="stroke:#009af9; stroke-linecap:round; stroke-linejoin:round; stroke-width:8; stroke-opacity:1; fill:none" points="1450.14,1032.25 1571.46,1032.25 "/>
<path clip-path="url(#clip250)" d="M1595.96 1045.64 L1595.96 1059.39 L1591.68 1059.39 L1591.68 1023.6 L1595.96 1023.6 L1595.96 1027.54 Q1597.31 1025.22 1599.34 1024.11 Q1601.4 1022.98 1604.25 1022.98 Q1608.97 1022.98 1611.91 1026.73 Q1614.87 1030.48 1614.87 1036.59 Q1614.87 1042.7 1611.91 1046.45 Q1608.97 1050.2 1604.25 1050.2 Q1601.4 1050.2 1599.34 1049.09 Q1597.31 1047.96 1595.96 1045.64 M1610.45 1036.59 Q1610.45 1031.89 1608.51 1029.23 Q1606.59 1026.54 1603.21 1026.54 Q1599.83 1026.54 1597.88 1029.23 Q1595.96 1031.89 1595.96 1036.59 Q1595.96 1041.29 1597.88 1043.97 Q1599.83 1046.64 1603.21 1046.64 Q1606.59 1046.64 1608.51 1043.97 Q1610.45 1041.29 1610.45 1036.59 Z" fill="#000000" fill-rule="nonzero" fill-opacity="1" /><path clip-path="url(#clip250)" d="M1647.24 1013.56 Q1644.13 1018.88 1642.63 1024.09 Q1641.12 1029.3 1641.12 1034.65 Q1641.12 1039.99 1642.63 1045.25 Q1644.16 1050.48 1647.24 1055.78 L1643.53 1055.78 Q1640.06 1050.34 1638.32 1045.09 Q1636.61 1039.83 1636.61 1034.65 Q1636.61 1029.48 1638.32 1024.25 Q1640.04 1019.02 1643.53 1013.56 L1647.24 1013.56 Z" fill="#000000" fill-rule="nonzero" fill-opacity="1" /><path clip-path="url(#clip250)" d="M1665.55 1026.59 Q1662.12 1026.59 1660.13 1029.28 Q1658.14 1031.94 1658.14 1036.59 Q1658.14 1041.24 1660.11 1043.93 Q1662.1 1046.59 1665.55 1046.59 Q1668.95 1046.59 1670.94 1043.9 Q1672.93 1041.22 1672.93 1036.59 Q1672.93 1031.98 1670.94 1029.3 Q1668.95 1026.59 1665.55 1026.59 M1665.55 1022.98 Q1671.1 1022.98 1674.27 1026.59 Q1677.44 1030.2 1677.44 1036.59 Q1677.44 1042.96 1674.27 1046.59 Q1671.1 1050.2 1665.55 1050.2 Q1659.97 1050.2 1656.8 1046.59 Q1653.65 1042.96 1653.65 1036.59 Q1653.65 1030.2 1656.8 1026.59 Q1659.97 1022.98 1665.55 1022.98 Z" fill="#000000" fill-rule="nonzero" fill-opacity="1" /><path clip-path="url(#clip250)" d="M1699.53 1027.59 Q1698.81 1027.17 1697.95 1026.98 Q1697.12 1026.78 1696.1 1026.78 Q1692.49 1026.78 1690.55 1029.14 Q1688.62 1031.47 1688.62 1035.87 L1688.62 1049.53 L1684.34 1049.53 L1684.34 1023.6 L1688.62 1023.6 L1688.62 1027.63 Q1689.97 1025.27 1692.12 1024.14 Q1694.27 1022.98 1697.35 1022.98 Q1697.79 1022.98 1698.32 1023.05 Q1698.86 1023.09 1699.5 1023.21 L1699.53 1027.59 Z" fill="#000000" fill-rule="nonzero" fill-opacity="1" /><path clip-path="url(#clip250)" d="M1703.99 1023.6 L1708.25 1023.6 L1708.25 1049.53 L1703.99 1049.53 L1703.99 1023.6 M1703.99 1013.51 L1708.25 1013.51 L1708.25 1018.91 L1703.99 1018.91 L1703.99 1013.51 Z" fill="#000000" fill-rule="nonzero" fill-opacity="1" /><path clip-path="url(#clip250)" d="M1734.23 1036.27 Q1734.23 1031.64 1732.3 1029.09 Q1730.41 1026.54 1726.96 1026.54 Q1723.53 1026.54 1721.61 1029.09 Q1719.71 1031.64 1719.71 1036.27 Q1719.71 1040.87 1721.61 1043.42 Q1723.53 1045.97 1726.96 1045.97 Q1730.41 1045.97 1732.3 1043.42 Q1734.23 1040.87 1734.23 1036.27 M1738.49 1046.31 Q1738.49 1052.93 1735.55 1056.15 Q1732.61 1059.39 1726.54 1059.39 Q1724.3 1059.39 1722.3 1059.04 Q1720.31 1058.72 1718.44 1058.03 L1718.44 1053.88 Q1720.31 1054.9 1722.14 1055.39 Q1723.97 1055.87 1725.87 1055.87 Q1730.06 1055.87 1732.14 1053.67 Q1734.23 1051.5 1734.23 1047.08 L1734.23 1044.97 Q1732.91 1047.26 1730.85 1048.4 Q1728.79 1049.53 1725.92 1049.53 Q1721.15 1049.53 1718.23 1045.9 Q1715.31 1042.26 1715.31 1036.27 Q1715.31 1030.25 1718.23 1026.61 Q1721.15 1022.98 1725.92 1022.98 Q1728.79 1022.98 1730.85 1024.11 Q1732.91 1025.25 1734.23 1027.54 L1734.23 1023.6 L1738.49 1023.6 L1738.49 1046.31 Z" fill="#000000" fill-rule="nonzero" fill-opacity="1" /><path clip-path="url(#clip250)" d="M1747.26 1023.6 L1751.52 1023.6 L1751.52 1049.53 L1747.26 1049.53 L1747.26 1023.6 M1747.26 1013.51 L1751.52 1013.51 L1751.52 1018.91 L1747.26 1018.91 L1747.26 1013.51 Z" fill="#000000" fill-rule="nonzero" fill-opacity="1" /><path clip-path="url(#clip250)" d="M1781.98 1033.88 L1781.98 1049.53 L1777.72 1049.53 L1777.72 1034.02 Q1777.72 1030.34 1776.29 1028.51 Q1774.85 1026.68 1771.98 1026.68 Q1768.53 1026.68 1766.54 1028.88 Q1764.55 1031.08 1764.55 1034.88 L1764.55 1049.53 L1760.27 1049.53 L1760.27 1023.6 L1764.55 1023.6 L1764.55 1027.63 Q1766.08 1025.29 1768.14 1024.14 Q1770.22 1022.98 1772.93 1022.98 Q1777.4 1022.98 1779.69 1025.76 Q1781.98 1028.51 1781.98 1033.88 Z" fill="#000000" fill-rule="nonzero" fill-opacity="1" /><path clip-path="url(#clip250)" d="M1802.26 1036.5 Q1797.1 1036.5 1795.11 1037.68 Q1793.11 1038.86 1793.11 1041.71 Q1793.11 1043.97 1794.6 1045.32 Q1796.1 1046.64 1798.67 1046.64 Q1802.21 1046.64 1804.34 1044.14 Q1806.49 1041.61 1806.49 1037.45 L1806.49 1036.5 L1802.26 1036.5 M1810.75 1034.74 L1810.75 1049.53 L1806.49 1049.53 L1806.49 1045.59 Q1805.04 1047.96 1802.86 1049.09 Q1800.68 1050.2 1797.54 1050.2 Q1793.55 1050.2 1791.19 1047.98 Q1788.86 1045.73 1788.86 1041.98 Q1788.86 1037.61 1791.77 1035.39 Q1794.71 1033.16 1800.52 1033.16 L1806.49 1033.16 L1806.49 1032.75 Q1806.49 1029.81 1804.55 1028.21 Q1802.63 1026.59 1799.13 1026.59 Q1796.91 1026.59 1794.8 1027.12 Q1792.7 1027.65 1790.75 1028.72 L1790.75 1024.78 Q1793.09 1023.88 1795.29 1023.44 Q1797.49 1022.98 1799.57 1022.98 Q1805.2 1022.98 1807.98 1025.9 Q1810.75 1028.81 1810.75 1034.74 Z" fill="#000000" fill-rule="nonzero" fill-opacity="1" /><path clip-path="url(#clip250)" d="M1819.53 1013.51 L1823.79 1013.51 L1823.79 1049.53 L1819.53 1049.53 L1819.53 1013.51 Z" fill="#000000" fill-rule="nonzero" fill-opacity="1" /><path clip-path="url(#clip250)" d="M1832.03 1013.56 L1835.73 1013.56 Q1839.2 1019.02 1840.92 1024.25 Q1842.65 1029.48 1842.65 1034.65 Q1842.65 1039.83 1840.92 1045.09 Q1839.2 1050.34 1835.73 1055.78 L1832.03 1055.78 Q1835.1 1050.48 1836.61 1045.25 Q1838.14 1039.99 1838.14 1034.65 Q1838.14 1029.3 1836.61 1024.09 Q1835.1 1018.88 1832.03 1013.56 Z" fill="#000000" fill-rule="nonzero" fill-opacity="1" /><polyline clip-path="url(#clip250)" style="stroke:#e26f46; stroke-linecap:round; stroke-linejoin:round; stroke-width:8; stroke-opacity:1; fill:none" points="1450.14,1084.09 1571.46,1084.09 "/>
<path clip-path="url(#clip250)" d="M1595.96 1097.48 L1595.96 1111.23 L1591.68 1111.23 L1591.68 1075.44 L1595.96 1075.44 L1595.96 1079.38 Q1597.31 1077.06 1599.34 1075.95 Q1601.4 1074.82 1604.25 1074.82 Q1608.97 1074.82 1611.91 1078.57 Q1614.87 1082.32 1614.87 1088.43 Q1614.87 1094.54 1611.91 1098.29 Q1608.97 1102.04 1604.25 1102.04 Q1601.4 1102.04 1599.34 1100.93 Q1597.31 1099.8 1595.96 1097.48 M1610.45 1088.43 Q1610.45 1083.73 1608.51 1081.07 Q1606.59 1078.38 1603.21 1078.38 Q1599.83 1078.38 1597.88 1081.07 Q1595.96 1083.73 1595.96 1088.43 Q1595.96 1093.13 1597.88 1095.81 Q1599.83 1098.48 1603.21 1098.48 Q1606.59 1098.48 1608.51 1095.81 Q1610.45 1093.13 1610.45 1088.43 Z" fill="#000000" fill-rule="nonzero" fill-opacity="1" /><path clip-path="url(#clip250)" d="M1623.67 1098.73 L1633.49 1098.73 L1633.49 1101.37 L1619.64 1101.37 L1619.64 1098.82 Q1620.43 1098.11 1621.89 1096.81 Q1629.85 1089.75 1629.85 1087.57 Q1629.85 1086.05 1628.65 1085.12 Q1627.44 1084.17 1625.48 1084.17 Q1624.27 1084.17 1622.86 1084.59 Q1621.45 1084.98 1619.78 1085.79 L1619.78 1082.94 Q1621.56 1082.3 1623.09 1081.97 Q1624.64 1081.65 1625.96 1081.65 Q1629.32 1081.65 1631.33 1083.18 Q1633.35 1084.7 1633.35 1087.2 Q1633.35 1090.42 1625.68 1096.99 Q1624.39 1098.11 1623.67 1098.73 Z" fill="#000000" fill-rule="nonzero" fill-opacity="1" /><path clip-path="url(#clip250)" d="M1666.24 1065.4 Q1663.14 1070.72 1661.63 1075.93 Q1660.13 1081.14 1660.13 1086.49 Q1660.13 1091.83 1661.63 1097.09 Q1663.16 1102.32 1666.24 1107.62 L1662.54 1107.62 Q1659.06 1102.18 1657.33 1096.93 Q1655.62 1091.67 1655.62 1086.49 Q1655.62 1081.32 1657.33 1076.09 Q1659.04 1070.86 1662.54 1065.4 L1666.24 1065.4 Z" fill="#000000" fill-rule="nonzero" fill-opacity="1" /><path clip-path="url(#clip250)" d="M1694.69 1080.42 Q1696.29 1077.55 1698.51 1076.18 Q1700.73 1074.82 1703.74 1074.82 Q1707.79 1074.82 1709.99 1077.67 Q1712.19 1080.49 1712.19 1085.72 L1712.19 1101.37 L1707.91 1101.37 L1707.91 1085.86 Q1707.91 1082.13 1706.59 1080.33 Q1705.27 1078.52 1702.56 1078.52 Q1699.25 1078.52 1697.33 1080.72 Q1695.41 1082.92 1695.41 1086.72 L1695.41 1101.37 L1691.12 1101.37 L1691.12 1085.86 Q1691.12 1082.11 1689.8 1080.33 Q1688.49 1078.52 1685.73 1078.52 Q1682.47 1078.52 1680.55 1080.74 Q1678.62 1082.94 1678.62 1086.72 L1678.62 1101.37 L1674.34 1101.37 L1674.34 1075.44 L1678.62 1075.44 L1678.62 1079.47 Q1680.08 1077.09 1682.12 1075.95 Q1684.16 1074.82 1686.96 1074.82 Q1689.78 1074.82 1691.75 1076.25 Q1693.74 1077.69 1694.69 1080.42 Z" fill="#000000" fill-rule="nonzero" fill-opacity="1" /><path clip-path="url(#clip250)" d="M1730.73 1078.43 Q1727.3 1078.43 1725.31 1081.12 Q1723.32 1083.78 1723.32 1088.43 Q1723.32 1093.08 1725.29 1095.77 Q1727.28 1098.43 1730.73 1098.43 Q1734.13 1098.43 1736.12 1095.74 Q1738.11 1093.06 1738.11 1088.43 Q1738.11 1083.82 1736.12 1081.14 Q1734.13 1078.43 1730.73 1078.43 M1730.73 1074.82 Q1736.29 1074.82 1739.46 1078.43 Q1742.63 1082.04 1742.63 1088.43 Q1742.63 1094.8 1739.46 1098.43 Q1736.29 1102.04 1730.73 1102.04 Q1725.15 1102.04 1721.98 1098.43 Q1718.83 1094.8 1718.83 1088.43 Q1718.83 1082.04 1721.98 1078.43 Q1725.15 1074.82 1730.73 1074.82 Z" fill="#000000" fill-rule="nonzero" fill-opacity="1" /><path clip-path="url(#clip250)" d="M1764.71 1079.43 Q1763.99 1079.01 1763.14 1078.82 Q1762.3 1078.62 1761.29 1078.62 Q1757.67 1078.62 1755.73 1080.98 Q1753.81 1083.31 1753.81 1087.71 L1753.81 1101.37 L1749.53 1101.37 L1749.53 1075.44 L1753.81 1075.44 L1753.81 1079.47 Q1755.15 1077.11 1757.3 1075.98 Q1759.46 1074.82 1762.54 1074.82 Q1762.98 1074.82 1763.51 1074.89 Q1764.04 1074.93 1764.69 1075.05 L1764.71 1079.43 Z" fill="#000000" fill-rule="nonzero" fill-opacity="1" /><path clip-path="url(#clip250)" d="M1790.31 1087.34 L1790.31 1089.43 L1770.73 1089.43 Q1771.01 1093.82 1773.37 1096.14 Q1775.75 1098.43 1779.99 1098.43 Q1782.44 1098.43 1784.73 1097.83 Q1787.05 1097.23 1789.32 1096.02 L1789.32 1100.05 Q1787.03 1101.02 1784.62 1101.53 Q1782.21 1102.04 1779.73 1102.04 Q1773.53 1102.04 1769.9 1098.43 Q1766.29 1094.82 1766.29 1088.66 Q1766.29 1082.3 1769.71 1078.57 Q1773.16 1074.82 1778.99 1074.82 Q1784.23 1074.82 1787.26 1078.2 Q1790.31 1081.56 1790.31 1087.34 M1786.05 1086.09 Q1786.01 1082.6 1784.09 1080.51 Q1782.19 1078.43 1779.04 1078.43 Q1775.48 1078.43 1773.32 1080.44 Q1771.19 1082.46 1770.87 1086.12 L1786.05 1086.09 Z" fill="#000000" fill-rule="nonzero" fill-opacity="1" /><path clip-path="url(#clip250)" d="M1828.9 1076.21 L1828.9 1080.24 Q1827.1 1079.31 1825.15 1078.85 Q1823.21 1078.38 1821.12 1078.38 Q1817.95 1078.38 1816.36 1079.36 Q1814.78 1080.33 1814.78 1082.27 Q1814.78 1083.75 1815.92 1084.61 Q1817.05 1085.44 1820.48 1086.21 L1821.93 1086.53 Q1826.47 1087.5 1828.37 1089.29 Q1830.29 1091.05 1830.29 1094.22 Q1830.29 1097.83 1827.42 1099.93 Q1824.57 1102.04 1819.57 1102.04 Q1817.49 1102.04 1815.22 1101.62 Q1812.98 1101.23 1810.48 1100.42 L1810.48 1096.02 Q1812.84 1097.25 1815.13 1097.87 Q1817.42 1098.48 1819.67 1098.48 Q1822.67 1098.48 1824.29 1097.46 Q1825.92 1096.42 1825.92 1094.54 Q1825.92 1092.81 1824.73 1091.88 Q1823.58 1090.95 1819.62 1090.1 L1818.14 1089.75 Q1814.18 1088.92 1812.42 1087.2 Q1810.66 1085.47 1810.66 1082.46 Q1810.66 1078.8 1813.25 1076.81 Q1815.85 1074.82 1820.61 1074.82 Q1822.98 1074.82 1825.06 1075.17 Q1827.14 1075.51 1828.9 1076.21 Z" fill="#000000" fill-rule="nonzero" fill-opacity="1" /><path clip-path="url(#clip250)" d="M1841.19 1097.48 L1841.19 1111.23 L1836.91 1111.23 L1836.91 1075.44 L1841.19 1075.44 L1841.19 1079.38 Q1842.54 1077.06 1844.57 1075.95 Q1846.63 1074.82 1849.48 1074.82 Q1854.2 1074.82 1857.14 1078.57 Q1860.1 1082.32 1860.1 1088.43 Q1860.1 1094.54 1857.14 1098.29 Q1854.2 1102.04 1849.48 1102.04 Q1846.63 1102.04 1844.57 1100.93 Q1842.54 1099.8 1841.19 1097.48 M1855.68 1088.43 Q1855.68 1083.73 1853.74 1081.07 Q1851.82 1078.38 1848.44 1078.38 Q1845.06 1078.38 1843.11 1081.07 Q1841.19 1083.73 1841.19 1088.43 Q1841.19 1093.13 1843.11 1095.81 Q1845.06 1098.48 1848.44 1098.48 Q1851.82 1098.48 1853.74 1095.81 Q1855.68 1093.13 1855.68 1088.43 Z" fill="#000000" fill-rule="nonzero" fill-opacity="1" /><path clip-path="url(#clip250)" d="M1882.19 1079.43 Q1881.47 1079.01 1880.61 1078.82 Q1879.78 1078.62 1878.76 1078.62 Q1875.15 1078.62 1873.21 1080.98 Q1871.29 1083.31 1871.29 1087.71 L1871.29 1101.37 L1867 1101.37 L1867 1075.44 L1871.29 1075.44 L1871.29 1079.47 Q1872.63 1077.11 1874.78 1075.98 Q1876.93 1074.82 1880.01 1074.82 Q1880.45 1074.82 1880.98 1074.89 Q1881.52 1074.93 1882.16 1075.05 L1882.19 1079.43 Z" fill="#000000" fill-rule="nonzero" fill-opacity="1" /><path clip-path="url(#clip250)" d="M1907.79 1087.34 L1907.79 1089.43 L1888.21 1089.43 Q1888.48 1093.82 1890.85 1096.14 Q1893.23 1098.43 1897.47 1098.43 Q1899.92 1098.43 1902.21 1097.83 Q1904.53 1097.23 1906.79 1096.02 L1906.79 1100.05 Q1904.5 1101.02 1902.1 1101.53 Q1899.69 1102.04 1897.21 1102.04 Q1891.01 1102.04 1887.37 1098.43 Q1883.76 1094.82 1883.76 1088.66 Q1883.76 1082.3 1887.19 1078.57 Q1890.64 1074.82 1896.47 1074.82 Q1901.7 1074.82 1904.73 1078.2 Q1907.79 1081.56 1907.79 1087.34 M1903.53 1086.09 Q1903.48 1082.6 1901.56 1080.51 Q1899.66 1078.43 1896.52 1078.43 Q1892.95 1078.43 1890.8 1080.44 Q1888.67 1082.46 1888.35 1086.12 L1903.53 1086.09 Z" fill="#000000" fill-rule="nonzero" fill-opacity="1" /><path clip-path="url(#clip250)" d="M1926.56 1088.34 Q1921.4 1088.34 1919.41 1089.52 Q1917.42 1090.7 1917.42 1093.55 Q1917.42 1095.81 1918.9 1097.16 Q1920.41 1098.48 1922.97 1098.48 Q1926.52 1098.48 1928.65 1095.98 Q1930.8 1093.45 1930.8 1089.29 L1930.8 1088.34 L1926.56 1088.34 M1935.06 1086.58 L1935.06 1101.37 L1930.8 1101.37 L1930.8 1097.43 Q1929.34 1099.8 1927.16 1100.93 Q1924.99 1102.04 1921.84 1102.04 Q1917.86 1102.04 1915.5 1099.82 Q1913.16 1097.57 1913.16 1093.82 Q1913.16 1089.45 1916.08 1087.23 Q1919.02 1085 1924.83 1085 L1930.8 1085 L1930.8 1084.59 Q1930.8 1081.65 1928.85 1080.05 Q1926.93 1078.43 1923.44 1078.43 Q1921.22 1078.43 1919.11 1078.96 Q1917 1079.49 1915.06 1080.56 L1915.06 1076.62 Q1917.4 1075.72 1919.6 1075.28 Q1921.79 1074.82 1923.88 1074.82 Q1929.5 1074.82 1932.28 1077.74 Q1935.06 1080.65 1935.06 1086.58 Z" fill="#000000" fill-rule="nonzero" fill-opacity="1" /><path clip-path="url(#clip250)" d="M1960.89 1079.38 L1960.89 1065.35 L1965.15 1065.35 L1965.15 1101.37 L1960.89 1101.37 L1960.89 1097.48 Q1959.55 1099.8 1957.49 1100.93 Q1955.45 1102.04 1952.58 1102.04 Q1947.88 1102.04 1944.92 1098.29 Q1941.98 1094.54 1941.98 1088.43 Q1941.98 1082.32 1944.92 1078.57 Q1947.88 1074.82 1952.58 1074.82 Q1955.45 1074.82 1957.49 1075.95 Q1959.55 1077.06 1960.89 1079.38 M1946.38 1088.43 Q1946.38 1093.13 1948.3 1095.81 Q1950.24 1098.48 1953.62 1098.48 Q1957 1098.48 1958.95 1095.81 Q1960.89 1093.13 1960.89 1088.43 Q1960.89 1083.73 1958.95 1081.07 Q1957 1078.38 1953.62 1078.38 Q1950.24 1078.38 1948.3 1081.07 Q1946.38 1083.73 1946.38 1088.43 Z" fill="#000000" fill-rule="nonzero" fill-opacity="1" /><path clip-path="url(#clip250)" d="M1973.25 1065.4 L1976.96 1065.4 Q1980.43 1070.86 1982.14 1076.09 Q1983.88 1081.32 1983.88 1086.49 Q1983.88 1091.67 1982.14 1096.93 Q1980.43 1102.18 1976.96 1107.62 L1973.25 1107.62 Q1976.33 1102.32 1977.84 1097.09 Q1979.36 1091.83 1979.36 1086.49 Q1979.36 1081.14 1977.84 1075.93 Q1976.33 1070.72 1973.25 1065.4 Z" fill="#000000" fill-rule="nonzero" fill-opacity="1" /></svg>
