<?xml version="1.0" encoding="utf-8"?>
<svg xmlns="http://www.w3.org/2000/svg" xmlns:xlink="http://www.w3.org/1999/xlink" width="528" height="336" viewBox="0 0 2112 1344">
<defs>
  <clipPath id="clip070">
    <rect x="0" y="0" width="2112" height="1344"/>
  </clipPath>
</defs>
<path clip-path="url(#clip070)" d="M0 1344 L2112 1344 L2112 2.13163e-14 L0 2.13163e-14  Z" fill="#ffffff" fill-rule="evenodd" fill-opacity="1"/>
<defs>
  <clipPath id="clip071">
    <rect x="229" y="47" width="1837" height="1127"/>
  </clipPath>
</defs>
<path clip-path="url(#clip070)" d="M229.085 1173.47 L2064.76 1173.47 L2064.76 47.2441 L229.085 47.2441  Z" fill="#ffffff" fill-rule="evenodd" fill-opacity="1"/>
<polyline clip-path="url(#clip071)" style="stroke:#000000; stroke-linecap:round; stroke-linejoin:round; stroke-width:2; stroke-opacity:0.1; fill:none" points="473.457,1173.47 473.457,47.2441 "/>
<polyline clip-path="url(#clip071)" style="stroke:#000000; stroke-linecap:round; stroke-linejoin:round; stroke-width:2; stroke-opacity:0.1; fill:none" points="858.293,1173.47 858.293,47.2441 "/>
<polyline clip-path="url(#clip071)" style="stroke:#000000; stroke-linecap:round; stroke-linejoin:round; stroke-width:2; stroke-opacity:0.1; fill:none" points="1243.13,1173.47 1243.13,47.2441 "/>
<polyline clip-path="url(#clip071)" style="stroke:#000000; stroke-linecap:round; stroke-linejoin:round; stroke-width:2; stroke-opacity:0.1; fill:none" points="1627.97,1173.47 1627.97,47.2441 "/>
<polyline clip-path="url(#clip071)" style="stroke:#000000; stroke-linecap:round; stroke-linejoin:round; stroke-width:2; stroke-opacity:0.1; fill:none" points="2012.8,1173.47 2012.8,47.2441 "/>
<polyline clip-path="url(#clip071)" style="stroke:#000000; stroke-linecap:round; stroke-linejoin:round; stroke-width:2; stroke-opacity:0.1; fill:none" points="229.085,1097.06 2064.76,1097.06 "/>
<polyline clip-path="url(#clip071)" style="stroke:#000000; stroke-linecap:round; stroke-linejoin:round; stroke-width:2; stroke-opacity:0.1; fill:none" points="229.085,842.574 2064.76,842.574 "/>
<polyline clip-path="url(#clip071)" style="stroke:#000000; stroke-linecap:round; stroke-linejoin:round; stroke-width:2; stroke-opacity:0.1; fill:none" points="229.085,588.089 2064.76,588.089 "/>
<polyline clip-path="url(#clip071)" style="stroke:#000000; stroke-linecap:round; stroke-linejoin:round; stroke-width:2; stroke-opacity:0.1; fill:none" points="229.085,333.604 2064.76,333.604 "/>
<polyline clip-path="url(#clip071)" style="stroke:#000000; stroke-linecap:round; stroke-linejoin:round; stroke-width:2; stroke-opacity:0.1; fill:none" points="229.085,79.1184 2064.76,79.1184 "/>
<polyline clip-path="url(#clip070)" style="stroke:#000000; stroke-linecap:round; stroke-linejoin:round; stroke-width:4; stroke-opacity:1; fill:none" points="229.085,1173.47 2064.76,1173.47 "/>
<polyline clip-path="url(#clip070)" style="stroke:#000000; stroke-linecap:round; stroke-linejoin:round; stroke-width:4; stroke-opacity:1; fill:none" points="473.457,1173.47 473.457,1154.57 "/>
<polyline clip-path="url(#clip070)" style="stroke:#000000; stroke-linecap:round; stroke-linejoin:round; stroke-width:4; stroke-opacity:1; fill:none" points="858.293,1173.47 858.293,1154.57 "/>
<polyline clip-path="url(#clip070)" style="stroke:#000000; stroke-linecap:round; stroke-linejoin:round; stroke-width:4; stroke-opacity:1; fill:none" points="1243.13,1173.47 1243.13,1154.57 "/>
<polyline clip-path="url(#clip070)" style="stroke:#000000; stroke-linecap:round; stroke-linejoin:round; stroke-width:4; stroke-opacity:1; fill:none" points="1627.97,1173.47 1627.97,1154.57 "/>
<polyline clip-path="url(#clip070)" style="stroke:#000000; stroke-linecap:round; stroke-linejoin:round; stroke-width:4; stroke-opacity:1; fill:none" points="2012.8,1173.47 2012.8,1154.57 "/>
<path clip-path="url(#clip070)" d="M468.109 1229.63 L484.429 1229.63 L484.429 1233.57 L462.485 1233.57 L462.485 1229.63 Q465.147 1226.88 469.73 1222.25 Q474.336 1217.59 475.517 1216.25 Q477.762 1213.73 478.642 1211.99 Q479.545 1210.23 479.545 1208.54 Q479.545 1205.79 477.6 1204.05 Q475.679 1202.32 472.577 1202.32 Q470.378 1202.32 467.924 1203.08 Q465.494 1203.84 462.716 1205.4 L462.716 1200.67 Q465.54 1199.54 467.994 1198.96 Q470.447 1198.38 472.484 1198.38 Q477.855 1198.38 481.049 1201.07 Q484.244 1203.75 484.244 1208.24 Q484.244 1210.37 483.433 1212.29 Q482.646 1214.19 480.54 1216.78 Q479.961 1217.46 476.859 1220.67 Q473.758 1223.87 468.109 1229.63 Z" fill="#000000" fill-rule="nonzero" fill-opacity="1" /><path clip-path="url(#clip070)" d="M861.302 1203.08 L849.497 1221.53 L861.302 1221.53 L861.302 1203.08 M860.076 1199.01 L865.955 1199.01 L865.955 1221.53 L870.886 1221.53 L870.886 1225.42 L865.955 1225.42 L865.955 1233.57 L861.302 1233.57 L861.302 1225.42 L845.701 1225.42 L845.701 1220.9 L860.076 1199.01 Z" fill="#000000" fill-rule="nonzero" fill-opacity="1" /><path clip-path="url(#clip070)" d="M1243.53 1214.42 Q1240.39 1214.42 1238.53 1216.58 Q1236.71 1218.73 1236.71 1222.48 Q1236.71 1226.21 1238.53 1228.38 Q1240.39 1230.53 1243.53 1230.53 Q1246.68 1230.53 1248.51 1228.38 Q1250.36 1226.21 1250.36 1222.48 Q1250.36 1218.73 1248.51 1216.58 Q1246.68 1214.42 1243.53 1214.42 M1252.82 1199.77 L1252.82 1204.03 Q1251.06 1203.2 1249.25 1202.76 Q1247.47 1202.32 1245.71 1202.32 Q1241.08 1202.32 1238.63 1205.44 Q1236.2 1208.57 1235.85 1214.89 Q1237.22 1212.87 1239.28 1211.81 Q1241.34 1210.72 1243.81 1210.72 Q1249.02 1210.72 1252.03 1213.89 Q1255.06 1217.04 1255.06 1222.48 Q1255.06 1227.8 1251.91 1231.02 Q1248.77 1234.24 1243.53 1234.24 Q1237.54 1234.24 1234.37 1229.65 Q1231.2 1225.05 1231.2 1216.32 Q1231.2 1208.13 1235.09 1203.27 Q1238.97 1198.38 1245.53 1198.38 Q1247.28 1198.38 1249.07 1198.73 Q1250.87 1199.08 1252.82 1199.77 Z" fill="#000000" fill-rule="nonzero" fill-opacity="1" /><path clip-path="url(#clip070)" d="M1627.97 1217.15 Q1624.63 1217.15 1622.71 1218.94 Q1620.81 1220.72 1620.81 1223.84 Q1620.81 1226.97 1622.71 1228.75 Q1624.63 1230.53 1627.97 1230.53 Q1631.3 1230.53 1633.22 1228.75 Q1635.14 1226.95 1635.14 1223.84 Q1635.14 1220.72 1633.22 1218.94 Q1631.32 1217.15 1627.97 1217.15 M1623.29 1215.16 Q1620.28 1214.42 1618.59 1212.36 Q1616.92 1210.3 1616.92 1207.34 Q1616.92 1203.2 1619.86 1200.79 Q1622.83 1198.38 1627.97 1198.38 Q1633.13 1198.38 1636.07 1200.79 Q1639.01 1203.2 1639.01 1207.34 Q1639.01 1210.3 1637.32 1212.36 Q1635.65 1214.42 1632.67 1215.16 Q1636.05 1215.95 1637.92 1218.24 Q1639.82 1220.53 1639.82 1223.84 Q1639.82 1228.87 1636.74 1231.55 Q1633.68 1234.24 1627.97 1234.24 Q1622.25 1234.24 1619.17 1231.55 Q1616.11 1228.87 1616.11 1223.84 Q1616.11 1220.53 1618.01 1218.24 Q1619.91 1215.95 1623.29 1215.16 M1621.58 1207.78 Q1621.58 1210.47 1623.24 1211.97 Q1624.93 1213.47 1627.97 1213.47 Q1630.98 1213.47 1632.67 1211.97 Q1634.38 1210.47 1634.38 1207.78 Q1634.38 1205.09 1632.67 1203.59 Q1630.98 1202.09 1627.97 1202.09 Q1624.93 1202.09 1623.24 1203.59 Q1621.58 1205.09 1621.58 1207.78 Z" fill="#000000" fill-rule="nonzero" fill-opacity="1" /><path clip-path="url(#clip070)" d="M1987.49 1229.63 L1995.13 1229.63 L1995.13 1203.27 L1986.82 1204.93 L1986.82 1200.67 L1995.08 1199.01 L1999.76 1199.01 L1999.76 1229.63 L2007.4 1229.63 L2007.4 1233.57 L1987.49 1233.57 L1987.49 1229.63 Z" fill="#000000" fill-rule="nonzero" fill-opacity="1" /><path clip-path="url(#clip070)" d="M2026.84 1202.09 Q2023.23 1202.09 2021.4 1205.65 Q2019.6 1209.19 2019.6 1216.32 Q2019.6 1223.43 2021.4 1226.99 Q2023.23 1230.53 2026.84 1230.53 Q2030.48 1230.53 2032.28 1226.99 Q2034.11 1223.43 2034.11 1216.32 Q2034.11 1209.19 2032.28 1205.65 Q2030.48 1202.09 2026.84 1202.09 M2026.84 1198.38 Q2032.65 1198.38 2035.71 1202.99 Q2038.79 1207.57 2038.79 1216.32 Q2038.79 1225.05 2035.71 1229.65 Q2032.65 1234.24 2026.84 1234.24 Q2021.03 1234.24 2017.95 1229.65 Q2014.9 1225.05 2014.9 1216.32 Q2014.9 1207.57 2017.95 1202.99 Q2021.03 1198.38 2026.84 1198.38 Z" fill="#000000" fill-rule="nonzero" fill-opacity="1" /><path clip-path="url(#clip070)" d="M1058.88 1266.49 L1065.38 1266.49 L1075.37 1306.66 L1085.33 1266.49 L1092.56 1266.49 L1102.55 1306.66 L1112.51 1266.49 L1119.04 1266.49 L1107.1 1314.01 L1099.02 1314.01 L1088.99 1272.76 L1078.87 1314.01 L1070.79 1314.01 L1058.88 1266.49 Z" fill="#000000" fill-rule="nonzero" fill-opacity="1" /><path clip-path="url(#clip070)" d="M1139.35 1296.1 Q1132.25 1296.1 1129.51 1297.72 Q1126.77 1299.34 1126.77 1303.26 Q1126.77 1306.38 1128.81 1308.22 Q1130.88 1310.04 1134.41 1310.04 Q1139.28 1310.04 1142.21 1306.6 Q1145.17 1303.13 1145.17 1297.4 L1145.17 1296.1 L1139.35 1296.1 M1151.03 1293.68 L1151.03 1314.01 L1145.17 1314.01 L1145.17 1308.6 Q1143.16 1311.85 1140.17 1313.41 Q1137.18 1314.94 1132.85 1314.94 Q1127.38 1314.94 1124.13 1311.88 Q1120.92 1308.79 1120.92 1303.64 Q1120.92 1297.62 1124.93 1294.57 Q1128.97 1291.51 1136.96 1291.51 L1145.17 1291.51 L1145.17 1290.94 Q1145.17 1286.9 1142.5 1284.7 Q1139.85 1282.47 1135.05 1282.47 Q1131.99 1282.47 1129.1 1283.2 Q1126.2 1283.94 1123.53 1285.4 L1123.53 1279.99 Q1126.74 1278.75 1129.77 1278.14 Q1132.79 1277.51 1135.65 1277.51 Q1143.39 1277.51 1147.21 1281.52 Q1151.03 1285.53 1151.03 1293.68 Z" fill="#000000" fill-rule="nonzero" fill-opacity="1" /><path clip-path="url(#clip070)" d="M1186.55 1295.78 Q1186.55 1289.41 1183.91 1285.91 Q1181.3 1282.41 1176.55 1282.41 Q1171.84 1282.41 1169.2 1285.91 Q1166.59 1289.41 1166.59 1295.78 Q1166.59 1302.11 1169.2 1305.61 Q1171.84 1309.11 1176.55 1309.11 Q1181.3 1309.11 1183.91 1305.61 Q1186.55 1302.11 1186.55 1295.78 M1192.4 1309.59 Q1192.4 1318.69 1188.36 1323.12 Q1184.32 1327.57 1175.98 1327.57 Q1172.89 1327.57 1170.16 1327.1 Q1167.42 1326.65 1164.84 1325.7 L1164.84 1320 Q1167.42 1321.4 1169.93 1322.07 Q1172.45 1322.74 1175.06 1322.74 Q1180.82 1322.74 1183.68 1319.71 Q1186.55 1316.72 1186.55 1310.64 L1186.55 1307.74 Q1184.73 1310.9 1181.9 1312.46 Q1179.07 1314.01 1175.12 1314.01 Q1168.56 1314.01 1164.55 1309.02 Q1160.54 1304.02 1160.54 1295.78 Q1160.54 1287.5 1164.55 1282.5 Q1168.56 1277.51 1175.12 1277.51 Q1179.07 1277.51 1181.9 1279.07 Q1184.73 1280.63 1186.55 1283.78 L1186.55 1278.37 L1192.4 1278.37 L1192.4 1309.59 Z" fill="#000000" fill-rule="nonzero" fill-opacity="1" /><path clip-path="url(#clip070)" d="M1234.96 1294.73 L1234.96 1297.59 L1208.03 1297.59 Q1208.41 1303.64 1211.66 1306.82 Q1214.94 1309.97 1220.76 1309.97 Q1224.14 1309.97 1227.29 1309.14 Q1230.47 1308.32 1233.59 1306.66 L1233.59 1312.2 Q1230.44 1313.54 1227.13 1314.24 Q1223.82 1314.94 1220.41 1314.94 Q1211.88 1314.94 1206.89 1309.97 Q1201.92 1305.01 1201.92 1296.54 Q1201.92 1287.79 1206.63 1282.66 Q1211.37 1277.51 1219.39 1277.51 Q1226.59 1277.51 1230.76 1282.15 Q1234.96 1286.77 1234.96 1294.73 M1229.1 1293.01 Q1229.04 1288.2 1226.4 1285.34 Q1223.79 1282.47 1219.46 1282.47 Q1214.56 1282.47 1211.6 1285.24 Q1208.67 1288.01 1208.22 1293.04 L1229.1 1293.01 Z" fill="#000000" fill-rule="nonzero" fill-opacity="1" /><polyline clip-path="url(#clip070)" style="stroke:#000000; stroke-linecap:round; stroke-linejoin:round; stroke-width:4; stroke-opacity:1; fill:none" points="229.085,1173.47 229.085,47.2441 "/>
<polyline clip-path="url(#clip070)" style="stroke:#000000; stroke-linecap:round; stroke-linejoin:round; stroke-width:4; stroke-opacity:1; fill:none" points="229.085,1097.06 247.983,1097.06 "/>
<polyline clip-path="url(#clip070)" style="stroke:#000000; stroke-linecap:round; stroke-linejoin:round; stroke-width:4; stroke-opacity:1; fill:none" points="229.085,842.574 247.983,842.574 "/>
<polyline clip-path="url(#clip070)" style="stroke:#000000; stroke-linecap:round; stroke-linejoin:round; stroke-width:4; stroke-opacity:1; fill:none" points="229.085,588.089 247.983,588.089 "/>
<polyline clip-path="url(#clip070)" style="stroke:#000000; stroke-linecap:round; stroke-linejoin:round; stroke-width:4; stroke-opacity:1; fill:none" points="229.085,333.604 247.983,333.604 "/>
<polyline clip-path="url(#clip070)" style="stroke:#000000; stroke-linecap:round; stroke-linejoin:round; stroke-width:4; stroke-opacity:1; fill:none" points="229.085,79.1184 247.983,79.1184 "/>
<path clip-path="url(#clip070)" d="M115.948 1110.4 L123.586 1110.4 L123.586 1084.04 L115.276 1085.7 L115.276 1081.45 L123.54 1079.78 L128.216 1079.78 L128.216 1110.4 L135.855 1110.4 L135.855 1114.34 L115.948 1114.34 L115.948 1110.4 Z" fill="#000000" fill-rule="nonzero" fill-opacity="1" /><path clip-path="url(#clip070)" d="M155.878 1095.2 Q152.73 1095.2 150.878 1097.35 Q149.049 1099.5 149.049 1103.25 Q149.049 1106.98 150.878 1109.15 Q152.73 1111.31 155.878 1111.31 Q159.026 1111.31 160.855 1109.15 Q162.707 1106.98 162.707 1103.25 Q162.707 1099.5 160.855 1097.35 Q159.026 1095.2 155.878 1095.2 M165.16 1080.54 L165.16 1084.8 Q163.401 1083.97 161.595 1083.53 Q159.813 1083.09 158.054 1083.09 Q153.424 1083.09 150.971 1086.21 Q148.54 1089.34 148.193 1095.66 Q149.558 1093.64 151.619 1092.58 Q153.679 1091.49 156.156 1091.49 Q161.364 1091.49 164.373 1094.66 Q167.406 1097.81 167.406 1103.25 Q167.406 1108.57 164.257 1111.79 Q161.109 1115.01 155.878 1115.01 Q149.883 1115.01 146.711 1110.43 Q143.54 1105.82 143.54 1097.09 Q143.54 1088.9 147.429 1084.04 Q151.318 1079.15 157.869 1079.15 Q159.628 1079.15 161.41 1079.5 Q163.216 1079.85 165.16 1080.54 Z" fill="#000000" fill-rule="nonzero" fill-opacity="1" /><path clip-path="url(#clip070)" d="M185.461 1082.86 Q181.85 1082.86 180.021 1086.42 Q178.216 1089.96 178.216 1097.09 Q178.216 1104.2 180.021 1107.76 Q181.85 1111.31 185.461 1111.31 Q189.095 1111.31 190.901 1107.76 Q192.73 1104.2 192.73 1097.09 Q192.73 1089.96 190.901 1086.42 Q189.095 1082.86 185.461 1082.86 M185.461 1079.15 Q191.271 1079.15 194.327 1083.76 Q197.405 1088.34 197.405 1097.09 Q197.405 1105.82 194.327 1110.43 Q191.271 1115.01 185.461 1115.01 Q179.651 1115.01 176.572 1110.43 Q173.517 1105.82 173.517 1097.09 Q173.517 1088.34 176.572 1083.76 Q179.651 1079.15 185.461 1079.15 Z" fill="#000000" fill-rule="nonzero" fill-opacity="1" /><path clip-path="url(#clip070)" d="M115.948 855.918 L123.586 855.918 L123.586 829.553 L115.276 831.22 L115.276 826.96 L123.54 825.294 L128.216 825.294 L128.216 855.918 L135.855 855.918 L135.855 859.854 L115.948 859.854 L115.948 855.918 Z" fill="#000000" fill-rule="nonzero" fill-opacity="1" /><path clip-path="url(#clip070)" d="M144.119 825.294 L166.341 825.294 L166.341 827.284 L153.795 859.854 L148.91 859.854 L160.716 829.229 L144.119 829.229 L144.119 825.294 Z" fill="#000000" fill-rule="nonzero" fill-opacity="1" /><path clip-path="url(#clip070)" d="M185.461 828.372 Q181.85 828.372 180.021 831.937 Q178.216 835.479 178.216 842.608 Q178.216 849.715 180.021 853.28 Q181.85 856.821 185.461 856.821 Q189.095 856.821 190.901 853.28 Q192.73 849.715 192.73 842.608 Q192.73 835.479 190.901 831.937 Q189.095 828.372 185.461 828.372 M185.461 824.669 Q191.271 824.669 194.327 829.275 Q197.405 833.858 197.405 842.608 Q197.405 851.335 194.327 855.942 Q191.271 860.525 185.461 860.525 Q179.651 860.525 176.572 855.942 Q173.517 851.335 173.517 842.608 Q173.517 833.858 176.572 829.275 Q179.651 824.669 185.461 824.669 Z" fill="#000000" fill-rule="nonzero" fill-opacity="1" /><path clip-path="url(#clip070)" d="M115.948 601.433 L123.586 601.433 L123.586 575.068 L115.276 576.734 L115.276 572.475 L123.54 570.809 L128.216 570.809 L128.216 601.433 L135.855 601.433 L135.855 605.369 L115.948 605.369 L115.948 601.433 Z" fill="#000000" fill-rule="nonzero" fill-opacity="1" /><path clip-path="url(#clip070)" d="M155.299 588.957 Q151.966 588.957 150.045 590.739 Q148.146 592.521 148.146 595.646 Q148.146 598.771 150.045 600.554 Q151.966 602.336 155.299 602.336 Q158.633 602.336 160.554 600.554 Q162.475 598.748 162.475 595.646 Q162.475 592.521 160.554 590.739 Q158.656 588.957 155.299 588.957 M150.623 586.966 Q147.614 586.225 145.924 584.165 Q144.258 582.105 144.258 579.142 Q144.258 574.998 147.197 572.591 Q150.16 570.184 155.299 570.184 Q160.461 570.184 163.401 572.591 Q166.341 574.998 166.341 579.142 Q166.341 582.105 164.651 584.165 Q162.984 586.225 159.998 586.966 Q163.378 587.753 165.253 590.045 Q167.151 592.336 167.151 595.646 Q167.151 600.67 164.072 603.355 Q161.017 606.04 155.299 606.04 Q149.582 606.04 146.503 603.355 Q143.447 600.67 143.447 595.646 Q143.447 592.336 145.346 590.045 Q147.244 587.753 150.623 586.966 M148.91 579.582 Q148.91 582.267 150.577 583.771 Q152.267 585.276 155.299 585.276 Q158.308 585.276 159.998 583.771 Q161.711 582.267 161.711 579.582 Q161.711 576.897 159.998 575.392 Q158.308 573.887 155.299 573.887 Q152.267 573.887 150.577 575.392 Q148.91 576.897 148.91 579.582 Z" fill="#000000" fill-rule="nonzero" fill-opacity="1" /><path clip-path="url(#clip070)" d="M185.461 573.887 Q181.85 573.887 180.021 577.452 Q178.216 580.994 178.216 588.123 Q178.216 595.23 180.021 598.795 Q181.85 602.336 185.461 602.336 Q189.095 602.336 190.901 598.795 Q192.73 595.23 192.73 588.123 Q192.73 580.994 190.901 577.452 Q189.095 573.887 185.461 573.887 M185.461 570.184 Q191.271 570.184 194.327 574.79 Q197.405 579.373 197.405 588.123 Q197.405 596.85 194.327 601.457 Q191.271 606.04 185.461 606.04 Q179.651 606.04 176.572 601.457 Q173.517 596.85 173.517 588.123 Q173.517 579.373 176.572 574.79 Q179.651 570.184 185.461 570.184 Z" fill="#000000" fill-rule="nonzero" fill-opacity="1" /><path clip-path="url(#clip070)" d="M115.948 346.948 L123.586 346.948 L123.586 320.583 L115.276 322.249 L115.276 317.99 L123.54 316.324 L128.216 316.324 L128.216 346.948 L135.855 346.948 L135.855 350.884 L115.948 350.884 L115.948 346.948 Z" fill="#000000" fill-rule="nonzero" fill-opacity="1" /><path clip-path="url(#clip070)" d="M145.438 350.166 L145.438 345.907 Q147.197 346.74 149.003 347.18 Q150.808 347.62 152.545 347.62 Q157.174 347.62 159.605 344.518 Q162.058 341.393 162.406 335.05 Q161.063 337.041 159.003 338.106 Q156.943 339.171 154.443 339.171 Q149.258 339.171 146.225 336.046 Q143.216 332.897 143.216 327.458 Q143.216 322.134 146.364 318.916 Q149.512 315.699 154.744 315.699 Q160.739 315.699 163.887 320.305 Q167.058 324.888 167.058 333.638 Q167.058 341.809 163.17 346.694 Q159.304 351.555 152.753 351.555 Q150.994 351.555 149.188 351.208 Q147.383 350.86 145.438 350.166 M154.744 335.513 Q157.892 335.513 159.72 333.36 Q161.572 331.208 161.572 327.458 Q161.572 323.731 159.72 321.578 Q157.892 319.402 154.744 319.402 Q151.596 319.402 149.744 321.578 Q147.915 323.731 147.915 327.458 Q147.915 331.208 149.744 333.36 Q151.596 335.513 154.744 335.513 Z" fill="#000000" fill-rule="nonzero" fill-opacity="1" /><path clip-path="url(#clip070)" d="M185.461 319.402 Q181.85 319.402 180.021 322.967 Q178.216 326.509 178.216 333.638 Q178.216 340.745 180.021 344.309 Q181.85 347.851 185.461 347.851 Q189.095 347.851 190.901 344.309 Q192.73 340.745 192.73 333.638 Q192.73 326.509 190.901 322.967 Q189.095 319.402 185.461 319.402 M185.461 315.699 Q191.271 315.699 194.327 320.305 Q197.405 324.888 197.405 333.638 Q197.405 342.365 194.327 346.971 Q191.271 351.555 185.461 351.555 Q179.651 351.555 176.572 346.971 Q173.517 342.365 173.517 333.638 Q173.517 324.888 176.572 320.305 Q179.651 315.699 185.461 315.699 Z" fill="#000000" fill-rule="nonzero" fill-opacity="1" /><path clip-path="url(#clip070)" d="M119.165 92.4633 L135.484 92.4633 L135.484 96.3984 L113.54 96.3984 L113.54 92.4633 Q116.202 89.7087 120.785 85.0791 Q125.392 80.4263 126.572 79.0837 Q128.818 76.5606 129.697 74.8245 Q130.6 73.0652 130.6 71.3754 Q130.6 68.6208 128.656 66.8847 Q126.735 65.1486 123.633 65.1486 Q121.434 65.1486 118.98 65.9125 Q116.549 66.6764 113.772 68.2273 L113.772 63.5051 Q116.596 62.3708 119.049 61.7921 Q121.503 61.2134 123.54 61.2134 Q128.91 61.2134 132.105 63.8986 Q135.299 66.5838 135.299 71.0745 Q135.299 73.2041 134.489 75.1254 Q133.702 77.0235 131.596 79.6161 Q131.017 80.2874 127.915 83.505 Q124.813 86.6994 119.165 92.4633 Z" fill="#000000" fill-rule="nonzero" fill-opacity="1" /><path clip-path="url(#clip070)" d="M155.299 64.9171 Q151.688 64.9171 149.859 68.4819 Q148.054 72.0236 148.054 79.1532 Q148.054 86.2596 149.859 89.8244 Q151.688 93.366 155.299 93.366 Q158.933 93.366 160.739 89.8244 Q162.568 86.2596 162.568 79.1532 Q162.568 72.0236 160.739 68.4819 Q158.933 64.9171 155.299 64.9171 M155.299 61.2134 Q161.109 61.2134 164.165 65.8199 Q167.244 70.4032 167.244 79.1532 Q167.244 87.88 164.165 92.4864 Q161.109 97.0697 155.299 97.0697 Q149.489 97.0697 146.41 92.4864 Q143.355 87.88 143.355 79.1532 Q143.355 70.4032 146.41 65.8199 Q149.489 61.2134 155.299 61.2134 Z" fill="#000000" fill-rule="nonzero" fill-opacity="1" /><path clip-path="url(#clip070)" d="M185.461 64.9171 Q181.85 64.9171 180.021 68.4819 Q178.216 72.0236 178.216 79.1532 Q178.216 86.2596 180.021 89.8244 Q181.85 93.366 185.461 93.366 Q189.095 93.366 190.901 89.8244 Q192.73 86.2596 192.73 79.1532 Q192.73 72.0236 190.901 68.4819 Q189.095 64.9171 185.461 64.9171 M185.461 61.2134 Q191.271 61.2134 194.327 65.8199 Q197.405 70.4032 197.405 79.1532 Q197.405 87.88 194.327 92.4864 Q191.271 97.0697 185.461 97.0697 Q179.651 97.0697 176.572 92.4864 Q173.517 87.88 173.517 79.1532 Q173.517 70.4032 176.572 65.8199 Q179.651 61.2134 185.461 61.2134 Z" fill="#000000" fill-rule="nonzero" fill-opacity="1" /><path clip-path="url(#clip070)" d="M67.6042 679.728 L20.0842 697.87 L20.0842 691.154 L60.0926 676.099 L20.0842 661.013 L20.0842 654.329 L67.6042 672.439 L67.6042 679.728 Z" fill="#000000" fill-rule="nonzero" fill-opacity="1" /><path clip-path="url(#clip070)" d="M49.6847 636.505 Q49.6847 643.602 51.3079 646.34 Q52.9312 649.077 56.8461 649.077 Q59.9653 649.077 61.8114 647.04 Q63.6256 644.971 63.6256 641.438 Q63.6256 636.568 60.1881 633.64 Q56.7188 630.68 50.9897 630.68 L49.6847 630.68 L49.6847 636.505 M47.2657 624.823 L67.6042 624.823 L67.6042 630.68 L62.1933 630.68 Q65.4398 632.685 66.9994 635.677 Q68.5272 638.669 68.5272 642.998 Q68.5272 648.472 65.4716 651.719 Q62.3843 654.933 57.2281 654.933 Q51.2125 654.933 48.1569 650.923 Q45.1014 646.881 45.1014 638.892 L45.1014 630.68 L44.5285 630.68 Q40.4862 630.68 38.2901 633.354 Q36.0621 635.995 36.0621 640.801 Q36.0621 643.857 36.7941 646.753 Q37.5262 649.65 38.9903 652.323 L33.5795 652.323 Q32.3381 649.109 31.7334 646.085 Q31.0968 643.061 31.0968 640.197 Q31.0968 632.462 35.1072 628.643 Q39.1176 624.823 47.2657 624.823 Z" fill="#000000" fill-rule="nonzero" fill-opacity="1" /><path clip-path="url(#clip070)" d="M18.079 612.76 L18.079 606.904 L67.6042 606.904 L67.6042 612.76 L18.079 612.76 Z" fill="#000000" fill-rule="nonzero" fill-opacity="1" /><path clip-path="url(#clip070)" d="M53.5359 595.255 L31.9562 595.255 L31.9562 589.398 L53.3131 589.398 Q58.3739 589.398 60.9202 587.425 Q63.4346 585.452 63.4346 581.505 Q63.4346 576.762 60.4109 574.025 Q57.3872 571.256 52.1673 571.256 L31.9562 571.256 L31.9562 565.4 L67.6042 565.4 L67.6042 571.256 L62.1296 571.256 Q65.3762 573.389 66.9676 576.221 Q68.5272 579.022 68.5272 582.746 Q68.5272 588.889 64.7078 592.072 Q60.8883 595.255 53.5359 595.255 M31.0968 580.518 L31.0968 580.518 Z" fill="#000000" fill-rule="nonzero" fill-opacity="1" /><path clip-path="url(#clip070)" d="M48.3161 522.845 L51.1806 522.845 L51.1806 549.772 Q57.2281 549.39 60.4109 546.143 Q63.5619 542.865 63.5619 537.04 Q63.5619 533.667 62.7344 530.516 Q61.9069 527.333 60.2518 524.213 L65.7899 524.213 Q67.1267 527.365 67.827 530.675 Q68.5272 533.985 68.5272 537.391 Q68.5272 545.921 63.5619 550.918 Q58.5967 555.883 50.1303 555.883 Q41.3774 555.883 36.2531 551.172 Q31.0968 546.43 31.0968 538.409 Q31.0968 531.216 35.7438 527.046 Q40.3589 522.845 48.3161 522.845 M46.5973 528.701 Q41.7912 528.765 38.9266 531.407 Q36.0621 534.017 36.0621 538.345 Q36.0621 543.247 38.8312 546.207 Q41.6002 549.135 46.6292 549.581 L46.5973 528.701 Z" fill="#000000" fill-rule="nonzero" fill-opacity="1" /><circle clip-path="url(#clip071)" cx="281.038" cy="1141.6" r="14.4" fill="#009af9" fill-rule="evenodd" fill-opacity="1" stroke="#000000" stroke-opacity="1" stroke-width="2.688"/>
<circle clip-path="url(#clip071)" cx="316.381" cy="1141.6" r="14.4" fill="#009af9" fill-rule="evenodd" fill-opacity="1" stroke="#000000" stroke-opacity="1" stroke-width="2.688"/>
<circle clip-path="url(#clip071)" cx="351.723" cy="1141.6" r="14.4" fill="#009af9" fill-rule="evenodd" fill-opacity="1" stroke="#000000" stroke-opacity="1" stroke-width="2.688"/>
<circle clip-path="url(#clip071)" cx="387.065" cy="1141.6" r="14.4" fill="#009af9" fill-rule="evenodd" fill-opacity="1" stroke="#000000" stroke-opacity="1" stroke-width="2.688"/>
<circle clip-path="url(#clip071)" cx="422.407" cy="1141.6" r="14.4" fill="#009af9" fill-rule="evenodd" fill-opacity="1" stroke="#000000" stroke-opacity="1" stroke-width="2.688"/>
<circle clip-path="url(#clip071)" cx="457.749" cy="1141.6" r="14.4" fill="#009af9" fill-rule="evenodd" fill-opacity="1" stroke="#000000" stroke-opacity="1" stroke-width="2.688"/>
<circle clip-path="url(#clip071)" cx="493.091" cy="1141.6" r="14.4" fill="#009af9" fill-rule="evenodd" fill-opacity="1" stroke="#000000" stroke-opacity="1" stroke-width="2.688"/>
<circle clip-path="url(#clip071)" cx="528.433" cy="1141.6" r="14.4" fill="#009af9" fill-rule="evenodd" fill-opacity="1" stroke="#000000" stroke-opacity="1" stroke-width="2.688"/>
<circle clip-path="url(#clip071)" cx="563.775" cy="1141.6" r="14.4" fill="#009af9" fill-rule="evenodd" fill-opacity="1" stroke="#000000" stroke-opacity="1" stroke-width="2.688"/>
<circle clip-path="url(#clip071)" cx="599.118" cy="1141.6" r="14.4" fill="#009af9" fill-rule="evenodd" fill-opacity="1" stroke="#000000" stroke-opacity="1" stroke-width="2.688"/>
<circle clip-path="url(#clip071)" cx="634.46" cy="1141.6" r="14.4" fill="#009af9" fill-rule="evenodd" fill-opacity="1" stroke="#000000" stroke-opacity="1" stroke-width="2.688"/>
<circle clip-path="url(#clip071)" cx="669.802" cy="1141.6" r="14.4" fill="#009af9" fill-rule="evenodd" fill-opacity="1" stroke="#000000" stroke-opacity="1" stroke-width="2.688"/>
<circle clip-path="url(#clip071)" cx="705.144" cy="1141.6" r="14.4" fill="#009af9" fill-rule="evenodd" fill-opacity="1" stroke="#000000" stroke-opacity="1" stroke-width="2.688"/>
<circle clip-path="url(#clip071)" cx="740.486" cy="1141.6" r="14.4" fill="#009af9" fill-rule="evenodd" fill-opacity="1" stroke="#000000" stroke-opacity="1" stroke-width="2.688"/>
<circle clip-path="url(#clip071)" cx="775.828" cy="1141.6" r="14.4" fill="#009af9" fill-rule="evenodd" fill-opacity="1" stroke="#000000" stroke-opacity="1" stroke-width="2.688"/>
<circle clip-path="url(#clip071)" cx="811.17" cy="1141.6" r="14.4" fill="#009af9" fill-rule="evenodd" fill-opacity="1" stroke="#000000" stroke-opacity="1" stroke-width="2.688"/>
<circle clip-path="url(#clip071)" cx="846.513" cy="1141.6" r="14.4" fill="#009af9" fill-rule="evenodd" fill-opacity="1" stroke="#000000" stroke-opacity="1" stroke-width="2.688"/>
<circle clip-path="url(#clip071)" cx="881.855" cy="1141.6" r="14.4" fill="#009af9" fill-rule="evenodd" fill-opacity="1" stroke="#000000" stroke-opacity="1" stroke-width="2.688"/>
<circle clip-path="url(#clip071)" cx="917.197" cy="1141.6" r="14.4" fill="#009af9" fill-rule="evenodd" fill-opacity="1" stroke="#000000" stroke-opacity="1" stroke-width="2.688"/>
<circle clip-path="url(#clip071)" cx="952.539" cy="1141.6" r="14.4" fill="#009af9" fill-rule="evenodd" fill-opacity="1" stroke="#000000" stroke-opacity="1" stroke-width="2.688"/>
<circle clip-path="url(#clip071)" cx="987.881" cy="1141.6" r="14.4" fill="#009af9" fill-rule="evenodd" fill-opacity="1" stroke="#000000" stroke-opacity="1" stroke-width="2.688"/>
<circle clip-path="url(#clip071)" cx="1023.22" cy="1141.6" r="14.4" fill="#009af9" fill-rule="evenodd" fill-opacity="1" stroke="#000000" stroke-opacity="1" stroke-width="2.688"/>
<circle clip-path="url(#clip071)" cx="1058.57" cy="1141.6" r="14.4" fill="#009af9" fill-rule="evenodd" fill-opacity="1" stroke="#000000" stroke-opacity="1" stroke-width="2.688"/>
<circle clip-path="url(#clip071)" cx="1093.91" cy="1141.6" r="14.4" fill="#009af9" fill-rule="evenodd" fill-opacity="1" stroke="#000000" stroke-opacity="1" stroke-width="2.688"/>
<circle clip-path="url(#clip071)" cx="1129.25" cy="1141.6" r="14.4" fill="#009af9" fill-rule="evenodd" fill-opacity="1" stroke="#000000" stroke-opacity="1" stroke-width="2.688"/>
<circle clip-path="url(#clip071)" cx="1164.59" cy="1141.6" r="14.4" fill="#009af9" fill-rule="evenodd" fill-opacity="1" stroke="#000000" stroke-opacity="1" stroke-width="2.688"/>
<circle clip-path="url(#clip071)" cx="1199.93" cy="1141.6" r="14.4" fill="#009af9" fill-rule="evenodd" fill-opacity="1" stroke="#000000" stroke-opacity="1" stroke-width="2.688"/>
<circle clip-path="url(#clip071)" cx="1235.28" cy="1141.6" r="14.4" fill="#009af9" fill-rule="evenodd" fill-opacity="1" stroke="#000000" stroke-opacity="1" stroke-width="2.688"/>
<circle clip-path="url(#clip071)" cx="1270.62" cy="1141.6" r="14.4" fill="#009af9" fill-rule="evenodd" fill-opacity="1" stroke="#000000" stroke-opacity="1" stroke-width="2.688"/>
<circle clip-path="url(#clip071)" cx="1305.96" cy="1141.6" r="14.4" fill="#009af9" fill-rule="evenodd" fill-opacity="1" stroke="#000000" stroke-opacity="1" stroke-width="2.688"/>
<circle clip-path="url(#clip071)" cx="1341.3" cy="1141.6" r="14.4" fill="#009af9" fill-rule="evenodd" fill-opacity="1" stroke="#000000" stroke-opacity="1" stroke-width="2.688"/>
<circle clip-path="url(#clip071)" cx="1376.64" cy="1141.6" r="14.4" fill="#009af9" fill-rule="evenodd" fill-opacity="1" stroke="#000000" stroke-opacity="1" stroke-width="2.688"/>
<circle clip-path="url(#clip071)" cx="1411.99" cy="1141.6" r="14.4" fill="#009af9" fill-rule="evenodd" fill-opacity="1" stroke="#000000" stroke-opacity="1" stroke-width="2.688"/>
<circle clip-path="url(#clip071)" cx="1447.33" cy="1141.6" r="14.4" fill="#009af9" fill-rule="evenodd" fill-opacity="1" stroke="#000000" stroke-opacity="1" stroke-width="2.688"/>
<circle clip-path="url(#clip071)" cx="1482.67" cy="1141.6" r="14.4" fill="#009af9" fill-rule="evenodd" fill-opacity="1" stroke="#000000" stroke-opacity="1" stroke-width="2.688"/>
<circle clip-path="url(#clip071)" cx="1518.01" cy="1141.6" r="14.4" fill="#009af9" fill-rule="evenodd" fill-opacity="1" stroke="#000000" stroke-opacity="1" stroke-width="2.688"/>
<circle clip-path="url(#clip071)" cx="1553.36" cy="1141.6" r="14.4" fill="#009af9" fill-rule="evenodd" fill-opacity="1" stroke="#000000" stroke-opacity="1" stroke-width="2.688"/>
<circle clip-path="url(#clip071)" cx="1588.7" cy="1141.6" r="14.4" fill="#009af9" fill-rule="evenodd" fill-opacity="1" stroke="#000000" stroke-opacity="1" stroke-width="2.688"/>
<circle clip-path="url(#clip071)" cx="1624.04" cy="1107.45" r="14.4" fill="#009af9" fill-rule="evenodd" fill-opacity="1" stroke="#000000" stroke-opacity="1" stroke-width="2.688"/>
<circle clip-path="url(#clip071)" cx="1659.38" cy="1013.96" r="14.4" fill="#009af9" fill-rule="evenodd" fill-opacity="1" stroke="#000000" stroke-opacity="1" stroke-width="2.688"/>
<circle clip-path="url(#clip071)" cx="1694.72" cy="920.477" r="14.4" fill="#009af9" fill-rule="evenodd" fill-opacity="1" stroke="#000000" stroke-opacity="1" stroke-width="2.688"/>
<circle clip-path="url(#clip071)" cx="1730.07" cy="826.993" r="14.4" fill="#009af9" fill-rule="evenodd" fill-opacity="1" stroke="#000000" stroke-opacity="1" stroke-width="2.688"/>
<circle clip-path="url(#clip071)" cx="1765.41" cy="733.509" r="14.4" fill="#009af9" fill-rule="evenodd" fill-opacity="1" stroke="#000000" stroke-opacity="1" stroke-width="2.688"/>
<circle clip-path="url(#clip071)" cx="1800.75" cy="640.024" r="14.4" fill="#009af9" fill-rule="evenodd" fill-opacity="1" stroke="#000000" stroke-opacity="1" stroke-width="2.688"/>
<circle clip-path="url(#clip071)" cx="1836.09" cy="546.54" r="14.4" fill="#009af9" fill-rule="evenodd" fill-opacity="1" stroke="#000000" stroke-opacity="1" stroke-width="2.688"/>
<circle clip-path="url(#clip071)" cx="1871.43" cy="453.056" r="14.4" fill="#009af9" fill-rule="evenodd" fill-opacity="1" stroke="#000000" stroke-opacity="1" stroke-width="2.688"/>
<circle clip-path="url(#clip071)" cx="1906.78" cy="359.571" r="14.4" fill="#009af9" fill-rule="evenodd" fill-opacity="1" stroke="#000000" stroke-opacity="1" stroke-width="2.688"/>
<circle clip-path="url(#clip071)" cx="1942.12" cy="266.087" r="14.4" fill="#009af9" fill-rule="evenodd" fill-opacity="1" stroke="#000000" stroke-opacity="1" stroke-width="2.688"/>
<circle clip-path="url(#clip071)" cx="1977.46" cy="172.603" r="14.4" fill="#009af9" fill-rule="evenodd" fill-opacity="1" stroke="#000000" stroke-opacity="1" stroke-width="2.688"/>
<circle clip-path="url(#clip071)" cx="2012.8" cy="79.1184" r="14.4" fill="#009af9" fill-rule="evenodd" fill-opacity="1" stroke="#000000" stroke-opacity="1" stroke-width="2.688"/>
<path clip-path="url(#clip070)" d="M290.274 188.465 L601.132 188.465 L601.132 84.785 L290.274 84.785  Z" fill="#ffffff" fill-rule="evenodd" fill-opacity="1"/>
<polyline clip-path="url(#clip070)" style="stroke:#000000; stroke-linecap:round; stroke-linejoin:round; stroke-width:4; stroke-opacity:1; fill:none" points="290.274,188.465 601.132,188.465 601.132,84.785 290.274,84.785 290.274,188.465 "/>
<circle clip-path="url(#clip070)" cx="371.86" cy="136.625" r="20.48" fill="#009af9" fill-rule="evenodd" fill-opacity="1" stroke="#000000" stroke-opacity="1" stroke-width="3.82293"/>
<path clip-path="url(#clip070)" d="M466.64 153.905 L453.445 119.345 L458.329 119.345 L469.278 148.442 L480.251 119.345 L485.112 119.345 L471.94 153.905 L466.64 153.905 Z" fill="#000000" fill-rule="nonzero" fill-opacity="1" /><path clip-path="url(#clip070)" d="M498.075 140.873 Q492.913 140.873 490.922 142.053 Q488.931 143.234 488.931 146.081 Q488.931 148.349 490.413 149.692 Q491.917 151.011 494.487 151.011 Q498.028 151.011 500.158 148.511 Q502.311 145.988 502.311 141.822 L502.311 140.873 L498.075 140.873 M506.57 139.113 L506.57 153.905 L502.311 153.905 L502.311 149.97 Q500.852 152.331 498.676 153.465 Q496.5 154.576 493.352 154.576 Q489.371 154.576 487.01 152.354 Q484.672 150.109 484.672 146.359 Q484.672 141.984 487.589 139.762 Q490.528 137.539 496.338 137.539 L502.311 137.539 L502.311 137.123 Q502.311 134.183 500.366 132.586 Q498.445 130.965 494.95 130.965 Q492.727 130.965 490.621 131.498 Q488.514 132.03 486.57 133.095 L486.57 129.16 Q488.908 128.257 491.107 127.817 Q493.306 127.354 495.389 127.354 Q501.014 127.354 503.792 130.271 Q506.57 133.188 506.57 139.113 Z" fill="#000000" fill-rule="nonzero" fill-opacity="1" /><path clip-path="url(#clip070)" d="M515.343 117.887 L519.602 117.887 L519.602 153.905 L515.343 153.905 L515.343 117.887 Z" fill="#000000" fill-rule="nonzero" fill-opacity="1" /><path clip-path="url(#clip070)" d="M528.074 143.674 L528.074 127.979 L532.334 127.979 L532.334 143.512 Q532.334 147.192 533.769 149.044 Q535.204 150.873 538.074 150.873 Q541.523 150.873 543.514 148.674 Q545.528 146.474 545.528 142.678 L545.528 127.979 L549.787 127.979 L549.787 153.905 L545.528 153.905 L545.528 149.924 Q543.977 152.285 541.917 153.442 Q539.88 154.576 537.172 154.576 Q532.704 154.576 530.389 151.799 Q528.074 149.021 528.074 143.674 M538.792 127.354 L538.792 127.354 Z" fill="#000000" fill-rule="nonzero" fill-opacity="1" /><path clip-path="url(#clip070)" d="M580.736 139.877 L580.736 141.961 L561.153 141.961 Q561.431 146.359 563.792 148.674 Q566.176 150.965 570.412 150.965 Q572.866 150.965 575.157 150.363 Q577.472 149.761 579.741 148.558 L579.741 152.586 Q577.449 153.558 575.042 154.067 Q572.634 154.576 570.158 154.576 Q563.954 154.576 560.32 150.965 Q556.709 147.354 556.709 141.197 Q556.709 134.831 560.134 131.104 Q563.583 127.354 569.417 127.354 Q574.648 127.354 577.681 130.734 Q580.736 134.09 580.736 139.877 M576.477 138.627 Q576.431 135.132 574.509 133.049 Q572.611 130.965 569.463 130.965 Q565.898 130.965 563.746 132.979 Q561.616 134.993 561.292 138.65 L576.477 138.627 Z" fill="#000000" fill-rule="nonzero" fill-opacity="1" /></svg>
