<?xml version="1.0" encoding="utf-8"?>
<svg xmlns="http://www.w3.org/2000/svg" xmlns:xlink="http://www.w3.org/1999/xlink" width="528" height="336" viewBox="0 0 2112 1344">
<defs>
  <clipPath id="clip100">
    <rect x="0" y="0" width="2112" height="1344"/>
  </clipPath>
</defs>
<path clip-path="url(#clip100)" d="M0 1344 L2112 1344 L2112 2.13163e-14 L0 2.13163e-14  Z" fill="#ffffff" fill-rule="evenodd" fill-opacity="1"/>
<defs>
  <clipPath id="clip101">
    <rect x="244" y="47" width="1821" height="1127"/>
  </clipPath>
</defs>
<path clip-path="url(#clip100)" d="M244.502 1173.47 L2064.76 1173.47 L2064.76 47.2441 L244.502 47.2441  Z" fill="#ffffff" fill-rule="evenodd" fill-opacity="1"/>
<polyline clip-path="url(#clip101)" style="stroke:#000000; stroke-linecap:round; stroke-linejoin:round; stroke-width:2; stroke-opacity:0.1; fill:none" points="486.821,1173.47 486.821,47.2441 "/>
<polyline clip-path="url(#clip101)" style="stroke:#000000; stroke-linecap:round; stroke-linejoin:round; stroke-width:2; stroke-opacity:0.1; fill:none" points="868.426,1173.47 868.426,47.2441 "/>
<polyline clip-path="url(#clip101)" style="stroke:#000000; stroke-linecap:round; stroke-linejoin:round; stroke-width:2; stroke-opacity:0.1; fill:none" points="1250.03,1173.47 1250.03,47.2441 "/>
<polyline clip-path="url(#clip101)" style="stroke:#000000; stroke-linecap:round; stroke-linejoin:round; stroke-width:2; stroke-opacity:0.1; fill:none" points="1631.63,1173.47 1631.63,47.2441 "/>
<polyline clip-path="url(#clip101)" style="stroke:#000000; stroke-linecap:round; stroke-linejoin:round; stroke-width:2; stroke-opacity:0.1; fill:none" points="2013.24,1173.47 2013.24,47.2441 "/>
<polyline clip-path="url(#clip101)" style="stroke:#000000; stroke-linecap:round; stroke-linejoin:round; stroke-width:2; stroke-opacity:0.1; fill:none" points="244.502,1141.6 2064.76,1141.6 "/>
<polyline clip-path="url(#clip101)" style="stroke:#000000; stroke-linecap:round; stroke-linejoin:round; stroke-width:2; stroke-opacity:0.1; fill:none" points="244.502,875.977 2064.76,875.977 "/>
<polyline clip-path="url(#clip101)" style="stroke:#000000; stroke-linecap:round; stroke-linejoin:round; stroke-width:2; stroke-opacity:0.1; fill:none" points="244.502,610.357 2064.76,610.357 "/>
<polyline clip-path="url(#clip101)" style="stroke:#000000; stroke-linecap:round; stroke-linejoin:round; stroke-width:2; stroke-opacity:0.1; fill:none" points="244.502,344.738 2064.76,344.738 "/>
<polyline clip-path="url(#clip101)" style="stroke:#000000; stroke-linecap:round; stroke-linejoin:round; stroke-width:2; stroke-opacity:0.1; fill:none" points="244.502,79.1184 2064.76,79.1184 "/>
<polyline clip-path="url(#clip100)" style="stroke:#000000; stroke-linecap:round; stroke-linejoin:round; stroke-width:4; stroke-opacity:1; fill:none" points="244.502,1173.47 2064.76,1173.47 "/>
<polyline clip-path="url(#clip100)" style="stroke:#000000; stroke-linecap:round; stroke-linejoin:round; stroke-width:4; stroke-opacity:1; fill:none" points="486.821,1173.47 486.821,1154.57 "/>
<polyline clip-path="url(#clip100)" style="stroke:#000000; stroke-linecap:round; stroke-linejoin:round; stroke-width:4; stroke-opacity:1; fill:none" points="868.426,1173.47 868.426,1154.57 "/>
<polyline clip-path="url(#clip100)" style="stroke:#000000; stroke-linecap:round; stroke-linejoin:round; stroke-width:4; stroke-opacity:1; fill:none" points="1250.03,1173.47 1250.03,1154.57 "/>
<polyline clip-path="url(#clip100)" style="stroke:#000000; stroke-linecap:round; stroke-linejoin:round; stroke-width:4; stroke-opacity:1; fill:none" points="1631.63,1173.47 1631.63,1154.57 "/>
<polyline clip-path="url(#clip100)" style="stroke:#000000; stroke-linecap:round; stroke-linejoin:round; stroke-width:4; stroke-opacity:1; fill:none" points="2013.24,1173.47 2013.24,1154.57 "/>
<path clip-path="url(#clip100)" d="M481.474 1229.63 L497.793 1229.63 L497.793 1233.57 L475.849 1233.57 L475.849 1229.63 Q478.511 1226.88 483.094 1222.25 Q487.701 1217.59 488.881 1216.25 Q491.126 1213.73 492.006 1211.99 Q492.909 1210.23 492.909 1208.54 Q492.909 1205.79 490.964 1204.05 Q489.043 1202.32 485.941 1202.32 Q483.742 1202.32 481.289 1203.08 Q478.858 1203.84 476.08 1205.4 L476.08 1200.67 Q478.904 1199.54 481.358 1198.96 Q483.812 1198.38 485.849 1198.38 Q491.219 1198.38 494.413 1201.07 Q497.608 1203.75 497.608 1208.24 Q497.608 1210.37 496.798 1212.29 Q496.011 1214.19 493.904 1216.78 Q493.326 1217.46 490.224 1220.67 Q487.122 1223.87 481.474 1229.63 Z" fill="#000000" fill-rule="nonzero" fill-opacity="1" /><path clip-path="url(#clip100)" d="M871.435 1203.08 L859.629 1221.53 L871.435 1221.53 L871.435 1203.08 M870.208 1199.01 L876.088 1199.01 L876.088 1221.53 L881.018 1221.53 L881.018 1225.42 L876.088 1225.42 L876.088 1233.57 L871.435 1233.57 L871.435 1225.42 L855.833 1225.42 L855.833 1220.9 L870.208 1199.01 Z" fill="#000000" fill-rule="nonzero" fill-opacity="1" /><path clip-path="url(#clip100)" d="M1250.44 1214.42 Q1247.29 1214.42 1245.44 1216.58 Q1243.61 1218.73 1243.61 1222.48 Q1243.61 1226.21 1245.44 1228.38 Q1247.29 1230.53 1250.44 1230.53 Q1253.58 1230.53 1255.41 1228.38 Q1257.26 1226.21 1257.26 1222.48 Q1257.26 1218.73 1255.41 1216.58 Q1253.58 1214.42 1250.44 1214.42 M1259.72 1199.77 L1259.72 1204.03 Q1257.96 1203.2 1256.15 1202.76 Q1254.37 1202.32 1252.61 1202.32 Q1247.98 1202.32 1245.53 1205.44 Q1243.1 1208.57 1242.75 1214.89 Q1244.12 1212.87 1246.18 1211.81 Q1248.24 1210.72 1250.71 1210.72 Q1255.92 1210.72 1258.93 1213.89 Q1261.96 1217.04 1261.96 1222.48 Q1261.96 1227.8 1258.81 1231.02 Q1255.67 1234.24 1250.44 1234.24 Q1244.44 1234.24 1241.27 1229.65 Q1238.1 1225.05 1238.1 1216.32 Q1238.1 1208.13 1241.99 1203.27 Q1245.88 1198.38 1252.43 1198.38 Q1254.19 1198.38 1255.97 1198.73 Q1257.77 1199.08 1259.72 1199.77 Z" fill="#000000" fill-rule="nonzero" fill-opacity="1" /><path clip-path="url(#clip100)" d="M1631.63 1217.15 Q1628.3 1217.15 1626.38 1218.94 Q1624.48 1220.72 1624.48 1223.84 Q1624.48 1226.97 1626.38 1228.75 Q1628.3 1230.53 1631.63 1230.53 Q1634.97 1230.53 1636.89 1228.75 Q1638.81 1226.95 1638.81 1223.84 Q1638.81 1220.72 1636.89 1218.94 Q1634.99 1217.15 1631.63 1217.15 M1626.96 1215.16 Q1623.95 1214.42 1622.26 1212.36 Q1620.59 1210.3 1620.59 1207.34 Q1620.59 1203.2 1623.53 1200.79 Q1626.5 1198.38 1631.63 1198.38 Q1636.8 1198.38 1639.74 1200.79 Q1642.68 1203.2 1642.68 1207.34 Q1642.68 1210.3 1640.99 1212.36 Q1639.32 1214.42 1636.33 1215.16 Q1639.71 1215.95 1641.59 1218.24 Q1643.49 1220.53 1643.49 1223.84 Q1643.49 1228.87 1640.41 1231.55 Q1637.35 1234.24 1631.63 1234.24 Q1625.92 1234.24 1622.84 1231.55 Q1619.78 1228.87 1619.78 1223.84 Q1619.78 1220.53 1621.68 1218.24 Q1623.58 1215.95 1626.96 1215.16 M1625.25 1207.78 Q1625.25 1210.47 1626.91 1211.97 Q1628.6 1213.47 1631.63 1213.47 Q1634.64 1213.47 1636.33 1211.97 Q1638.05 1210.47 1638.05 1207.78 Q1638.05 1205.09 1636.33 1203.59 Q1634.64 1202.09 1631.63 1202.09 Q1628.6 1202.09 1626.91 1203.59 Q1625.25 1205.09 1625.25 1207.78 Z" fill="#000000" fill-rule="nonzero" fill-opacity="1" /><path clip-path="url(#clip100)" d="M1987.93 1229.63 L1995.57 1229.63 L1995.57 1203.27 L1987.26 1204.93 L1987.26 1200.67 L1995.52 1199.01 L2000.2 1199.01 L2000.2 1229.63 L2007.83 1229.63 L2007.83 1233.57 L1987.93 1233.57 L1987.93 1229.63 Z" fill="#000000" fill-rule="nonzero" fill-opacity="1" /><path clip-path="url(#clip100)" d="M2027.28 1202.09 Q2023.67 1202.09 2021.84 1205.65 Q2020.03 1209.19 2020.03 1216.32 Q2020.03 1223.43 2021.84 1226.99 Q2023.67 1230.53 2027.28 1230.53 Q2030.91 1230.53 2032.72 1226.99 Q2034.55 1223.43 2034.55 1216.32 Q2034.55 1209.19 2032.72 1205.65 Q2030.91 1202.09 2027.28 1202.09 M2027.28 1198.38 Q2033.09 1198.38 2036.14 1202.99 Q2039.22 1207.57 2039.22 1216.32 Q2039.22 1225.05 2036.14 1229.65 Q2033.09 1234.24 2027.28 1234.24 Q2021.47 1234.24 2018.39 1229.65 Q2015.33 1225.05 2015.33 1216.32 Q2015.33 1207.57 2018.39 1202.99 Q2021.47 1198.38 2027.28 1198.38 Z" fill="#000000" fill-rule="nonzero" fill-opacity="1" /><path clip-path="url(#clip100)" d="M1066.59 1266.49 L1073.08 1266.49 L1083.08 1306.66 L1093.04 1266.49 L1100.27 1266.49 L1110.26 1306.66 L1120.22 1266.49 L1126.75 1266.49 L1114.81 1314.01 L1106.73 1314.01 L1096.7 1272.76 L1086.58 1314.01 L1078.5 1314.01 L1066.59 1266.49 Z" fill="#000000" fill-rule="nonzero" fill-opacity="1" /><path clip-path="url(#clip100)" d="M1147.05 1296.1 Q1139.96 1296.1 1137.22 1297.72 Q1134.48 1299.34 1134.48 1303.26 Q1134.48 1306.38 1136.52 1308.22 Q1138.59 1310.04 1142.12 1310.04 Q1146.99 1310.04 1149.92 1306.6 Q1152.88 1303.13 1152.88 1297.4 L1152.88 1296.1 L1147.05 1296.1 M1158.73 1293.68 L1158.73 1314.01 L1152.88 1314.01 L1152.88 1308.6 Q1150.87 1311.85 1147.88 1313.41 Q1144.89 1314.94 1140.56 1314.94 Q1135.09 1314.94 1131.84 1311.88 Q1128.63 1308.79 1128.63 1303.64 Q1128.63 1297.62 1132.64 1294.57 Q1136.68 1291.51 1144.67 1291.51 L1152.88 1291.51 L1152.88 1290.94 Q1152.88 1286.9 1150.2 1284.7 Q1147.56 1282.47 1142.76 1282.47 Q1139.7 1282.47 1136.8 1283.2 Q1133.91 1283.94 1131.23 1285.4 L1131.23 1279.99 Q1134.45 1278.75 1137.47 1278.14 Q1140.5 1277.51 1143.36 1277.51 Q1151.1 1277.51 1154.92 1281.52 Q1158.73 1285.53 1158.73 1293.68 Z" fill="#000000" fill-rule="nonzero" fill-opacity="1" /><path clip-path="url(#clip100)" d="M1194.26 1295.78 Q1194.26 1289.41 1191.61 1285.91 Q1189 1282.41 1184.26 1282.41 Q1179.55 1282.41 1176.91 1285.91 Q1174.3 1289.41 1174.3 1295.78 Q1174.3 1302.11 1176.91 1305.61 Q1179.55 1309.11 1184.26 1309.11 Q1189 1309.11 1191.61 1305.61 Q1194.26 1302.11 1194.26 1295.78 M1200.11 1309.59 Q1200.11 1318.69 1196.07 1323.12 Q1192.03 1327.57 1183.69 1327.57 Q1180.6 1327.57 1177.86 1327.1 Q1175.13 1326.65 1172.55 1325.7 L1172.55 1320 Q1175.13 1321.4 1177.64 1322.07 Q1180.16 1322.74 1182.77 1322.74 Q1188.53 1322.74 1191.39 1319.71 Q1194.26 1316.72 1194.26 1310.64 L1194.26 1307.74 Q1192.44 1310.9 1189.61 1312.46 Q1186.78 1314.01 1182.83 1314.01 Q1176.27 1314.01 1172.26 1309.02 Q1168.25 1304.02 1168.25 1295.78 Q1168.25 1287.5 1172.26 1282.5 Q1176.27 1277.51 1182.83 1277.51 Q1186.78 1277.51 1189.61 1279.07 Q1192.44 1280.63 1194.26 1283.78 L1194.26 1278.37 L1200.11 1278.37 L1200.11 1309.59 Z" fill="#000000" fill-rule="nonzero" fill-opacity="1" /><path clip-path="url(#clip100)" d="M1242.67 1294.73 L1242.67 1297.59 L1215.74 1297.59 Q1216.12 1303.64 1219.37 1306.82 Q1222.65 1309.97 1228.47 1309.97 Q1231.84 1309.97 1235 1309.14 Q1238.18 1308.32 1241.3 1306.66 L1241.3 1312.2 Q1238.15 1313.54 1234.84 1314.24 Q1231.53 1314.94 1228.12 1314.94 Q1219.59 1314.94 1214.59 1309.97 Q1209.63 1305.01 1209.63 1296.54 Q1209.63 1287.79 1214.34 1282.66 Q1219.08 1277.51 1227.1 1277.51 Q1234.3 1277.51 1238.47 1282.15 Q1242.67 1286.77 1242.67 1294.73 M1236.81 1293.01 Q1236.75 1288.2 1234.1 1285.34 Q1231.49 1282.47 1227.17 1282.47 Q1222.26 1282.47 1219.3 1285.24 Q1216.38 1288.01 1215.93 1293.04 L1236.81 1293.01 Z" fill="#000000" fill-rule="nonzero" fill-opacity="1" /><polyline clip-path="url(#clip100)" style="stroke:#000000; stroke-linecap:round; stroke-linejoin:round; stroke-width:4; stroke-opacity:1; fill:none" points="244.502,1173.47 244.502,47.2441 "/>
<polyline clip-path="url(#clip100)" style="stroke:#000000; stroke-linecap:round; stroke-linejoin:round; stroke-width:4; stroke-opacity:1; fill:none" points="244.502,1141.6 263.4,1141.6 "/>
<polyline clip-path="url(#clip100)" style="stroke:#000000; stroke-linecap:round; stroke-linejoin:round; stroke-width:4; stroke-opacity:1; fill:none" points="244.502,875.977 263.4,875.977 "/>
<polyline clip-path="url(#clip100)" style="stroke:#000000; stroke-linecap:round; stroke-linejoin:round; stroke-width:4; stroke-opacity:1; fill:none" points="244.502,610.357 263.4,610.357 "/>
<polyline clip-path="url(#clip100)" style="stroke:#000000; stroke-linecap:round; stroke-linejoin:round; stroke-width:4; stroke-opacity:1; fill:none" points="244.502,344.738 263.4,344.738 "/>
<polyline clip-path="url(#clip100)" style="stroke:#000000; stroke-linecap:round; stroke-linejoin:round; stroke-width:4; stroke-opacity:1; fill:none" points="244.502,79.1184 263.4,79.1184 "/>
<path clip-path="url(#clip100)" d="M125.485 1127.4 Q121.873 1127.4 120.045 1130.96 Q118.239 1134.5 118.239 1141.63 Q118.239 1148.74 120.045 1152.3 Q121.873 1155.84 125.485 1155.84 Q129.119 1155.84 130.924 1152.3 Q132.753 1148.74 132.753 1141.63 Q132.753 1134.5 130.924 1130.96 Q129.119 1127.4 125.485 1127.4 M125.485 1123.69 Q131.295 1123.69 134.35 1128.3 Q137.429 1132.88 137.429 1141.63 Q137.429 1150.36 134.35 1154.96 Q131.295 1159.55 125.485 1159.55 Q119.674 1159.55 116.596 1154.96 Q113.54 1150.36 113.54 1141.63 Q113.54 1132.88 116.596 1128.3 Q119.674 1123.69 125.485 1123.69 Z" fill="#000000" fill-rule="nonzero" fill-opacity="1" /><path clip-path="url(#clip100)" d="M145.646 1153 L150.531 1153 L150.531 1158.88 L145.646 1158.88 L145.646 1153 Z" fill="#000000" fill-rule="nonzero" fill-opacity="1" /><path clip-path="url(#clip100)" d="M170.716 1127.4 Q167.105 1127.4 165.276 1130.96 Q163.47 1134.5 163.47 1141.63 Q163.47 1148.74 165.276 1152.3 Q167.105 1155.84 170.716 1155.84 Q174.35 1155.84 176.156 1152.3 Q177.984 1148.74 177.984 1141.63 Q177.984 1134.5 176.156 1130.96 Q174.35 1127.4 170.716 1127.4 M170.716 1123.69 Q176.526 1123.69 179.581 1128.3 Q182.66 1132.88 182.66 1141.63 Q182.66 1150.36 179.581 1154.96 Q176.526 1159.55 170.716 1159.55 Q164.906 1159.55 161.827 1154.96 Q158.771 1150.36 158.771 1141.63 Q158.771 1132.88 161.827 1128.3 Q164.906 1123.69 170.716 1123.69 Z" fill="#000000" fill-rule="nonzero" fill-opacity="1" /><path clip-path="url(#clip100)" d="M200.878 1127.4 Q197.267 1127.4 195.438 1130.96 Q193.632 1134.5 193.632 1141.63 Q193.632 1148.74 195.438 1152.3 Q197.267 1155.84 200.878 1155.84 Q204.512 1155.84 206.317 1152.3 Q208.146 1148.74 208.146 1141.63 Q208.146 1134.5 206.317 1130.96 Q204.512 1127.4 200.878 1127.4 M200.878 1123.69 Q206.688 1123.69 209.743 1128.3 Q212.822 1132.88 212.822 1141.63 Q212.822 1150.36 209.743 1154.96 Q206.688 1159.55 200.878 1159.55 Q195.067 1159.55 191.989 1154.96 Q188.933 1150.36 188.933 1141.63 Q188.933 1132.88 191.989 1128.3 Q195.067 1123.69 200.878 1123.69 Z" fill="#000000" fill-rule="nonzero" fill-opacity="1" /><path clip-path="url(#clip100)" d="M126.48 861.776 Q122.869 861.776 121.04 865.34 Q119.235 868.882 119.235 876.012 Q119.235 883.118 121.04 886.683 Q122.869 890.225 126.48 890.225 Q130.114 890.225 131.92 886.683 Q133.748 883.118 133.748 876.012 Q133.748 868.882 131.92 865.34 Q130.114 861.776 126.48 861.776 M126.48 858.072 Q132.29 858.072 135.346 862.678 Q138.424 867.262 138.424 876.012 Q138.424 884.738 135.346 889.345 Q132.29 893.928 126.48 893.928 Q120.67 893.928 117.591 889.345 Q114.536 884.738 114.536 876.012 Q114.536 867.262 117.591 862.678 Q120.67 858.072 126.48 858.072 Z" fill="#000000" fill-rule="nonzero" fill-opacity="1" /><path clip-path="url(#clip100)" d="M146.642 887.377 L151.526 887.377 L151.526 893.257 L146.642 893.257 L146.642 887.377 Z" fill="#000000" fill-rule="nonzero" fill-opacity="1" /><path clip-path="url(#clip100)" d="M165.739 889.322 L182.058 889.322 L182.058 893.257 L160.114 893.257 L160.114 889.322 Q162.776 886.567 167.359 881.938 Q171.966 877.285 173.146 875.942 Q175.392 873.419 176.271 871.683 Q177.174 869.924 177.174 868.234 Q177.174 865.479 175.23 863.743 Q173.308 862.007 170.207 862.007 Q168.007 862.007 165.554 862.771 Q163.123 863.535 160.345 865.086 L160.345 860.364 Q163.17 859.229 165.623 858.651 Q168.077 858.072 170.114 858.072 Q175.484 858.072 178.679 860.757 Q181.873 863.442 181.873 867.933 Q181.873 870.063 181.063 871.984 Q180.276 873.882 178.169 876.475 Q177.591 877.146 174.489 880.363 Q171.387 883.558 165.739 889.322 Z" fill="#000000" fill-rule="nonzero" fill-opacity="1" /><path clip-path="url(#clip100)" d="M191.919 858.697 L210.276 858.697 L210.276 862.632 L196.202 862.632 L196.202 871.104 Q197.22 870.757 198.239 870.595 Q199.257 870.41 200.276 870.41 Q206.063 870.41 209.442 873.581 Q212.822 876.752 212.822 882.169 Q212.822 887.748 209.35 890.85 Q205.878 893.928 199.558 893.928 Q197.382 893.928 195.114 893.558 Q192.868 893.187 190.461 892.447 L190.461 887.748 Q192.544 888.882 194.767 889.437 Q196.989 889.993 199.466 889.993 Q203.47 889.993 205.808 887.887 Q208.146 885.78 208.146 882.169 Q208.146 878.558 205.808 876.451 Q203.47 874.345 199.466 874.345 Q197.591 874.345 195.716 874.762 Q193.864 875.178 191.919 876.058 L191.919 858.697 Z" fill="#000000" fill-rule="nonzero" fill-opacity="1" /><path clip-path="url(#clip100)" d="M125.485 596.156 Q121.873 596.156 120.045 599.721 Q118.239 603.263 118.239 610.392 Q118.239 617.499 120.045 621.063 Q121.873 624.605 125.485 624.605 Q129.119 624.605 130.924 621.063 Q132.753 617.499 132.753 610.392 Q132.753 603.263 130.924 599.721 Q129.119 596.156 125.485 596.156 M125.485 592.452 Q131.295 592.452 134.35 597.059 Q137.429 601.642 137.429 610.392 Q137.429 619.119 134.35 623.725 Q131.295 628.309 125.485 628.309 Q119.674 628.309 116.596 623.725 Q113.54 619.119 113.54 610.392 Q113.54 601.642 116.596 597.059 Q119.674 592.452 125.485 592.452 Z" fill="#000000" fill-rule="nonzero" fill-opacity="1" /><path clip-path="url(#clip100)" d="M145.646 621.758 L150.531 621.758 L150.531 627.637 L145.646 627.637 L145.646 621.758 Z" fill="#000000" fill-rule="nonzero" fill-opacity="1" /><path clip-path="url(#clip100)" d="M160.762 593.077 L179.119 593.077 L179.119 597.013 L165.045 597.013 L165.045 605.485 Q166.063 605.138 167.082 604.976 Q168.1 604.79 169.119 604.79 Q174.906 604.79 178.285 607.962 Q181.665 611.133 181.665 616.55 Q181.665 622.128 178.193 625.23 Q174.72 628.309 168.401 628.309 Q166.225 628.309 163.957 627.938 Q161.711 627.568 159.304 626.827 L159.304 622.128 Q161.387 623.262 163.609 623.818 Q165.832 624.374 168.308 624.374 Q172.313 624.374 174.651 622.267 Q176.989 620.161 176.989 616.55 Q176.989 612.938 174.651 610.832 Q172.313 608.725 168.308 608.725 Q166.433 608.725 164.558 609.142 Q162.707 609.559 160.762 610.438 L160.762 593.077 Z" fill="#000000" fill-rule="nonzero" fill-opacity="1" /><path clip-path="url(#clip100)" d="M200.878 596.156 Q197.267 596.156 195.438 599.721 Q193.632 603.263 193.632 610.392 Q193.632 617.499 195.438 621.063 Q197.267 624.605 200.878 624.605 Q204.512 624.605 206.317 621.063 Q208.146 617.499 208.146 610.392 Q208.146 603.263 206.317 599.721 Q204.512 596.156 200.878 596.156 M200.878 592.452 Q206.688 592.452 209.743 597.059 Q212.822 601.642 212.822 610.392 Q212.822 619.119 209.743 623.725 Q206.688 628.309 200.878 628.309 Q195.067 628.309 191.989 623.725 Q188.933 619.119 188.933 610.392 Q188.933 601.642 191.989 597.059 Q195.067 592.452 200.878 592.452 Z" fill="#000000" fill-rule="nonzero" fill-opacity="1" /><path clip-path="url(#clip100)" d="M126.48 330.537 Q122.869 330.537 121.04 334.101 Q119.235 337.643 119.235 344.773 Q119.235 351.879 121.04 355.444 Q122.869 358.986 126.48 358.986 Q130.114 358.986 131.92 355.444 Q133.748 351.879 133.748 344.773 Q133.748 337.643 131.92 334.101 Q130.114 330.537 126.48 330.537 M126.48 326.833 Q132.29 326.833 135.346 331.439 Q138.424 336.023 138.424 344.773 Q138.424 353.499 135.346 358.106 Q132.29 362.689 126.48 362.689 Q120.67 362.689 117.591 358.106 Q114.536 353.499 114.536 344.773 Q114.536 336.023 117.591 331.439 Q120.67 326.833 126.48 326.833 Z" fill="#000000" fill-rule="nonzero" fill-opacity="1" /><path clip-path="url(#clip100)" d="M146.642 356.138 L151.526 356.138 L151.526 362.018 L146.642 362.018 L146.642 356.138 Z" fill="#000000" fill-rule="nonzero" fill-opacity="1" /><path clip-path="url(#clip100)" d="M160.531 327.458 L182.753 327.458 L182.753 329.449 L170.207 362.018 L165.322 362.018 L177.128 331.393 L160.531 331.393 L160.531 327.458 Z" fill="#000000" fill-rule="nonzero" fill-opacity="1" /><path clip-path="url(#clip100)" d="M191.919 327.458 L210.276 327.458 L210.276 331.393 L196.202 331.393 L196.202 339.865 Q197.22 339.518 198.239 339.356 Q199.257 339.171 200.276 339.171 Q206.063 339.171 209.442 342.342 Q212.822 345.513 212.822 350.93 Q212.822 356.509 209.35 359.611 Q205.878 362.689 199.558 362.689 Q197.382 362.689 195.114 362.319 Q192.868 361.948 190.461 361.208 L190.461 356.509 Q192.544 357.643 194.767 358.199 Q196.989 358.754 199.466 358.754 Q203.47 358.754 205.808 356.648 Q208.146 354.541 208.146 350.93 Q208.146 347.319 205.808 345.212 Q203.47 343.106 199.466 343.106 Q197.591 343.106 195.716 343.523 Q193.864 343.939 191.919 344.819 L191.919 327.458 Z" fill="#000000" fill-rule="nonzero" fill-opacity="1" /><path clip-path="url(#clip100)" d="M116.295 92.4633 L123.934 92.4633 L123.934 66.0977 L115.623 67.7643 L115.623 63.5051 L123.887 61.8384 L128.563 61.8384 L128.563 92.4633 L136.202 92.4633 L136.202 96.3984 L116.295 96.3984 L116.295 92.4633 Z" fill="#000000" fill-rule="nonzero" fill-opacity="1" /><path clip-path="url(#clip100)" d="M145.646 90.5188 L150.531 90.5188 L150.531 96.3984 L145.646 96.3984 L145.646 90.5188 Z" fill="#000000" fill-rule="nonzero" fill-opacity="1" /><path clip-path="url(#clip100)" d="M170.716 64.9171 Q167.105 64.9171 165.276 68.4819 Q163.47 72.0236 163.47 79.1532 Q163.47 86.2596 165.276 89.8244 Q167.105 93.366 170.716 93.366 Q174.35 93.366 176.156 89.8244 Q177.984 86.2596 177.984 79.1532 Q177.984 72.0236 176.156 68.4819 Q174.35 64.9171 170.716 64.9171 M170.716 61.2134 Q176.526 61.2134 179.581 65.8199 Q182.66 70.4032 182.66 79.1532 Q182.66 87.88 179.581 92.4864 Q176.526 97.0697 170.716 97.0697 Q164.906 97.0697 161.827 92.4864 Q158.771 87.88 158.771 79.1532 Q158.771 70.4032 161.827 65.8199 Q164.906 61.2134 170.716 61.2134 Z" fill="#000000" fill-rule="nonzero" fill-opacity="1" /><path clip-path="url(#clip100)" d="M200.878 64.9171 Q197.267 64.9171 195.438 68.4819 Q193.632 72.0236 193.632 79.1532 Q193.632 86.2596 195.438 89.8244 Q197.267 93.366 200.878 93.366 Q204.512 93.366 206.317 89.8244 Q208.146 86.2596 208.146 79.1532 Q208.146 72.0236 206.317 68.4819 Q204.512 64.9171 200.878 64.9171 M200.878 61.2134 Q206.688 61.2134 209.743 65.8199 Q212.822 70.4032 212.822 79.1532 Q212.822 87.88 209.743 92.4864 Q206.688 97.0697 200.878 97.0697 Q195.067 97.0697 191.989 92.4864 Q188.933 87.88 188.933 79.1532 Q188.933 70.4032 191.989 65.8199 Q195.067 61.2134 200.878 61.2134 Z" fill="#000000" fill-rule="nonzero" fill-opacity="1" /><path clip-path="url(#clip100)" d="M23.7444 678.852 L30.5239 678.852 Q27.5002 682.099 26.0043 685.791 Q24.5083 689.451 24.5083 693.589 Q24.5083 701.737 29.5054 706.066 Q34.4707 710.395 43.8919 710.395 Q53.2813 710.395 58.2784 706.066 Q63.2436 701.737 63.2436 693.589 Q63.2436 689.451 61.7477 685.791 Q60.2518 682.099 57.2281 678.852 L63.9439 678.852 Q66.2355 682.226 67.3814 686.014 Q68.5272 689.77 68.5272 693.971 Q68.5272 704.761 61.9387 710.967 Q55.3183 717.174 43.8919 717.174 Q32.4336 717.174 25.8451 710.967 Q19.2248 704.761 19.2248 693.971 Q19.2248 689.706 20.3706 685.95 Q21.4846 682.163 23.7444 678.852 Z" fill="#000000" fill-rule="nonzero" fill-opacity="1" /><path clip-path="url(#clip100)" d="M46.0881 639.544 L67.6042 639.544 L67.6042 645.401 L46.279 645.401 Q41.2183 645.401 38.7038 647.374 Q36.1894 649.347 36.1894 653.294 Q36.1894 658.037 39.2131 660.774 Q42.2368 663.511 47.4567 663.511 L67.6042 663.511 L67.6042 669.399 L18.079 669.399 L18.079 663.511 L37.4944 663.511 Q34.2797 661.41 32.6883 658.578 Q31.0968 655.713 31.0968 651.989 Q31.0968 645.846 34.9163 642.695 Q38.7038 639.544 46.0881 639.544 Z" fill="#000000" fill-rule="nonzero" fill-opacity="1" /><path clip-path="url(#clip100)" d="M36.0621 614.05 Q36.0621 618.76 39.7542 621.497 Q43.4145 624.235 49.812 624.235 Q56.2095 624.235 59.9017 621.529 Q63.5619 618.792 63.5619 614.05 Q63.5619 609.371 59.8698 606.633 Q56.1777 603.896 49.812 603.896 Q43.4781 603.896 39.786 606.633 Q36.0621 609.371 36.0621 614.05 M31.0968 614.05 Q31.0968 606.411 36.0621 602.05 Q41.0273 597.69 49.812 597.69 Q58.5649 597.69 63.5619 602.05 Q68.5272 606.411 68.5272 614.05 Q68.5272 621.72 63.5619 626.081 Q58.5649 630.409 49.812 630.409 Q41.0273 630.409 36.0621 626.081 Q31.0968 621.72 31.0968 614.05 Z" fill="#000000" fill-rule="nonzero" fill-opacity="1" /><path clip-path="url(#clip100)" d="M31.9562 587.982 L31.9562 582.126 L67.6042 582.126 L67.6042 587.982 L31.9562 587.982 M18.079 587.982 L18.079 582.126 L25.495 582.126 L25.495 587.982 L18.079 587.982 Z" fill="#000000" fill-rule="nonzero" fill-opacity="1" /><path clip-path="url(#clip100)" d="M33.3248 544.218 L38.7993 544.218 Q37.4307 546.7 36.7623 549.215 Q36.0621 551.697 36.0621 554.244 Q36.0621 559.941 39.6905 563.092 Q43.2872 566.243 49.812 566.243 Q56.3369 566.243 59.9653 563.092 Q63.5619 559.941 63.5619 554.244 Q63.5619 551.697 62.8935 549.215 Q62.1933 546.7 60.8247 544.218 L66.2355 544.218 Q67.3814 546.669 67.9543 549.31 Q68.5272 551.92 68.5272 554.88 Q68.5272 562.933 63.4664 567.675 Q58.4057 572.418 49.812 572.418 Q41.091 572.418 36.0939 567.644 Q31.0968 562.837 31.0968 554.498 Q31.0968 551.793 31.6697 549.215 Q32.2108 546.637 33.3248 544.218 Z" fill="#000000" fill-rule="nonzero" fill-opacity="1" /><path clip-path="url(#clip100)" d="M48.3161 503.541 L51.1806 503.541 L51.1806 530.468 Q57.2281 530.086 60.4109 526.839 Q63.5619 523.561 63.5619 517.736 Q63.5619 514.363 62.7344 511.212 Q61.9069 508.029 60.2518 504.909 L65.7899 504.909 Q67.1267 508.061 67.827 511.371 Q68.5272 514.681 68.5272 518.087 Q68.5272 526.617 63.5619 531.614 Q58.5967 536.579 50.1303 536.579 Q41.3774 536.579 36.2531 531.868 Q31.0968 527.126 31.0968 519.105 Q31.0968 511.912 35.7438 507.742 Q40.3589 503.541 48.3161 503.541 M46.5973 509.397 Q41.7912 509.461 38.9266 512.103 Q36.0621 514.713 36.0621 519.041 Q36.0621 523.943 38.8312 526.903 Q41.6002 529.831 46.6292 530.277 L46.5973 509.397 Z" fill="#000000" fill-rule="nonzero" fill-opacity="1" /><circle clip-path="url(#clip101)" cx="296.019" cy="1141.6" r="14.4" fill="#009af9" fill-rule="evenodd" fill-opacity="1" stroke="#000000" stroke-opacity="1" stroke-width="2.688"/>
<circle clip-path="url(#clip101)" cx="331.064" cy="1141.6" r="14.4" fill="#009af9" fill-rule="evenodd" fill-opacity="1" stroke="#000000" stroke-opacity="1" stroke-width="2.688"/>
<circle clip-path="url(#clip101)" cx="366.109" cy="1141.6" r="14.4" fill="#009af9" fill-rule="evenodd" fill-opacity="1" stroke="#000000" stroke-opacity="1" stroke-width="2.688"/>
<circle clip-path="url(#clip101)" cx="401.155" cy="1141.6" r="14.4" fill="#009af9" fill-rule="evenodd" fill-opacity="1" stroke="#000000" stroke-opacity="1" stroke-width="2.688"/>
<circle clip-path="url(#clip101)" cx="436.2" cy="1141.6" r="14.4" fill="#009af9" fill-rule="evenodd" fill-opacity="1" stroke="#000000" stroke-opacity="1" stroke-width="2.688"/>
<circle clip-path="url(#clip101)" cx="471.245" cy="1141.6" r="14.4" fill="#009af9" fill-rule="evenodd" fill-opacity="1" stroke="#000000" stroke-opacity="1" stroke-width="2.688"/>
<circle clip-path="url(#clip101)" cx="506.291" cy="1141.6" r="14.4" fill="#009af9" fill-rule="evenodd" fill-opacity="1" stroke="#000000" stroke-opacity="1" stroke-width="2.688"/>
<circle clip-path="url(#clip101)" cx="541.336" cy="1141.6" r="14.4" fill="#009af9" fill-rule="evenodd" fill-opacity="1" stroke="#000000" stroke-opacity="1" stroke-width="2.688"/>
<circle clip-path="url(#clip101)" cx="576.381" cy="1141.6" r="14.4" fill="#009af9" fill-rule="evenodd" fill-opacity="1" stroke="#000000" stroke-opacity="1" stroke-width="2.688"/>
<circle clip-path="url(#clip101)" cx="611.427" cy="1141.6" r="14.4" fill="#009af9" fill-rule="evenodd" fill-opacity="1" stroke="#000000" stroke-opacity="1" stroke-width="2.688"/>
<circle clip-path="url(#clip101)" cx="646.472" cy="1141.6" r="14.4" fill="#009af9" fill-rule="evenodd" fill-opacity="1" stroke="#000000" stroke-opacity="1" stroke-width="2.688"/>
<circle clip-path="url(#clip101)" cx="681.517" cy="1141.6" r="14.4" fill="#009af9" fill-rule="evenodd" fill-opacity="1" stroke="#000000" stroke-opacity="1" stroke-width="2.688"/>
<circle clip-path="url(#clip101)" cx="716.562" cy="1141.6" r="14.4" fill="#009af9" fill-rule="evenodd" fill-opacity="1" stroke="#000000" stroke-opacity="1" stroke-width="2.688"/>
<circle clip-path="url(#clip101)" cx="751.608" cy="1141.6" r="14.4" fill="#009af9" fill-rule="evenodd" fill-opacity="1" stroke="#000000" stroke-opacity="1" stroke-width="2.688"/>
<circle clip-path="url(#clip101)" cx="786.653" cy="1141.6" r="14.4" fill="#009af9" fill-rule="evenodd" fill-opacity="1" stroke="#000000" stroke-opacity="1" stroke-width="2.688"/>
<circle clip-path="url(#clip101)" cx="821.698" cy="1141.6" r="14.4" fill="#009af9" fill-rule="evenodd" fill-opacity="1" stroke="#000000" stroke-opacity="1" stroke-width="2.688"/>
<circle clip-path="url(#clip101)" cx="856.744" cy="1141.6" r="14.4" fill="#009af9" fill-rule="evenodd" fill-opacity="1" stroke="#000000" stroke-opacity="1" stroke-width="2.688"/>
<circle clip-path="url(#clip101)" cx="891.789" cy="1141.6" r="14.4" fill="#009af9" fill-rule="evenodd" fill-opacity="1" stroke="#000000" stroke-opacity="1" stroke-width="2.688"/>
<circle clip-path="url(#clip101)" cx="926.834" cy="1141.6" r="14.4" fill="#009af9" fill-rule="evenodd" fill-opacity="1" stroke="#000000" stroke-opacity="1" stroke-width="2.688"/>
<circle clip-path="url(#clip101)" cx="961.88" cy="1141.6" r="14.4" fill="#009af9" fill-rule="evenodd" fill-opacity="1" stroke="#000000" stroke-opacity="1" stroke-width="2.688"/>
<circle clip-path="url(#clip101)" cx="996.925" cy="1141.6" r="14.4" fill="#009af9" fill-rule="evenodd" fill-opacity="1" stroke="#000000" stroke-opacity="1" stroke-width="2.688"/>
<circle clip-path="url(#clip101)" cx="1031.97" cy="1141.6" r="14.4" fill="#009af9" fill-rule="evenodd" fill-opacity="1" stroke="#000000" stroke-opacity="1" stroke-width="2.688"/>
<circle clip-path="url(#clip101)" cx="1067.02" cy="1141.6" r="14.4" fill="#009af9" fill-rule="evenodd" fill-opacity="1" stroke="#000000" stroke-opacity="1" stroke-width="2.688"/>
<circle clip-path="url(#clip101)" cx="1102.06" cy="1141.6" r="14.4" fill="#009af9" fill-rule="evenodd" fill-opacity="1" stroke="#000000" stroke-opacity="1" stroke-width="2.688"/>
<circle clip-path="url(#clip101)" cx="1137.11" cy="1141.6" r="14.4" fill="#009af9" fill-rule="evenodd" fill-opacity="1" stroke="#000000" stroke-opacity="1" stroke-width="2.688"/>
<circle clip-path="url(#clip101)" cx="1172.15" cy="1141.6" r="14.4" fill="#009af9" fill-rule="evenodd" fill-opacity="1" stroke="#000000" stroke-opacity="1" stroke-width="2.688"/>
<circle clip-path="url(#clip101)" cx="1207.2" cy="1141.6" r="14.4" fill="#009af9" fill-rule="evenodd" fill-opacity="1" stroke="#000000" stroke-opacity="1" stroke-width="2.688"/>
<circle clip-path="url(#clip101)" cx="1242.24" cy="1141.6" r="14.4" fill="#009af9" fill-rule="evenodd" fill-opacity="1" stroke="#000000" stroke-opacity="1" stroke-width="2.688"/>
<circle clip-path="url(#clip101)" cx="1277.29" cy="1141.6" r="14.4" fill="#009af9" fill-rule="evenodd" fill-opacity="1" stroke="#000000" stroke-opacity="1" stroke-width="2.688"/>
<circle clip-path="url(#clip101)" cx="1312.33" cy="1141.6" r="14.4" fill="#009af9" fill-rule="evenodd" fill-opacity="1" stroke="#000000" stroke-opacity="1" stroke-width="2.688"/>
<circle clip-path="url(#clip101)" cx="1347.38" cy="1141.6" r="14.4" fill="#009af9" fill-rule="evenodd" fill-opacity="1" stroke="#000000" stroke-opacity="1" stroke-width="2.688"/>
<circle clip-path="url(#clip101)" cx="1382.42" cy="1141.6" r="14.4" fill="#009af9" fill-rule="evenodd" fill-opacity="1" stroke="#000000" stroke-opacity="1" stroke-width="2.688"/>
<circle clip-path="url(#clip101)" cx="1417.47" cy="1141.6" r="14.4" fill="#009af9" fill-rule="evenodd" fill-opacity="1" stroke="#000000" stroke-opacity="1" stroke-width="2.688"/>
<circle clip-path="url(#clip101)" cx="1452.51" cy="1141.6" r="14.4" fill="#009af9" fill-rule="evenodd" fill-opacity="1" stroke="#000000" stroke-opacity="1" stroke-width="2.688"/>
<circle clip-path="url(#clip101)" cx="1487.56" cy="1141.6" r="14.4" fill="#009af9" fill-rule="evenodd" fill-opacity="1" stroke="#000000" stroke-opacity="1" stroke-width="2.688"/>
<circle clip-path="url(#clip101)" cx="1522.6" cy="1141.6" r="14.4" fill="#009af9" fill-rule="evenodd" fill-opacity="1" stroke="#000000" stroke-opacity="1" stroke-width="2.688"/>
<circle clip-path="url(#clip101)" cx="1557.65" cy="1141.6" r="14.4" fill="#009af9" fill-rule="evenodd" fill-opacity="1" stroke="#000000" stroke-opacity="1" stroke-width="2.688"/>
<circle clip-path="url(#clip101)" cx="1592.7" cy="1141.6" r="14.4" fill="#009af9" fill-rule="evenodd" fill-opacity="1" stroke="#000000" stroke-opacity="1" stroke-width="2.688"/>
<circle clip-path="url(#clip101)" cx="1627.74" cy="79.1184" r="14.4" fill="#009af9" fill-rule="evenodd" fill-opacity="1" stroke="#000000" stroke-opacity="1" stroke-width="2.688"/>
<circle clip-path="url(#clip101)" cx="1662.79" cy="79.1184" r="14.4" fill="#009af9" fill-rule="evenodd" fill-opacity="1" stroke="#000000" stroke-opacity="1" stroke-width="2.688"/>
<circle clip-path="url(#clip101)" cx="1697.83" cy="79.1184" r="14.4" fill="#009af9" fill-rule="evenodd" fill-opacity="1" stroke="#000000" stroke-opacity="1" stroke-width="2.688"/>
<circle clip-path="url(#clip101)" cx="1732.88" cy="79.1184" r="14.4" fill="#009af9" fill-rule="evenodd" fill-opacity="1" stroke="#000000" stroke-opacity="1" stroke-width="2.688"/>
<circle clip-path="url(#clip101)" cx="1767.92" cy="79.1184" r="14.4" fill="#009af9" fill-rule="evenodd" fill-opacity="1" stroke="#000000" stroke-opacity="1" stroke-width="2.688"/>
<circle clip-path="url(#clip101)" cx="1802.97" cy="79.1184" r="14.4" fill="#009af9" fill-rule="evenodd" fill-opacity="1" stroke="#000000" stroke-opacity="1" stroke-width="2.688"/>
<circle clip-path="url(#clip101)" cx="1838.01" cy="79.1184" r="14.4" fill="#009af9" fill-rule="evenodd" fill-opacity="1" stroke="#000000" stroke-opacity="1" stroke-width="2.688"/>
<circle clip-path="url(#clip101)" cx="1873.06" cy="79.1184" r="14.4" fill="#009af9" fill-rule="evenodd" fill-opacity="1" stroke="#000000" stroke-opacity="1" stroke-width="2.688"/>
<circle clip-path="url(#clip101)" cx="1908.1" cy="79.1184" r="14.4" fill="#009af9" fill-rule="evenodd" fill-opacity="1" stroke="#000000" stroke-opacity="1" stroke-width="2.688"/>
<circle clip-path="url(#clip101)" cx="1943.15" cy="79.1184" r="14.4" fill="#009af9" fill-rule="evenodd" fill-opacity="1" stroke="#000000" stroke-opacity="1" stroke-width="2.688"/>
<circle clip-path="url(#clip101)" cx="1978.19" cy="79.1184" r="14.4" fill="#009af9" fill-rule="evenodd" fill-opacity="1" stroke="#000000" stroke-opacity="1" stroke-width="2.688"/>
<circle clip-path="url(#clip101)" cx="2013.24" cy="79.1184" r="14.4" fill="#009af9" fill-rule="evenodd" fill-opacity="1" stroke="#000000" stroke-opacity="1" stroke-width="2.688"/>
<path clip-path="url(#clip100)" d="M305.177 188.465 L1001.85 188.465 L1001.85 84.785 L305.177 84.785  Z" fill="#ffffff" fill-rule="evenodd" fill-opacity="1"/>
<polyline clip-path="url(#clip100)" style="stroke:#000000; stroke-linecap:round; stroke-linejoin:round; stroke-width:4; stroke-opacity:1; fill:none" points="305.177,188.465 1001.85,188.465 1001.85,84.785 305.177,84.785 305.177,188.465 "/>
<circle clip-path="url(#clip100)" cx="386.077" cy="136.625" r="20.48" fill="#009af9" fill-rule="evenodd" fill-opacity="1" stroke="#000000" stroke-opacity="1" stroke-width="3.82293"/>
<path clip-path="url(#clip100)" d="M482.811 123.951 L476.468 141.15 L489.176 141.15 L482.811 123.951 M480.172 119.345 L485.473 119.345 L498.644 153.905 L493.783 153.905 L490.635 145.039 L475.056 145.039 L471.908 153.905 L466.978 153.905 L480.172 119.345 Z" fill="#000000" fill-rule="nonzero" fill-opacity="1" /><path clip-path="url(#clip100)" d="M521.329 128.975 L521.329 132.956 Q519.524 131.961 517.695 131.475 Q515.889 130.965 514.037 130.965 Q509.894 130.965 507.602 133.604 Q505.311 136.22 505.311 140.965 Q505.311 145.711 507.602 148.349 Q509.894 150.965 514.037 150.965 Q515.889 150.965 517.695 150.479 Q519.524 149.97 521.329 148.974 L521.329 152.91 Q519.547 153.743 517.625 154.16 Q515.727 154.576 513.574 154.576 Q507.718 154.576 504.269 150.896 Q500.82 147.215 500.82 140.965 Q500.82 134.623 504.292 130.988 Q507.787 127.354 513.852 127.354 Q515.82 127.354 517.695 127.771 Q519.57 128.164 521.329 128.975 Z" fill="#000000" fill-rule="nonzero" fill-opacity="1" /><path clip-path="url(#clip100)" d="M547.394 128.975 L547.394 132.956 Q545.588 131.961 543.76 131.475 Q541.954 130.965 540.102 130.965 Q535.959 130.965 533.667 133.604 Q531.375 136.22 531.375 140.965 Q531.375 145.711 533.667 148.349 Q535.959 150.965 540.102 150.965 Q541.954 150.965 543.76 150.479 Q545.588 149.97 547.394 148.974 L547.394 152.91 Q545.611 153.743 543.69 154.16 Q541.792 154.576 539.639 154.576 Q533.783 154.576 530.334 150.896 Q526.885 147.215 526.885 140.965 Q526.885 134.623 530.357 130.988 Q533.852 127.354 539.917 127.354 Q541.885 127.354 543.76 127.771 Q545.634 128.164 547.394 128.975 Z" fill="#000000" fill-rule="nonzero" fill-opacity="1" /><path clip-path="url(#clip100)" d="M576.977 139.877 L576.977 141.961 L557.394 141.961 Q557.671 146.359 560.033 148.674 Q562.417 150.965 566.653 150.965 Q569.107 150.965 571.398 150.363 Q573.713 149.761 575.982 148.558 L575.982 152.586 Q573.69 153.558 571.283 154.067 Q568.875 154.576 566.398 154.576 Q560.195 154.576 556.56 150.965 Q552.949 147.354 552.949 141.197 Q552.949 134.831 556.375 131.104 Q559.824 127.354 565.658 127.354 Q570.889 127.354 573.921 130.734 Q576.977 134.09 576.977 139.877 M572.718 138.627 Q572.671 135.132 570.75 133.049 Q568.852 130.965 565.704 130.965 Q562.139 130.965 559.986 132.979 Q557.857 134.993 557.533 138.65 L572.718 138.627 Z" fill="#000000" fill-rule="nonzero" fill-opacity="1" /><path clip-path="url(#clip100)" d="M588.088 150.016 L588.088 163.766 L583.806 163.766 L583.806 127.979 L588.088 127.979 L588.088 131.914 Q589.431 129.6 591.468 128.488 Q593.528 127.354 596.375 127.354 Q601.097 127.354 604.037 131.104 Q607 134.854 607 140.965 Q607 147.076 604.037 150.826 Q601.097 154.576 596.375 154.576 Q593.528 154.576 591.468 153.465 Q589.431 152.331 588.088 150.016 M602.579 140.965 Q602.579 136.266 600.634 133.604 Q598.713 130.919 595.333 130.919 Q591.954 130.919 590.009 133.604 Q588.088 136.266 588.088 140.965 Q588.088 145.664 590.009 148.349 Q591.954 151.011 595.333 151.011 Q598.713 151.011 600.634 148.349 Q602.579 145.664 602.579 140.965 Z" fill="#000000" fill-rule="nonzero" fill-opacity="1" /><path clip-path="url(#clip100)" d="M618.273 120.618 L618.273 127.979 L627.046 127.979 L627.046 131.289 L618.273 131.289 L618.273 145.363 Q618.273 148.535 619.129 149.437 Q620.009 150.34 622.671 150.34 L627.046 150.34 L627.046 153.905 L622.671 153.905 Q617.741 153.905 615.866 152.076 Q613.991 150.224 613.991 145.363 L613.991 131.289 L610.866 131.289 L610.866 127.979 L613.991 127.979 L613.991 120.618 L618.273 120.618 Z" fill="#000000" fill-rule="nonzero" fill-opacity="1" /><path clip-path="url(#clip100)" d="M657.949 117.933 Q654.847 123.257 653.342 128.465 Q651.838 133.674 651.838 139.021 Q651.838 144.368 653.342 149.623 Q654.87 154.854 657.949 160.155 L654.245 160.155 Q650.773 154.715 649.037 149.461 Q647.324 144.206 647.324 139.021 Q647.324 133.859 649.037 128.627 Q650.75 123.396 654.245 117.933 L657.949 117.933 Z" fill="#000000" fill-rule="nonzero" fill-opacity="1" /><path clip-path="url(#clip100)" d="M667.625 149.97 L675.263 149.97 L675.263 123.604 L666.953 125.271 L666.953 121.012 L675.217 119.345 L679.893 119.345 L679.893 149.97 L687.532 149.97 L687.532 153.905 L667.625 153.905 L667.625 149.97 Z" fill="#000000" fill-rule="nonzero" fill-opacity="1" /><path clip-path="url(#clip100)" d="M695.703 117.933 L699.407 117.933 Q702.879 123.396 704.592 128.627 Q706.328 133.859 706.328 139.021 Q706.328 144.206 704.592 149.461 Q702.879 154.715 699.407 160.155 L695.703 160.155 Q698.782 154.854 700.286 149.623 Q701.814 144.368 701.814 139.021 Q701.814 133.674 700.286 128.465 Q698.782 123.257 695.703 117.933 Z" fill="#000000" fill-rule="nonzero" fill-opacity="1" /><path clip-path="url(#clip100)" d="M737.508 119.345 L741.444 119.345 L729.407 158.303 L725.471 158.303 L737.508 119.345 Z" fill="#000000" fill-rule="nonzero" fill-opacity="1" /><path clip-path="url(#clip100)" d="M777.555 137.701 Q779.059 138.211 780.471 139.877 Q781.906 141.544 783.342 144.461 L788.087 153.905 L783.064 153.905 L778.643 145.039 Q776.93 141.567 775.309 140.433 Q773.712 139.299 770.934 139.299 L765.842 139.299 L765.842 153.905 L761.166 153.905 L761.166 119.345 L771.721 119.345 Q777.647 119.345 780.564 121.822 Q783.48 124.299 783.48 129.299 Q783.48 132.563 781.953 134.715 Q780.448 136.868 777.555 137.701 M765.842 123.188 L765.842 135.456 L771.721 135.456 Q775.101 135.456 776.814 133.905 Q778.55 132.331 778.55 129.299 Q778.55 126.266 776.814 124.738 Q775.101 123.188 771.721 123.188 L765.842 123.188 Z" fill="#000000" fill-rule="nonzero" fill-opacity="1" /><path clip-path="url(#clip100)" d="M813.966 139.877 L813.966 141.961 L794.383 141.961 Q794.661 146.359 797.022 148.674 Q799.406 150.965 803.642 150.965 Q806.096 150.965 808.388 150.363 Q810.703 149.761 812.971 148.558 L812.971 152.586 Q810.679 153.558 808.272 154.067 Q805.865 154.576 803.388 154.576 Q797.184 154.576 793.55 150.965 Q789.939 147.354 789.939 141.197 Q789.939 134.831 793.365 131.104 Q796.814 127.354 802.647 127.354 Q807.878 127.354 810.911 130.734 Q813.966 134.09 813.966 139.877 M809.707 138.627 Q809.661 135.132 807.74 133.049 Q805.841 130.965 802.693 130.965 Q799.129 130.965 796.976 132.979 Q794.846 134.993 794.522 138.65 L809.707 138.627 Z" fill="#000000" fill-rule="nonzero" fill-opacity="1" /><path clip-path="url(#clip100)" d="M820.957 127.979 L825.216 127.979 L825.216 154.368 Q825.216 159.322 823.318 161.544 Q821.443 163.766 817.253 163.766 L815.633 163.766 L815.633 160.155 L816.767 160.155 Q819.198 160.155 820.077 159.021 Q820.957 157.91 820.957 154.368 L820.957 127.979 M820.957 117.887 L825.216 117.887 L825.216 123.28 L820.957 123.28 L820.957 117.887 Z" fill="#000000" fill-rule="nonzero" fill-opacity="1" /><path clip-path="url(#clip100)" d="M856.304 139.877 L856.304 141.961 L836.721 141.961 Q836.999 146.359 839.36 148.674 Q841.744 150.965 845.98 150.965 Q848.434 150.965 850.725 150.363 Q853.04 149.761 855.309 148.558 L855.309 152.586 Q853.017 153.558 850.61 154.067 Q848.202 154.576 845.725 154.576 Q839.522 154.576 835.888 150.965 Q832.276 147.354 832.276 141.197 Q832.276 134.831 835.702 131.104 Q839.151 127.354 844.985 127.354 Q850.216 127.354 853.249 130.734 Q856.304 134.09 856.304 139.877 M852.045 138.627 Q851.999 135.132 850.077 133.049 Q848.179 130.965 845.031 130.965 Q841.466 130.965 839.313 132.979 Q837.184 134.993 836.86 138.65 L852.045 138.627 Z" fill="#000000" fill-rule="nonzero" fill-opacity="1" /><path clip-path="url(#clip100)" d="M881.952 128.975 L881.952 132.956 Q880.147 131.961 878.318 131.475 Q876.512 130.965 874.661 130.965 Q870.517 130.965 868.225 133.604 Q865.934 136.22 865.934 140.965 Q865.934 145.711 868.225 148.349 Q870.517 150.965 874.661 150.965 Q876.512 150.965 878.318 150.479 Q880.147 149.97 881.952 148.974 L881.952 152.91 Q880.17 153.743 878.248 154.16 Q876.35 154.576 874.198 154.576 Q868.341 154.576 864.892 150.896 Q861.443 147.215 861.443 140.965 Q861.443 134.623 864.915 130.988 Q868.411 127.354 874.475 127.354 Q876.443 127.354 878.318 127.771 Q880.193 128.164 881.952 128.975 Z" fill="#000000" fill-rule="nonzero" fill-opacity="1" /><path clip-path="url(#clip100)" d="M893.572 120.618 L893.572 127.979 L902.346 127.979 L902.346 131.289 L893.572 131.289 L893.572 145.363 Q893.572 148.535 894.429 149.437 Q895.309 150.34 897.971 150.34 L902.346 150.34 L902.346 153.905 L897.971 153.905 Q893.04 153.905 891.165 152.076 Q889.29 150.224 889.29 145.363 L889.29 131.289 L886.165 131.289 L886.165 127.979 L889.29 127.979 L889.29 120.618 L893.572 120.618 Z" fill="#000000" fill-rule="nonzero" fill-opacity="1" /><path clip-path="url(#clip100)" d="M933.248 117.933 Q930.146 123.257 928.642 128.465 Q927.137 133.674 927.137 139.021 Q927.137 144.368 928.642 149.623 Q930.169 154.854 933.248 160.155 L929.544 160.155 Q926.072 154.715 924.336 149.461 Q922.623 144.206 922.623 139.021 Q922.623 133.859 924.336 128.627 Q926.049 123.396 929.544 117.933 L933.248 117.933 Z" fill="#000000" fill-rule="nonzero" fill-opacity="1" /><path clip-path="url(#clip100)" d="M952.114 122.424 Q948.503 122.424 946.674 125.988 Q944.868 129.53 944.868 136.66 Q944.868 143.766 946.674 147.331 Q948.503 150.873 952.114 150.873 Q955.748 150.873 957.554 147.331 Q959.382 143.766 959.382 136.66 Q959.382 129.53 957.554 125.988 Q955.748 122.424 952.114 122.424 M952.114 118.72 Q957.924 118.72 960.979 123.326 Q964.058 127.91 964.058 136.66 Q964.058 145.387 960.979 149.993 Q957.924 154.576 952.114 154.576 Q946.304 154.576 943.225 149.993 Q940.169 145.387 940.169 136.66 Q940.169 127.91 943.225 123.326 Q946.304 118.72 952.114 118.72 Z" fill="#000000" fill-rule="nonzero" fill-opacity="1" /><path clip-path="url(#clip100)" d="M971.003 117.933 L974.706 117.933 Q978.178 123.396 979.891 128.627 Q981.628 133.859 981.628 139.021 Q981.628 144.206 979.891 149.461 Q978.178 154.715 974.706 160.155 L971.003 160.155 Q974.081 154.854 975.586 149.623 Q977.114 144.368 977.114 139.021 Q977.114 133.674 975.586 128.465 Q974.081 123.257 971.003 117.933 Z" fill="#000000" fill-rule="nonzero" fill-opacity="1" /></svg>
